<svg width="66" height="27" viewBox="0 0 66 27" fill="none" xmlns="http://www.w3.org/2000/svg">
<path d="M11.3 25.881C14.1663 25.881 16.49 23.5574 16.49 20.691C16.49 17.8247 14.1663 15.501 11.3 15.501C8.43363 15.501 6.10999 17.8247 6.10999 20.691C6.10999 23.5574 8.43363 25.881 11.3 25.881Z" stroke="#737373" stroke-width="2" stroke-miterlimit="10"/>
<path d="M51.85 25.881C54.7163 25.881 57.04 23.5574 57.04 20.691C57.04 17.8247 54.7163 15.501 51.85 15.501C48.9836 15.501 46.66 17.8247 46.66 20.691C46.66 23.5574 48.9836 25.881 51.85 25.881Z" stroke="#737373" stroke-width="2" stroke-miterlimit="10"/>
<path d="M64.27 17.661L57.49 20.251H57.02C56.8 17.591 54.57 15.501 51.85 15.501C49.13 15.501 46.86 17.631 46.68 20.331L16.48 20.571C16.42 17.751 14.13 15.501 11.3 15.501C8.47 15.501 6.13 17.801 6.11 20.651L1 20.691V12.321C1 12.321 8.39 7.50104 15.97 7.24104C15.97 7.24104 15.98 7.23104 16 7.22104C16.01 7.22104 16.02 7.21104 16.03 7.21104H16.04C16.98 6.68104 27.45 0.911042 32.81 1.00104C33.78 1.02104 34.69 1.03104 35.51 1.03104C37.96 1.05104 39.73 1.03104 40.72 1.02104C41.34 1.02104 41.95 1.10104 42.54 1.29104C44.24 1.84104 47.99 3.06104 50.98 4.13104C51.08 4.17104 51.17 4.20104 51.26 4.23104C53.13 4.91104 54.64 5.50104 55.09 5.81104C56.51 6.79104 63.64 7.15104 63.64 7.15104L64.27 17.661Z" stroke="#737373" stroke-width="2" stroke-miterlimit="10"/>
<path d="M15.87 7.22104H48.49C49.05 7.22104 49.56 6.93104 49.86 6.46104L51.34 4.10104" stroke="#737373" stroke-width="2" stroke-miterlimit="10"/>
<path d="M35.51 1.03104V20.401" stroke="#737373" stroke-width="2" stroke-miterlimit="10"/>
<path d="M29.5 10.501L32.5 10.501" stroke="#737373" stroke-miterlimit="10"/>
<path d="M60.5 10.501L63.5 10.501" stroke="#737373" stroke-miterlimit="10"/>
</svg>
