<svg width="65" height="41" viewBox="0 0 65 41" fill="none" xmlns="http://www.w3.org/2000/svg">
<path d="M61.3164 10.264C61.1318 10.0803 60.8817 9.97694 60.6201 9.97694H57.0539C56.5095 9.97694 56.069 10.4152 56.069 10.9568V14.7855H52.2855V12.9291C52.2855 12.3874 51.845 11.9492 51.3006 11.9492H44.5278L41.2569 7.85447C41.0693 7.62002 40.7856 7.48414 40.4855 7.48414H29.2031V1.95979H41.8349C42.3793 1.95979 42.8198 1.52152 42.8198 0.979895C42.8198 0.438273 42.3793 0 41.8349 0H14.6015C14.0572 0 13.6167 0.438273 13.6167 0.979895C13.6167 1.52152 14.0572 1.95979 14.6015 1.95979H27.2334V7.48414H16.3231C16.0115 7.48414 15.7181 7.63055 15.5325 7.87935L12.4914 11.9492H8.26927C7.72491 11.9492 7.28442 12.3874 7.28442 12.9291V23.2256H1.9697V12.22C1.9697 11.6784 1.52921 11.2401 0.984848 11.2401C0.440489 11.2401 0 11.6784 0 12.22V36.1901C0 36.7317 0.440489 37.17 0.984848 37.17C1.52921 37.17 1.9697 36.7317 1.9697 36.1901V25.1854H7.28442V35.481C7.28442 36.0226 7.72491 36.4609 8.26927 36.4609H12.4914L15.5325 40.5307C15.7181 40.7795 16.0115 40.9259 16.3231 40.9259H40.4855C40.7856 40.9259 41.0693 40.7901 41.2569 40.5556L44.5278 36.4609H51.3006C51.845 36.4609 52.2855 36.0226 52.2855 35.481V33.6255H56.069V37.4532C56.069 37.9949 56.5095 38.4331 57.0539 38.4331H60.6201C60.8817 38.4331 61.1318 38.3298 61.3164 38.1461L64.7115 34.7691C64.8961 34.5853 65 34.3365 65 34.0762V14.3338C65 14.0736 64.8961 13.8248 64.7115 13.641L61.3164 10.264ZM50.3158 34.5011H44.0527C43.7527 34.5011 43.4689 34.637 43.2814 34.8714L40.0104 38.9661H16.8184L13.7773 34.8963C13.5917 34.6475 13.2983 34.5011 12.9867 34.5011H9.25411V13.909H12.9867C13.2983 13.909 13.5917 13.7626 13.7773 13.5137L16.8184 9.44393H40.0104L43.2814 13.5386C43.4689 13.7731 43.7527 13.909 44.0527 13.909H50.3158V34.5011V34.5011ZM63.0303 33.6705L60.2123 36.4733H58.0387V32.6456C58.0387 32.104 57.5982 31.6657 57.0539 31.6657H52.2855V16.7453H57.0539C57.5982 16.7453 58.0387 16.307 58.0387 15.7654V11.9367H60.2123L63.0303 14.7396V33.6705Z" fill="#737373"/>
<rect x="13.2432" width="30.0926" height="2.0463" rx="1.02315" fill="#737373"/>
<rect x="29.2518" y="1.4444" width="6.01852" height="2.0463" transform="rotate(90 29.2518 1.4444)" fill="#737373"/>
<rect x="7.34375" y="25.1573" width="6.01852" height="2.0463" transform="rotate(-180 7.34375 25.1573)" fill="#737373"/>
<rect y="37.3149" width="26.4815" height="2.0463" rx="1.02315" transform="rotate(-90 0 37.3149)" fill="#737373"/>
<path d="M28.4986 27.1661L28.6501 27.1671L27.7401 33.3149C27.7188 33.4587 27.7903 33.6002 27.9178 33.6663C27.966 33.6914 28.0182 33.7036 28.0698 33.7036C28.155 33.7036 28.239 33.6706 28.3029 33.6074L28.5208 27.0163L28.4986 27.1661ZM28.4986 27.1661L27.5918 33.2929M28.4986 27.1661L26.8103 27.1556L26.8102 27.1556C26.6723 27.1547 26.5414 27.0945 26.4505 26.9901L26.5637 26.8916L26.4509 26.9905C26.36 26.8868 26.3173 26.7488 26.3327 26.612L26.4818 26.6288L26.3327 26.612L27.2657 18.3388L27.2657 18.3387C27.2934 18.0935 27.4985 17.9055 27.7462 17.9055H35.3729C35.536 17.9055 35.6876 17.9884 35.7768 18.1254C35.8656 18.2618 35.8813 18.4337 35.8183 18.5841C35.8183 18.5841 35.8182 18.5841 35.8182 18.5842L33.53 24.0495L36.9805 24.0588L36.9805 24.0588L36.9801 24.2088C37.1156 24.2091 37.2375 24.2927 37.2885 24.42C37.3394 24.5476 37.3093 24.6936 37.2122 24.7895L27.5918 33.2929M27.5918 33.2929L27.7389 33.3148L27.5918 33.293C27.5612 33.499 27.6634 33.7033 27.8487 33.7994C27.9186 33.8358 27.9945 33.8536 28.0698 33.8536C28.1938 33.8536 28.316 33.8054 28.4083 33.7141L28.4084 33.7141L37.3176 24.8962L27.5918 33.2929ZM29.5374 26.7534C29.5583 26.6137 29.518 26.472 29.4274 26.3643L29.4272 26.3641C29.3364 26.2567 29.2034 26.1936 29.0622 26.1926L29.0621 26.1926L27.3546 26.1821M29.5374 26.7534L29.3891 26.7313M29.5374 26.7534L29.5375 26.7533L29.3891 26.7313M29.5374 26.7534L28.7614 31.9971M29.3891 26.7313L28.5838 32.1729L28.7614 31.9971M29.3891 26.7313C29.4036 26.6341 29.3756 26.5356 29.3127 26.4609C29.2498 26.3866 29.1581 26.3433 29.0612 26.3426L27.3377 26.332L27.3546 26.1821M28.7614 31.9971L28.7248 32.2444L36.0107 25.033L35.7981 25.0324L28.7614 31.9971ZM27.3546 26.1821L28.1778 18.8824M27.3546 26.1821L28.1778 18.8824M28.1778 18.8824H34.6434L32.3559 24.3458L32.3559 24.3459L32.4943 24.4038M28.1778 18.8824L32.8005 24.8744C32.6886 24.8741 32.5843 24.8169 32.5229 24.7224C32.4614 24.6275 32.4506 24.5079 32.4943 24.4038M32.4943 24.4038L34.806 18.8824L32.4943 24.4038Z" fill="#737373" stroke="#737373" stroke-width="0.3"/>
</svg>
