<svg width="40" height="50" viewBox="0 0 40 50" fill="none" xmlns="http://www.w3.org/2000/svg">
<g clip-path="url(#clip0_622_13)">
<path d="M23.5758 5.53217H8.83574C8.35307 5.53217 7.95703 5.9282 7.95703 6.41088V15.198C7.95703 15.6807 8.35307 16.0767 8.83574 16.0767H23.5758C24.0585 16.0767 24.4546 15.6807 24.4546 15.198V6.41088C24.4669 5.9282 24.0709 5.53217 23.5758 5.53217ZM22.6971 14.3069H9.72683V7.28959H22.6971V14.3069Z" fill="#737373"/>
<path d="M39.2929 13.6386L31.434 7.0297C31.2608 6.88119 31.0256 6.80693 30.7905 6.81931C30.5553 6.84406 30.3326 6.95544 30.184 7.12871C29.8746 7.5 29.9118 8.05693 30.2954 8.36634L33.835 11.3366V16.4604C33.835 16.7079 33.9464 16.9431 34.1321 17.104L37.7583 20.1609V32.9208C37.7583 34.3936 36.6321 35.6064 35.1964 35.6807C34.4538 35.7178 33.736 35.4455 33.1915 34.9381C32.6593 34.4307 32.3623 33.7376 32.3623 32.995V21.0396C32.3623 18.9109 30.7533 17.104 28.6246 16.8317L28.5132 16.8193V5.34653C28.5132 2.40099 26.0999 0 23.1296 0H9.29295C6.32265 0 3.90929 2.40099 3.90929 5.34653V43.4035H1.45879C0.976118 43.4035 0.580078 43.7995 0.580078 44.2822V49.1089C0.580078 49.5916 0.976118 49.9876 1.45879 49.9876H30.939C31.4217 49.9876 31.8177 49.5916 31.8177 49.1089V44.2822C31.8177 43.7995 31.4217 43.4035 30.939 43.4035H28.4885V18.5767L28.637 18.6139C29.7756 18.8861 30.5553 19.8762 30.5553 21.0272V32.8837C30.5553 34.1089 31.0628 35.297 31.9415 36.1634C32.8078 37.0049 33.934 37.4629 35.1098 37.4381C37.5355 37.401 39.5033 35.396 39.5033 32.9827V14.1213C39.5157 13.9356 39.4291 13.75 39.2929 13.6386ZM5.69146 5.34653C5.69146 3.36634 7.31275 1.75743 9.29295 1.75743H23.1296C25.1222 1.75743 26.7434 3.36634 26.7434 5.34653V43.3168H5.69146V5.34653ZM30.0603 45.1733V48.2302H2.34988V45.1733H30.0603ZM37.7583 17.8465L35.6048 16.0272V12.8342L37.7583 14.6535V17.8465Z" fill="#737373"/>
<path d="M20.728 30.7673C20.728 31.2871 20.3072 31.6955 19.7874 31.6955H12.634C12.1142 31.6955 11.6934 31.2748 11.6934 30.7673C11.6934 30.2599 12.1142 29.8391 12.634 29.8391H19.775C20.2948 29.8391 20.728 30.2599 20.728 30.7673Z" fill="#737373"/>
<path d="M20.728 34.8639C20.728 35.3837 20.3072 35.7921 19.7874 35.7921H12.634C12.1142 35.7921 11.6934 35.3713 11.6934 34.8639C11.6934 34.3564 12.1142 33.9356 12.634 33.9356H19.775C20.2948 33.9356 20.728 34.3564 20.728 34.8639Z" fill="#737373"/>
<path d="M20.728 38.9604C20.728 39.4802 20.3072 39.8886 19.7874 39.8886H12.634C12.1142 39.8886 11.6934 39.4678 11.6934 38.9604C11.6934 38.453 12.1142 38.0322 12.634 38.0322H19.775C20.2948 38.0322 20.728 38.4406 20.728 38.9604Z" fill="#737373"/>
<path d="M16.2117 18.5396C13.9964 18.5396 12.1895 20.3342 12.1895 22.5371C12.1895 24.7401 13.9964 26.5347 16.2117 26.5347C18.4271 26.5347 20.2216 24.7401 20.2216 22.5371C20.234 20.3342 18.4271 18.5396 16.2117 18.5396ZM16.2117 24.9381C14.8875 24.9381 13.8107 23.8614 13.8107 22.5371C13.8107 21.2129 14.8875 20.1485 16.2117 20.1485C17.536 20.1485 18.6127 21.2253 18.6127 22.5371C18.6251 23.8614 17.536 24.9381 16.2117 24.9381Z" fill="#737373"/>
</g>
<defs>
<clipPath id="clip0_622_13">
<rect width="38.9356" height="50" fill="white" transform="translate(0.580078)"/>
</clipPath>
</defs>
</svg>
