<svg width="46" height="52" viewBox="0 0 46 52" fill="none" xmlns="http://www.w3.org/2000/svg">
<path d="M37.25 37.25L44.75 1C44.75 1 31.625 3.5 31.625 8.5C31.625 11.625 36.625 13.5 34.75 15.375C32.875 17.25 26 19.125 26 24.125C26 27.25 28.0507 29.5743 26 31.625C24.125 33.5 22.25 32.5179 19.125 31.625C15.625 30.625 8.5 29.75 6 30.375C3.5 31 0.999963 32.25 1 36C1.00001 38.0615 2.25 40.375 5.375 41C8.5 41.625 12.25 38.5 17.25 38.5C22.25 38.5 28.5 42.25 32.25 42.25C36 42.25 37.25 37.25 37.25 37.25Z" stroke="#737373" stroke-width="2" stroke-linejoin="round"/>
<path d="M6 41L2.25 51H43.5L36 41" stroke="#737373" stroke-width="2" stroke-linejoin="round"/>
</svg>
