<svg width="70" height="44" viewBox="0 0 70 44" fill="none" xmlns="http://www.w3.org/2000/svg">
<path d="M45.4302 14.6946L54.0051 21.2581L66.9297 24.2602C67.7562 24.4519 68.3424 25.1899 68.3424 26.0381V33.936C68.3424 34.6855 67.7347 35.2919 66.9869 35.2919H63.6067C63.6067 31.373 60.431 28.1949 56.5117 28.1949C52.5924 28.1949 49.4167 31.373 49.4167 35.2919H23.446C23.446 31.373 20.2703 28.1949 16.351 28.1949C12.4318 28.1949 9.25605 31.373 9.25605 35.2919H7.626L1 31.8621V22.142L9.63067 19.8994C9.63067 19.8994 16.8172 12.329 21.8517 12.2574C21.876 12.2574 23.3445 12.2574 23.3688 12.2574" stroke="#737373" stroke-width="2" stroke-miterlimit="10" stroke-linecap="round"/>
<path d="M16.3567 42.3903C20.2752 42.3903 23.4517 39.2128 23.4517 35.2933C23.4517 31.3737 20.2752 28.1963 16.3567 28.1963C12.4383 28.1963 9.26172 31.3737 9.26172 35.2933C9.26172 39.2128 12.4383 42.3903 16.3567 42.3903Z" stroke="#737373" stroke-width="2" stroke-miterlimit="10"/>
<path d="M56.5177 42.3903C60.4362 42.3903 63.6127 39.2129 63.6127 35.2933C63.6127 31.3737 60.4362 28.1963 56.5177 28.1963C52.5993 28.1963 49.4227 31.3737 49.4227 35.2933C49.4227 39.2129 52.5993 42.3903 56.5177 42.3903Z" stroke="#737373" stroke-width="2" stroke-miterlimit="10"/>
<path d="M44.1546 5.71252V10.0891C44.1546 17.1146 40.1682 23.5522 34.3915 25.9765C28.6134 23.5522 24.627 17.1146 24.627 10.0891V5.71252C26.5301 4.84864 28.0543 3.32397 28.918 1.42029H39.8636C40.7287 3.32254 42.2529 4.84864 44.1546 5.71252Z" stroke="#737373" stroke-width="2" stroke-miterlimit="10"/>
<path d="M29.5674 11.931L33.5867 17.0972L40.2632 10.4207" stroke="#737373" stroke-width="2" stroke-miterlimit="10" stroke-linecap="round"/>
</svg>
