<svg width="49" height="49" viewBox="0 0 49 49" fill="none" xmlns="http://www.w3.org/2000/svg">
<path fill-rule="evenodd" clip-rule="evenodd" d="M45.2117 0.229449C45.4335 0.366632 45.6166 0.558196 45.7436 0.785977C45.8706 1.01376 45.9374 1.27021 45.9375 1.53101V47.4685C45.9375 47.8746 45.7762 48.2641 45.489 48.5513C45.2018 48.8384 44.8124 48.9998 44.4062 48.9998H35.2188C34.8126 48.9998 34.4232 48.8384 34.136 48.5513C33.8488 48.2641 33.6875 47.8746 33.6875 47.4685V42.8748H30.625V47.4685C30.625 47.8746 30.4637 48.2641 30.1765 48.5513C29.8893 48.8384 29.4999 48.9998 29.0938 48.9998H1.53125C1.12514 48.9998 0.735658 48.8384 0.448493 48.5513C0.161328 48.2641 0 47.8746 0 47.4685V30.6248C0.000243918 30.3035 0.101516 29.9905 0.289483 29.73C0.477449 29.4694 0.742589 29.2746 1.04738 29.1731L18.375 23.3973V13.781C18.375 13.4969 18.4541 13.2183 18.6034 12.9766C18.7526 12.7348 18.9662 12.5394 19.2203 12.4121L43.7203 0.162074C43.9539 0.0451049 44.2137 -0.010111 44.4747 0.00168235C44.7358 0.0134757 44.9895 0.0918858 45.2117 0.229449V0.229449ZM18.375 26.6251L3.0625 31.7273V45.9373H18.375V26.6251ZM21.4375 45.9373H27.5625V41.3435C27.5625 40.9374 27.7238 40.5479 28.011 40.2607C28.2982 39.9736 28.6876 39.8123 29.0938 39.8123H35.2188C35.6249 39.8123 36.0143 39.9736 36.3015 40.2607C36.5887 40.5479 36.75 40.9374 36.75 41.3435V45.9373H42.875V4.00857L21.4375 14.7273V45.9373Z" fill="#656060"/>
<path d="M6.125 33.6875H9.1875V36.75H6.125V33.6875ZM12.25 33.6875H15.3125V36.75H12.25V33.6875ZM6.125 39.8125H9.1875V42.875H6.125V39.8125ZM12.25 39.8125H15.3125V42.875H12.25V39.8125ZM24.5 27.5625H27.5625V30.625H24.5V27.5625ZM30.625 27.5625H33.6875V30.625H30.625V27.5625ZM24.5 33.6875H27.5625V36.75H24.5V33.6875ZM30.625 33.6875H33.6875V36.75H30.625V33.6875ZM36.75 27.5625H39.8125V30.625H36.75V27.5625ZM36.75 33.6875H39.8125V36.75H36.75V33.6875ZM24.5 21.4375H27.5625V24.5H24.5V21.4375ZM30.625 21.4375H33.6875V24.5H30.625V21.4375ZM36.75 21.4375H39.8125V24.5H36.75V21.4375ZM24.5 15.3125H27.5625V18.375H24.5V15.3125ZM30.625 15.3125H33.6875V18.375H30.625V15.3125ZM36.75 15.3125H39.8125V18.375H36.75V15.3125ZM36.75 9.1875H39.8125V12.25H36.75V9.1875Z" fill="#656060"/>
</svg>
