<svg width="17" height="28" viewBox="0 0 17 28" fill="none" xmlns="http://www.w3.org/2000/svg">
<line x1="7" y1="26.5" x2="17" y2="26.5" stroke="#2B7EBF"/>
<path d="M13.6439 5.68215L12.7912 5.38822L13.1736 4.18254C13.6146 2.77113 12.8501 1.27135 11.4681 0.801022L9.35086 0.12475C7.93924 -0.316453 6.43967 0.44801 5.99864 1.85962L0.0293316 20.2086C1.97179e-07 20.2968 0 20.385 0 20.5028L1.08795 27.413C1.11728 27.6483 1.29389 27.8247 1.49962 27.9129C1.73488 27.9718 1.97015 27.9129 2.14653 27.7658L7.08654 22.7963C7.14541 22.7374 7.20408 22.6492 7.23361 22.561L12.4089 6.59383L13.2616 6.85843C13.6439 6.97597 13.8496 7.38763 13.7026 7.74065L11.9088 13.2395C11.7913 13.5629 11.9677 13.9157 12.3205 14.0335C12.644 14.151 12.9968 13.9746 13.1145 13.6218L14.9082 8.12298C15.2319 7.12304 14.6732 6.00558 13.6439 5.68212L13.6439 5.68215ZM2.11695 26.0013L1.38181 21.267L5.49847 22.5902L2.11695 26.0013ZM6.23382 21.5318L1.41132 19.9734L1.94052 18.356L6.76301 19.9145L6.23382 21.5318ZM7.14533 18.7088L2.32284 17.1503L5.49863 7.38772L10.3211 8.94621L7.14533 18.7088ZM10.7033 7.76999L5.8808 6.2115L6.38066 4.65301L11.2032 6.2115L10.7033 7.76999ZM11.9972 3.80015L11.6148 5.00583L6.79235 3.44734L7.17469 2.24166C7.40996 1.50653 8.23328 1.06555 8.96842 1.33015L11.0856 2.00642C11.8207 2.24169 12.2324 3.06502 11.9971 3.80015H11.9972Z" fill="#2B7EBF"/>
</svg>
