<svg width="18" height="24" viewBox="0 0 18 24" fill="none" xmlns="http://www.w3.org/2000/svg">
<path d="M15 1.5C15.3978 1.5 15.7794 1.65804 16.0607 1.93934C16.342 2.22064 16.5 2.60218 16.5 3V21C16.5 21.3978 16.342 21.7794 16.0607 22.0607C15.7794 22.342 15.3978 22.5 15 22.5H3C2.60218 22.5 2.22064 22.342 1.93934 22.0607C1.65804 21.7794 1.5 21.3978 1.5 21V3C1.5 2.60218 1.65804 2.22064 1.93934 1.93934C2.22064 1.65804 2.60218 1.5 3 1.5H15ZM3 0C2.20435 0 1.44129 0.316071 0.87868 0.87868C0.31607 1.44129 0 2.20435 0 3V21C0 21.7956 0.31607 22.5587 0.87868 23.1213C1.44129 23.6839 2.20435 24 3 24H15C15.7956 24 16.5587 23.6839 17.1213 23.1213C17.6839 22.5587 18 21.7956 18 21V3C18 2.20435 17.6839 1.44129 17.1213 0.87868C16.5587 0.316071 15.7956 0 15 0L3 0Z" fill="#017CC2"/>
<path d="M3 3.75C3 3.55109 3.07902 3.36032 3.21967 3.21967C3.36032 3.07902 3.55109 3 3.75 3H14.25C14.4489 3 14.6397 3.07902 14.7803 3.21967C14.921 3.36032 15 3.55109 15 3.75V6.75C15 6.94891 14.921 7.13968 14.7803 7.28033C14.6397 7.42098 14.4489 7.5 14.25 7.5H3.75C3.55109 7.5 3.36032 7.42098 3.21967 7.28033C3.07902 7.13968 3 6.94891 3 6.75V3.75ZM3 9.75C3 9.55109 3.07902 9.36032 3.21967 9.21967C3.36032 9.07902 3.55109 9 3.75 9H5.25C5.44891 9 5.63968 9.07902 5.78033 9.21967C5.92098 9.36032 6 9.55109 6 9.75V11.25C6 11.4489 5.92098 11.6397 5.78033 11.7803C5.63968 11.921 5.44891 12 5.25 12H3.75C3.55109 12 3.36032 11.921 3.21967 11.7803C3.07902 11.6397 3 11.4489 3 11.25V9.75ZM3 14.25C3 14.0511 3.07902 13.8603 3.21967 13.7197C3.36032 13.579 3.55109 13.5 3.75 13.5H5.25C5.44891 13.5 5.63968 13.579 5.78033 13.7197C5.92098 13.8603 6 14.0511 6 14.25V15.75C6 15.9489 5.92098 16.1397 5.78033 16.2803C5.63968 16.421 5.44891 16.5 5.25 16.5H3.75C3.55109 16.5 3.36032 16.421 3.21967 16.2803C3.07902 16.1397 3 15.9489 3 15.75V14.25ZM3 18.75C3 18.5511 3.07902 18.3603 3.21967 18.2197C3.36032 18.079 3.55109 18 3.75 18H5.25C5.44891 18 5.63968 18.079 5.78033 18.2197C5.92098 18.3603 6 18.5511 6 18.75V20.25C6 20.4489 5.92098 20.6397 5.78033 20.7803C5.63968 20.921 5.44891 21 5.25 21H3.75C3.55109 21 3.36032 20.921 3.21967 20.7803C3.07902 20.6397 3 20.4489 3 20.25V18.75ZM7.5 9.75C7.5 9.55109 7.57902 9.36032 7.71967 9.21967C7.86032 9.07902 8.05109 9 8.25 9H9.75C9.94891 9 10.1397 9.07902 10.2803 9.21967C10.421 9.36032 10.5 9.55109 10.5 9.75V11.25C10.5 11.4489 10.421 11.6397 10.2803 11.7803C10.1397 11.921 9.94891 12 9.75 12H8.25C8.05109 12 7.86032 11.921 7.71967 11.7803C7.57902 11.6397 7.5 11.4489 7.5 11.25V9.75ZM7.5 14.25C7.5 14.0511 7.57902 13.8603 7.71967 13.7197C7.86032 13.579 8.05109 13.5 8.25 13.5H9.75C9.94891 13.5 10.1397 13.579 10.2803 13.7197C10.421 13.8603 10.5 14.0511 10.5 14.25V15.75C10.5 15.9489 10.421 16.1397 10.2803 16.2803C10.1397 16.421 9.94891 16.5 9.75 16.5H8.25C8.05109 16.5 7.86032 16.421 7.71967 16.2803C7.57902 16.1397 7.5 15.9489 7.5 15.75V14.25ZM7.5 18.75C7.5 18.5511 7.57902 18.3603 7.71967 18.2197C7.86032 18.079 8.05109 18 8.25 18H9.75C9.94891 18 10.1397 18.079 10.2803 18.2197C10.421 18.3603 10.5 18.5511 10.5 18.75V20.25C10.5 20.4489 10.421 20.6397 10.2803 20.7803C10.1397 20.921 9.94891 21 9.75 21H8.25C8.05109 21 7.86032 20.921 7.71967 20.7803C7.57902 20.6397 7.5 20.4489 7.5 20.25V18.75ZM12 9.75C12 9.55109 12.079 9.36032 12.2197 9.21967C12.3603 9.07902 12.5511 9 12.75 9H14.25C14.4489 9 14.6397 9.07902 14.7803 9.21967C14.921 9.36032 15 9.55109 15 9.75V11.25C15 11.4489 14.921 11.6397 14.7803 11.7803C14.6397 11.921 14.4489 12 14.25 12H12.75C12.5511 12 12.3603 11.921 12.2197 11.7803C12.079 11.6397 12 11.4489 12 11.25V9.75ZM12 14.25C12 14.0511 12.079 13.8603 12.2197 13.7197C12.3603 13.579 12.5511 13.5 12.75 13.5H14.25C14.4489 13.5 14.6397 13.579 14.7803 13.7197C14.921 13.8603 15 14.0511 15 14.25V20.25C15 20.4489 14.921 20.6397 14.7803 20.7803C14.6397 20.921 14.4489 21 14.25 21H12.75C12.5511 21 12.3603 20.921 12.2197 20.7803C12.079 20.6397 12 20.4489 12 20.25V14.25Z" fill="#017CC2"/>
</svg>
