<svg width="23" height="24" viewBox="0 0 23 24" fill="none" xmlns="http://www.w3.org/2000/svg">
<path d="M0 0V22.2857H13.7143V20.5714H1.71429V1.71429H10.2857V6.85714H15.4286V8.57143H17.1429V5.65714L16.8857 5.4L11.7429 0.257143L11.4857 0H0V0ZM12 2.91429L14.2286 5.14286H12V2.91429ZM3.42857 8.57143V10.2857H13.7143V8.57143H3.42857ZM18 10.2857V12C16.5429 12.2571 15.4286 13.4571 15.4286 15C15.4286 16.7143 16.7143 18 18.4286 18H19.2857C19.9714 18 20.5714 18.6 20.5714 19.2857C20.5714 19.9714 19.9714 20.5714 19.2857 20.5714H16.2857V22.2857H18V24H19.7143V22.2857C21.1714 22.0286 22.2857 20.8286 22.2857 19.2857C22.2857 17.5714 21 16.2857 19.2857 16.2857H18.4286C17.7429 16.2857 17.1429 15.6857 17.1429 15C17.1429 14.3143 17.7429 13.7143 18.4286 13.7143H21.4286V12H19.7143V10.2857H18ZM3.42857 12.8571V14.5714H9.42857V12.8571H3.42857ZM11.1429 12.8571V14.5714H13.7143V12.8571H11.1429ZM3.42857 16.2857V18H9.42857V16.2857H3.42857ZM11.1429 16.2857V18H13.7143V16.2857H11.1429Z" fill="#2B7EBF"/>
</svg>
