<svg width="11" height="14" viewBox="0 0 11 14" fill="none" xmlns="http://www.w3.org/2000/svg">
<path d="M5.33945 0C5.7021 0.0679491 6.07163 0.110322 6.42588 0.209192C7.45542 0.495876 8.29448 1.08146 8.96061 1.9125C9.44388 2.51564 9.77485 3.19742 9.93709 3.95326C10.2226 5.28247 10.0249 6.538 9.30799 7.6981C8.84914 8.44057 8.36815 9.16931 7.89862 9.9053C7.08857 11.175 6.27891 12.445 5.47077 13.7154C5.38641 13.8479 5.29059 13.9632 5.12606 13.9914C4.88977 14.0323 4.72982 13.9246 4.60652 13.7303C4.12057 12.9626 3.62966 12.1984 3.14371 11.4307C2.76922 10.8394 2.40314 10.2431 2.02751 9.65259C1.56484 8.92538 1.0682 8.21802 0.636843 7.47287C0.0573668 6.47196 -0.123195 5.37676 0.0810345 4.23842C0.40322 2.44349 1.41902 1.17079 3.07003 0.409221C3.55636 0.18476 4.07629 0.0645135 4.61263 0.0236677C4.65195 0.0209955 4.69088 0.00801647 4.72982 0C4.9329 0 5.13637 0 5.33945 0ZM5.03139 12.6927C5.07491 12.6282 5.10621 12.5836 5.13561 12.5378C6.23043 10.8222 7.32067 9.10365 8.42159 7.39194C9.29386 6.03602 9.408 4.62283 8.68957 3.18597C8.02993 1.86593 6.92748 1.09711 5.45665 0.947852C3.90336 0.790194 2.64554 1.38074 1.7099 2.62826C0.722352 3.94486 0.659365 5.8482 1.54194 7.22933C2.24701 8.33254 2.95436 9.43462 3.65943 10.5378C4.11293 11.2475 4.56453 11.9587 5.03177 12.692L5.03139 12.6927Z" fill="#656060"/>
<path d="M5.04135 2.77394C6.29956 2.77814 7.32643 3.81264 7.31994 5.07008C7.31345 6.32829 6.27703 7.35363 5.01998 7.34485C3.7675 7.33607 2.74712 6.30806 2.74903 5.05634C2.75093 3.79814 3.78391 2.76974 5.04135 2.77394V2.77394ZM5.02914 3.68896C4.28055 3.69469 3.66252 4.31577 3.66405 5.06092C3.66558 5.81332 4.30155 6.44243 5.04746 6.42983C5.7991 6.41723 6.41408 5.79195 6.40492 5.05023C6.39575 4.3005 5.77238 3.68362 5.02914 3.68896V3.68896Z" fill="#656060"/>
</svg>
