<svg width="8" height="12" viewBox="0 0 8 12" fill="none" xmlns="http://www.w3.org/2000/svg">
<path fill-rule="evenodd" clip-rule="evenodd" d="M3.50519 0C3.60847 0 3.70752 0.04515 3.78055 0.125518C3.85358 0.205885 3.8946 0.314887 3.8946 0.428544V10.5362L6.34478 7.83893C6.4179 7.75846 6.51707 7.71325 6.62048 7.71325C6.72389 7.71325 6.82306 7.75846 6.89618 7.83893C6.96931 7.9194 7.01038 8.02854 7.01038 8.14234C7.01038 8.25614 6.96931 8.36528 6.89618 8.44575L3.7809 11.8741C3.74472 11.914 3.70175 11.9457 3.65444 11.9673C3.60713 11.9889 3.55641 12 3.50519 12C3.45397 12 3.40325 11.9889 3.35594 11.9673C3.30863 11.9457 3.26566 11.914 3.22949 11.8741L0.1142 8.44575C0.0410789 8.36528 -2.43639e-09 8.25614 0 8.14234C2.43639e-09 8.02854 0.0410789 7.9194 0.1142 7.83893C0.187321 7.75846 0.286494 7.71325 0.389903 7.71325C0.493312 7.71325 0.592485 7.75846 0.665606 7.83893L3.11578 10.5362V0.428544C3.11578 0.314887 3.15681 0.205885 3.22984 0.125518C3.30287 0.04515 3.40191 0 3.50519 0Z" fill="#2EA505"/>
</svg>
