<svg xmlns="http://www.w3.org/2000/svg" viewBox="0 0 55.11 20.33"><defs><style>.cls-1{fill:#212121;}</style></defs><g id="Layer_2" data-name="Layer 2"><g id="Layer_1-2" data-name="Layer 1"><g id="convertible"><path class="cls-1" d="M0,17.46l0-.54s0-.1,0-.22c-.28-4.61.57-7.5,2.52-8.6C4.41,6.8,11.48,6,12.9,5.9,15.52,3.6,24.37.15,24.75,0l.36.93C25,1,15.76,4.58,13.45,6.75l-.12.11-.17,0c-2.3.22-8.57,1-10.06,2.06C2,9.58.76,11.37,1,16.45l4.34,0v1Z"/><rect class="cls-1" x="13.7" y="16.36" width="24.32" height="1" transform="translate(-0.07 0.1) rotate(-0.22)"/><polygon class="cls-1" points="46.42 17.4 46.32 16.4 53.48 15.68 54.09 12.85 53.11 7.17 46.67 5.38 44.13 7.53 18.47 7.75 16.75 4.62 17.63 4.14 19.06 6.74 43.76 6.54 46.43 4.27 53.99 6.37 55.11 12.87 54.3 16.6 46.42 17.4"/><path class="cls-1" d="M9.55,20.21a4.53,4.53,0,1,1,4.53-4.53A4.53,4.53,0,0,1,9.55,20.21Zm0-8.06a3.53,3.53,0,1,0,3.53,3.53A3.54,3.54,0,0,0,9.55,12.15Z"/><path class="cls-1" d="M42.22,20.33a4.53,4.53,0,1,1,4.53-4.53A4.54,4.54,0,0,1,42.22,20.33Zm0-8.06a3.53,3.53,0,1,0,3.53,3.53A3.54,3.54,0,0,0,42.22,12.27Z"/><path class="cls-1" d="M9.55,17.81a2.13,2.13,0,1,1,2.12-2.13A2.13,2.13,0,0,1,9.55,17.81Zm0-3.75a1.63,1.63,0,1,0,1.62,1.62A1.63,1.63,0,0,0,9.55,14.06Z"/><path class="cls-1" d="M42.22,17.92a2.13,2.13,0,1,1,2.12-2.12A2.12,2.12,0,0,1,42.22,17.92Zm0-3.75a1.63,1.63,0,1,0,1.62,1.63A1.63,1.63,0,0,0,42.22,14.17Z"/><rect class="cls-1" x="0.67" y="14.3" width="3.97" height="0.7"/><rect class="cls-1" x="28.43" y="9.86" width="1.99" height="0.7"/><rect class="cls-1" x="15.72" y="6.88" width="2.7" height="0.7"/><rect class="cls-1" x="49.55" y="9.08" width="4.12" height="0.7"/><rect class="cls-1" x="31.65" y="9.14" width="0.7" height="6.03"/><polygon class="cls-1" points="20.34 7.22 19.51 5.41 17.88 5.41 17.88 4.66 19.99 4.66 21.02 6.91 20.34 7.22"/><path class="cls-1" d="M39.27,6.87h-.75V5A1.2,1.2,0,0,1,39,4.16a2.12,2.12,0,0,1,1.65-.33c1.62.21,5.73.67,5.73.67l-.08.74s-4.12-.46-5.74-.67a1.46,1.46,0,0,0-1.07.16.54.54,0,0,0-.18.3Z"/><path class="cls-1" d="M30.49,7h-.75V4.74l-1.06,0-.07.17a12,12,0,0,0,0,1.89l-.75,0a9.91,9.91,0,0,1,0-2.19A1.19,1.19,0,0,1,28.32,4l.1-.05L30.49,4Z"/></g></g></g></svg>