<svg xmlns="http://www.w3.org/2000/svg" viewBox="0 0 54.12 17.45"><defs><style>.cls-1{fill:#212121;}.cls-2{fill:#8e8e8e;}</style></defs><g id="Layer_2" data-name="Layer 2"><g id="Layer_1-2" data-name="Layer 1"><g id="coupe"><rect class="cls-1" x="13.38" y="13.41" width="25.84" height="1"/><path class="cls-1" d="M5.49,14.85H0V8.46l.23-.14C6.7,4.24,16,4.25,17.52,4.27c10.51-9,30.86-1.1,32.62-.4H53l.12.32c1.31,3.41,1.31,6,0,7.79-1.84,2.48-5.52,2.26-5.68,2.25l.07-1s3.3.2,4.81-1.85c1-1.41,1-3.6,0-6.51l-2.48,0c-.21-.09-21.57-8.69-31.82.32l-.15.13h-.2C17.58,5.27,7.65,5,1,9v4.83H5.49Z"/><path class="cls-1" d="M22.78,5.71a16.32,16.32,0,0,1-2.93-.2L19,5.34l.74-.51A22.16,22.16,0,0,1,34.15,1.71l.41.06L33.77,5l-.26,0C33.18,5,27,5.71,22.78,5.71Zm-1.71-.8a97.54,97.54,0,0,0,12.1-.63l.46-1.88A21.91,21.91,0,0,0,21.07,4.91Z"/><path class="cls-1" d="M34.73,4.72l.62-3L40.51,3l-.58.47A8.05,8.05,0,0,1,35.2,4.72Zm1.2-2.1L35.66,4a9,9,0,0,0,3-.61Z"/><rect class="cls-1" x="18.07" y="6.59" width="0.5" height="5.42"/><line class="cls-2" x1="35.19" y1="6.35" x2="33.49" y2="10.41"/><rect class="cls-1" x="32.14" y="8.13" width="4.4" height="0.5" transform="translate(13.33 36.81) rotate(-67.24)"/><path class="cls-1" d="M43.31,17a4.59,4.59,0,1,1,4.59-4.59A4.6,4.6,0,0,1,43.31,17Zm0-8.18a3.59,3.59,0,1,0,3.59,3.59A3.59,3.59,0,0,0,43.31,8.79Z"/><path class="cls-1" d="M9.5,17.45a4.59,4.59,0,1,1,4.59-4.59A4.6,4.6,0,0,1,9.5,17.45Zm0-8.18a3.59,3.59,0,1,0,3.59,3.59A3.59,3.59,0,0,0,9.5,9.27Z"/><path class="cls-1" d="M9.5,15a2.16,2.16,0,1,1,2.16-2.15A2.16,2.16,0,0,1,9.5,15Zm0-3.81a1.66,1.66,0,1,0,1.66,1.66A1.66,1.66,0,0,0,9.5,11.2Z"/><path class="cls-1" d="M43.31,14.54a2.16,2.16,0,1,1,2.15-2.16A2.16,2.16,0,0,1,43.31,14.54Zm0-3.82A1.66,1.66,0,1,0,45,12.38,1.66,1.66,0,0,0,43.31,10.72Z"/></g></g></g></svg>