<svg xmlns="http://www.w3.org/2000/svg" viewBox="0 0 54.17 23.57"><defs><style>.cls-1{fill:#212121;}</style></defs><g id="Layer_2" data-name="Layer 2"><g id="Layer_1-2" data-name="Layer 1"><g id="hatchback"><path class="cls-1" d="M10.11,23.57A4.59,4.59,0,1,1,14.7,19,4.6,4.6,0,0,1,10.11,23.57Zm0-8.18A3.59,3.59,0,1,0,13.7,19,3.59,3.59,0,0,0,10.11,15.39Z"/><path class="cls-1" d="M10.11,21.13A2.16,2.16,0,1,1,12.27,19,2.16,2.16,0,0,1,10.11,21.13Zm0-3.81A1.66,1.66,0,1,0,11.77,19,1.66,1.66,0,0,0,10.11,17.32Z"/><path class="cls-1" d="M45.86,23.57A4.59,4.59,0,1,1,50.45,19,4.6,4.6,0,0,1,45.86,23.57Zm0-8.18A3.59,3.59,0,1,0,49.45,19,3.59,3.59,0,0,0,45.86,15.39Z"/><path class="cls-1" d="M45.86,21.13A2.16,2.16,0,1,1,48,19,2.16,2.16,0,0,1,45.86,21.13Zm0-3.81A1.66,1.66,0,1,0,47.52,19,1.66,1.66,0,0,0,45.86,17.32Z"/><rect class="cls-1" x="14.6" y="18.48" width="26.82" height="1"/><path class="cls-1" d="M5.66,19.48H1.23A1.23,1.23,0,0,1,0,18.25V14.66a6.65,6.65,0,0,1,1.35-4,5.28,5.28,0,0,1,2.86-1.9l8-2C13.21,6.14,23.67.17,31,0L43,.53a3.83,3.83,0,0,1,2.15.77l6,4.53A4.19,4.19,0,0,1,52.4,7.54a26.21,26.21,0,0,1,1.77,6.59l-1,.13a25.65,25.65,0,0,0-1.7-6.34,3.16,3.16,0,0,0-1-1.29l-6-4.53a2.77,2.77,0,0,0-1.58-.57L31,1c-7.23.17-18.21,6.55-18.32,6.61l-.12.06L4.46,9.73a4.25,4.25,0,0,0-2.31,1.53A5.67,5.67,0,0,0,1,14.66v3.59a.23.23,0,0,0,.23.23H5.66Z"/><path class="cls-1" d="M50.42,19.48l-.07-1,1.25-.09,1-.58a.17.17,0,0,0,.09-.14l.34-4.15,1,.08-.34,4.15a1.19,1.19,0,0,1-.61.93l-1.06.59a.93.93,0,0,1-.4.12Z"/><path class="cls-1" d="M33.8,8.45a.63.63,0,0,1-.45-.18.66.66,0,0,1-.19-.48l.14-5.34A.61.61,0,0,1,33.49,2a.56.56,0,0,1,.44-.15h0l6,.49a3.1,3.1,0,0,1,1.8.76l.34.3A3.42,3.42,0,0,1,43,4.61l1.26,2.76a.54.54,0,0,1,0,.51.53.53,0,0,1-.43.25l-9.93.32Zm.25-5.8L33.91,7.7l9.49-.31L42.28,4.92A2.79,2.79,0,0,0,41.6,4l-.33-.29a2.42,2.42,0,0,0-1.37-.59Z"/><path class="cls-1" d="M16.43,8.89l-.19-.14a.47.47,0,0,1-.15-.35V6.9a.63.63,0,0,1,.34-.56h0c.93-.46,9.15-4.46,14.41-4.46h.38l.17.14a.45.45,0,0,1,.12.33l-.24,5.32a.57.57,0,0,1-.55.54ZM16.84,7V8.12l13.68-.64.23-4.85C25.77,2.68,18,6.39,16.84,7Zm13.85.49Z"/><rect class="cls-1" x="28.84" y="9.89" width="2.3" height="0.75"/><rect class="cls-1" x="0.73" y="16.17" width="2.87" height="0.75"/><rect class="cls-1" x="40.28" y="9.89" width="2.3" height="0.75"/></g></g></g></svg>