<svg xmlns="http://www.w3.org/2000/svg" viewBox="0 0 54.71 19.22"><defs><style>.cls-1{fill:#212121;}</style></defs><g id="Layer_2" data-name="Layer 2"><g id="Layer_1-2" data-name="Layer 1"><g id="Seedan"><rect class="cls-1" x="16.12" y="15.72" width="25.89" height="1" transform="translate(-0.34 0.63) rotate(-1.23)"/><path class="cls-1" d="M3.07,17.45A2.29,2.29,0,0,1,1.61,17l-.27-.21a1.19,1.19,0,0,1-.4-.56L.08,13.57a1.5,1.5,0,0,1,.19-1.33l.39-.57,1.62-3.4a1.11,1.11,0,0,1,.48-.52C5.1,6.48,13.11,5.27,14.22,5.11c13.84-9.5,32.22-3,34.28-2.22l.14,0,2.65.32a.8.8,0,0,1,.66.51l1.8,4.61.74.86a1,1,0,0,1,.22.61v3.32a1.37,1.37,0,0,1-.27.82l-.52.73a2.21,2.21,0,0,1-1.31.88L50.77,16l-.21-1,1.84-.39a1.16,1.16,0,0,0,.71-.48l.52-.73a.43.43,0,0,0,.08-.24V9.84l-.87-1.06L51.06,4.23l-2.54-.31a1.25,1.25,0,0,1-.37-.09c-2-.76-20-7.14-33.46,2.17l-.1.07h-.11c-.09,0-8.94,1.3-11.25,2.55L1.52,12.17l-.43.64a.53.53,0,0,0-.07.44l.87,2.62A.27.27,0,0,0,2,16l.27.21a1.31,1.31,0,0,0,.87.29l5.47-.12,0,1-5.47.12Z"/><path class="cls-1" d="M2.06,11a.28.28,0,0,1-.19-.09.26.26,0,0,1,0-.24L2.4,8.8a.26.26,0,0,1,.24-.18l6.21-.13a.24.24,0,0,1,.23.15A.25.25,0,0,1,9,8.91l-.88.87-.06,0-.84.41s0,0-.08,0l-5.07.68Zm.77-1.83-.41,1.27,4.65-.62.76-.38L8.23,9Z"/><path class="cls-1" d="M17.29,6.89A.38.38,0,0,1,17,6.66.37.37,0,0,1,17,6.25c.2-.21,5.17-5,15.74-4.66.28,0,7,.14,11.21,2a.38.38,0,0,1,.2.49l-.6,1.46a.4.4,0,0,1-.33.23L17.31,6.89ZM31.87,2.32c-7.31,0-11.71,2.52-13.45,3.77L43,5l.37-.89C39.21,2.47,32.82,2.34,32.76,2.34Z"/><polygon class="cls-1" points="21.86 6.68 20.49 4.24 21.14 3.87 22.52 6.31 21.86 6.68"/><polygon class="cls-1" points="33.35 6.02 33.33 2.25 34.08 2.24 34.1 6.02 33.35 6.02"/><rect class="cls-1" x="29.57" y="3.77" width="4.06" height="0.75" transform="translate(21.12 34.25) rotate(-78.28)"/><path class="cls-1" d="M21,15.12c-.17,0-.9-.13-1-.16a2.13,2.13,0,0,1-1.46-1.33c-.09-.16-.19-.34-.31-.53A7.89,7.89,0,0,1,16.9,9.81V6.51A.12.12,0,0,1,17,6.39l26.41-1a.14.14,0,0,1,.1.05.15.15,0,0,1,0,.1c-.09.45-.88,4.41-1.4,4.9a10.47,10.47,0,0,0-1.4,2.42L40.3,14a.64.64,0,0,1-.56.4l-9.2.45L21,15.12Zm-3.8-8.49V9.81A7.55,7.55,0,0,0,18.36,13c.12.19.22.38.31.54.34.63.55,1,1.31,1.21.12,0,.84.15,1,.15h0l9.57-.25,9.19-.45a.4.4,0,0,0,.35-.24l.46-1.13A10.06,10.06,0,0,1,42,10.3c.34-.32.95-2.88,1.29-4.61Z"/><path class="cls-1" d="M30.15,14.86,30,12.94a3.29,3.29,0,0,1,0-.77l.71-4.56.5-1.51.24.08L31,7.67l-.71,4.54a3.35,3.35,0,0,0,0,.71l.17,1.92Z"/><path class="cls-1" d="M12.37,19.22a4.77,4.77,0,1,1,4.77-4.77A4.78,4.78,0,0,1,12.37,19.22Zm0-8.53a3.77,3.77,0,1,0,3.77,3.76A3.78,3.78,0,0,0,12.37,10.69Z"/><path class="cls-1" d="M12.37,16.73a2.28,2.28,0,1,1,2.27-2.28A2.28,2.28,0,0,1,12.37,16.73Zm0-4.05a1.78,1.78,0,1,0,1.77,1.77A1.77,1.77,0,0,0,12.37,12.68Z"/><path class="cls-1" d="M46.24,16.63a2.27,2.27,0,1,1,2.27-2.27A2.27,2.27,0,0,1,46.24,16.63Zm0-4A1.77,1.77,0,1,0,48,14.36,1.77,1.77,0,0,0,46.24,12.59Z"/><path class="cls-1" d="M46.24,19.16a4.8,4.8,0,1,1,4.8-4.8A4.8,4.8,0,0,1,46.24,19.16Zm0-8.6a3.8,3.8,0,1,0,3.8,3.8A3.8,3.8,0,0,0,46.24,10.56Z"/><path class="cls-1" d="M47.57,6.68a.23.23,0,0,1-.21-.13.24.24,0,0,1,0-.26l1-1.51a.27.27,0,0,1,.21-.12h3a.25.25,0,0,1,0,.5H48.69l-.65,1L52,6h0a.25.25,0,0,1,0,.5l-4.4.14Z"/></g></g></g></svg>