<svg xmlns="http://www.w3.org/2000/svg" viewBox="0 0 54.42 21.73"><defs><style>.cls-1{fill:#272727;}</style></defs><g id="Layer_2" data-name="Layer 2"><g id="Layer_1-2" data-name="Layer 1"><g id="unknown"><path class="cls-1" d="M50.45,18.13H48.69v-1h1.67l3.06-1V12.74l-2.1-9a3.3,3.3,0,0,0-1.37-2,3.36,3.36,0,0,0-1.79-.55L27.39,1a10.53,10.53,0,0,0-4.22.84L12.55,6.37,8.79,8.74a.42.42,0,0,1-.14.06L3.73,10.07a3.77,3.77,0,0,0-2.2,3l-.47,3.59L4,16.78l0,1L.47,17.59a.48.48,0,0,1-.35-.18A.55.55,0,0,1,0,17L.54,12.9A4.76,4.76,0,0,1,3.41,9.13L8.32,7.85l3.77-2.36L22.78.92A11.69,11.69,0,0,1,27.4,0L48.17.19A4.3,4.3,0,0,1,52.3,3.5l2.11,9.07a.49.49,0,0,1,0,.12v3.78a.51.51,0,0,1-.34.48L50.6,18.1Z"/><rect class="cls-1" x="15.61" y="16.54" width="21.38" height="1" transform="translate(-0.1 0.15) rotate(-0.34)"/><rect class="cls-1" x="0.5" y="14.67" width="3.93" height="0.75"/><path class="cls-1" d="M9.53,21.73a4.64,4.64,0,1,1,4.64-4.64A4.64,4.64,0,0,1,9.53,21.73Zm0-8.28a3.64,3.64,0,1,0,3.64,3.64A3.64,3.64,0,0,0,9.53,13.45Z"/><path class="cls-1" d="M9.53,19.23a2.14,2.14,0,1,1,2.14-2.14A2.14,2.14,0,0,1,9.53,19.23Zm0-3.78a1.64,1.64,0,1,0,1.64,1.64A1.65,1.65,0,0,0,9.53,15.45Z"/><path class="cls-1" d="M42.75,21.73a4.64,4.64,0,1,1,4.64-4.64A4.65,4.65,0,0,1,42.75,21.73Zm0-8.28a3.64,3.64,0,1,0,3.64,3.64A3.65,3.65,0,0,0,42.75,13.45Z"/><path class="cls-1" d="M42.75,19.23a2.14,2.14,0,1,1,2.13-2.14A2.14,2.14,0,0,1,42.75,19.23Zm0-3.78a1.64,1.64,0,1,0,1.63,1.64A1.64,1.64,0,0,0,42.75,15.45Z"/><path class="cls-1" d="M27.66,11.09l0-.31a2.78,2.78,0,0,1,.75-2.08,2.61,2.61,0,0,0,.84-1.64c0-.61-.39-1-1.14-1a2.11,2.11,0,0,0-1.21.37l-.29-.75a3.14,3.14,0,0,1,1.72-.48,1.77,1.77,0,0,1,2,1.76,3.31,3.31,0,0,1-1,2.09,2.38,2.38,0,0,0-.69,1.76v.31Zm-.27,1.68a.72.72,0,0,1,.72-.76.71.71,0,0,1,.71.76.69.69,0,0,1-.72.74A.7.7,0,0,1,27.39,12.77Z"/></g></g></g></svg>