<svg xmlns="http://www.w3.org/2000/svg" viewBox="0 0 55.28 25.89"><defs><style>.cls-1{fill:#272727;}</style></defs><g id="Layer_2" data-name="Layer 2"><g id="Layer_1-2" data-name="Layer 1"><g id="Van"><path class="cls-1" d="M51.23,22.85a.5.5,0,0,1,0-1l2.53-.11a.57.57,0,0,0,.54-.58L54,1.63A.63.63,0,0,0,53.38,1H16.21a2.94,2.94,0,0,0-2.73,1.2L6.79,11.59a.48.48,0,0,1-.23.17l-1.92.76a7.35,7.35,0,0,0-3.13,3A4.49,4.49,0,0,0,1,17.54v4l2.25,0a.5.5,0,0,1,.5.5.5.5,0,0,1-.5.5H1a1,1,0,0,1-1-1v-4A5.39,5.39,0,0,1,.64,15a8.28,8.28,0,0,1,3.6-3.38l1.82-.72,6.6-9.28A4,4,0,0,1,16.21,0H53.38A1.63,1.63,0,0,1,55,1.62l.27,19.53a1.55,1.55,0,0,1-1.49,1.58l-2.53.12Z"/><rect class="cls-1" x="15.11" y="21.53" width="24.05" height="1"/><path class="cls-1" d="M13.33,12.47h0l-8.22-.13A.38.38,0,0,1,4.74,12a.41.41,0,0,1,.38-.37l8.11.13,1.86-1.12a.3.3,0,0,1,.16,0l2.53-.24V4.4H12A.37.37,0,0,1,11.58,4,.38.38,0,0,1,12,3.65h6.2a.38.38,0,0,1,.37.38v6.62a.37.37,0,0,1-.34.37l-2.79.27-1.88,1.12A.31.31,0,0,1,13.33,12.47Z"/><path class="cls-1" d="M20.51,11.62a.36.36,0,0,1-.26-.11.32.32,0,0,1-.11-.27L20.32,4a.38.38,0,0,1,.37-.37H51.48a.37.37,0,0,1,.37.38v7a.37.37,0,0,1-.37.37l-31,.24Zm.55-7.22-.16,6.47,30.2-.23V4.4Z"/><path class="cls-1" d="M28.37,11.38h0A.37.37,0,0,1,28,11l.1-7a.38.38,0,1,1,.75,0l-.1,7A.37.37,0,0,1,28.37,11.38Z"/><path class="cls-1" d="M36.15,11.45h0a.38.38,0,0,1-.37-.38l.1-7a.36.36,0,0,1,.37-.37h0a.37.37,0,0,1,.37.38l-.09,7A.38.38,0,0,1,36.15,11.45Z"/><path class="cls-1" d="M43.83,11.53h0a.37.37,0,0,1-.37-.38l.1-7a.37.37,0,0,1,.38-.37h0a.37.37,0,0,1,.37.38l-.1,7A.37.37,0,0,1,43.83,11.53Z"/><path class="cls-1" d="M26.91,8H22a.37.37,0,0,1-.37-.38v-3A.37.37,0,0,1,22,4.17a.38.38,0,0,1,.38.37V7.21h4.12v-3a.38.38,0,1,1,.75,0v3.4A.38.38,0,0,1,26.91,8Z"/><rect class="cls-1" x="18.77" y="14.58" width="1.83" height="0.75"/><rect class="cls-1" x="1.02" y="18.7" width="3.73" height="0.75"/><rect class="cls-1" x="16.5" y="18.79" width="21.13" height="0.75"/><rect class="cls-1" x="23.3" y="14.58" width="1.83" height="0.75"/><path class="cls-1" d="M9.63,25.89a4.84,4.84,0,1,1,4.85-4.84A4.84,4.84,0,0,1,9.63,25.89Zm0-8.68a3.84,3.84,0,1,0,3.85,3.84A3.85,3.85,0,0,0,9.63,17.21Z"/><path class="cls-1" d="M9.63,23a1.95,1.95,0,1,1,1.95-1.95A2,2,0,0,1,9.63,23Zm0-3.39a1.45,1.45,0,1,0,1.45,1.44A1.44,1.44,0,0,0,9.63,19.61Z"/><path class="cls-1" d="M44.65,25.89a4.84,4.84,0,1,1,4.84-4.84A4.85,4.85,0,0,1,44.65,25.89Zm0-8.68a3.84,3.84,0,1,0,3.84,3.84A3.85,3.85,0,0,0,44.65,17.21Z"/><path class="cls-1" d="M44.65,23.4A2.35,2.35,0,1,1,47,21.05,2.36,2.36,0,0,1,44.65,23.4Zm0-4.2a1.85,1.85,0,1,0,1.85,1.85A1.86,1.86,0,0,0,44.65,19.2Z"/><path class="cls-1" d="M1.24,16.93a.37.37,0,0,1-.37-.35.38.38,0,0,1,.35-.4,4.72,4.72,0,0,0,3.61-1.92h-3a.38.38,0,0,1,0-.75H5.49a.37.37,0,0,1,.31.17.38.38,0,0,1,0,.36,5.36,5.36,0,0,1-4.57,2.89Z"/></g></g></g></svg>