<svg xmlns="http://www.w3.org/2000/svg" viewBox="0 0 54.42 21.73"><defs><style>.cls-1{fill:#272727;}</style></defs><g id="Layer_2" data-name="Layer 2"><g id="Layer_1-2" data-name="Layer 1"><g id="waghon"><path class="cls-1" d="M50.45,18.13H48.69v-1h1.67l3.06-1V12.74l-2.1-9a3.3,3.3,0,0,0-1.37-2,3.36,3.36,0,0,0-1.79-.55L27.39,1a10.85,10.85,0,0,0-4.22.84L12.55,6.37,8.79,8.74a.42.42,0,0,1-.14.06L3.73,10.07a3.76,3.76,0,0,0-2.2,3l-.47,3.59L4,16.78l0,1L.47,17.59a.48.48,0,0,1-.35-.18A.55.55,0,0,1,0,17L.54,12.9A4.76,4.76,0,0,1,3.41,9.13L8.32,7.85l3.77-2.36L22.78.92A11.48,11.48,0,0,1,27.4,0L48.17.19A4.3,4.3,0,0,1,52.3,3.5l2.11,9.07a.49.49,0,0,1,0,.12v3.78a.51.51,0,0,1-.34.48L50.6,18.1Z"/><rect class="cls-1" x="15.61" y="16.54" width="21.38" height="1" transform="translate(-0.1 0.15) rotate(-0.34)"/><path class="cls-1" d="M14.78,9a.38.38,0,0,1-.26-.11.39.39,0,0,1-.11-.27V7.12a.38.38,0,0,1,.23-.35C17.52,5.55,27.05,1.66,28.47,3a.4.4,0,0,1,.12.27V8.19a.39.39,0,0,1-.37.38L14.8,9Zm.38-1.63v.86l12.68-.4V3.46C26.69,3,20.57,5.09,15.16,7.37Z"/><path class="cls-1" d="M37.66,8.92H30.71a.38.38,0,0,1-.38-.41l.51-5.41a.37.37,0,0,1,.37-.34H38a.39.39,0,0,1,.27.11.37.37,0,0,1,.1.28L38,8.57A.37.37,0,0,1,37.66,8.92Zm-6.54-.75H37.3l.28-4.66h-6Z"/><path class="cls-1" d="M49.46,8.9H39.83a.37.37,0,0,1-.37-.38V3.15a.39.39,0,0,1,.11-.27.4.4,0,0,1,.28-.1l6,.27a.28.28,0,0,1,.13,0A5.11,5.11,0,0,1,48.6,5.65a28.23,28.23,0,0,0,1.19,2.7.4.4,0,0,1,0,.37A.38.38,0,0,1,49.46,8.9Zm-9.25-.75h8.65c-.23-.49-.59-1.27-1-2.23a4.41,4.41,0,0,0-2.1-2.13l-5.59-.24Z"/><rect class="cls-1" x="0.5" y="14.67" width="3.93" height="0.75"/><rect class="cls-1" x="26.24" y="9.59" width="1.93" height="0.75"/><rect class="cls-1" x="35.69" y="9.59" width="1.93" height="0.75"/><path class="cls-1" d="M9.53,21.73a4.64,4.64,0,1,1,4.64-4.64A4.64,4.64,0,0,1,9.53,21.73Zm0-8.28a3.64,3.64,0,1,0,3.64,3.64A3.64,3.64,0,0,0,9.53,13.45Z"/><path class="cls-1" d="M9.53,19.23a2.14,2.14,0,1,1,2.14-2.14A2.14,2.14,0,0,1,9.53,19.23Zm0-3.78a1.64,1.64,0,1,0,1.64,1.64A1.65,1.65,0,0,0,9.53,15.45Z"/><path class="cls-1" d="M42.75,21.73a4.64,4.64,0,1,1,4.64-4.64A4.65,4.65,0,0,1,42.75,21.73Zm0-8.28a3.64,3.64,0,1,0,3.64,3.64A3.65,3.65,0,0,0,42.75,13.45Z"/><path class="cls-1" d="M42.75,19.23a2.14,2.14,0,1,1,2.13-2.14A2.14,2.14,0,0,1,42.75,19.23Zm0-3.78a1.64,1.64,0,1,0,1.63,1.64A1.64,1.64,0,0,0,42.75,15.45Z"/></g></g></g></svg>