<svg width="125" height="55" viewBox="0 0 125 55" fill="none" xmlns="http://www.w3.org/2000/svg">
<g clip-path="url(#clip0_2747_243)">
<path d="M24.785 31.2617C28.3877 31.2617 31.3083 34.1823 31.3083 37.785C31.3083 41.3877 28.3877 44.3083 24.785 44.3083C21.1823 44.3083 18.2617 41.3877 18.2617 37.785C18.2617 34.1823 21.1823 31.2617 24.785 31.2617ZM24.785 28C19.3892 28 15 32.3892 15 37.785C15 43.1808 19.3892 47.57 24.785 47.57C30.1808 47.57 34.57 43.1808 34.57 37.785C34.57 32.3892 30.1808 28 24.785 28Z" fill="#056C34"/>
<path d="M24.8086 31.9231C23.6447 31.9231 22.5069 32.2682 21.5392 32.9149C20.5714 33.5615 19.8172 34.4806 19.3718 35.5558C18.9264 36.6311 18.8098 37.8144 19.0369 38.9559C19.264 40.0974 19.8244 41.146 20.6474 41.969C21.4704 42.792 22.519 43.3525 23.6605 43.5795C24.8021 43.8066 25.9853 43.69 27.0606 43.2446C28.1359 42.7992 29.0549 42.045 29.7016 41.0772C30.3482 40.1095 30.6933 38.9717 30.6933 37.8078C30.6916 36.2477 30.071 34.7519 28.9678 33.6486C27.8646 32.5454 26.3688 31.9249 24.8086 31.9231ZM29.5474 35.0361C29.3963 35.164 29.2361 35.2805 29.068 35.3849C28.7233 34.7787 28.2533 34.2529 27.6893 33.8428C27.1253 33.4326 26.4804 33.1475 25.7974 33.0065C25.8449 32.8144 25.9063 32.626 25.981 32.4427C26.722 32.606 27.4213 32.9207 28.035 33.367C28.6487 33.8133 29.1636 34.3815 29.5474 35.0361ZM25.7148 33.39C26.3444 33.5194 26.9391 33.7819 27.459 34.1599C27.9788 34.538 28.4118 35.0228 28.729 35.5818C28.2923 35.8122 27.8359 36.003 27.3651 36.1519C27.0673 36.2478 26.8082 36.3284 26.582 36.3939C26.5472 36.4033 26.5105 36.403 26.4759 36.3929C26.4413 36.3828 26.4102 36.3633 26.3859 36.3367C26.1971 36.1333 25.9706 35.9684 25.719 35.8514C25.686 35.8366 25.6578 35.8129 25.6376 35.783C25.6174 35.753 25.606 35.718 25.6048 35.6819C25.5973 35.4475 25.5932 35.1768 25.5932 34.8655C25.5894 34.371 25.6301 33.8772 25.7148 33.39ZM25.5873 32.3715C25.3069 33.1722 25.1759 34.0175 25.2009 34.8655C25.2009 35.1813 25.205 35.4557 25.2119 35.6933C25.2151 35.8021 25.2487 35.9078 25.3088 35.9985C25.369 36.0893 25.4533 36.1614 25.5522 36.2068C25.758 36.3026 25.9433 36.4374 26.0977 36.6038C26.1527 36.6636 26.2194 36.7113 26.2936 36.744C26.3679 36.7767 26.4481 36.7937 26.5293 36.7939C26.5847 36.7939 26.6398 36.7859 26.6929 36.7702C26.9218 36.7033 27.1833 36.6227 27.4861 36.5252C28.3002 36.2873 29.0636 35.9016 29.738 35.3874C29.9685 35.8552 30.1305 36.3536 30.2192 36.8675C29.371 36.848 28.5265 36.985 27.728 37.2715C27.4508 37.3612 27.1868 37.4512 26.9434 37.5387C26.841 37.5755 26.751 37.6403 26.6836 37.7256C26.6161 37.8109 26.5739 37.9134 26.5616 38.0215C26.5345 38.2465 26.4638 38.4641 26.3533 38.6621C26.2994 38.7568 26.273 38.8647 26.2772 38.9736C26.2813 39.0825 26.3158 39.1881 26.3767 39.2784C26.5236 39.4956 26.6846 39.7239 26.8549 39.9568C27.3321 40.6572 27.9343 41.2637 28.6313 41.7459C28.2577 42.1089 27.8346 42.4172 27.3745 42.6616C27.1319 41.8493 26.7407 41.089 26.2209 40.4193C26.0444 40.1749 25.8761 39.9513 25.7231 39.7545C25.6563 39.6688 25.567 39.6034 25.4651 39.5657C25.3632 39.528 25.2528 39.5194 25.1464 39.5409C24.9233 39.5839 24.6941 39.5839 24.471 39.5409C24.3645 39.5193 24.2541 39.5279 24.1522 39.5656C24.0503 39.6033 23.961 39.6688 23.8943 39.7545C23.7415 39.9507 23.574 40.1749 23.3968 40.4193C22.8768 41.0891 22.4855 41.8496 22.2428 42.6622C21.7828 42.4177 21.3597 42.1094 20.986 41.7465C21.6828 41.2645 22.2848 40.6582 22.7619 39.9579C22.9327 39.7245 23.0938 39.4962 23.2407 39.2792C23.3016 39.1889 23.3361 39.0833 23.3402 38.9744C23.3444 38.8655 23.3181 38.7576 23.2642 38.6629C23.1537 38.465 23.0828 38.2473 23.0557 38.0222C23.0435 37.9141 23.0013 37.8116 22.9338 37.7263C22.8664 37.6409 22.7763 37.5762 22.674 37.5393C22.4306 37.4518 22.1665 37.3618 21.8894 37.2721C21.0908 36.9857 20.2463 36.8487 19.3981 36.8681C19.4869 36.3542 19.6489 35.8558 19.8793 35.388C20.5539 35.9023 21.3174 36.288 22.1316 36.5258C22.4333 36.6238 22.6956 36.7039 22.9245 36.7708C22.9776 36.7865 23.0327 36.7945 23.0881 36.7945C23.1692 36.7943 23.2495 36.7773 23.3237 36.7446C23.398 36.7119 23.4647 36.6641 23.5196 36.6044C23.6741 36.438 23.8595 36.3031 24.0653 36.2072C24.1642 36.1618 24.2484 36.0898 24.3085 35.9991C24.3686 35.9084 24.4022 35.8028 24.4055 35.694C24.4121 35.4557 24.4163 35.1813 24.4163 34.8655C24.4412 34.0175 24.3103 33.1722 24.0298 32.3715C24.5463 32.2967 25.0709 32.2967 25.5873 32.3715ZM29.3202 37.8078C29.3209 38.9342 28.8978 40.0196 28.135 40.8483C27.7811 40.504 27.4587 40.1288 27.1717 39.7271C27.0038 39.4977 26.8457 39.2733 26.7009 39.0601C26.681 39.0298 26.6699 38.9946 26.6689 38.9583C26.6679 38.9221 26.6771 38.8863 26.6954 38.8549C26.8307 38.6125 26.9174 38.346 26.9504 38.0703C26.9542 38.0345 26.9679 38.0005 26.99 37.9722C27.0122 37.9438 27.0418 37.9222 27.0756 37.9098C27.3149 37.8237 27.5748 37.7351 27.8484 37.6464C28.3169 37.49 28.7986 37.3759 29.2875 37.3057C29.3078 37.4723 29.3188 37.64 29.3202 37.8078ZM26.6721 41.9142C26.0871 42.1813 25.4516 42.3195 24.8086 42.3195C24.1655 42.3195 23.53 42.1813 22.9451 41.9142C23.1629 41.4705 23.4203 41.0472 23.714 40.6496C23.8888 40.4089 24.0536 40.1886 24.2044 39.995C24.2271 39.967 24.257 39.9458 24.2909 39.9337C24.3248 39.9216 24.3614 39.9191 24.3966 39.9264C24.6688 39.9787 24.9484 39.9787 25.2205 39.9264C25.2558 39.9191 25.2925 39.9216 25.3264 39.9338C25.3604 39.946 25.3903 39.9673 25.4129 39.9954C25.5634 40.189 25.7282 40.4093 25.9033 40.6502C26.1971 41.0475 26.4544 41.4706 26.6721 41.9142ZM20.3291 37.3043C20.818 37.3745 21.2997 37.4886 21.7681 37.6452C22.0416 37.7337 22.3015 37.8218 22.5408 37.9085C22.5746 37.9208 22.6043 37.9425 22.6264 37.9709C22.6485 37.9993 22.6622 38.0333 22.6659 38.0691C22.699 38.3448 22.7856 38.6113 22.9209 38.8538C22.9392 38.8851 22.9483 38.9209 22.9473 38.9572C22.9463 38.9934 22.9352 39.0287 22.9153 39.0589C22.7709 39.2722 22.6128 39.4966 22.4445 39.7259C22.1578 40.128 21.8358 40.5036 21.4821 40.8483C21.0432 40.3774 20.7125 39.8161 20.5134 39.2039C20.3142 38.5917 20.2513 37.9434 20.3291 37.3043ZM24.0239 34.8655C24.0239 35.1768 24.0198 35.4475 24.013 35.6821C24.0117 35.7181 24.0003 35.753 23.9802 35.7829C23.96 35.8128 23.9319 35.8365 23.899 35.8512C23.6474 35.9684 23.4209 36.1332 23.2321 36.3367C23.2078 36.3633 23.1766 36.3828 23.142 36.3929C23.1074 36.403 23.0707 36.4033 23.0359 36.3939C22.8097 36.3276 22.5506 36.2478 22.2532 36.1521C21.7823 36.0031 21.3258 35.8123 20.8889 35.5818C21.206 35.0229 21.6389 34.5381 22.1586 34.1601C22.6784 33.7821 23.2729 33.5195 23.9023 33.39C23.987 33.8772 24.0277 34.371 24.0239 34.8655ZM23.6361 32.4427C23.7109 32.626 23.7722 32.8144 23.8197 33.0065C23.1368 33.1475 22.4918 33.4326 21.9278 33.8428C21.3638 34.2529 20.8938 34.7787 20.5492 35.3849C20.3811 35.2805 20.2209 35.1639 20.0698 35.0361C20.4536 34.3815 20.9684 33.8133 21.5821 33.367C22.1958 32.9207 22.8951 32.606 23.6361 32.4427ZM19.3432 37.2647C19.5416 37.2501 19.7408 37.2501 19.9391 37.2647C19.9174 37.4449 19.9059 37.6263 19.9046 37.8078C19.9025 39.031 20.3599 40.2102 21.1863 41.1119C21.0358 41.2386 20.8762 41.3542 20.7089 41.4576C19.8111 40.4539 19.3152 39.1544 19.3161 37.8078C19.3161 37.6244 19.3256 37.4434 19.3432 37.2647ZM22.6034 42.8366C22.6511 42.6446 22.7124 42.4563 22.7868 42.273C23.4216 42.5622 24.111 42.7118 24.8086 42.7118C25.5061 42.7118 26.1956 42.5622 26.8304 42.273C26.9048 42.4563 26.9661 42.6446 27.0138 42.8366C26.3188 43.1424 25.5679 43.3003 24.8086 43.3003C24.0493 43.3003 23.2983 43.1424 22.6034 42.8366ZM28.9083 41.4576C28.7409 41.3542 28.5813 41.2386 28.4308 41.1119C29.2572 40.2102 29.7147 39.031 29.7125 37.8078C29.7113 37.6262 29.6998 37.4447 29.678 37.2643C29.8764 37.2497 30.0756 37.2497 30.2739 37.2643C30.2916 37.443 30.301 37.624 30.301 37.8075C30.302 39.1541 29.8061 40.4538 28.9083 41.4576Z" fill="#056C34"/>
<path d="M23.8281 37.8075C23.8281 38.0014 23.8856 38.1911 23.9934 38.3524C24.1012 38.5136 24.2544 38.6394 24.4336 38.7136C24.6128 38.7878 24.81 38.8072 25.0003 38.7694C25.1905 38.7316 25.3653 38.6381 25.5024 38.501C25.6396 38.3638 25.733 38.189 25.7709 37.9988C25.8087 37.8085 25.7893 37.6113 25.715 37.4321C25.6408 37.2529 25.5151 37.0997 25.3538 36.992C25.1925 36.8842 25.0029 36.8267 24.8089 36.8267C24.5489 36.827 24.2996 36.9304 24.1157 37.1143C23.9319 37.2981 23.8284 37.5474 23.8281 37.8075ZM25.3974 37.8075C25.3974 37.9238 25.3629 38.0376 25.2982 38.1344C25.2336 38.2312 25.1416 38.3066 25.0341 38.3511C24.9266 38.3957 24.8083 38.4073 24.6941 38.3846C24.58 38.3619 24.4751 38.3059 24.3928 38.2236C24.3105 38.1413 24.2545 38.0364 24.2317 37.9223C24.209 37.8081 24.2207 37.6898 24.2652 37.5823C24.3098 37.4747 24.3852 37.3828 24.482 37.3182C24.5788 37.2535 24.6925 37.219 24.8089 37.219C24.965 37.219 25.1147 37.281 25.225 37.3913C25.3354 37.5017 25.3974 37.6514 25.3974 37.8075Z" fill="#056C34"/>
<path d="M24.808 36.4356C24.86 36.4356 24.9099 36.415 24.9467 36.3782C24.9835 36.3414 25.0041 36.2915 25.0041 36.2395V36.0433C25.0041 35.9913 24.9835 35.9414 24.9467 35.9046C24.9099 35.8678 24.86 35.8472 24.808 35.8472C24.756 35.8472 24.7061 35.8678 24.6693 35.9046C24.6325 35.9414 24.6118 35.9913 24.6118 36.0433V36.2395C24.6118 36.2915 24.6325 36.3414 24.6693 36.3782C24.7061 36.415 24.756 36.4356 24.808 36.4356Z" fill="#056C34"/>
<path d="M23.376 37.1366L23.1895 37.076C23.1647 37.0666 23.1382 37.0623 23.1117 37.0634C23.0851 37.0645 23.0591 37.071 23.0351 37.0825C23.0112 37.094 22.9898 37.1102 22.9724 37.1302C22.9549 37.1502 22.9416 37.1735 22.9334 37.1988C22.9252 37.2241 22.9222 37.2507 22.9246 37.2772C22.927 37.3036 22.9348 37.3293 22.9474 37.3527C22.9601 37.376 22.9773 37.3966 22.9981 37.4131C23.0189 37.4296 23.0428 37.4417 23.0685 37.4487L23.255 37.5093C23.2799 37.5187 23.3063 37.523 23.3329 37.5218C23.3594 37.5207 23.3854 37.5142 23.4094 37.5027C23.4333 37.4912 23.4547 37.475 23.4722 37.455C23.4897 37.435 23.5029 37.4117 23.5111 37.3864C23.5193 37.3612 23.5223 37.3345 23.5199 37.3081C23.5175 37.2816 23.5097 37.2559 23.4971 37.2326C23.4845 37.2092 23.4672 37.1887 23.4464 37.1722C23.4256 37.1557 23.4017 37.1436 23.376 37.1366Z" fill="#056C34"/>
<path d="M23.7275 38.962L23.6122 39.1207C23.5816 39.1629 23.569 39.2154 23.5771 39.2668C23.5853 39.3183 23.6136 39.3644 23.6557 39.3949C23.6978 39.4255 23.7504 39.4381 23.8018 39.43C23.8533 39.4218 23.8993 39.3935 23.9299 39.3514L24.0451 39.1927C24.0602 39.1719 24.0711 39.1482 24.0771 39.1232C24.0831 39.0981 24.0842 39.0721 24.0801 39.0466C24.0761 39.0212 24.0671 38.9968 24.0536 38.9748C24.0401 38.9528 24.0225 38.9337 24.0016 38.9186C23.9808 38.9034 23.9571 38.8925 23.9321 38.8865C23.907 38.8805 23.881 38.8795 23.8556 38.8835C23.8301 38.8876 23.8057 38.8966 23.7837 38.91C23.7618 38.9235 23.7426 38.9412 23.7275 38.962Z" fill="#056C34"/>
<path d="M25.6158 38.9185C25.5949 38.9336 25.5771 38.9528 25.5636 38.9748C25.5501 38.9968 25.5411 39.0213 25.5371 39.0468C25.533 39.0723 25.5341 39.0984 25.5402 39.1235C25.5462 39.1486 25.5572 39.1723 25.5724 39.1931L25.6876 39.3518C25.7027 39.3727 25.7218 39.3903 25.7438 39.4038C25.7658 39.4173 25.7902 39.4263 25.8157 39.4304C25.8412 39.4344 25.8672 39.4334 25.8922 39.4274C25.9173 39.4214 25.941 39.4105 25.9618 39.3954C25.9827 39.3802 26.0004 39.3611 26.0138 39.3391C26.0273 39.3171 26.0363 39.2927 26.0404 39.2673C26.0444 39.2418 26.0434 39.2158 26.0374 39.1907C26.0314 39.1656 26.0205 39.142 26.0054 39.1211L25.89 38.9624C25.8749 38.9415 25.8558 38.9238 25.8339 38.9103C25.8119 38.8967 25.7875 38.8877 25.762 38.8836C25.7366 38.8795 25.7105 38.8805 25.6854 38.8865C25.6603 38.8925 25.6367 38.9033 25.6158 38.9185Z" fill="#056C34"/>
<path d="M26.3004 37.5189C26.321 37.5189 26.3415 37.5156 26.361 37.5093L26.5476 37.4487C26.5732 37.4417 26.5971 37.4296 26.618 37.4131C26.6388 37.3966 26.656 37.376 26.6686 37.3527C26.6813 37.3293 26.689 37.3036 26.6914 37.2772C26.6938 37.2507 26.6908 37.2241 26.6826 37.1988C26.6744 37.1735 26.6612 37.1502 26.6437 37.1302C26.6262 37.1102 26.6048 37.094 26.5809 37.0825C26.557 37.071 26.5309 37.0645 26.5044 37.0634C26.4779 37.0623 26.4514 37.0666 26.4265 37.076L26.24 37.1366C26.1956 37.151 26.1578 37.1808 26.1334 37.2206C26.109 37.2604 26.0996 37.3076 26.1069 37.3537C26.1142 37.3998 26.1377 37.4418 26.1731 37.4722C26.2086 37.5025 26.2537 37.5192 26.3004 37.5193V37.5189Z" fill="#056C34"/>
<path d="M99.785 31.2617C103.388 31.2617 106.308 34.1823 106.308 37.785C106.308 41.3877 103.388 44.3083 99.785 44.3083C96.1823 44.3083 93.2617 41.3877 93.2617 37.785C93.2617 34.1823 96.1823 31.2617 99.785 31.2617ZM99.785 28C94.3892 28 90 32.3892 90 37.785C90 43.1808 94.3892 47.57 99.785 47.57C105.181 47.57 109.57 43.1808 109.57 37.785C109.57 32.3892 105.181 28 99.785 28Z" fill="#056C34"/>
<path d="M99.8086 31.9231C98.6447 31.9231 97.5069 32.2682 96.5392 32.9149C95.5714 33.5615 94.8172 34.4806 94.3718 35.5558C93.9264 36.6311 93.8098 37.8144 94.0369 38.9559C94.264 40.0974 94.8244 41.146 95.6474 41.969C96.4704 42.792 97.519 43.3525 98.6605 43.5795C99.8021 43.8066 100.985 43.69 102.061 43.2446C103.136 42.7992 104.055 42.045 104.702 41.0772C105.348 40.1095 105.693 38.9717 105.693 37.8078C105.692 36.2477 105.071 34.7519 103.968 33.6486C102.865 32.5454 101.369 31.9249 99.8086 31.9231ZM104.547 35.0361C104.396 35.164 104.236 35.2805 104.068 35.3849C103.723 34.7787 103.253 34.2529 102.689 33.8428C102.125 33.4326 101.48 33.1475 100.797 33.0065C100.845 32.8144 100.906 32.626 100.981 32.4427C101.722 32.606 102.421 32.9207 103.035 33.367C103.649 33.8133 104.164 34.3815 104.547 35.0361ZM100.715 33.39C101.344 33.5194 101.939 33.7819 102.459 34.1599C102.979 34.538 103.412 35.0228 103.729 35.5818C103.292 35.8122 102.836 36.003 102.365 36.1519C102.067 36.2478 101.808 36.3284 101.582 36.3939C101.547 36.4033 101.511 36.403 101.476 36.3929C101.441 36.3828 101.41 36.3633 101.386 36.3367C101.197 36.1333 100.971 35.9684 100.719 35.8514C100.686 35.8366 100.658 35.8129 100.638 35.783C100.617 35.753 100.606 35.718 100.605 35.6819C100.597 35.4475 100.593 35.1768 100.593 34.8655C100.589 34.371 100.63 33.8772 100.715 33.39ZM100.587 32.3715C100.307 33.1722 100.176 34.0175 100.201 34.8655C100.201 35.1813 100.205 35.4557 100.212 35.6933C100.215 35.8021 100.249 35.9078 100.309 35.9985C100.369 36.0893 100.453 36.1614 100.552 36.2068C100.758 36.3026 100.943 36.4374 101.098 36.6038C101.153 36.6636 101.219 36.7113 101.294 36.744C101.368 36.7767 101.448 36.7937 101.529 36.7939C101.585 36.7939 101.64 36.7859 101.693 36.7702C101.922 36.7033 102.183 36.6227 102.486 36.5252C103.3 36.2873 104.064 35.9016 104.738 35.3874C104.968 35.8552 105.131 36.3536 105.219 36.8675C104.371 36.848 103.527 36.985 102.728 37.2715C102.451 37.3612 102.187 37.4512 101.943 37.5387C101.841 37.5755 101.751 37.6403 101.684 37.7256C101.616 37.8109 101.574 37.9134 101.562 38.0215C101.535 38.2465 101.464 38.4641 101.353 38.6621C101.299 38.7568 101.273 38.8647 101.277 38.9736C101.281 39.0825 101.316 39.1881 101.377 39.2784C101.524 39.4956 101.685 39.7239 101.855 39.9568C102.332 40.6572 102.934 41.2637 103.631 41.7459C103.258 42.1089 102.835 42.4172 102.375 42.6616C102.132 41.8493 101.741 41.089 101.221 40.4193C101.044 40.1749 100.876 39.9513 100.723 39.7545C100.656 39.6688 100.567 39.6034 100.465 39.5657C100.363 39.528 100.253 39.5194 100.146 39.5409C99.9233 39.5839 99.6941 39.5839 99.471 39.5409C99.3645 39.5193 99.2541 39.5279 99.1522 39.5656C99.0503 39.6033 98.961 39.6688 98.8943 39.7545C98.7415 39.9507 98.574 40.1749 98.3968 40.4193C97.8768 41.0891 97.4855 41.8496 97.2428 42.6622C96.7828 42.4177 96.3597 42.1094 95.986 41.7465C96.6828 41.2645 97.2848 40.6582 97.7619 39.9579C97.9327 39.7245 98.0938 39.4962 98.2407 39.2792C98.3016 39.1889 98.3361 39.0833 98.3402 38.9744C98.3444 38.8655 98.3181 38.7576 98.2642 38.6629C98.1537 38.465 98.0828 38.2473 98.0557 38.0222C98.0435 37.9141 98.0013 37.8116 97.9338 37.7263C97.8664 37.6409 97.7763 37.5762 97.674 37.5393C97.4306 37.4518 97.1665 37.3618 96.8894 37.2721C96.0908 36.9857 95.2463 36.8487 94.3981 36.8681C94.4869 36.3542 94.6489 35.8558 94.8793 35.388C95.5539 35.9023 96.3174 36.288 97.1316 36.5258C97.4333 36.6238 97.6956 36.7039 97.9245 36.7708C97.9776 36.7865 98.0327 36.7945 98.0881 36.7945C98.1692 36.7943 98.2495 36.7773 98.3237 36.7446C98.398 36.7119 98.4647 36.6641 98.5196 36.6044C98.6741 36.438 98.8595 36.3031 99.0653 36.2072C99.1642 36.1618 99.2484 36.0898 99.3085 35.9991C99.3686 35.9084 99.4022 35.8028 99.4055 35.694C99.4121 35.4557 99.4163 35.1813 99.4163 34.8655C99.4412 34.0175 99.3103 33.1722 99.0298 32.3715C99.5463 32.2967 100.071 32.2967 100.587 32.3715ZM104.32 37.8078C104.321 38.9342 103.898 40.0196 103.135 40.8483C102.781 40.504 102.459 40.1288 102.172 39.7271C102.004 39.4977 101.846 39.2733 101.701 39.0601C101.681 39.0298 101.67 38.9946 101.669 38.9583C101.668 38.9221 101.677 38.8863 101.695 38.8549C101.831 38.6125 101.917 38.346 101.95 38.0703C101.954 38.0345 101.968 38.0005 101.99 37.9722C102.012 37.9438 102.042 37.9222 102.076 37.9098C102.315 37.8237 102.575 37.7351 102.848 37.6464C103.317 37.49 103.799 37.3759 104.287 37.3057C104.308 37.4723 104.319 37.64 104.32 37.8078ZM101.672 41.9142C101.087 42.1813 100.452 42.3195 99.8086 42.3195C99.1655 42.3195 98.53 42.1813 97.9451 41.9142C98.1629 41.4705 98.4203 41.0472 98.714 40.6496C98.8888 40.4089 99.0536 40.1886 99.2044 39.995C99.2271 39.967 99.257 39.9458 99.2909 39.9337C99.3248 39.9216 99.3614 39.9191 99.3966 39.9264C99.6688 39.9787 99.9484 39.9787 100.221 39.9264C100.256 39.9191 100.292 39.9216 100.326 39.9338C100.36 39.946 100.39 39.9673 100.413 39.9954C100.563 40.189 100.728 40.4093 100.903 40.6502C101.197 41.0475 101.454 41.4706 101.672 41.9142ZM95.3291 37.3043C95.818 37.3745 96.2997 37.4886 96.7681 37.6452C97.0416 37.7337 97.3015 37.8218 97.5408 37.9085C97.5746 37.9208 97.6043 37.9425 97.6264 37.9709C97.6485 37.9993 97.6622 38.0333 97.6659 38.0691C97.699 38.3448 97.7856 38.6113 97.9209 38.8538C97.9392 38.8851 97.9483 38.9209 97.9473 38.9572C97.9463 38.9934 97.9352 39.0287 97.9153 39.0589C97.7709 39.2722 97.6128 39.4966 97.4445 39.7259C97.1578 40.128 96.8358 40.5036 96.4821 40.8483C96.0432 40.3774 95.7125 39.8161 95.5134 39.2039C95.3142 38.5917 95.2513 37.9434 95.3291 37.3043ZM99.0239 34.8655C99.0239 35.1768 99.0198 35.4475 99.013 35.6821C99.0117 35.7181 99.0003 35.753 98.9802 35.7829C98.96 35.8128 98.9319 35.8365 98.899 35.8512C98.6474 35.9684 98.4209 36.1332 98.2321 36.3367C98.2078 36.3633 98.1766 36.3828 98.142 36.3929C98.1074 36.403 98.0707 36.4033 98.0359 36.3939C97.8097 36.3276 97.5506 36.2478 97.2532 36.1521C96.7823 36.0031 96.3258 35.8123 95.8889 35.5818C96.206 35.0229 96.6389 34.5381 97.1586 34.1601C97.6784 33.7821 98.2729 33.5195 98.9023 33.39C98.987 33.8772 99.0277 34.371 99.0239 34.8655ZM98.6361 32.4427C98.7109 32.626 98.7722 32.8144 98.8197 33.0065C98.1368 33.1475 97.4918 33.4326 96.9278 33.8428C96.3638 34.2529 95.8938 34.7787 95.5492 35.3849C95.3811 35.2805 95.2209 35.1639 95.0698 35.0361C95.4536 34.3815 95.9684 33.8133 96.5821 33.367C97.1958 32.9207 97.8951 32.606 98.6361 32.4427ZM94.3432 37.2647C94.5416 37.2501 94.7408 37.2501 94.9391 37.2647C94.9174 37.4449 94.9059 37.6263 94.9046 37.8078C94.9025 39.031 95.3599 40.2102 96.1863 41.1119C96.0358 41.2386 95.8762 41.3542 95.7089 41.4576C94.8111 40.4539 94.3152 39.1544 94.3161 37.8078C94.3161 37.6244 94.3256 37.4434 94.3432 37.2647ZM97.6034 42.8366C97.6511 42.6446 97.7124 42.4563 97.7868 42.273C98.4216 42.5622 99.111 42.7118 99.8086 42.7118C100.506 42.7118 101.196 42.5622 101.83 42.273C101.905 42.4563 101.966 42.6446 102.014 42.8366C101.319 43.1424 100.568 43.3003 99.8086 43.3003C99.0493 43.3003 98.2983 43.1424 97.6034 42.8366ZM103.908 41.4576C103.741 41.3542 103.581 41.2386 103.431 41.1119C104.257 40.2102 104.715 39.031 104.713 37.8078C104.711 37.6262 104.7 37.4447 104.678 37.2643C104.876 37.2497 105.076 37.2497 105.274 37.2643C105.292 37.443 105.301 37.624 105.301 37.8075C105.302 39.1541 104.806 40.4538 103.908 41.4576Z" fill="#056C34"/>
<path d="M98.8281 37.8075C98.8281 38.0014 98.8856 38.1911 98.9934 38.3524C99.1012 38.5136 99.2544 38.6394 99.4336 38.7136C99.6128 38.7878 99.81 38.8072 100 38.7694C100.191 38.7316 100.365 38.6381 100.502 38.501C100.64 38.3638 100.733 38.189 100.771 37.9988C100.809 37.8085 100.789 37.6113 100.715 37.4321C100.641 37.2529 100.515 37.0997 100.354 36.992C100.193 36.8842 100.003 36.8267 99.8089 36.8267C99.5489 36.827 99.2996 36.9304 99.1157 37.1143C98.9319 37.2981 98.8284 37.5474 98.8281 37.8075ZM100.397 37.8075C100.397 37.9238 100.363 38.0376 100.298 38.1344C100.234 38.2312 100.142 38.3066 100.034 38.3511C99.9266 38.3957 99.8083 38.4073 99.6941 38.3846C99.58 38.3619 99.4751 38.3059 99.3928 38.2236C99.3105 38.1413 99.2545 38.0364 99.2317 37.9223C99.209 37.8081 99.2207 37.6898 99.2652 37.5823C99.3098 37.4747 99.3852 37.3828 99.482 37.3182C99.5788 37.2535 99.6925 37.219 99.8089 37.219C99.965 37.219 100.115 37.281 100.225 37.3913C100.335 37.5017 100.397 37.6514 100.397 37.8075Z" fill="#056C34"/>
<path d="M99.808 36.4356C99.86 36.4356 99.9099 36.415 99.9467 36.3782C99.9835 36.3414 100.004 36.2915 100.004 36.2395V36.0433C100.004 35.9913 99.9835 35.9414 99.9467 35.9046C99.9099 35.8678 99.86 35.8472 99.808 35.8472C99.756 35.8472 99.7061 35.8678 99.6693 35.9046C99.6325 35.9414 99.6118 35.9913 99.6118 36.0433V36.2395C99.6118 36.2915 99.6325 36.3414 99.6693 36.3782C99.7061 36.415 99.756 36.4356 99.808 36.4356Z" fill="#056C34"/>
<path d="M98.376 37.1366L98.1895 37.076C98.1647 37.0666 98.1382 37.0623 98.1117 37.0634C98.0851 37.0645 98.0591 37.071 98.0351 37.0825C98.0112 37.094 97.9898 37.1102 97.9724 37.1302C97.9549 37.1502 97.9416 37.1735 97.9334 37.1988C97.9252 37.2241 97.9222 37.2507 97.9246 37.2772C97.927 37.3036 97.9348 37.3293 97.9474 37.3527C97.9601 37.376 97.9773 37.3966 97.9981 37.4131C98.0189 37.4296 98.0428 37.4417 98.0685 37.4487L98.255 37.5093C98.2799 37.5187 98.3063 37.523 98.3329 37.5218C98.3594 37.5207 98.3854 37.5142 98.4094 37.5027C98.4333 37.4912 98.4547 37.475 98.4722 37.455C98.4897 37.435 98.5029 37.4117 98.5111 37.3864C98.5193 37.3612 98.5223 37.3345 98.5199 37.3081C98.5175 37.2816 98.5097 37.2559 98.4971 37.2326C98.4845 37.2092 98.4672 37.1887 98.4464 37.1722C98.4256 37.1557 98.4017 37.1436 98.376 37.1366Z" fill="#056C34"/>
<path d="M98.7275 38.962L98.6122 39.1207C98.5816 39.1629 98.569 39.2154 98.5771 39.2668C98.5853 39.3183 98.6136 39.3644 98.6557 39.3949C98.6978 39.4255 98.7504 39.4381 98.8018 39.43C98.8533 39.4218 98.8993 39.3935 98.9299 39.3514L99.0451 39.1927C99.0602 39.1719 99.0711 39.1482 99.0771 39.1232C99.0831 39.0981 99.0842 39.0721 99.0801 39.0466C99.0761 39.0212 99.0671 38.9968 99.0536 38.9748C99.0401 38.9528 99.0225 38.9337 99.0016 38.9186C98.9808 38.9034 98.9571 38.8925 98.9321 38.8865C98.907 38.8805 98.881 38.8795 98.8556 38.8835C98.8301 38.8876 98.8057 38.8966 98.7837 38.91C98.7618 38.9235 98.7426 38.9412 98.7275 38.962Z" fill="#056C34"/>
<path d="M100.616 38.9185C100.595 38.9336 100.577 38.9528 100.564 38.9748C100.55 38.9968 100.541 39.0213 100.537 39.0468C100.533 39.0723 100.534 39.0984 100.54 39.1235C100.546 39.1486 100.557 39.1723 100.572 39.1931L100.688 39.3518C100.703 39.3727 100.722 39.3903 100.744 39.4038C100.766 39.4173 100.79 39.4263 100.816 39.4304C100.841 39.4344 100.867 39.4334 100.892 39.4274C100.917 39.4214 100.941 39.4105 100.962 39.3954C100.983 39.3802 101 39.3611 101.014 39.3391C101.027 39.3171 101.036 39.2927 101.04 39.2673C101.044 39.2418 101.043 39.2158 101.037 39.1907C101.031 39.1656 101.021 39.142 101.005 39.1211L100.89 38.9624C100.875 38.9415 100.856 38.9238 100.834 38.9103C100.812 38.8967 100.787 38.8877 100.762 38.8836C100.737 38.8795 100.711 38.8805 100.685 38.8865C100.66 38.8925 100.637 38.9033 100.616 38.9185Z" fill="#056C34"/>
<path d="M101.3 37.5189C101.321 37.5189 101.341 37.5156 101.361 37.5093L101.548 37.4487C101.573 37.4417 101.597 37.4296 101.618 37.4131C101.639 37.3966 101.656 37.376 101.669 37.3527C101.681 37.3293 101.689 37.3036 101.691 37.2772C101.694 37.2507 101.691 37.2241 101.683 37.1988C101.674 37.1735 101.661 37.1502 101.644 37.1302C101.626 37.1102 101.605 37.094 101.581 37.0825C101.557 37.071 101.531 37.0645 101.504 37.0634C101.478 37.0623 101.451 37.0666 101.427 37.076L101.24 37.1366C101.196 37.151 101.158 37.1808 101.133 37.2206C101.109 37.2604 101.1 37.3076 101.107 37.3537C101.114 37.3998 101.138 37.4418 101.173 37.4722C101.209 37.5025 101.254 37.5192 101.3 37.5193V37.5189Z" fill="#056C34"/>
<path d="M55.2259 7.84791C53.3019 8.50008 51.3911 9.18487 49.4867 9.88269C47.2563 10.6979 45.0585 11.5979 42.8672 12.5044C41.7585 12.961 40.6172 13.3718 39.5476 13.9066C37.4476 14.9631 34.8128 16.1305 32.6672 17.1088C29.615 18.4979 27.3454 18.1653 24.1302 18.3153C23.8889 18.3283 23.6476 18.3414 23.4128 18.3675C22.1346 18.4979 20.8432 18.7653 19.5715 19.0001C18.1824 19.2544 16.8063 19.561 15.4367 19.8805C13.9954 20.2131 12.5606 20.5979 11.1454 21.0218C11.1454 21.0218 4.17368 22.9262 4.5976 29.8523C4.61064 30.0153 4.48673 30.1523 4.32368 30.1523C3.76934 30.1523 3.31934 30.6088 3.31934 31.1631V37.1044C3.31934 37.6653 3.54108 38.2001 3.9389 38.5979L4.66281 39.3218C5.06064 39.7196 5.59542 39.9414 6.15629 39.9414H13.5389C13.3628 39.1523 13.2715 38.337 13.2715 37.4957C13.2715 31.1957 18.3846 26.0827 24.6846 26.0827C30.9846 26.0827 36.0976 31.1957 36.0976 37.4957C36.0976 38.8131 35.8759 40.0718 35.465 41.2457C39.0715 41.2457 88.2715 41.2457 88.2715 41.2457H88.7019C88.4215 40.261 88.2715 39.224 88.2715 38.1479C88.2715 31.8479 93.3846 26.7349 99.6846 26.7349C105.985 26.7349 111.098 31.8479 111.098 38.1479C111.098 38.5262 111.078 38.9044 111.039 39.2696L121.904 37.5805C122.361 37.4305 122.674 37.0066 122.674 36.524C122.674 36.524 122.674 25.711 122.674 25.6718C122.674 25.2805 122.08 25.0262 121.832 24.7849C120.828 23.8262 120.248 22.3849 120.098 21.0218C120.045 20.5849 120.065 20.1414 120.078 19.7044C120.091 19.3979 120.078 19.0588 119.791 18.8631C118.845 18.2044 112.05 16.287 102.489 15.2305C102.032 15.1783 101.576 15.1849 101.119 15.2305C95.4389 15.8044 89.2889 15.7588 82.2324 16.4631L49.6237 19.724L43.7737 20.311C43.3563 20.3501 42.9454 20.174 42.6976 19.8349L41.5824 18.3479C41.3346 18.0153 41.3867 17.5523 41.7063 17.2849C43.4737 15.8501 49.2389 10.9001 56.7911 9.28269V7.32617C56.2628 7.49574 55.7411 7.67182 55.2128 7.84791H55.2259Z" stroke="#056C34" stroke-linecap="round" stroke-linejoin="round"/>
<path opacity="0.22" d="M27.4565 22.326C27.4565 22.326 49.6305 25.5869 71.1522 21.6738C92.6739 17.7608 114.848 19.0651 115.5 19.0651C116.152 19.0651 120.717 26.2391 120.717 26.2391L109.63 28.1956C109.63 28.1956 100.5 18.413 88.1087 29.4999C88.1087 29.4999 82.2065 25.5869 71.7913 29.4999L36.1109 30.9673L27.4631 22.326H27.4565Z" fill="url(#paint0_linear_2747_243)"/>
<path d="M41.4781 16.9727L44.7387 15.1524L47.9996 20.0437L43.4343 20.3697L41.8042 18.7392L41.4781 16.9727Z" fill="#056C34"/>
<line x1="54" y1="21.5" x2="58" y2="21.5" stroke="#056C34"/>
<path d="M120.25 28C120.25 26.5655 121.348 25.3875 122.75 25.2612V30.75H120.25V28Z" fill="#B0190C" stroke="#056C34" stroke-width="0.5"/>
</g>
<defs>
<linearGradient id="paint0_linear_2747_243" x1="74.087" y1="18.8564" x2="74.087" y2="30.9673" gradientUnits="userSpaceOnUse">
<stop stop-color="#532380"/>
<stop offset="0.80349" stop-opacity="0"/>
</linearGradient>
<clipPath id="clip0_2747_243">
<rect width="120" height="40.9239" fill="white" transform="translate(3 7)"/>
</clipPath>
</defs>
</svg>
