<svg width="125" height="55" viewBox="0 0 125 55" fill="none" xmlns="http://www.w3.org/2000/svg">
<g clip-path="url(#clip0_2747_305)">
<path d="M117.237 23.3016L116.781 16.4603L118.783 17.6611L120.201 23.336L118.99 23.7398L117.237 23.3016Z" fill="#B0190C" stroke="#056C34" stroke-width="0.5"/>
<path d="M19.25 31.0833C22.6557 31.0833 25.4167 33.8443 25.4167 37.25C25.4167 40.6557 22.6557 43.4167 19.25 43.4167C15.8443 43.4167 13.0833 40.6557 13.0833 37.25C13.0833 33.8443 15.8443 31.0833 19.25 31.0833ZM19.25 28C14.1492 28 10 32.1492 10 37.25C10 42.3508 14.1492 46.5 19.25 46.5C24.3508 46.5 28.5 42.3508 28.5 37.25C28.5 32.1492 24.3508 28 19.25 28Z" fill="#056C34"/>
<path d="M19.2725 31.7087C18.1722 31.7087 17.0967 32.035 16.1818 32.6463C15.267 33.2575 14.554 34.1264 14.1329 35.1429C13.7119 36.1594 13.6017 37.2779 13.8164 38.357C14.031 39.4361 14.5608 40.4274 15.3388 41.2054C16.1168 41.9834 17.1081 42.5132 18.1872 42.7278C19.2663 42.9425 20.3848 42.8323 21.4013 42.4113C22.4178 41.9902 23.2867 41.2772 23.8979 40.3624C24.5092 39.4475 24.8355 38.372 24.8355 37.2717C24.8338 35.7969 24.2472 34.3829 23.2043 33.3399C22.1614 32.297 20.7474 31.7104 19.2725 31.7087ZM23.7522 34.6516C23.6094 34.7724 23.4579 34.8826 23.299 34.9813C22.9732 34.4082 22.5289 33.9112 21.9957 33.5235C21.4626 33.1357 20.8528 32.8662 20.2072 32.7329C20.2522 32.5513 20.3102 32.3732 20.3808 32.2C21.0813 32.3543 21.7424 32.6518 22.3225 33.0737C22.9027 33.4956 23.3894 34.0327 23.7522 34.6516ZM20.1292 33.0954C20.7244 33.2178 21.2865 33.4659 21.7779 33.8233C22.2694 34.1806 22.6787 34.6389 22.9785 35.1674C22.5657 35.3852 22.1342 35.5656 21.6892 35.7063C21.4077 35.797 21.1628 35.8732 20.949 35.9351C20.9161 35.944 20.8814 35.9437 20.8487 35.9341C20.8159 35.9246 20.7865 35.9062 20.7635 35.881C20.5851 35.6887 20.3709 35.5329 20.1331 35.4222C20.1019 35.4083 20.0752 35.3859 20.0562 35.3576C20.0371 35.3292 20.0263 35.2961 20.0251 35.262C20.0181 35.0404 20.0142 34.7845 20.0142 34.4902C20.0106 34.0228 20.0491 33.556 20.1292 33.0954ZM20.0086 32.1326C19.7436 32.8895 19.6197 33.6886 19.6433 34.4902C19.6433 34.7888 19.6472 35.0482 19.6537 35.2728C19.6568 35.3756 19.6885 35.4756 19.7454 35.5614C19.8022 35.6471 19.8819 35.7153 19.9755 35.7582C20.17 35.8488 20.3451 35.9763 20.4911 36.1335C20.5431 36.19 20.6061 36.2351 20.6763 36.266C20.7465 36.297 20.8224 36.313 20.8991 36.3132C20.9515 36.3133 21.0036 36.3057 21.0537 36.2908C21.2701 36.2276 21.5173 36.1514 21.8036 36.0592C22.5732 35.8343 23.2948 35.4698 23.9324 34.9837C24.1502 35.4259 24.3034 35.897 24.3873 36.3828C23.5855 36.3644 22.7872 36.4939 22.0323 36.7648C21.7703 36.8495 21.5207 36.9346 21.2905 37.0173C21.1938 37.0521 21.1087 37.1133 21.045 37.194C20.9812 37.2746 20.9413 37.3715 20.9297 37.4737C20.9041 37.6864 20.8372 37.8922 20.7328 38.0793C20.6818 38.1688 20.6569 38.2708 20.6608 38.3738C20.6647 38.4767 20.6972 38.5765 20.7548 38.6619C20.8937 38.8672 21.046 39.0831 21.2069 39.3032C21.6581 39.9653 22.2273 40.5386 22.8862 40.9945C22.533 41.3377 22.133 41.6291 21.6981 41.8601C21.4688 41.0922 21.099 40.3735 20.6076 39.7404C20.4407 39.5094 20.2816 39.298 20.137 39.112C20.0738 39.031 19.9894 38.9692 19.8931 38.9335C19.7968 38.8978 19.6925 38.8897 19.5918 38.91C19.3809 38.9507 19.1642 38.9507 18.9533 38.91C18.8527 38.8896 18.7483 38.8977 18.652 38.9334C18.5557 38.9691 18.4712 39.0309 18.4082 39.112C18.2637 39.2974 18.1054 39.5094 17.9379 39.7404C17.4463 40.3736 17.0764 41.0925 16.847 41.8607C16.4122 41.6296 16.0122 41.3381 15.6589 40.9951C16.3176 40.5394 16.8867 39.9662 17.3377 39.3043C17.4992 39.0836 17.6514 38.8678 17.7903 38.6627C17.8479 38.5773 17.8805 38.4775 17.8844 38.3745C17.8883 38.2716 17.8634 38.1696 17.8126 38.08C17.7081 37.8929 17.6411 37.6872 17.6154 37.4744C17.6039 37.3722 17.564 37.2753 17.5002 37.1946C17.4364 37.1139 17.3514 37.0527 17.2546 37.0179C17.0245 36.9352 16.7749 36.8501 16.5129 36.7653C15.758 36.4945 14.9596 36.365 14.1579 36.3833C14.2417 35.8976 14.3949 35.4264 14.6127 34.9842C15.2504 35.4704 15.9722 35.835 16.7419 36.0597C17.0271 36.1525 17.275 36.2281 17.4914 36.2914C17.5416 36.3063 17.5937 36.3138 17.646 36.3138C17.7228 36.3136 17.7986 36.2975 17.8688 36.2666C17.939 36.2357 18.0021 36.1906 18.054 36.1341C18.2001 35.9768 18.3753 35.8492 18.5699 35.7586C18.6633 35.7157 18.743 35.6476 18.7998 35.5619C18.8566 35.4762 18.8883 35.3763 18.8914 35.2735C18.8977 35.0482 18.9016 34.7888 18.9016 34.4902C18.9252 33.6886 18.8014 32.8895 18.5363 32.1326C19.0245 32.0619 19.5204 32.0619 20.0086 32.1326ZM23.5374 37.2717C23.5381 38.3365 23.1381 39.3625 22.4171 40.146C22.0825 39.8205 21.7777 39.4658 21.5064 39.086C21.3477 38.8692 21.1982 38.6571 21.0613 38.4555C21.0425 38.4269 21.032 38.3936 21.0311 38.3593C21.0302 38.325 21.0389 38.2912 21.0562 38.2616C21.1841 38.0324 21.266 37.7804 21.2972 37.5198C21.3008 37.486 21.3137 37.4539 21.3347 37.4271C21.3556 37.4003 21.3836 37.3798 21.4155 37.3682C21.6418 37.2868 21.8875 37.2029 22.1461 37.1191C22.589 36.9712 23.0443 36.8634 23.5065 36.797C23.5257 36.9546 23.5361 37.113 23.5374 37.2717ZM21.0341 41.1536C20.4811 41.406 19.8803 41.5367 19.2725 41.5367C18.6646 41.5367 18.0638 41.406 17.5109 41.1536C17.7168 40.7341 17.9601 40.334 18.2378 39.9581C18.403 39.7306 18.5587 39.5223 18.7013 39.3393C18.7228 39.3129 18.751 39.2928 18.7831 39.2814C18.8151 39.2699 18.8497 39.2675 18.8831 39.2744C19.1403 39.3239 19.4046 39.3239 19.6619 39.2744C19.6953 39.2675 19.7299 39.27 19.762 39.2815C19.7941 39.293 19.8224 39.3131 19.8438 39.3397C19.986 39.5227 20.1418 39.731 20.3074 39.9587C20.5851 40.3343 20.8283 40.7342 21.0341 41.1536ZM15.0379 36.7957C15.5001 36.8621 15.9554 36.97 16.3983 37.118C16.6568 37.2016 16.9025 37.2849 17.1287 37.3669C17.1606 37.3786 17.1887 37.399 17.2096 37.4258C17.2305 37.4527 17.2435 37.4849 17.247 37.5187C17.2782 37.7793 17.3601 38.0313 17.488 38.2605C17.5053 38.2901 17.5139 38.324 17.5129 38.3582C17.512 38.3925 17.5015 38.4258 17.4827 38.4544C17.3462 38.656 17.1967 38.8681 17.0376 39.0849C16.7667 39.465 16.4622 39.8201 16.1279 40.146C15.7129 39.7008 15.4004 39.1702 15.2121 38.5915C15.0238 38.0128 14.9644 37.3999 15.0379 36.7957ZM18.5307 34.4902C18.5307 34.7845 18.5268 35.0404 18.5204 35.2622C18.5192 35.2963 18.5084 35.3293 18.4894 35.3575C18.4703 35.3858 18.4437 35.4081 18.4126 35.422C18.1748 35.5328 17.9607 35.6887 17.7821 35.881C17.7592 35.9062 17.7297 35.9246 17.697 35.9341C17.6643 35.9437 17.6296 35.944 17.5967 35.9351C17.3829 35.8725 17.138 35.797 16.8568 35.7065C16.4117 35.5657 15.9801 35.3853 15.5671 35.1674C15.8669 34.639 16.2761 34.1808 16.7674 33.8234C17.2587 33.4661 17.8207 33.2178 18.4158 33.0954C18.4958 33.556 18.5343 34.0228 18.5307 34.4902ZM18.1641 32.2C18.2348 32.3732 18.2928 32.5513 18.3377 32.7329C17.6921 32.8662 17.0824 33.1357 16.5492 33.5235C16.0161 33.9112 15.5718 34.4082 15.246 34.9813C15.0871 34.8825 14.9356 34.7723 14.7928 34.6516C15.1556 34.0327 15.6423 33.4956 16.2224 33.0737C16.8026 32.6518 17.4636 32.3543 18.1641 32.2ZM14.1059 36.7583C14.2935 36.7445 14.4817 36.7445 14.6693 36.7583C14.6487 36.9287 14.6378 37.1001 14.6366 37.2717C14.6346 38.428 15.0671 39.5428 15.8483 40.3952C15.706 40.5149 15.5551 40.6241 15.3969 40.7219C14.5483 39.7732 14.0795 38.5447 14.0803 37.2717C14.0803 37.0984 14.0892 36.9272 14.1059 36.7583ZM17.1878 42.0255C17.2329 41.844 17.2909 41.666 17.3612 41.4928C17.9613 41.7661 18.6131 41.9076 19.2725 41.9076C19.9319 41.9076 20.5836 41.7661 21.1837 41.4928C21.2541 41.666 21.312 41.844 21.3571 42.0255C20.7001 42.3146 19.9902 42.4639 19.2725 42.4639C18.5547 42.4639 17.8448 42.3146 17.1878 42.0255ZM23.148 40.7219C22.9898 40.6241 22.839 40.5149 22.6967 40.3952C23.4779 39.5428 23.9103 38.428 23.9083 37.2717C23.9071 37.1 23.8963 36.9284 23.8757 36.7579C24.0632 36.7442 24.2515 36.7442 24.439 36.7579C24.4557 36.9268 24.4646 37.098 24.4646 37.2714C24.4656 38.5444 23.9968 39.7731 23.148 40.7219Z" fill="#056C34"/>
<path d="M18.3452 37.2714C18.3452 37.4548 18.3996 37.634 18.5015 37.7865C18.6033 37.939 18.7482 38.0578 18.9176 38.128C19.087 38.1982 19.2734 38.2165 19.4533 38.1808C19.6331 38.145 19.7983 38.0567 19.928 37.927C20.0577 37.7973 20.146 37.6321 20.1817 37.4523C20.2175 37.2724 20.1991 37.086 20.129 36.9166C20.0588 36.7472 19.94 36.6024 19.7875 36.5005C19.635 36.3986 19.4558 36.3442 19.2724 36.3442C19.0266 36.3445 18.7909 36.4423 18.6171 36.6161C18.4433 36.7899 18.3455 37.0256 18.3452 37.2714ZM19.8287 37.2714C19.8287 37.3814 19.7961 37.489 19.7349 37.5805C19.6738 37.672 19.5869 37.7433 19.4853 37.7854C19.3836 37.8275 19.2718 37.8385 19.1639 37.817C19.0559 37.7956 18.9568 37.7426 18.879 37.6648C18.8012 37.587 18.7482 37.4878 18.7268 37.3799C18.7053 37.272 18.7163 37.1602 18.7584 37.0585C18.8005 36.9569 18.8718 36.87 18.9633 36.8089C19.0548 36.7477 19.1624 36.7151 19.2724 36.7151C19.4199 36.7151 19.5614 36.7737 19.6657 36.878C19.7701 36.9824 19.8287 37.1239 19.8287 37.2714Z" fill="#056C34"/>
<path d="M19.2719 35.9738C19.321 35.9738 19.3682 35.9542 19.403 35.9195C19.4378 35.8847 19.4573 35.8375 19.4573 35.7883V35.6029C19.4573 35.5537 19.4378 35.5066 19.403 35.4718C19.3682 35.437 19.321 35.4175 19.2719 35.4175C19.2227 35.4175 19.1755 35.437 19.1407 35.4718C19.106 35.5066 19.0864 35.5537 19.0864 35.6029V35.7883C19.0864 35.8375 19.106 35.8847 19.1407 35.9195C19.1755 35.9542 19.2227 35.9738 19.2719 35.9738Z" fill="#056C34"/>
<path d="M17.9187 36.637L17.7424 36.5797C17.7189 36.5708 17.6938 36.5667 17.6688 36.5678C17.6437 36.5689 17.6191 36.575 17.5964 36.5859C17.5738 36.5967 17.5536 36.6121 17.5371 36.631C17.5206 36.6499 17.508 36.6719 17.5003 36.6958C17.4925 36.7197 17.4897 36.7449 17.492 36.7699C17.4943 36.7949 17.5016 36.8191 17.5135 36.8412C17.5255 36.8633 17.5418 36.8828 17.5614 36.8983C17.5811 36.9139 17.6037 36.9254 17.6279 36.932L17.8043 36.9893C17.8278 36.9982 17.8528 37.0022 17.8779 37.0012C17.903 37.0001 17.9276 36.9939 17.9502 36.9831C17.9728 36.9722 17.993 36.9569 18.0096 36.938C18.0261 36.9191 18.0386 36.897 18.0464 36.8732C18.0541 36.8493 18.057 36.8241 18.0547 36.7991C18.0524 36.7741 18.0451 36.7498 18.0331 36.7277C18.0212 36.7056 18.0049 36.6862 17.9852 36.6706C17.9656 36.655 17.9429 36.6436 17.9187 36.637Z" fill="#056C34"/>
<path d="M18.2509 38.3629L18.1418 38.5129C18.1129 38.5527 18.101 38.6024 18.1087 38.651C18.1165 38.6996 18.1432 38.7432 18.183 38.7721C18.2229 38.801 18.2725 38.8129 18.3212 38.8052C18.3698 38.7975 18.4133 38.7708 18.4423 38.731L18.5511 38.5809C18.5654 38.5612 18.5757 38.5389 18.5814 38.5152C18.5871 38.4915 18.588 38.4669 18.5842 38.4429C18.5804 38.4188 18.5719 38.3957 18.5592 38.375C18.5464 38.3542 18.5297 38.3361 18.51 38.3218C18.4903 38.3075 18.468 38.2972 18.4443 38.2915C18.4206 38.2858 18.396 38.2849 18.3719 38.2887C18.3479 38.2925 18.3248 38.301 18.304 38.3137C18.2833 38.3265 18.2652 38.3432 18.2509 38.3629Z" fill="#056C34"/>
<path d="M20.0352 38.3217C20.0154 38.336 19.9987 38.3541 19.9859 38.3749C19.9731 38.3958 19.9646 38.4189 19.9608 38.443C19.957 38.4671 19.958 38.4918 19.9637 38.5155C19.9694 38.5392 19.9798 38.5616 19.9942 38.5813L20.1031 38.7313C20.1174 38.7511 20.1354 38.7678 20.1562 38.7805C20.177 38.7933 20.2001 38.8018 20.2241 38.8056C20.2482 38.8094 20.2728 38.8085 20.2965 38.8028C20.3202 38.7971 20.3426 38.7868 20.3623 38.7725C20.382 38.7582 20.3987 38.7401 20.4115 38.7193C20.4242 38.6986 20.4327 38.6755 20.4366 38.6514C20.4404 38.6273 20.4394 38.6028 20.4338 38.5791C20.4281 38.5553 20.4178 38.533 20.4035 38.5133L20.2944 38.3633C20.2801 38.3435 20.2621 38.3267 20.2413 38.3139C20.2206 38.3011 20.1975 38.2926 20.1734 38.2887C20.1493 38.2849 20.1247 38.2858 20.101 38.2914C20.0773 38.2971 20.0549 38.3074 20.0352 38.3217Z" fill="#056C34"/>
<path d="M20.6823 36.9986C20.7017 36.9986 20.7211 36.9955 20.7396 36.9895L20.9159 36.9322C20.9402 36.9256 20.9628 36.9142 20.9825 36.8986C21.0021 36.883 21.0184 36.8636 21.0304 36.8415C21.0423 36.8194 21.0496 36.7951 21.0519 36.7701C21.0542 36.7451 21.0514 36.7199 21.0436 36.696C21.0358 36.6722 21.0233 36.6501 21.0068 36.6312C20.9903 36.6123 20.9701 36.597 20.9474 36.5861C20.9248 36.5753 20.9002 36.5691 20.8751 36.568C20.85 36.567 20.825 36.571 20.8015 36.5799L20.6252 36.6372C20.5832 36.6508 20.5475 36.679 20.5244 36.7166C20.5013 36.7543 20.4925 36.7989 20.4993 36.8425C20.5062 36.8861 20.5284 36.9258 20.562 36.9545C20.5955 36.9831 20.6382 36.9989 20.6823 36.999V36.9986Z" fill="#056C34"/>
<path d="M97 30C100.314 30 103 32.6863 103 36C103 39.3137 100.314 42 97 42C93.6863 42 91 39.3137 91 36C91 32.6863 93.6863 30 97 30ZM97 27C92.0371 27 88 31.0371 88 36C88 40.9629 92.0371 45 97 45C101.963 45 106 40.9629 106 36C106 31.0371 101.963 27 97 27Z" fill="#056C34"/>
<path d="M97.0215 30.6084C95.951 30.6084 94.9045 30.9258 94.0144 31.5206C93.1243 32.1153 92.4306 32.9607 92.0209 33.9497C91.6112 34.9387 91.504 36.027 91.7129 37.077C91.9217 38.127 92.4372 39.0914 93.1942 39.8484C93.9512 40.6053 94.9156 41.1208 95.9656 41.3297C97.0155 41.5385 98.1038 41.4313 99.0929 41.0217C100.082 40.612 100.927 39.9183 101.522 39.0281C102.117 38.138 102.434 37.0916 102.434 36.021C102.433 34.586 101.862 33.2102 100.847 32.1955C99.8323 31.1808 98.4566 30.61 97.0215 30.6084ZM101.38 33.4717C101.241 33.5893 101.094 33.6965 100.939 33.7925C100.622 33.2349 100.19 32.7513 99.6712 32.3741C99.1524 31.9968 98.5592 31.7346 97.931 31.6049C97.9748 31.4282 98.0312 31.2549 98.0999 31.0863C98.7815 31.2366 99.4247 31.526 99.9891 31.9364C100.554 32.3469 101.027 32.8696 101.38 33.4717ZM97.8551 31.9576C98.4342 32.0766 98.9811 32.3181 99.4593 32.6658C99.9374 33.0135 100.336 33.4594 100.627 33.9736C100.226 34.1855 99.806 34.361 99.373 34.4979C99.0991 34.5862 98.8608 34.6603 98.6527 34.7206C98.6207 34.7292 98.5869 34.7289 98.5551 34.7196C98.5233 34.7103 98.4946 34.6924 98.4723 34.6679C98.2986 34.4808 98.0903 34.3292 97.8589 34.2215C97.8285 34.208 97.8026 34.1862 97.784 34.1586C97.7655 34.1311 97.755 34.0988 97.7539 34.0656C97.747 33.85 97.7432 33.6011 97.7432 33.3147C97.7397 32.8599 97.7772 32.4057 97.8551 31.9576ZM97.7378 31.0208C97.4799 31.7573 97.3594 32.5348 97.3824 33.3147C97.3824 33.6052 97.3862 33.8576 97.3925 34.0761C97.3955 34.1762 97.4264 34.2734 97.4817 34.3569C97.537 34.4404 97.6145 34.5067 97.7055 34.5484C97.8948 34.6366 98.0652 34.7606 98.2073 34.9136C98.2578 34.9686 98.3191 35.0124 98.3875 35.0425C98.4558 35.0726 98.5296 35.0882 98.6042 35.0884C98.6551 35.0885 98.7058 35.0811 98.7547 35.0666C98.9652 35.0051 99.2057 34.9309 99.4843 34.8413C100.233 34.6225 100.935 34.2678 101.556 33.7948C101.767 34.2251 101.917 34.6835 101.998 35.1561C101.218 35.1382 100.441 35.2642 99.7067 35.5278C99.4518 35.6102 99.209 35.693 98.9851 35.7735C98.8909 35.8074 98.8082 35.8669 98.7461 35.9454C98.6841 36.0239 98.6452 36.1181 98.634 36.2175C98.609 36.4245 98.544 36.6247 98.4424 36.8068C98.3928 36.8939 98.3685 36.9931 98.3723 37.0933C98.3761 37.1934 98.4078 37.2906 98.4638 37.3737C98.599 37.5734 98.7471 37.7834 98.9037 37.9976C99.3426 38.6418 99.8965 39.1996 100.538 39.6432C100.194 39.9771 99.8048 40.2606 99.3816 40.4854C99.1585 39.7383 98.7987 39.039 98.3206 38.423C98.1582 38.1982 98.0034 37.9925 97.8627 37.8115C97.8012 37.7327 97.7191 37.6726 97.6254 37.6379C97.5317 37.6032 97.4302 37.5953 97.3322 37.6151C97.127 37.6546 96.9162 37.6546 96.711 37.6151C96.6131 37.5952 96.5116 37.6031 96.4178 37.6378C96.3241 37.6725 96.242 37.7327 96.1806 37.8115C96.04 37.992 95.886 38.1982 95.723 38.423C95.2447 39.0391 94.8848 39.7386 94.6616 40.4859C94.2385 40.2611 93.8494 39.9776 93.5057 39.6437C94.1465 39.2004 94.7002 38.6427 95.139 37.9986C95.2962 37.7839 95.4443 37.5739 95.5794 37.3744C95.6354 37.2913 95.6671 37.1942 95.671 37.094C95.6748 36.9939 95.6506 36.8946 95.6011 36.8075C95.4994 36.6254 95.4342 36.4253 95.4093 36.2182C95.3981 36.1188 95.3592 36.0245 95.2972 35.946C95.2351 35.8675 95.1523 35.8079 95.0582 35.774C94.8343 35.6936 94.5914 35.6108 94.3365 35.5283C93.602 35.2648 92.8253 35.1388 92.0451 35.1566C92.1267 34.684 92.2758 34.2256 92.4877 33.7954C93.1082 34.2684 93.8104 34.6231 94.5593 34.8418C94.8368 34.932 95.078 35.0056 95.2886 35.0672C95.3374 35.0817 95.3881 35.089 95.4391 35.089C95.5137 35.0888 95.5875 35.0732 95.6558 35.0431C95.7241 35.013 95.7855 34.9691 95.836 34.9142C95.9781 34.7611 96.1486 34.637 96.3379 34.5488C96.4289 34.5071 96.5063 34.4408 96.5616 34.3574C96.6169 34.274 96.6478 34.1768 96.6508 34.0768C96.6569 33.8576 96.6607 33.6052 96.6607 33.3147C96.6837 32.5348 96.5632 31.7573 96.3053 31.0208C96.7803 30.952 97.2628 30.952 97.7378 31.0208ZM101.171 36.021C101.172 37.057 100.783 38.0553 100.081 38.8176C99.7556 38.5009 99.4591 38.1558 99.1951 37.7863C99.0406 37.5754 98.8952 37.369 98.7621 37.1729C98.7437 37.145 98.7335 37.1126 98.7326 37.0792C98.7317 37.0459 98.7402 37.0129 98.757 36.9841C98.8815 36.7612 98.9611 36.516 98.9916 36.2624C98.995 36.2295 99.0076 36.1983 99.028 36.1722C99.0483 36.1461 99.0756 36.1262 99.1067 36.1149C99.3268 36.0357 99.5658 35.9541 99.8175 35.8726C100.248 35.7287 100.691 35.6238 101.141 35.5592C101.16 35.7124 101.17 35.8666 101.171 36.021ZM98.7355 39.798C98.1975 40.0436 97.613 40.1707 97.0215 40.1707C96.4301 40.1707 95.8456 40.0436 95.3075 39.798C95.5079 39.3898 95.7446 39.0005 96.0148 38.6348C96.1755 38.4134 96.3271 38.2108 96.4658 38.0327C96.4867 38.007 96.5142 37.9875 96.5454 37.9764C96.5766 37.9652 96.6102 37.9629 96.6427 37.9696C96.893 38.0177 97.1501 38.0177 97.4004 37.9696C97.4329 37.9629 97.4666 37.9653 97.4978 37.9765C97.5291 37.9877 97.5566 38.0073 97.5774 38.0331C97.7158 38.2112 97.8674 38.4138 98.0285 38.6354C98.2987 39.0008 98.5353 39.3899 98.7355 39.798ZM92.9014 35.5579C93.3511 35.6225 93.7941 35.7274 94.225 35.8715C94.4765 35.9528 94.7156 36.0339 94.9357 36.1136C94.9668 36.125 94.9941 36.1449 95.0144 36.171C95.0348 36.1971 95.0474 36.2284 95.0508 36.2614C95.0812 36.5149 95.1609 36.7601 95.2853 36.9831C95.3021 37.0119 95.3105 37.0448 95.3096 37.0782C95.3086 37.1115 95.2984 37.1439 95.2801 37.1718C95.1473 37.3679 95.0019 37.5743 94.8471 37.7852C94.5835 38.1551 94.2872 38.5006 93.9619 38.8176C93.5582 38.3844 93.2541 37.8682 93.0709 37.3051C92.8877 36.742 92.8299 36.1457 92.9014 35.5579ZM96.2998 33.3147C96.2998 33.6011 96.2961 33.85 96.2897 34.0658C96.2886 34.099 96.2781 34.1311 96.2596 34.1586C96.2411 34.1861 96.2152 34.2078 96.1849 34.2213C95.9535 34.3291 95.7452 34.4808 95.5715 34.6679C95.5492 34.6924 95.5205 34.7103 95.4887 34.7196C95.4569 34.7289 95.4231 34.7292 95.3911 34.7206C95.183 34.6596 94.9447 34.5862 94.6712 34.4981C94.2381 34.3611 93.8181 34.1856 93.4164 33.9736C93.708 33.4595 94.1062 33.0136 94.5842 32.6659C95.0622 32.3182 95.609 32.0767 96.188 31.9576C96.2659 32.4057 96.3033 32.8599 96.2998 33.3147ZM95.9432 31.0863C96.0119 31.2549 96.0683 31.4282 96.112 31.6049C95.4839 31.7346 94.8906 31.9968 94.3719 32.3741C93.8532 32.7513 93.4209 33.2349 93.1039 33.7925C92.9493 33.6964 92.8019 33.5892 92.6629 33.4717C93.0159 32.8696 93.4895 32.3469 94.0539 31.9364C94.6184 31.526 95.2616 31.2366 95.9432 31.0863ZM91.9946 35.5215C92.1771 35.5081 92.3603 35.5081 92.5428 35.5215C92.5227 35.6873 92.5121 35.854 92.511 36.021C92.509 37.146 92.9298 38.2307 93.6899 39.0601C93.5514 39.1766 93.4047 39.2828 93.2507 39.378C92.425 38.4549 91.9689 37.2596 91.9697 36.021C91.9697 35.8524 91.9784 35.6858 91.9946 35.5215ZM94.9932 40.6463C95.0371 40.4698 95.0935 40.2966 95.1619 40.128C95.7458 40.394 96.3799 40.5316 97.0215 40.5316C97.6631 40.5316 98.2973 40.394 98.8811 40.128C98.9496 40.2966 99.0059 40.4698 99.0498 40.6463C98.4106 40.9276 97.7199 41.0728 97.0215 41.0728C96.3232 41.0728 95.6325 40.9276 94.9932 40.6463ZM100.792 39.378C100.638 39.2828 100.492 39.1766 100.353 39.0601C101.113 38.2307 101.534 37.146 101.532 36.021C101.531 35.8539 101.52 35.687 101.5 35.5211C101.683 35.5077 101.866 35.5077 102.048 35.5211C102.065 35.6855 102.073 35.852 102.073 36.0207C102.074 37.2593 101.618 38.4548 100.792 39.378Z" fill="#056C34"/>
<path d="M96.1196 36.0208C96.1196 36.1992 96.1725 36.3736 96.2717 36.5219C96.3708 36.6703 96.5117 36.7859 96.6765 36.8542C96.8414 36.9225 97.0227 36.9403 97.1977 36.9055C97.3727 36.8707 97.5335 36.7848 97.6596 36.6586C97.7858 36.5325 97.8717 36.3717 97.9065 36.1968C97.9413 36.0218 97.9235 35.8404 97.8552 35.6755C97.7869 35.5107 97.6713 35.3698 97.5229 35.2707C97.3746 35.1716 97.2002 35.1187 97.0217 35.1187C96.7826 35.1189 96.5533 35.2141 96.3842 35.3832C96.2151 35.5523 96.1199 35.7816 96.1196 36.0208ZM97.563 36.0208C97.563 36.1278 97.5313 36.2325 97.4718 36.3215C97.4123 36.4105 97.3278 36.4799 97.2289 36.5208C97.13 36.5618 97.0211 36.5725 96.9161 36.5516C96.8111 36.5307 96.7147 36.4792 96.639 36.4035C96.5633 36.3278 96.5118 36.2314 96.4909 36.1264C96.47 36.0214 96.4807 35.9125 96.5217 35.8136C96.5626 35.7147 96.632 35.6302 96.721 35.5707C96.81 35.5112 96.9147 35.4795 97.0217 35.4795C97.1653 35.4795 97.303 35.5365 97.4045 35.638C97.506 35.7395 97.563 35.8772 97.563 36.0208Z" fill="#056C34"/>
<path d="M97.0212 34.7585C97.0691 34.7585 97.115 34.7395 97.1488 34.7057C97.1827 34.6719 97.2017 34.626 97.2017 34.5781V34.3977C97.2017 34.3499 97.1827 34.304 97.1488 34.2701C97.115 34.2363 97.0691 34.2173 97.0212 34.2173C96.9734 34.2173 96.9275 34.2363 96.8937 34.2701C96.8598 34.304 96.8408 34.3499 96.8408 34.3977V34.5781C96.8408 34.626 96.8598 34.6719 96.8937 34.7057C96.9275 34.7395 96.9734 34.7585 97.0212 34.7585Z" fill="#056C34"/>
<path d="M95.7045 35.4036L95.5329 35.3479C95.5101 35.3392 95.4857 35.3353 95.4613 35.3363C95.4369 35.3374 95.413 35.3434 95.391 35.3539C95.3689 35.3645 95.3493 35.3794 95.3332 35.3978C95.3171 35.4162 95.3049 35.4376 95.2974 35.4609C95.2899 35.4841 95.2871 35.5086 95.2893 35.533C95.2915 35.5573 95.2987 35.5809 95.3103 35.6024C95.3219 35.6239 95.3377 35.6428 95.3569 35.658C95.376 35.6731 95.398 35.6843 95.4216 35.6907L95.5932 35.7464C95.616 35.7551 95.6404 35.759 95.6648 35.758C95.6892 35.757 95.7131 35.751 95.7352 35.7404C95.7572 35.7298 95.7768 35.7149 95.7929 35.6965C95.809 35.6781 95.8212 35.6567 95.8287 35.6335C95.8363 35.6102 95.839 35.5857 95.8368 35.5614C95.8346 35.537 95.8275 35.5134 95.8159 35.4919C95.8042 35.4705 95.7884 35.4515 95.7692 35.4364C95.7501 35.4212 95.7281 35.4101 95.7045 35.4036Z" fill="#056C34"/>
<path d="M96.0277 37.0827L95.9217 37.2287C95.8935 37.2674 95.8819 37.3158 95.8894 37.3631C95.897 37.4104 95.9229 37.4528 95.9617 37.4809C96.0005 37.5091 96.0488 37.5206 96.0961 37.5131C96.1434 37.5056 96.1858 37.4796 96.2139 37.4409L96.3198 37.2949C96.3338 37.2757 96.3438 37.254 96.3493 37.2309C96.3549 37.2079 96.3558 37.184 96.3521 37.1606C96.3484 37.1371 96.3401 37.1147 96.3277 37.0945C96.3153 37.0743 96.2991 37.0567 96.2799 37.0428C96.2607 37.0288 96.239 37.0188 96.2159 37.0133C96.1929 37.0078 96.1689 37.0068 96.1455 37.0105C96.1221 37.0142 96.0997 37.0225 96.0795 37.0349C96.0592 37.0473 96.0417 37.0635 96.0277 37.0827Z" fill="#056C34"/>
<path d="M97.7646 37.0427C97.7453 37.0566 97.729 37.0742 97.7166 37.0945C97.7042 37.1147 97.6959 37.1372 97.6921 37.1607C97.6884 37.1842 97.6894 37.2081 97.695 37.2312C97.7006 37.2543 97.7107 37.2761 97.7247 37.2953L97.8306 37.4412C97.8445 37.4604 97.8621 37.4767 97.8823 37.4891C97.9025 37.5015 97.925 37.5098 97.9484 37.5135C97.9718 37.5172 97.9958 37.5163 98.0188 37.5108C98.0419 37.5052 98.0636 37.4952 98.0828 37.4813C98.102 37.4674 98.1183 37.4498 98.1307 37.4296C98.1431 37.4094 98.1514 37.3869 98.1551 37.3635C98.1588 37.3401 98.1579 37.3161 98.1524 37.2931C98.1468 37.27 98.1368 37.2483 98.1229 37.2291L98.0168 37.0831C98.0029 37.0639 97.9854 37.0476 97.9652 37.0351C97.9449 37.0227 97.9225 37.0143 97.8991 37.0106C97.8756 37.0068 97.8517 37.0077 97.8286 37.0132C97.8055 37.0187 97.7838 37.0288 97.7646 37.0427Z" fill="#056C34"/>
<path d="M98.3936 35.7555C98.4125 35.7555 98.4313 35.7525 98.4493 35.7467L98.6209 35.6909C98.6445 35.6845 98.6665 35.6734 98.6856 35.6582C98.7048 35.643 98.7206 35.6241 98.7323 35.6026C98.7439 35.5812 98.751 35.5575 98.7532 35.5332C98.7554 35.5089 98.7527 35.4844 98.7451 35.4611C98.7376 35.4379 98.7254 35.4164 98.7093 35.398C98.6932 35.3797 98.6736 35.3647 98.6516 35.3542C98.6295 35.3436 98.6056 35.3376 98.5812 35.3366C98.5568 35.3356 98.5324 35.3395 98.5096 35.3481L98.338 35.4039C98.2972 35.4172 98.2624 35.4446 98.24 35.4812C98.2175 35.5178 98.2089 35.5612 98.2156 35.6036C98.2223 35.646 98.2439 35.6846 98.2765 35.7126C98.3091 35.7405 98.3506 35.7558 98.3936 35.7559V35.7555Z" fill="#056C34"/>
<path d="M43.6885 16.0288C41.3318 17.3525 39.0122 18.7319 36.7111 20.1669C36.7111 20.1669 20.3132 19.8762 11.8946 23.9896C11.4369 24.2123 11.0287 24.5154 10.6575 24.8679L5.78331 29.4515L3.30908 30.07V39.0329L4.85547 39.6576L8.86372 39.6824H9.03692C8.82042 38.835 8.7029 37.9442 8.7029 37.035C8.7029 31.0597 13.5524 26.2102 19.5276 26.2102C25.5029 26.2102 30.3524 31.0597 30.3524 37.035C30.3524 37.9937 30.2287 38.9277 29.9936 39.8123C33.1854 39.8308 83.0905 40.1339 86.6905 40.1525C86.2575 38.9896 86.0225 37.7277 86.0225 36.4164C86.0225 30.4411 90.872 25.5917 96.8472 25.5917C102.822 25.5917 107.672 30.4411 107.672 36.4164C107.672 37.7772 107.418 39.0762 106.961 40.2762H107.536C107.536 40.2762 122.072 39.3545 122.691 34.4061V26.9834L120.216 23.8906L118.979 17.7051C118.979 17.7051 117.742 15.2308 110.938 15.8494L107.981 15.7504C107.177 15.7257 106.212 15.2741 105.439 15.0638C103.262 14.4824 101.078 13.9071 98.9008 13.3442C83.6349 9.41022 65.8699 4.87001 50.8452 12.2618C48.4204 13.4556 46.039 14.7174 43.6885 16.035V16.0288Z" stroke="#056C34" stroke-miterlimit="10"/>
<path d="M86.6534 17.804L41.109 20.6865C40.7688 20.705 40.6513 20.2473 40.9606 20.0989L52.4905 13.9813C56.4059 12.138 63.0183 9.9236 67.3358 10.27H73.8059C74.8822 10.27 75.9585 10.3813 77.0101 10.604C81.0616 11.4638 91.2183 13.6968 91.0822 13.8885L89.3626 16.3009C88.7317 17.1793 87.742 17.736 86.6596 17.804H86.6534Z" fill="#056C34"/>
<path opacity="0.22" d="M119.907 33.7815L113.041 38.1114H109.2C109.33 37.4063 109.392 36.6826 109.392 35.9465C109.392 28.9444 103.713 23.2661 96.7114 23.2661C89.7094 23.2661 84.031 28.9444 84.031 35.9465C84.031 36.6826 84.0929 37.4063 84.2228 38.1114H35.165L33.6187 35.9465C61.1444 34.4001 74.53 26.2042 74.53 26.2042L84.6496 22.029L99.5197 18.3176H114.959L119.907 33.7815Z" fill="url(#paint0_linear_2747_305)"/>
<line x1="71" y1="21.5" x2="75" y2="21.5" stroke="#056C34"/>
</g>
<defs>
<linearGradient id="paint0_linear_2747_305" x1="76.763" y1="18.3176" x2="76.763" y2="38.1114" gradientUnits="userSpaceOnUse">
<stop stop-color="#046C34"/>
<stop offset="1" stop-opacity="0"/>
</linearGradient>
<clipPath id="clip0_2747_305">
<rect width="120" height="38.3072" fill="white" transform="translate(3 8)"/>
</clipPath>
</defs>
</svg>
