<svg width="125" height="55" viewBox="0 0 125 55" fill="none" xmlns="http://www.w3.org/2000/svg">
<g clip-path="url(#clip0_2747_212)">
<path d="M25.355 30.4517C29.1675 30.4517 32.2583 33.5425 32.2583 37.355C32.2583 41.1675 29.1675 44.2583 25.355 44.2583C21.5425 44.2583 18.4517 41.1675 18.4517 37.355C18.4517 33.5425 21.5425 30.4517 25.355 30.4517ZM25.355 27C19.6449 27 15 31.6449 15 37.355C15 43.0651 19.6449 47.71 25.355 47.71C31.0651 47.71 35.71 43.0651 35.71 37.355C35.71 31.6449 31.0651 27 25.355 27Z" fill="#056C34"/>
<path d="M25.3799 31.1516C24.1482 31.1516 22.9442 31.5169 21.9201 32.2011C20.8959 32.8854 20.0977 33.858 19.6264 34.996C19.155 36.1339 19.0317 37.3861 19.272 38.5941C19.5123 39.8021 20.1054 40.9118 20.9764 41.7827C21.8473 42.6536 22.9569 43.2468 24.165 43.4871C25.373 43.7273 26.6251 43.604 27.7631 43.1327C28.901 42.6613 29.8736 41.8631 30.5579 40.839C31.2422 39.8149 31.6074 38.6109 31.6074 37.3792C31.6056 35.7281 30.9489 34.1452 29.7814 32.9777C28.6139 31.8102 27.031 31.1535 25.3799 31.1516ZM30.3947 34.446C30.2349 34.5813 30.0653 34.7046 29.8874 34.8151C29.5227 34.1735 29.0253 33.6172 28.4285 33.1831C27.8316 32.7491 27.1491 32.4474 26.4263 32.2981C26.4766 32.0948 26.5416 31.8954 26.6206 31.7015C27.4048 31.8743 28.1448 32.2073 28.7943 32.6796C29.4437 33.1519 29.9886 33.7532 30.3947 34.446ZM26.3389 32.7039C27.0052 32.8409 27.6345 33.1187 28.1847 33.5188C28.7348 33.9188 29.193 34.4319 29.5287 35.0235C29.0666 35.2673 28.5835 35.4692 28.0854 35.6267C27.7702 35.7282 27.496 35.8136 27.2567 35.8829C27.2198 35.8928 27.181 35.8924 27.1444 35.8817C27.1077 35.8711 27.0748 35.8505 27.0491 35.8223C26.8493 35.607 26.6096 35.4326 26.3433 35.3087C26.3084 35.2931 26.2786 35.268 26.2572 35.2363C26.2359 35.2046 26.2238 35.1676 26.2225 35.1294C26.2146 34.8813 26.2102 34.5948 26.2102 34.2654C26.2062 33.7421 26.2493 33.2195 26.3389 32.7039ZM26.204 31.6262C25.9073 32.4734 25.7686 33.368 25.7951 34.2654C25.7951 34.5996 25.7994 34.89 25.8067 35.1414C25.8101 35.2565 25.8457 35.3684 25.9093 35.4645C25.9729 35.5605 26.0621 35.6368 26.1669 35.6849C26.3847 35.7862 26.5807 35.9289 26.7441 36.105C26.8023 36.1682 26.8729 36.2187 26.9515 36.2533C27.0301 36.2879 27.115 36.3059 27.2008 36.3062C27.2595 36.3062 27.3178 36.2977 27.374 36.281C27.6162 36.2103 27.8929 36.1249 28.2134 36.0218C29.0749 35.7701 29.8828 35.3619 30.5965 34.8178C30.8404 35.3128 31.0118 35.8402 31.1057 36.384C30.2081 36.3634 29.3144 36.5084 28.4694 36.8116C28.1761 36.9065 27.8967 37.0018 27.639 37.0944C27.5307 37.1333 27.4355 37.2018 27.3641 37.2921C27.2927 37.3824 27.248 37.4909 27.2351 37.6052C27.2064 37.8434 27.1315 38.0737 27.0146 38.2832C26.9576 38.3834 26.9297 38.4976 26.934 38.6128C26.9384 38.7281 26.9749 38.8398 27.0393 38.9354C27.1948 39.1652 27.3652 39.4069 27.5454 39.6533C28.0505 40.3945 28.6877 41.0363 29.4253 41.5466C29.0299 41.9308 28.5822 42.257 28.0953 42.5156C27.8385 41.656 27.4246 40.8515 26.8745 40.1427C26.6877 39.8841 26.5096 39.6474 26.3477 39.4392C26.277 39.3485 26.1825 39.2794 26.0747 39.2394C25.9668 39.1995 25.85 39.1904 25.7374 39.2132C25.5013 39.2587 25.2587 39.2587 25.0226 39.2132C24.91 39.1903 24.7931 39.1994 24.6853 39.2393C24.5775 39.2793 24.483 39.3485 24.4123 39.4392C24.2506 39.6468 24.0734 39.8841 23.8859 40.1427C23.3355 40.8516 22.9215 41.6564 22.6647 42.5163C22.1779 42.2576 21.7301 41.9313 21.3347 41.5473C22.0721 41.0371 22.7091 40.3955 23.214 39.6545C23.3948 39.4075 23.5652 39.1658 23.7207 38.9363C23.7851 38.8406 23.8216 38.7289 23.826 38.6137C23.8304 38.4985 23.8026 38.3843 23.7456 38.284C23.6286 38.0746 23.5536 37.8443 23.5249 37.6061C23.512 37.4917 23.4673 37.3831 23.3959 37.2928C23.3245 37.2025 23.2293 37.134 23.121 37.095C22.8633 37.0024 22.5839 36.9071 22.2906 36.8122C21.4455 36.5091 20.5519 36.3641 19.6543 36.3846C19.7482 35.8409 19.9196 35.3134 20.1635 34.8184C20.8774 35.3626 21.6853 35.7708 22.547 36.0224C22.8663 36.1262 23.1438 36.2109 23.386 36.2817C23.4422 36.2984 23.5005 36.3068 23.5592 36.3068C23.645 36.3065 23.7299 36.2886 23.8085 36.2539C23.8871 36.2193 23.9577 36.1688 24.0159 36.1056C24.1794 35.9295 24.3755 35.7867 24.5934 35.6853C24.698 35.6373 24.7871 35.561 24.8507 35.4651C24.9143 35.3691 24.9499 35.2573 24.9533 35.1422C24.9604 34.89 24.9647 34.5996 24.9647 34.2654C24.9912 33.368 24.8525 32.4734 24.5558 31.6262C25.1023 31.547 25.6575 31.547 26.204 31.6262ZM30.1544 37.3792C30.1551 38.5711 29.7073 39.7197 28.9001 40.5967C28.5256 40.2324 28.1844 39.8353 27.8807 39.4102C27.703 39.1675 27.5357 38.93 27.3825 38.7044C27.3614 38.6723 27.3496 38.635 27.3486 38.5966C27.3476 38.5583 27.3573 38.5204 27.3767 38.4873C27.5199 38.2307 27.6115 37.9486 27.6465 37.6569C27.6505 37.619 27.665 37.5831 27.6884 37.553C27.7118 37.523 27.7432 37.5002 27.779 37.4871C28.0322 37.396 28.3073 37.3021 28.5968 37.2083C29.0926 37.0428 29.6023 36.9221 30.1197 36.8477C30.1412 37.0241 30.1528 37.2015 30.1544 37.3792ZM27.352 41.7247C26.7329 42.0074 26.0604 42.1536 25.3799 42.1536C24.6994 42.1536 24.0269 42.0074 23.4078 41.7247C23.6384 41.2551 23.9107 40.8072 24.2216 40.3864C24.4065 40.1317 24.5809 39.8986 24.7405 39.6937C24.7645 39.6641 24.7962 39.6417 24.8321 39.6289C24.8679 39.616 24.9067 39.6134 24.944 39.6211C25.232 39.6764 25.5278 39.6764 25.8158 39.6211C25.8532 39.6134 25.892 39.6161 25.9279 39.629C25.9638 39.6419 25.9955 39.6644 26.0195 39.6941C26.1787 39.899 26.3531 40.1322 26.5384 40.3871C26.8493 40.8076 27.1216 41.2553 27.352 41.7247ZM20.6395 36.8463C21.1569 36.9206 21.6666 37.0414 22.1623 37.2071C22.4517 37.3007 22.7268 37.3939 22.98 37.4857C23.0158 37.4987 23.0472 37.5216 23.0706 37.5517C23.094 37.5817 23.1085 37.6178 23.1124 37.6557C23.1474 37.9474 23.2391 38.2295 23.3823 38.486C23.4016 38.5192 23.4112 38.5571 23.4102 38.5954C23.4091 38.6338 23.3974 38.6711 23.3763 38.7031C23.2235 38.9288 23.0562 39.1663 22.8781 39.4089C22.5748 39.8345 22.2339 40.232 21.8597 40.5967C21.3952 40.0984 21.0452 39.5044 20.8345 38.8566C20.6237 38.2087 20.5571 37.5226 20.6395 36.8463ZM24.5496 34.2654C24.5496 34.5948 24.5452 34.8813 24.5379 35.1296C24.5366 35.1677 24.5246 35.2047 24.5032 35.2363C24.4819 35.2679 24.4522 35.2929 24.4173 35.3085C24.1511 35.4325 23.9114 35.607 23.7115 35.8223C23.6858 35.8505 23.6529 35.8711 23.6163 35.8817C23.5796 35.8924 23.5408 35.8928 23.504 35.8829C23.2646 35.8127 22.9904 35.7282 22.6757 35.6269C22.1774 35.4693 21.6942 35.2674 21.2319 35.0235C21.5675 34.4319 22.0256 33.919 22.5756 33.5189C23.1256 33.1189 23.7547 32.841 24.4209 32.7039C24.5105 33.2195 24.5536 33.7421 24.5496 34.2654ZM24.1392 31.7015C24.2182 31.8954 24.2832 32.0948 24.3335 32.2981C23.6107 32.4474 22.9282 32.7491 22.3313 33.1831C21.7345 33.6172 21.2371 34.1735 20.8724 34.8151C20.6945 34.7045 20.525 34.5812 20.3651 34.446C20.7712 33.7532 21.316 33.1519 21.9655 32.6796C22.6149 32.2073 23.355 31.8743 24.1392 31.7015ZM19.5962 36.8044C19.8061 36.789 20.0169 36.789 20.2268 36.8044C20.2038 36.9951 20.1916 37.187 20.1903 37.3792C20.188 38.6735 20.6721 39.9215 21.5466 40.8757C21.3874 41.0098 21.2185 41.132 21.0414 41.2415C20.0913 40.1794 19.5666 38.8041 19.5675 37.3792C19.5675 37.1851 19.5775 36.9935 19.5962 36.8044ZM23.0462 42.7008C23.0967 42.4977 23.1616 42.2984 23.2403 42.1044C23.9121 42.4104 24.6417 42.5688 25.3799 42.5688C26.1181 42.5688 26.8477 42.4104 27.5195 42.1044C27.5982 42.2984 27.6631 42.4977 27.7136 42.7008C26.9781 43.0244 26.1834 43.1915 25.3799 43.1915C24.5764 43.1915 23.7817 43.0244 23.0462 42.7008ZM29.7184 41.2415C29.5413 41.132 29.3724 41.0098 29.2132 40.8757C30.0877 39.9215 30.5718 38.6735 30.5695 37.3792C30.5682 37.1869 30.556 36.9948 30.533 36.8039C30.7429 36.7886 30.9537 36.7886 31.1636 36.8039C31.1823 36.9931 31.1923 37.1847 31.1923 37.3787C31.1933 38.8039 30.6685 40.1793 29.7184 41.2415Z" fill="#056C34"/>
<path d="M24.3423 37.3787C24.3423 37.584 24.4032 37.7847 24.5172 37.9554C24.6313 38.1261 24.7934 38.2591 24.983 38.3377C25.1727 38.4162 25.3814 38.4368 25.5827 38.3967C25.784 38.3567 25.969 38.2578 26.1141 38.1127C26.2593 37.9675 26.3581 37.7826 26.3982 37.5812C26.4382 37.3799 26.4177 37.1712 26.3391 36.9815C26.2606 36.7919 26.1275 36.6298 25.9569 36.5157C25.7862 36.4017 25.5855 36.3408 25.3802 36.3408C25.105 36.3411 24.8412 36.4506 24.6467 36.6452C24.4521 36.8398 24.3426 37.1036 24.3423 37.3787ZM26.003 37.3787C26.003 37.5019 25.9664 37.6223 25.898 37.7247C25.8296 37.8271 25.7323 37.907 25.6185 37.9541C25.5047 38.0012 25.3795 38.0136 25.2587 37.9895C25.1379 37.9655 25.0269 37.9062 24.9399 37.8191C24.8528 37.732 24.7935 37.621 24.7694 37.5002C24.7454 37.3794 24.7577 37.2542 24.8049 37.1404C24.852 37.0266 24.9318 36.9294 25.0342 36.8609C25.1366 36.7925 25.257 36.756 25.3802 36.756C25.5454 36.756 25.7038 36.8216 25.8206 36.9384C25.9374 37.0552 26.003 37.2136 26.003 37.3787Z" fill="#056C34"/>
<path d="M25.3795 35.927C25.4345 35.927 25.4873 35.9051 25.5262 35.8662C25.5652 35.8272 25.587 35.7744 25.587 35.7194V35.5118C25.587 35.4567 25.5652 35.4039 25.5262 35.365C25.4873 35.3261 25.4345 35.3042 25.3795 35.3042C25.3244 35.3042 25.2716 35.3261 25.2327 35.365C25.1937 35.4039 25.1719 35.4567 25.1719 35.5118V35.7194C25.1719 35.7744 25.1937 35.8272 25.2327 35.8662C25.2716 35.9051 25.3244 35.927 25.3795 35.927Z" fill="#056C34"/>
<path d="M23.8638 36.6689L23.6664 36.6048C23.6401 36.5948 23.6121 36.5903 23.584 36.5915C23.5559 36.5927 23.5284 36.5996 23.5031 36.6117C23.4777 36.6239 23.4551 36.6411 23.4366 36.6622C23.4181 36.6834 23.4041 36.708 23.3954 36.7348C23.3867 36.7615 23.3836 36.7897 23.3861 36.8177C23.3887 36.8457 23.3969 36.8729 23.4102 36.8976C23.4236 36.9223 23.4418 36.9441 23.4639 36.9615C23.4859 36.979 23.5112 36.9918 23.5383 36.9992L23.7357 37.0633C23.762 37.0733 23.79 37.0778 23.8181 37.0766C23.8462 37.0754 23.8737 37.0685 23.8991 37.0564C23.9244 37.0442 23.947 37.0271 23.9655 37.0059C23.984 36.9848 23.9981 36.9601 24.0067 36.9333C24.0154 36.9066 24.0186 36.8784 24.016 36.8504C24.0135 36.8224 24.0053 36.7952 23.9919 36.7705C23.9786 36.7458 23.9603 36.724 23.9383 36.7066C23.9163 36.6891 23.8909 36.6763 23.8638 36.6689Z" fill="#056C34"/>
<path d="M24.2359 38.6005L24.1139 38.7685C24.0815 38.8131 24.0681 38.8687 24.0768 38.9231C24.0854 38.9775 24.1153 39.0263 24.1599 39.0587C24.2045 39.091 24.2602 39.1044 24.3146 39.0957C24.369 39.0871 24.4178 39.0572 24.4501 39.0126L24.572 38.8446C24.588 38.8226 24.5995 38.7976 24.6059 38.771C24.6123 38.7445 24.6134 38.717 24.6091 38.6901C24.6048 38.6631 24.5953 38.6373 24.581 38.614C24.5668 38.5908 24.5481 38.5706 24.526 38.5545C24.5039 38.5385 24.4789 38.527 24.4524 38.5206C24.4259 38.5143 24.3984 38.5132 24.3714 38.5175C24.3445 38.5217 24.3187 38.5313 24.2954 38.5455C24.2722 38.5598 24.2519 38.5785 24.2359 38.6005Z" fill="#056C34"/>
<path d="M26.2343 38.5545C26.2121 38.5705 26.1934 38.5907 26.1791 38.614C26.1648 38.6373 26.1552 38.6632 26.151 38.6902C26.1467 38.7172 26.1478 38.7448 26.1543 38.7714C26.1607 38.798 26.1723 38.823 26.1884 38.8451L26.3103 39.013C26.3263 39.0351 26.3465 39.0538 26.3698 39.0681C26.393 39.0823 26.4189 39.0919 26.4458 39.0962C26.4728 39.1004 26.5003 39.0994 26.5268 39.093C26.5534 39.0866 26.5784 39.0751 26.6005 39.0591C26.6226 39.0431 26.6413 39.0228 26.6555 38.9996C26.6698 38.9763 26.6793 38.9505 26.6836 38.9235C26.6879 38.8966 26.6868 38.8691 26.6805 38.8425C26.6741 38.816 26.6626 38.791 26.6466 38.7689L26.5245 38.601C26.5085 38.5788 26.4883 38.5601 26.4651 38.5457C26.4418 38.5314 26.416 38.5218 26.389 38.5175C26.3621 38.5132 26.3345 38.5142 26.308 38.5206C26.2814 38.5269 26.2564 38.5384 26.2343 38.5545Z" fill="#056C34"/>
<path d="M26.9588 37.0735C26.9806 37.0735 27.0022 37.07 27.0229 37.0633L27.2204 36.9992C27.2475 36.9918 27.2728 36.979 27.2948 36.9615C27.3169 36.9441 27.3351 36.9223 27.3485 36.8976C27.3618 36.8729 27.37 36.8457 27.3726 36.8177C27.3751 36.7897 27.372 36.7615 27.3633 36.7348C27.3546 36.708 27.3406 36.6834 27.3221 36.6622C27.3036 36.6411 27.281 36.6239 27.2556 36.6117C27.2303 36.5996 27.2027 36.5927 27.1747 36.5915C27.1466 36.5903 27.1186 36.5948 27.0923 36.6048L26.8949 36.6689C26.8479 36.6842 26.8079 36.7157 26.7821 36.7578C26.7563 36.8 26.7463 36.8499 26.754 36.8987C26.7617 36.9475 26.7866 36.992 26.8241 37.0241C26.8616 37.0562 26.9094 37.0739 26.9588 37.0739V37.0735Z" fill="#056C34"/>
<path d="M4.08819 33.0221C3.30995 33.8436 2.56053 35.6811 5.21951 39.3129L13.5063 39.6732C13.5063 39.6732 13.5784 39.6732 13.672 39.6804C13.564 39.0318 13.5063 38.3689 13.5063 37.6915C13.5063 31.0261 18.9107 25.6216 25.5762 25.6216C32.2417 25.6216 37.6461 31.0261 37.6461 37.6915C37.6461 38.4914 37.5668 39.2768 37.4155 40.0334H91.5679C91.5679 40.0334 91.6328 40.0334 91.7192 40.0334C91.4598 39.0534 91.3301 38.0302 91.3301 36.9709C91.3301 30.3055 96.7346 24.901 103.4 24.901C110.065 24.901 115.47 30.3055 115.47 36.9709C115.47 38.0302 115.333 39.0534 115.081 40.0334C115.174 40.0334 115.268 40.0334 115.268 40.0334H116.659C116.659 40.0334 121.602 38.232 122.323 36.0702C123.043 33.9084 122.323 28.6841 122.323 28.6841L119.894 26.2557V20.2244C119.894 20.2244 114.396 10.8567 104.308 7.97436C104.308 7.97436 73.1352 4.37141 59.8979 7.97436C45.9401 13.7391 37.293 18.7832 37.293 18.7832C37.293 18.7832 6.30761 20.945 5.58702 25.9891L4.86642 32.4745C4.86642 32.4745 4.47731 32.633 4.09539 33.0293L4.08819 33.0221Z" stroke="#056C34" stroke-miterlimit="10"/>
<path d="M103.355 30.4517C107.168 30.4517 110.258 33.5425 110.258 37.355C110.258 41.1675 107.168 44.2583 103.355 44.2583C99.5425 44.2583 96.4517 41.1675 96.4517 37.355C96.4517 33.5425 99.5425 30.4517 103.355 30.4517ZM103.355 27C97.6449 27 93 31.6449 93 37.355C93 43.0651 97.6449 47.71 103.355 47.71C109.065 47.71 113.71 43.0651 113.71 37.355C113.71 31.6449 109.065 27 103.355 27Z" fill="#056C34"/>
<path d="M103.38 31.1516C102.148 31.1516 100.944 31.5169 99.9201 32.2011C98.8959 32.8854 98.0977 33.858 97.6264 34.996C97.155 36.1339 97.0317 37.3861 97.272 38.5941C97.5123 39.8021 98.1054 40.9118 98.9764 41.7827C99.8473 42.6536 100.957 43.2468 102.165 43.4871C103.373 43.7273 104.625 43.604 105.763 43.1327C106.901 42.6613 107.874 41.8631 108.558 40.839C109.242 39.8149 109.607 38.6109 109.607 37.3792C109.606 35.7281 108.949 34.1452 107.781 32.9777C106.614 31.8102 105.031 31.1535 103.38 31.1516ZM108.395 34.446C108.235 34.5813 108.065 34.7046 107.887 34.8151C107.523 34.1735 107.025 33.6172 106.428 33.1831C105.832 32.7491 105.149 32.4474 104.426 32.2981C104.477 32.0948 104.542 31.8954 104.621 31.7015C105.405 31.8743 106.145 32.2073 106.794 32.6796C107.444 33.1519 107.989 33.7532 108.395 34.446ZM104.339 32.7039C105.005 32.8409 105.635 33.1187 106.185 33.5188C106.735 33.9188 107.193 34.4319 107.529 35.0235C107.067 35.2673 106.584 35.4692 106.085 35.6267C105.77 35.7282 105.496 35.8136 105.257 35.8829C105.22 35.8928 105.181 35.8924 105.144 35.8817C105.108 35.8711 105.075 35.8505 105.049 35.8223C104.849 35.607 104.61 35.4326 104.343 35.3087C104.308 35.2931 104.279 35.268 104.257 35.2363C104.236 35.2046 104.224 35.1676 104.222 35.1294C104.215 34.8813 104.21 34.5948 104.21 34.2654C104.206 33.7421 104.249 33.2195 104.339 32.7039ZM104.204 31.6262C103.907 32.4734 103.769 33.368 103.795 34.2654C103.795 34.5996 103.799 34.89 103.807 35.1414C103.81 35.2565 103.846 35.3684 103.909 35.4645C103.973 35.5605 104.062 35.6368 104.167 35.6849C104.385 35.7862 104.581 35.9289 104.744 36.105C104.802 36.1682 104.873 36.2187 104.951 36.2533C105.03 36.2879 105.115 36.3059 105.201 36.3062C105.259 36.3062 105.318 36.2977 105.374 36.281C105.616 36.2103 105.893 36.1249 106.213 36.0218C107.075 35.7701 107.883 35.3619 108.597 34.8178C108.84 35.3128 109.012 35.8402 109.106 36.384C108.208 36.3634 107.314 36.5084 106.469 36.8116C106.176 36.9065 105.897 37.0018 105.639 37.0944C105.531 37.1333 105.436 37.2018 105.364 37.2921C105.293 37.3824 105.248 37.4909 105.235 37.6052C105.206 37.8434 105.132 38.0737 105.015 38.2832C104.958 38.3834 104.93 38.4976 104.934 38.6128C104.938 38.7281 104.975 38.8398 105.039 38.9354C105.195 39.1652 105.365 39.4069 105.545 39.6533C106.05 40.3945 106.688 41.0363 107.425 41.5466C107.03 41.9308 106.582 42.257 106.095 42.5156C105.839 41.656 105.425 40.8515 104.875 40.1427C104.688 39.8841 104.51 39.6474 104.348 39.4392C104.277 39.3485 104.182 39.2794 104.075 39.2394C103.967 39.1995 103.85 39.1904 103.737 39.2132C103.501 39.2587 103.259 39.2587 103.023 39.2132C102.91 39.1903 102.793 39.1994 102.685 39.2393C102.577 39.2793 102.483 39.3485 102.412 39.4392C102.251 39.6468 102.073 39.8841 101.886 40.1427C101.336 40.8516 100.921 41.6564 100.665 42.5163C100.178 42.2576 99.7301 41.9313 99.3347 41.5473C100.072 41.0371 100.709 40.3955 101.214 39.6545C101.395 39.4075 101.565 39.1658 101.721 38.9363C101.785 38.8406 101.822 38.7289 101.826 38.6137C101.83 38.4985 101.803 38.3843 101.746 38.284C101.629 38.0746 101.554 37.8443 101.525 37.6061C101.512 37.4917 101.467 37.3831 101.396 37.2928C101.325 37.2025 101.229 37.134 101.121 37.095C100.863 37.0024 100.584 36.9071 100.291 36.8122C99.4455 36.5091 98.5519 36.3641 97.6543 36.3846C97.7482 35.8409 97.9196 35.3134 98.1635 34.8184C98.8774 35.3626 99.6853 35.7708 100.547 36.0224C100.866 36.1262 101.144 36.2109 101.386 36.2817C101.442 36.2984 101.501 36.3068 101.559 36.3068C101.645 36.3065 101.73 36.2886 101.809 36.2539C101.887 36.2193 101.958 36.1688 102.016 36.1056C102.179 35.9295 102.375 35.7867 102.593 35.6853C102.698 35.6373 102.787 35.561 102.851 35.4651C102.914 35.3691 102.95 35.2573 102.953 35.1422C102.96 34.89 102.965 34.5996 102.965 34.2654C102.991 33.368 102.853 32.4734 102.556 31.6262C103.102 31.547 103.657 31.547 104.204 31.6262ZM108.154 37.3792C108.155 38.5711 107.707 39.7197 106.9 40.5967C106.526 40.2324 106.184 39.8353 105.881 39.4102C105.703 39.1675 105.536 38.93 105.382 38.7044C105.361 38.6723 105.35 38.635 105.349 38.5966C105.348 38.5583 105.357 38.5204 105.377 38.4873C105.52 38.2307 105.612 37.9486 105.647 37.6569C105.65 37.619 105.665 37.5831 105.688 37.553C105.712 37.523 105.743 37.5002 105.779 37.4871C106.032 37.396 106.307 37.3021 106.597 37.2083C107.093 37.0428 107.602 36.9221 108.12 36.8477C108.141 37.0241 108.153 37.2015 108.154 37.3792ZM105.352 41.7247C104.733 42.0074 104.06 42.1536 103.38 42.1536C102.699 42.1536 102.027 42.0074 101.408 41.7247C101.638 41.2551 101.911 40.8072 102.222 40.3864C102.407 40.1317 102.581 39.8986 102.741 39.6937C102.765 39.6641 102.796 39.6417 102.832 39.6289C102.868 39.616 102.907 39.6134 102.944 39.6211C103.232 39.6764 103.528 39.6764 103.816 39.6211C103.853 39.6134 103.892 39.6161 103.928 39.629C103.964 39.6419 103.996 39.6644 104.019 39.6941C104.179 39.899 104.353 40.1322 104.538 40.3871C104.849 40.8076 105.122 41.2553 105.352 41.7247ZM98.6395 36.8463C99.1569 36.9206 99.6666 37.0414 100.162 37.2071C100.452 37.3007 100.727 37.3939 100.98 37.4857C101.016 37.4987 101.047 37.5216 101.071 37.5517C101.094 37.5817 101.109 37.6178 101.112 37.6557C101.147 37.9474 101.239 38.2295 101.382 38.486C101.402 38.5192 101.411 38.5571 101.41 38.5954C101.409 38.6338 101.397 38.6711 101.376 38.7031C101.224 38.9288 101.056 39.1663 100.878 39.4089C100.575 39.8345 100.234 40.232 99.8597 40.5967C99.3952 40.0984 99.0452 39.5044 98.8345 38.8566C98.6237 38.2087 98.5571 37.5226 98.6395 36.8463ZM102.55 34.2654C102.55 34.5948 102.545 34.8813 102.538 35.1296C102.537 35.1677 102.525 35.2047 102.503 35.2363C102.482 35.2679 102.452 35.2929 102.417 35.3085C102.151 35.4325 101.911 35.607 101.712 35.8223C101.686 35.8505 101.653 35.8711 101.616 35.8817C101.58 35.8924 101.541 35.8928 101.504 35.8829C101.265 35.8127 100.99 35.7282 100.676 35.6269C100.177 35.4693 99.6942 35.2674 99.2319 35.0235C99.5675 34.4319 100.026 33.919 100.576 33.5189C101.126 33.1189 101.755 32.841 102.421 32.7039C102.51 33.2195 102.554 33.7421 102.55 34.2654ZM102.139 31.7015C102.218 31.8954 102.283 32.0948 102.333 32.2981C101.611 32.4474 100.928 32.7491 100.331 33.1831C99.7345 33.6172 99.2371 34.1735 98.8724 34.8151C98.6945 34.7045 98.525 34.5812 98.3651 34.446C98.7712 33.7532 99.316 33.1519 99.9655 32.6796C100.615 32.2073 101.355 31.8743 102.139 31.7015ZM97.5962 36.8044C97.8061 36.789 98.0169 36.789 98.2268 36.8044C98.2038 36.9951 98.1916 37.187 98.1903 37.3792C98.188 38.6735 98.6721 39.9215 99.5466 40.8757C99.3874 41.0098 99.2185 41.132 99.0414 41.2415C98.0913 40.1794 97.5666 38.8041 97.5675 37.3792C97.5675 37.1851 97.5775 36.9935 97.5962 36.8044ZM101.046 42.7008C101.097 42.4977 101.162 42.2984 101.24 42.1044C101.912 42.4104 102.642 42.5688 103.38 42.5688C104.118 42.5688 104.848 42.4104 105.519 42.1044C105.598 42.2984 105.663 42.4977 105.714 42.7008C104.978 43.0244 104.183 43.1915 103.38 43.1915C102.576 43.1915 101.782 43.0244 101.046 42.7008ZM107.718 41.2415C107.541 41.132 107.372 41.0098 107.213 40.8757C108.088 39.9215 108.572 38.6735 108.57 37.3792C108.568 37.1869 108.556 36.9948 108.533 36.8039C108.743 36.7886 108.954 36.7886 109.164 36.8039C109.182 36.9931 109.192 37.1847 109.192 37.3787C109.193 38.8039 108.669 40.1793 107.718 41.2415Z" fill="#056C34"/>
<path d="M102.342 37.3787C102.342 37.584 102.403 37.7847 102.517 37.9554C102.631 38.1261 102.793 38.2591 102.983 38.3377C103.173 38.4162 103.381 38.4368 103.583 38.3967C103.784 38.3567 103.969 38.2578 104.114 38.1127C104.259 37.9675 104.358 37.7826 104.398 37.5812C104.438 37.3799 104.418 37.1712 104.339 36.9815C104.261 36.7919 104.128 36.6298 103.957 36.5157C103.786 36.4017 103.585 36.3408 103.38 36.3408C103.105 36.3411 102.841 36.4506 102.647 36.6452C102.452 36.8398 102.343 37.1036 102.342 37.3787ZM104.003 37.3787C104.003 37.5019 103.966 37.6223 103.898 37.7247C103.83 37.8271 103.732 37.907 103.619 37.9541C103.505 38.0012 103.38 38.0136 103.259 37.9895C103.138 37.9655 103.027 37.9062 102.94 37.8191C102.853 37.732 102.793 37.621 102.769 37.5002C102.745 37.3794 102.758 37.2542 102.805 37.1404C102.852 37.0266 102.932 36.9294 103.034 36.8609C103.137 36.7925 103.257 36.756 103.38 36.756C103.545 36.756 103.704 36.8216 103.821 36.9384C103.937 37.0552 104.003 37.2136 104.003 37.3787Z" fill="#056C34"/>
<path d="M103.379 35.927C103.435 35.927 103.487 35.9051 103.526 35.8662C103.565 35.8272 103.587 35.7744 103.587 35.7194V35.5118C103.587 35.4567 103.565 35.4039 103.526 35.365C103.487 35.3261 103.435 35.3042 103.379 35.3042C103.324 35.3042 103.272 35.3261 103.233 35.365C103.194 35.4039 103.172 35.4567 103.172 35.5118V35.7194C103.172 35.7744 103.194 35.8272 103.233 35.8662C103.272 35.9051 103.324 35.927 103.379 35.927Z" fill="#056C34"/>
<path d="M101.864 36.6689L101.666 36.6048C101.64 36.5948 101.612 36.5903 101.584 36.5915C101.556 36.5927 101.528 36.5996 101.503 36.6117C101.478 36.6239 101.455 36.6411 101.437 36.6622C101.418 36.6834 101.404 36.708 101.395 36.7348C101.387 36.7615 101.384 36.7897 101.386 36.8177C101.389 36.8457 101.397 36.8729 101.41 36.8976C101.424 36.9223 101.442 36.9441 101.464 36.9615C101.486 36.979 101.511 36.9918 101.538 36.9992L101.736 37.0633C101.762 37.0733 101.79 37.0778 101.818 37.0766C101.846 37.0754 101.874 37.0685 101.899 37.0564C101.924 37.0442 101.947 37.0271 101.966 37.0059C101.984 36.9848 101.998 36.9601 102.007 36.9333C102.015 36.9066 102.019 36.8784 102.016 36.8504C102.013 36.8224 102.005 36.7952 101.992 36.7705C101.979 36.7458 101.96 36.724 101.938 36.7066C101.916 36.6891 101.891 36.6763 101.864 36.6689Z" fill="#056C34"/>
<path d="M102.236 38.6005L102.114 38.7685C102.081 38.8131 102.068 38.8687 102.077 38.9231C102.085 38.9775 102.115 39.0263 102.16 39.0587C102.205 39.091 102.26 39.1044 102.315 39.0957C102.369 39.0871 102.418 39.0572 102.45 39.0126L102.572 38.8446C102.588 38.8226 102.6 38.7976 102.606 38.771C102.612 38.7445 102.613 38.717 102.609 38.6901C102.605 38.6631 102.595 38.6373 102.581 38.614C102.567 38.5908 102.548 38.5706 102.526 38.5545C102.504 38.5385 102.479 38.527 102.452 38.5206C102.426 38.5143 102.398 38.5132 102.371 38.5175C102.345 38.5217 102.319 38.5313 102.295 38.5455C102.272 38.5598 102.252 38.5785 102.236 38.6005Z" fill="#056C34"/>
<path d="M104.234 38.5545C104.212 38.5705 104.193 38.5907 104.179 38.614C104.165 38.6373 104.155 38.6632 104.151 38.6902C104.147 38.7172 104.148 38.7448 104.154 38.7714C104.161 38.798 104.172 38.823 104.188 38.8451L104.31 39.013C104.326 39.0351 104.347 39.0538 104.37 39.0681C104.393 39.0823 104.419 39.0919 104.446 39.0962C104.473 39.1004 104.5 39.0994 104.527 39.093C104.553 39.0866 104.578 39.0751 104.6 39.0591C104.623 39.0431 104.641 39.0228 104.656 38.9996C104.67 38.9763 104.679 38.9505 104.684 38.9235C104.688 38.8966 104.687 38.8691 104.68 38.8425C104.674 38.816 104.663 38.791 104.647 38.7689L104.524 38.601C104.509 38.5788 104.488 38.5601 104.465 38.5457C104.442 38.5314 104.416 38.5218 104.389 38.5175C104.362 38.5132 104.335 38.5142 104.308 38.5206C104.281 38.5269 104.256 38.5384 104.234 38.5545Z" fill="#056C34"/>
<path d="M104.959 37.0735C104.981 37.0735 105.002 37.07 105.023 37.0633L105.22 36.9992C105.247 36.9918 105.273 36.979 105.295 36.9615C105.317 36.9441 105.335 36.9223 105.348 36.8976C105.362 36.8729 105.37 36.8457 105.373 36.8177C105.375 36.7897 105.372 36.7615 105.363 36.7348C105.355 36.708 105.341 36.6834 105.322 36.6622C105.304 36.6411 105.281 36.6239 105.256 36.6117C105.23 36.5996 105.203 36.5927 105.175 36.5915C105.147 36.5903 105.119 36.5948 105.092 36.6048L104.895 36.6689C104.848 36.6842 104.808 36.7157 104.782 36.7578C104.756 36.8 104.746 36.8499 104.754 36.8987C104.762 36.9475 104.787 36.992 104.824 37.0241C104.862 37.0562 104.909 37.0739 104.959 37.0739V37.0735Z" fill="#056C34"/>
<path d="M66.938 9.7616H91.1643C92.2019 9.7616 93.2108 10.1219 94.025 10.7704L99.7321 15.3894C100.056 15.656 100.085 16.1388 99.7898 16.4343L97.4623 18.7618C97.0011 19.223 96.3742 19.4896 95.7256 19.5112L46.149 20.9091C45.8175 20.9163 45.5221 20.693 45.4428 20.3759L44.996 18.5888C44.9168 18.2718 45.0681 17.9403 45.3563 17.789L55.8409 12.4278C59.2781 10.6695 63.0829 9.75439 66.938 9.75439V9.7616Z" fill="#056C34"/>
<path opacity="0.22" d="M119.793 32.8204L116.911 35.7027C116.724 28.504 110.469 23.4527 103.22 23.4527C95.9707 23.4527 89.5287 29.4192 89.5287 36.7836C89.5287 37.0719 89.5359 37.3673 89.5575 37.6483L41.2491 38.5851L38.3667 34.2616C70.0727 32.8204 82.3227 23.4527 82.3227 23.4527L93.8522 20.5703L99.6169 21.2909C109.705 20.5703 112.955 19.1292 112.955 19.1292H117.632C117.632 27.0557 119.793 32.8204 119.793 32.8204Z" fill="url(#paint0_linear_2747_212)"/>
<line x1="59" y1="23.5" x2="63" y2="23.5" stroke="#056C34"/>
<line x1="87" y1="23.5" x2="91" y2="23.5" stroke="#056C34"/>
<path d="M117 17L119.5 20V25L117 24.5556V17Z" fill="#B0190C" stroke="#056C34" stroke-width="0.5"/>
</g>
<defs>
<linearGradient id="paint0_linear_2747_212" x1="79.0801" y1="19.1292" x2="79.0801" y2="38.5851" gradientUnits="userSpaceOnUse">
<stop stop-color="#046C34"/>
<stop offset="1" stop-opacity="0"/>
</linearGradient>
<clipPath id="clip0_2747_212">
<rect width="120" height="42.0321" fill="white" transform="translate(3 6)"/>
</clipPath>
</defs>
</svg>
