<svg width="125" height="55" viewBox="0 0 125 55" fill="none" xmlns="http://www.w3.org/2000/svg">
<g clip-path="url(#clip0_2747_27)">
<path d="M22.9766 32.3255C26.6499 32.3255 29.6277 35.3034 29.6277 38.9766C29.6277 42.6499 26.6499 45.6277 22.9766 45.6277C19.3034 45.6277 16.3255 42.6499 16.3255 38.9766C16.3255 35.3034 19.3034 32.3255 22.9766 32.3255ZM22.9766 29C17.4752 29 13 33.4752 13 38.9766C13 44.4781 17.4752 48.9533 22.9766 48.9533C28.4781 48.9533 32.9533 44.4781 32.9533 38.9766C32.9533 33.4752 28.4781 29 22.9766 29Z" fill="#056C34"/>
<path d="M23 33C21.8133 33 20.6533 33.3519 19.6666 34.0112C18.6799 34.6705 17.9109 35.6075 17.4567 36.7039C17.0026 37.8003 16.8838 39.0067 17.1153 40.1705C17.3468 41.3344 17.9182 42.4035 18.7574 43.2426C19.5965 44.0818 20.6656 44.6532 21.8295 44.8847C22.9933 45.1162 24.1997 44.9974 25.2961 44.5433C26.3925 44.0891 27.3295 43.3201 27.9888 42.3334C28.6481 41.3467 29 40.1867 29 39C28.9982 37.4093 28.3655 35.8842 27.2407 34.7593C26.1158 33.6345 24.5907 33.0018 23 33ZM27.8316 36.174C27.6776 36.3043 27.5142 36.4232 27.3428 36.5296C26.9914 35.9115 26.5122 35.3755 25.9372 34.9573C25.3621 34.5391 24.7045 34.2484 24.0082 34.1046C24.0567 33.9087 24.1192 33.7166 24.1954 33.5298C24.9509 33.6963 25.6639 34.0171 26.2896 34.4722C26.9154 34.9272 27.4403 35.5066 27.8316 36.174ZM23.924 34.4956C24.5659 34.6276 25.1722 34.8952 25.7023 35.2807C26.2323 35.6661 26.6738 36.1604 26.9972 36.7304C26.552 36.9653 26.0866 37.1598 25.6066 37.3116C25.303 37.4094 25.0388 37.4916 24.8082 37.5584C24.7727 37.568 24.7353 37.5676 24.7 37.5573C24.6647 37.547 24.633 37.5272 24.6082 37.5C24.4157 37.2926 24.1848 37.1246 23.9282 37.0052C23.8946 36.9902 23.8658 36.966 23.8453 36.9355C23.8247 36.9049 23.8131 36.8692 23.8118 36.8324C23.8042 36.5934 23.8 36.3174 23.8 36C23.7961 35.4958 23.8376 34.9923 23.924 34.4956ZM23.794 33.4572C23.5081 34.2735 23.3745 35.1354 23.4 36C23.4 36.322 23.4042 36.6018 23.4112 36.844C23.4145 36.9549 23.4488 37.0627 23.5101 37.1553C23.5714 37.2478 23.6573 37.3213 23.7582 37.3676C23.968 37.4653 24.1569 37.6028 24.3144 37.7724C24.3704 37.8333 24.4384 37.8819 24.5141 37.9153C24.5899 37.9486 24.6717 37.966 24.7544 37.9662C24.8109 37.9662 24.8671 37.9581 24.9212 37.942C25.1546 37.8738 25.4212 37.7916 25.73 37.6922C26.56 37.4497 27.3383 37.0565 28.026 36.5322C28.2609 37.0091 28.4262 37.5173 28.5166 38.0412C27.6518 38.0214 26.7908 38.161 25.9766 38.4532C25.694 38.5446 25.4248 38.6364 25.1766 38.7256C25.0723 38.7632 24.9805 38.8292 24.9117 38.9161C24.843 39.0031 24.7999 39.1076 24.7874 39.2178C24.7598 39.4473 24.6876 39.6692 24.575 39.871C24.52 39.9676 24.4931 40.0776 24.4973 40.1886C24.5016 40.2996 24.5367 40.4073 24.5988 40.4994C24.7486 40.7208 24.9128 40.9536 25.0864 41.191C25.573 41.9051 26.187 42.5235 26.8976 43.0152C26.5167 43.3853 26.0853 43.6996 25.6162 43.9488C25.3688 43.1206 24.97 42.3454 24.44 41.6626C24.26 41.4134 24.0884 41.1854 23.9324 40.9848C23.8643 40.8974 23.7732 40.8308 23.6694 40.7923C23.5655 40.7538 23.453 40.7451 23.3444 40.767C23.117 40.8108 22.8832 40.8108 22.6558 40.767C22.5472 40.745 22.4347 40.7537 22.3308 40.7922C22.2269 40.8307 22.1358 40.8974 22.0678 40.9848C21.912 41.1848 21.7412 41.4134 21.5606 41.6626C21.0303 42.3455 20.6314 43.1209 20.384 43.9494C19.915 43.7002 19.4836 43.3858 19.1026 43.0158C19.813 42.5243 20.4268 41.9061 20.9132 41.1922C21.0874 40.9542 21.2516 40.7214 21.4014 40.5002C21.4635 40.4081 21.4986 40.3004 21.5029 40.1894C21.5071 40.0784 21.4803 39.9684 21.4254 39.8718C21.3127 39.67 21.2405 39.4481 21.2128 39.2186C21.2004 39.1084 21.1573 39.0038 21.0885 38.9168C21.0197 38.8298 20.928 38.7638 20.8236 38.7262C20.5754 38.637 20.3062 38.5452 20.0236 38.4538C19.2094 38.1617 18.3484 38.0221 17.4836 38.0418C17.574 37.5179 17.7393 37.0097 17.9742 36.5328C18.662 37.0571 19.4404 37.4504 20.2706 37.6928C20.5782 37.7928 20.8456 37.8744 21.079 37.9426C21.1331 37.9587 21.1893 37.9668 21.2458 37.9668C21.3285 37.9666 21.4103 37.9492 21.4861 37.9159C21.5618 37.8825 21.6298 37.8339 21.6858 37.773C21.8433 37.6033 22.0323 37.4658 22.2422 37.368C22.343 37.3218 22.4289 37.2483 22.4902 37.1558C22.5515 37.0634 22.5857 36.9557 22.589 36.8448C22.5958 36.6018 22.6 36.322 22.6 36C22.6255 35.1354 22.4919 34.2735 22.206 33.4572C22.7326 33.3809 23.2674 33.3809 23.794 33.4572ZM27.6 39C27.6007 40.1484 27.1693 41.255 26.3916 42.1C26.0308 41.749 25.7021 41.3664 25.4094 40.9568C25.2382 40.723 25.077 40.4942 24.9294 40.2768C24.9091 40.2459 24.8978 40.21 24.8968 40.173C24.8958 40.136 24.9051 40.0995 24.9238 40.0676C25.0618 39.8204 25.1501 39.5487 25.1838 39.2676C25.1876 39.2311 25.2016 39.1965 25.2242 39.1675C25.2467 39.1386 25.277 39.1166 25.3114 39.104C25.5554 39.0162 25.8204 38.9258 26.0994 38.8354C26.5771 38.6759 27.0681 38.5596 27.5666 38.488C27.5874 38.6579 27.5985 38.8288 27.6 39ZM24.9 43.1868C24.3036 43.4591 23.6556 43.6 23 43.6C22.3444 43.6 21.6964 43.4591 21.1 43.1868C21.3221 42.7343 21.5845 42.3028 21.884 41.8974C22.0622 41.652 22.2302 41.4274 22.384 41.23C22.4071 41.2015 22.4376 41.1798 22.4722 41.1675C22.5068 41.1551 22.5441 41.1526 22.58 41.16C22.8575 41.2133 23.1425 41.2133 23.42 41.16C23.456 41.1526 23.4934 41.1552 23.528 41.1676C23.5626 41.18 23.5931 41.2018 23.6162 41.2304C23.7696 41.4278 23.9376 41.6524 24.1162 41.898C24.4157 42.3031 24.6781 42.7345 24.9 43.1868ZM18.4328 38.4866C18.9313 38.5582 19.4224 38.6745 19.9 38.8342C20.1788 38.9244 20.4438 39.0142 20.6878 39.1026C20.7223 39.1152 20.7525 39.1373 20.7751 39.1662C20.7976 39.1952 20.8116 39.2299 20.8154 39.2664C20.8491 39.5475 20.9374 39.8192 21.0754 40.0664C21.094 40.0984 21.1033 40.1349 21.1023 40.1718C21.1012 40.2088 21.0899 40.2447 21.0696 40.2756C20.9224 40.493 20.7612 40.7218 20.5896 40.9556C20.2974 41.3656 19.969 41.7486 19.6084 42.1C19.1609 41.6198 18.8237 41.0476 18.6207 40.4234C18.4176 39.7992 18.3535 39.1382 18.4328 38.4866ZM22.2 36C22.2 36.3174 22.1958 36.5934 22.1888 36.8326C22.1875 36.8693 22.1759 36.905 22.1554 36.9354C22.1348 36.9659 22.1062 36.99 22.0726 37.005C21.8161 37.1245 21.5851 37.2926 21.3926 37.5C21.3678 37.5272 21.3361 37.547 21.3008 37.5573C21.2655 37.5676 21.2281 37.568 21.1926 37.5584C20.962 37.4908 20.6978 37.4094 20.3946 37.3118C19.9145 37.1599 19.449 36.9654 19.0036 36.7304C19.3269 36.1605 19.7683 35.6662 20.2982 35.2808C20.8281 34.8954 21.4342 34.6277 22.076 34.4956C22.1624 34.9923 22.2039 35.4958 22.2 36ZM21.8046 33.5298C21.8808 33.7166 21.9433 33.9087 21.9918 34.1046C21.2955 34.2484 20.6379 34.5391 20.0628 34.9573C19.4878 35.3755 19.0086 35.9115 18.6572 36.5296C18.4858 36.4231 18.3225 36.3043 18.1684 36.174C18.5597 35.5066 19.0846 34.9272 19.7104 34.4722C20.3361 34.0171 21.0491 33.6963 21.8046 33.5298ZM17.4276 38.4462C17.6299 38.4314 17.8329 38.4314 18.0352 38.4462C18.013 38.63 18.0013 38.8149 18 39C17.9978 40.2471 18.4642 41.4494 19.3068 42.3688C19.1533 42.498 18.9906 42.6158 18.82 42.7212C17.9047 41.6979 17.3991 40.3729 17.4 39C17.4 38.813 17.4096 38.6284 17.4276 38.4462ZM20.7516 44.1272C20.8003 43.9315 20.8628 43.7395 20.9386 43.5526C21.5858 43.8474 22.2888 44 23 44C23.7112 44 24.4142 43.8474 25.0614 43.5526C25.1373 43.7395 25.1997 43.9315 25.2484 44.1272C24.5398 44.439 23.7741 44.6 23 44.6C22.2259 44.6 21.4602 44.439 20.7516 44.1272ZM27.18 42.7212C27.0094 42.6158 26.8467 42.498 26.6932 42.3688C27.5358 41.4494 28.0022 40.2471 28 39C27.9988 38.8147 27.987 38.6297 27.9648 38.4458C28.1671 38.431 28.3701 38.431 28.5724 38.4458C28.5904 38.628 28.6 38.8126 28.6 38.9996C28.601 40.3727 28.0954 41.6978 27.18 42.7212Z" fill="#056C34"/>
<path d="M22.001 38.9995C22.001 39.1973 22.0596 39.3906 22.1695 39.5551C22.2794 39.7195 22.4356 39.8477 22.6183 39.9234C22.801 39.9991 23.0021 40.0189 23.1961 39.9803C23.39 39.9417 23.5682 39.8465 23.7081 39.7066C23.8479 39.5668 23.9432 39.3886 23.9818 39.1946C24.0203 39.0006 24.0005 38.7996 23.9249 38.6168C23.8492 38.4341 23.721 38.2779 23.5565 38.168C23.3921 38.0582 23.1988 37.9995 23.001 37.9995C22.7359 37.9998 22.4817 38.1053 22.2942 38.2928C22.1068 38.4802 22.0013 38.7344 22.001 38.9995ZM23.601 38.9995C23.601 39.1182 23.5658 39.2342 23.4999 39.3329C23.4339 39.4315 23.3402 39.5084 23.2306 39.5538C23.121 39.5993 23.0003 39.6111 22.8839 39.588C22.7675 39.5648 22.6606 39.5077 22.5767 39.4238C22.4928 39.3399 22.4357 39.233 22.4125 39.1166C22.3894 39.0002 22.4012 38.8795 22.4466 38.7699C22.4921 38.6603 22.569 38.5666 22.6676 38.5006C22.7663 38.4347 22.8823 38.3995 23.001 38.3995C23.1601 38.3995 23.3127 38.4627 23.4252 38.5752C23.5378 38.6878 23.601 38.8404 23.601 38.9995Z" fill="#056C34"/>
<path d="M22.9998 37.6005C23.0528 37.6005 23.1037 37.5794 23.1412 37.5419C23.1787 37.5044 23.1998 37.4535 23.1998 37.4005V37.2005C23.1998 37.1474 23.1787 37.0966 23.1412 37.0591C23.1037 37.0216 23.0528 37.0005 22.9998 37.0005C22.9468 37.0005 22.8959 37.0216 22.8584 37.0591C22.8209 37.0966 22.7998 37.1474 22.7998 37.2005V37.4005C22.7998 37.4535 22.8209 37.5044 22.8584 37.5419C22.8959 37.5794 22.9468 37.6005 22.9998 37.6005Z" fill="#056C34"/>
<path d="M21.5402 38.3155L21.35 38.2537C21.3247 38.2441 21.2977 38.2398 21.2706 38.2409C21.2436 38.2421 21.217 38.2487 21.1926 38.2604C21.1682 38.2721 21.1464 38.2887 21.1286 38.309C21.1107 38.3294 21.0972 38.3532 21.0889 38.379C21.0805 38.4047 21.0775 38.4319 21.0799 38.4589C21.0824 38.4858 21.0903 38.512 21.1032 38.5358C21.116 38.5596 21.1336 38.5806 21.1548 38.5974C21.176 38.6143 21.2005 38.6266 21.2266 38.6337L21.4168 38.6955C21.4421 38.7051 21.4691 38.7095 21.4962 38.7083C21.5232 38.7072 21.5497 38.7005 21.5742 38.6888C21.5986 38.6771 21.6204 38.6606 21.6382 38.6402C21.656 38.6198 21.6695 38.596 21.6779 38.5703C21.6862 38.5445 21.6893 38.5173 21.6868 38.4904C21.6844 38.4634 21.6765 38.4372 21.6636 38.4134C21.6507 38.3896 21.6331 38.3686 21.6119 38.3518C21.5907 38.335 21.5663 38.3226 21.5402 38.3155Z" fill="#056C34"/>
<path d="M21.8985 40.1767L21.7809 40.3385C21.7497 40.3815 21.7368 40.4351 21.7452 40.4875C21.7535 40.54 21.7823 40.587 21.8253 40.6181C21.8682 40.6493 21.9218 40.6622 21.9743 40.6538C22.0267 40.6455 22.0737 40.6167 22.1049 40.5737L22.2223 40.4119C22.2377 40.3907 22.2488 40.3666 22.2549 40.341C22.2611 40.3155 22.2621 40.289 22.258 40.263C22.2539 40.2371 22.2447 40.2122 22.231 40.1898C22.2172 40.1674 22.1992 40.1479 22.178 40.1324C22.1567 40.117 22.1326 40.1059 22.1071 40.0998C22.0815 40.0936 22.055 40.0926 22.029 40.0967C22.0031 40.1008 21.9782 40.11 21.9558 40.1237C21.9334 40.1375 21.9139 40.1555 21.8985 40.1767Z" fill="#056C34"/>
<path d="M23.8239 40.1324C23.8026 40.1478 23.7845 40.1673 23.7707 40.1898C23.757 40.2122 23.7478 40.2372 23.7437 40.2632C23.7396 40.2892 23.7406 40.3158 23.7468 40.3414C23.753 40.367 23.7642 40.3911 23.7797 40.4124L23.8971 40.5742C23.9126 40.5954 23.9321 40.6135 23.9545 40.6272C23.9769 40.6409 24.0018 40.6501 24.0277 40.6543C24.0537 40.6584 24.0802 40.6574 24.1058 40.6512C24.1313 40.6451 24.1555 40.634 24.1767 40.6186C24.198 40.6031 24.216 40.5836 24.2298 40.5612C24.2435 40.5388 24.2527 40.5139 24.2568 40.488C24.261 40.462 24.2599 40.4355 24.2538 40.4099C24.2477 40.3843 24.2366 40.3602 24.2211 40.339L24.1035 40.1772C24.0881 40.1558 24.0687 40.1378 24.0463 40.124C24.0239 40.1102 23.999 40.1009 23.973 40.0968C23.9471 40.0926 23.9205 40.0936 23.8949 40.0997C23.8693 40.1058 23.8452 40.1169 23.8239 40.1324Z" fill="#056C34"/>
<path d="M24.5211 38.7055C24.542 38.7055 24.5629 38.7022 24.5829 38.6957L24.7731 38.6339C24.7992 38.6268 24.8236 38.6145 24.8448 38.5977C24.866 38.5808 24.8836 38.5599 24.8965 38.5361C24.9093 38.5122 24.9173 38.4861 24.9197 38.4591C24.9222 38.4321 24.9191 38.4049 24.9108 38.3792C24.9024 38.3534 24.8889 38.3297 24.8711 38.3093C24.8532 38.2889 24.8314 38.2724 24.807 38.2606C24.7826 38.2489 24.7561 38.2423 24.729 38.2411C24.702 38.24 24.675 38.2444 24.6497 38.2539L24.4595 38.3157C24.4142 38.3305 24.3757 38.3608 24.3508 38.4014C24.3259 38.442 24.3163 38.4901 24.3237 38.5371C24.3312 38.5841 24.3551 38.627 24.3913 38.6579C24.4274 38.6889 24.4735 38.7059 24.5211 38.7059V38.7055Z" fill="#056C34"/>
<path d="M44.1515 13.4082C41.583 15.0177 38.8631 17.0029 36.076 19.4536C36.076 19.4536 25.4264 19.9863 7.99671 23.6484C7.15551 23.8278 6.48816 24.4727 6.28066 25.3083L4.77211 31.4042C4.71042 31.651 4.54779 31.8585 4.31786 31.9706L3.8524 32.2062C3.66734 32.2959 3.55518 32.4866 3.55518 32.6885V39.9845L11.3727 41.3248C11.2101 40.5565 11.126 39.7602 11.126 38.947C11.126 32.5202 16.3358 27.3104 22.7626 27.3104C29.1893 27.3104 34.3992 32.5202 34.3992 38.947C34.3992 39.676 34.3319 40.3826 34.2029 41.0724C34.3151 41.0724 34.3992 41.0724 34.3992 41.0724L86.2732 40.4836H86.4639C86.3405 39.7994 86.2732 39.0984 86.2732 38.3862C86.2732 31.9594 91.483 26.7496 97.9098 26.7496C104.337 26.7496 109.546 31.9594 109.546 38.3862C109.546 39.2162 109.457 40.0293 109.294 40.8145C109.417 40.792 109.546 40.7696 109.546 40.7696L118.643 39.2106C119.293 39.1321 119.893 38.8348 120.353 38.375L120.987 37.7413C121.923 36.8047 122.445 35.5373 122.445 34.2195V29.6938L120.202 28.432V19.4592L112.698 7.95158C112.132 7.08234 111.167 6.56079 110.13 6.56079H62.4392C62.4392 6.56079 54.5151 6.9197 44.1571 13.4138L44.1515 13.4082Z" stroke="#056C34" stroke-miterlimit="10"/>
<path d="M97.9766 31.3255C101.65 31.3255 104.628 34.3034 104.628 37.9766C104.628 41.6499 101.65 44.6277 97.9766 44.6277C94.3034 44.6277 91.3255 41.6499 91.3255 37.9766C91.3255 34.3034 94.3034 31.3255 97.9766 31.3255ZM97.9766 28C92.4752 28 88 32.4752 88 37.9766C88 43.4781 92.4752 47.9533 97.9766 47.9533C103.478 47.9533 107.953 43.4781 107.953 37.9766C107.953 32.4752 103.478 28 97.9766 28Z" fill="#056C34"/>
<path d="M98 32C96.8133 32 95.6533 32.3519 94.6666 33.0112C93.6799 33.6705 92.9109 34.6075 92.4567 35.7039C92.0026 36.8003 91.8838 38.0067 92.1153 39.1705C92.3468 40.3344 92.9182 41.4035 93.7574 42.2426C94.5965 43.0818 95.6656 43.6532 96.8295 43.8847C97.9933 44.1162 99.1997 43.9974 100.296 43.5433C101.392 43.0891 102.33 42.3201 102.989 41.3334C103.648 40.3467 104 39.1867 104 38C103.998 36.4093 103.365 34.8842 102.241 33.7593C101.116 32.6345 99.5907 32.0018 98 32ZM102.832 35.174C102.678 35.3043 102.514 35.4232 102.343 35.5296C101.991 34.9115 101.512 34.3755 100.937 33.9573C100.362 33.5391 99.7045 33.2484 99.0082 33.1046C99.0567 32.9087 99.1192 32.7166 99.1954 32.5298C99.9509 32.6963 100.664 33.0171 101.29 33.4722C101.915 33.9272 102.44 34.5066 102.832 35.174ZM98.924 33.4956C99.5659 33.6276 100.172 33.8952 100.702 34.2807C101.232 34.6661 101.674 35.1604 101.997 35.7304C101.552 35.9653 101.087 36.1598 100.607 36.3116C100.303 36.4094 100.039 36.4916 99.8082 36.5584C99.7727 36.568 99.7353 36.5676 99.7 36.5573C99.6647 36.547 99.633 36.5272 99.6082 36.5C99.4157 36.2926 99.1848 36.1246 98.9282 36.0052C98.8946 35.9902 98.8658 35.966 98.8453 35.9355C98.8247 35.9049 98.8131 35.8692 98.8118 35.8324C98.8042 35.5934 98.8 35.3174 98.8 35C98.7961 34.4958 98.8376 33.9923 98.924 33.4956ZM98.794 32.4572C98.5081 33.2735 98.3745 34.1354 98.4 35C98.4 35.322 98.4042 35.6018 98.4112 35.844C98.4145 35.9549 98.4488 36.0627 98.5101 36.1553C98.5714 36.2478 98.6573 36.3213 98.7582 36.3676C98.968 36.4653 99.1569 36.6028 99.3144 36.7724C99.3704 36.8333 99.4384 36.8819 99.5141 36.9153C99.5899 36.9486 99.6717 36.966 99.7544 36.9662C99.8109 36.9662 99.8671 36.9581 99.9212 36.942C100.155 36.8738 100.421 36.7916 100.73 36.6922C101.56 36.4497 102.338 36.0565 103.026 35.5322C103.261 36.0091 103.426 36.5173 103.517 37.0412C102.652 37.0214 101.791 37.161 100.977 37.4532C100.694 37.5446 100.425 37.6364 100.177 37.7256C100.072 37.7632 99.9805 37.8292 99.9117 37.9161C99.843 38.0031 99.7999 38.1076 99.7874 38.2178C99.7598 38.4473 99.6876 38.6692 99.575 38.871C99.52 38.9676 99.4931 39.0776 99.4973 39.1886C99.5016 39.2996 99.5367 39.4073 99.5988 39.4994C99.7486 39.7208 99.9128 39.9536 100.086 40.191C100.573 40.9051 101.187 41.5235 101.898 42.0152C101.517 42.3853 101.085 42.6996 100.616 42.9488C100.369 42.1206 99.97 41.3454 99.44 40.6626C99.26 40.4134 99.0884 40.1854 98.9324 39.9848C98.8643 39.8974 98.7732 39.8308 98.6694 39.7923C98.5655 39.7538 98.453 39.7451 98.3444 39.767C98.117 39.8108 97.8832 39.8108 97.6558 39.767C97.5472 39.745 97.4347 39.7537 97.3308 39.7922C97.2269 39.8307 97.1358 39.8974 97.0678 39.9848C96.912 40.1848 96.7412 40.4134 96.5606 40.6626C96.0303 41.3455 95.6314 42.1209 95.384 42.9494C94.915 42.7002 94.4836 42.3858 94.1026 42.0158C94.813 41.5243 95.4268 40.9061 95.9132 40.1922C96.0874 39.9542 96.2516 39.7214 96.4014 39.5002C96.4635 39.4081 96.4986 39.3004 96.5029 39.1894C96.5071 39.0784 96.4803 38.9684 96.4254 38.8718C96.3127 38.67 96.2405 38.4481 96.2128 38.2186C96.2004 38.1084 96.1573 38.0038 96.0885 37.9168C96.0197 37.8298 95.928 37.7638 95.8236 37.7262C95.5754 37.637 95.3062 37.5452 95.0236 37.4538C94.2094 37.1617 93.3484 37.0221 92.4836 37.0418C92.574 36.5179 92.7393 36.0097 92.9742 35.5328C93.662 36.0571 94.4404 36.4504 95.2706 36.6928C95.5782 36.7928 95.8456 36.8744 96.079 36.9426C96.1331 36.9587 96.1893 36.9668 96.2458 36.9668C96.3285 36.9666 96.4103 36.9492 96.4861 36.9159C96.5618 36.8825 96.6298 36.8339 96.6858 36.773C96.8433 36.6033 97.0323 36.4658 97.2422 36.368C97.343 36.3218 97.4289 36.2483 97.4902 36.1558C97.5515 36.0634 97.5857 35.9557 97.589 35.8448C97.5958 35.6018 97.6 35.322 97.6 35C97.6255 34.1354 97.4919 33.2735 97.206 32.4572C97.7326 32.3809 98.2674 32.3809 98.794 32.4572ZM102.6 38C102.601 39.1484 102.169 40.255 101.392 41.1C101.031 40.749 100.702 40.3664 100.409 39.9568C100.238 39.723 100.077 39.4942 99.9294 39.2768C99.9091 39.2459 99.8978 39.21 99.8968 39.173C99.8958 39.136 99.9051 39.0995 99.9238 39.0676C100.062 38.8204 100.15 38.5487 100.184 38.2676C100.188 38.2311 100.202 38.1965 100.224 38.1675C100.247 38.1386 100.277 38.1166 100.311 38.104C100.555 38.0162 100.82 37.9258 101.099 37.8354C101.577 37.6759 102.068 37.5596 102.567 37.488C102.587 37.6579 102.599 37.8288 102.6 38ZM99.9 42.1868C99.3036 42.4591 98.6556 42.6 98 42.6C97.3444 42.6 96.6964 42.4591 96.1 42.1868C96.3221 41.7343 96.5845 41.3028 96.884 40.8974C97.0622 40.652 97.2302 40.4274 97.384 40.23C97.4071 40.2015 97.4376 40.1798 97.4722 40.1675C97.5068 40.1551 97.5441 40.1526 97.58 40.16C97.8575 40.2133 98.1425 40.2133 98.42 40.16C98.456 40.1526 98.4934 40.1552 98.528 40.1676C98.5626 40.18 98.5931 40.2018 98.6162 40.2304C98.7696 40.4278 98.9376 40.6524 99.1162 40.898C99.4157 41.3031 99.6781 41.7345 99.9 42.1868ZM93.4328 37.4866C93.9313 37.5582 94.4224 37.6745 94.9 37.8342C95.1788 37.9244 95.4438 38.0142 95.6878 38.1026C95.7223 38.1152 95.7525 38.1373 95.7751 38.1662C95.7976 38.1952 95.8116 38.2299 95.8154 38.2664C95.8491 38.5475 95.9374 38.8192 96.0754 39.0664C96.094 39.0984 96.1033 39.1349 96.1023 39.1718C96.1012 39.2088 96.0899 39.2447 96.0696 39.2756C95.9224 39.493 95.7612 39.7218 95.5896 39.9556C95.2974 40.3656 94.969 40.7486 94.6084 41.1C94.1609 40.6198 93.8237 40.0476 93.6207 39.4234C93.4176 38.7992 93.3535 38.1382 93.4328 37.4866ZM97.2 35C97.2 35.3174 97.1958 35.5934 97.1888 35.8326C97.1875 35.8693 97.1759 35.905 97.1554 35.9354C97.1348 35.9659 97.1062 35.99 97.0726 36.005C96.8161 36.1245 96.5851 36.2926 96.3926 36.5C96.3678 36.5272 96.3361 36.547 96.3008 36.5573C96.2655 36.5676 96.2281 36.568 96.1926 36.5584C95.962 36.4908 95.6978 36.4094 95.3946 36.3118C94.9145 36.1599 94.449 35.9654 94.0036 35.7304C94.3269 35.1605 94.7683 34.6662 95.2982 34.2808C95.8281 33.8954 96.4342 33.6277 97.076 33.4956C97.1624 33.9923 97.2039 34.4958 97.2 35ZM96.8046 32.5298C96.8808 32.7166 96.9433 32.9087 96.9918 33.1046C96.2955 33.2484 95.6379 33.5391 95.0628 33.9573C94.4878 34.3755 94.0086 34.9115 93.6572 35.5296C93.4858 35.4231 93.3225 35.3043 93.1684 35.174C93.5597 34.5066 94.0846 33.9272 94.7104 33.4722C95.3361 33.0171 96.0491 32.6963 96.8046 32.5298ZM92.4276 37.4462C92.6299 37.4314 92.8329 37.4314 93.0352 37.4462C93.013 37.63 93.0013 37.8149 93 38C92.9978 39.2471 93.4642 40.4494 94.3068 41.3688C94.1533 41.498 93.9906 41.6158 93.82 41.7212C92.9047 40.6979 92.3991 39.3729 92.4 38C92.4 37.813 92.4096 37.6284 92.4276 37.4462ZM95.7516 43.1272C95.8003 42.9315 95.8628 42.7395 95.9386 42.5526C96.5858 42.8474 97.2888 43 98 43C98.7112 43 99.4142 42.8474 100.061 42.5526C100.137 42.7395 100.2 42.9315 100.248 43.1272C99.5398 43.439 98.7741 43.6 98 43.6C97.2259 43.6 96.4602 43.439 95.7516 43.1272ZM102.18 41.7212C102.009 41.6158 101.847 41.498 101.693 41.3688C102.536 40.4494 103.002 39.2471 103 38C102.999 37.8147 102.987 37.6297 102.965 37.4458C103.167 37.431 103.37 37.431 103.572 37.4458C103.59 37.628 103.6 37.8126 103.6 37.9996C103.601 39.3727 103.095 40.6978 102.18 41.7212Z" fill="#056C34"/>
<path d="M97.001 37.9995C97.001 38.1973 97.0596 38.3906 97.1695 38.5551C97.2794 38.7195 97.4356 38.8477 97.6183 38.9234C97.801 38.9991 98.0021 39.0189 98.1961 38.9803C98.39 38.9417 98.5682 38.8465 98.7081 38.7066C98.8479 38.5668 98.9432 38.3886 98.9818 38.1946C99.0203 38.0006 99.0005 37.7996 98.9249 37.6168C98.8492 37.4341 98.721 37.2779 98.5565 37.168C98.3921 37.0582 98.1988 36.9995 98.001 36.9995C97.7359 36.9998 97.4817 37.1053 97.2942 37.2928C97.1068 37.4802 97.0013 37.7344 97.001 37.9995ZM98.601 37.9995C98.601 38.1182 98.5658 38.2342 98.4999 38.3329C98.4339 38.4315 98.3402 38.5084 98.2306 38.5538C98.121 38.5993 98.0003 38.6111 97.8839 38.588C97.7675 38.5648 97.6606 38.5077 97.5767 38.4238C97.4928 38.3399 97.4357 38.233 97.4125 38.1166C97.3894 38.0002 97.4012 37.8795 97.4466 37.7699C97.4921 37.6603 97.569 37.5666 97.6676 37.5006C97.7663 37.4347 97.8823 37.3995 98.001 37.3995C98.1601 37.3995 98.3127 37.4627 98.4252 37.5752C98.5378 37.6878 98.601 37.8404 98.601 37.9995Z" fill="#056C34"/>
<path d="M97.9998 36.6005C98.0528 36.6005 98.1037 36.5794 98.1412 36.5419C98.1787 36.5044 98.1998 36.4535 98.1998 36.4005V36.2005C98.1998 36.1474 98.1787 36.0966 98.1412 36.0591C98.1037 36.0216 98.0528 36.0005 97.9998 36.0005C97.9468 36.0005 97.8959 36.0216 97.8584 36.0591C97.8209 36.0966 97.7998 36.1474 97.7998 36.2005V36.4005C97.7998 36.4535 97.8209 36.5044 97.8584 36.5419C97.8959 36.5794 97.9468 36.6005 97.9998 36.6005Z" fill="#056C34"/>
<path d="M96.5402 37.3155L96.35 37.2537C96.3247 37.2441 96.2977 37.2398 96.2706 37.2409C96.2436 37.2421 96.217 37.2487 96.1926 37.2604C96.1682 37.2721 96.1464 37.2887 96.1286 37.309C96.1107 37.3294 96.0972 37.3532 96.0889 37.379C96.0805 37.4047 96.0775 37.4319 96.0799 37.4589C96.0824 37.4858 96.0903 37.512 96.1032 37.5358C96.116 37.5596 96.1336 37.5806 96.1548 37.5974C96.176 37.6143 96.2005 37.6266 96.2266 37.6337L96.4168 37.6955C96.4421 37.7051 96.4691 37.7095 96.4962 37.7083C96.5232 37.7072 96.5497 37.7005 96.5742 37.6888C96.5986 37.6771 96.6204 37.6606 96.6382 37.6402C96.656 37.6198 96.6695 37.596 96.6779 37.5703C96.6862 37.5445 96.6893 37.5173 96.6868 37.4904C96.6844 37.4634 96.6765 37.4372 96.6636 37.4134C96.6507 37.3896 96.6331 37.3686 96.6119 37.3518C96.5907 37.335 96.5663 37.3226 96.5402 37.3155Z" fill="#056C34"/>
<path d="M96.8985 39.1767L96.7809 39.3385C96.7497 39.3815 96.7368 39.4351 96.7452 39.4875C96.7535 39.54 96.7823 39.587 96.8253 39.6181C96.8682 39.6493 96.9218 39.6622 96.9743 39.6538C97.0267 39.6455 97.0737 39.6167 97.1049 39.5737L97.2223 39.4119C97.2377 39.3907 97.2488 39.3666 97.2549 39.341C97.2611 39.3155 97.2621 39.289 97.258 39.263C97.2539 39.2371 97.2447 39.2122 97.231 39.1898C97.2172 39.1674 97.1992 39.1479 97.178 39.1324C97.1567 39.117 97.1326 39.1059 97.1071 39.0998C97.0815 39.0936 97.055 39.0926 97.029 39.0967C97.0031 39.1008 96.9782 39.11 96.9558 39.1237C96.9334 39.1375 96.9139 39.1555 96.8985 39.1767Z" fill="#056C34"/>
<path d="M98.8239 39.1324C98.8026 39.1478 98.7845 39.1673 98.7707 39.1898C98.757 39.2122 98.7478 39.2372 98.7437 39.2632C98.7396 39.2892 98.7406 39.3158 98.7468 39.3414C98.753 39.367 98.7642 39.3911 98.7797 39.4124L98.8971 39.5742C98.9126 39.5954 98.9321 39.6135 98.9545 39.6272C98.9769 39.6409 99.0018 39.6501 99.0277 39.6543C99.0537 39.6584 99.0802 39.6574 99.1058 39.6512C99.1313 39.6451 99.1555 39.634 99.1767 39.6186C99.198 39.6031 99.216 39.5836 99.2298 39.5612C99.2435 39.5388 99.2527 39.5139 99.2568 39.488C99.261 39.462 99.2599 39.4355 99.2538 39.4099C99.2477 39.3843 99.2366 39.3602 99.2211 39.339L99.1035 39.1772C99.0881 39.1558 99.0687 39.1378 99.0463 39.124C99.0239 39.1102 98.999 39.1009 98.973 39.0968C98.9471 39.0926 98.9205 39.0936 98.8949 39.0997C98.8693 39.1058 98.8452 39.1169 98.8239 39.1324Z" fill="#056C34"/>
<path d="M99.5211 37.7055C99.542 37.7055 99.5629 37.7022 99.5829 37.6957L99.7731 37.6339C99.7992 37.6268 99.8236 37.6145 99.8448 37.5977C99.866 37.5808 99.8836 37.5599 99.8965 37.5361C99.9093 37.5122 99.9173 37.4861 99.9197 37.4591C99.9222 37.4321 99.9191 37.4049 99.9108 37.3792C99.9024 37.3534 99.8889 37.3297 99.8711 37.3093C99.8532 37.2889 99.8314 37.2724 99.807 37.2606C99.7826 37.2489 99.7561 37.2423 99.729 37.2411C99.702 37.24 99.675 37.2444 99.6497 37.2539L99.4595 37.3157C99.4142 37.3305 99.3757 37.3608 99.3508 37.4014C99.3259 37.442 99.3163 37.4901 99.3237 37.5371C99.3312 37.5841 99.3551 37.627 99.3913 37.6579C99.4274 37.6889 99.4735 37.7059 99.5211 37.7059V37.7055Z" fill="#056C34"/>
<path d="M43.9441 19.5827L109.99 18.7415L103.552 9.06207L63.2861 8.96674C62.8094 8.9443 62.3384 8.97795 61.8729 9.06207C59.2315 9.54997 50.7242 11.939 46.1368 15.1692L42.5421 17.575C42.329 17.7208 42.2898 18.0237 42.4692 18.2087L43.6357 19.4481C43.7142 19.5322 43.8264 19.5827 43.9441 19.5827Z" fill="#056C34"/>
<path opacity="0.15" d="M34.9656 34.1297V39.1433C35.5937 39.1377 36.2218 39.1321 36.8499 39.1208C38.521 39.104 40.1866 39.0872 41.8578 39.0648L49.0304 38.9863L57.4088 38.8965L66.0339 38.8068L73.9468 38.7227L80.1885 38.6554C81.3886 38.6442 82.5943 38.6273 83.7944 38.6161C83.9683 38.6161 84.1477 38.6161 84.3216 38.6161C84.187 38.6161 84.7422 35.4027 84.8151 35.1167C85.1179 33.9503 85.5553 32.8231 86.1217 31.7575C87.1817 29.7611 88.7183 28.0002 90.6811 26.8505C90.7988 26.7832 90.9166 26.7159 91.04 26.6486C91.3821 26.4636 91.7354 26.2953 92.0943 26.1495C95.9526 24.5569 100.759 24.77 104.443 26.7384C106.26 27.7086 107.797 29.1554 108.935 30.8659C109.513 31.7295 109.989 32.6548 110.36 33.625C110.545 34.1129 110.707 34.6064 110.836 35.1111C110.954 35.5654 110.948 36.2271 111.15 36.6421C111.178 36.7038 111.195 36.7823 111.223 36.8496C113.304 36.7991 115.412 36.9001 117.493 36.9281C117.835 36.9281 118.177 36.9393 118.519 36.9393V33.6867L114.594 21.2369C114.594 21.2369 90.4792 20.1153 87.6752 24.6017L84.3104 27.4057L82.628 29.0881L74.216 30.7705L34.96 34.1353L34.9656 34.1297Z" fill="url(#paint0_linear_2747_27)"/>
<path d="M118.195 16.8438L117.75 16.2873V17V28V28.25H118H120H120.25V28V19.5V19.4123L120.195 19.3438L118.195 16.8438Z" fill="#B0190C" stroke="#056C34" stroke-width="0.5"/>
<line x1="63" y1="22.5" x2="67" y2="22.5" stroke="#056C34"/>
<line x1="83" y1="22.5" x2="87" y2="22.5" stroke="#056C34"/>
</g>
<defs>
<linearGradient id="paint0_linear_2747_27" x1="76.7396" y1="21.1123" x2="76.7396" y2="39.1433" gradientUnits="userSpaceOnUse">
<stop stop-color="#046C34"/>
<stop offset="1" stop-opacity="0"/>
</linearGradient>
<clipPath id="clip0_2747_27">
<rect width="120" height="42.9124" fill="white" transform="translate(3 6)"/>
</clipPath>
</defs>
</svg>
