<svg width="125" height="55" viewBox="0 0 125 55" fill="none" xmlns="http://www.w3.org/2000/svg">
<g clip-path="url(#clip0_2747_119)">
<path d="M20.25 33.0833C23.6557 33.0833 26.4167 35.8443 26.4167 39.25C26.4167 42.6557 23.6557 45.4167 20.25 45.4167C16.8443 45.4167 14.0833 42.6557 14.0833 39.25C14.0833 35.8443 16.8443 33.0833 20.25 33.0833ZM20.25 30C15.1492 30 11 34.1492 11 39.25C11 44.3508 15.1492 48.5 20.25 48.5C25.3508 48.5 29.5 44.3508 29.5 39.25C29.5 34.1492 25.3508 30 20.25 30Z" fill="#056C34"/>
<path d="M20.2715 33.7087C19.1712 33.7087 18.0957 34.035 17.1809 34.6463C16.266 35.2575 15.553 36.1264 15.132 37.1429C14.7109 38.1594 14.6007 39.2779 14.8154 40.357C15.03 41.4361 15.5599 42.4274 16.3379 43.2054C17.1159 43.9834 18.1071 44.5132 19.1862 44.7278C20.2653 44.9425 21.3839 44.8323 22.4004 44.4113C23.4169 43.9902 24.2857 43.2772 24.897 42.3624C25.5082 41.4475 25.8345 40.372 25.8345 39.2717C25.8328 37.7969 25.2462 36.3829 24.2033 35.3399C23.1604 34.297 21.7464 33.7104 20.2715 33.7087ZM24.7512 36.6516C24.6084 36.7724 24.4569 36.8826 24.298 36.9813C23.9722 36.4082 23.5279 35.9112 22.9947 35.5235C22.4616 35.1357 21.8519 34.8662 21.2063 34.7329C21.2512 34.5513 21.3092 34.3732 21.3798 34.2C22.0803 34.3543 22.7414 34.6518 23.3215 35.0737C23.9017 35.4956 24.3884 36.0327 24.7512 36.6516ZM21.1282 35.0954C21.7234 35.2178 22.2855 35.4659 22.777 35.8233C23.2684 36.1806 23.6777 36.6389 23.9776 37.1674C23.5648 37.3852 23.1333 37.5656 22.6882 37.7063C22.4068 37.797 22.1618 37.8732 21.948 37.9351C21.9151 37.944 21.8804 37.9437 21.8477 37.9341C21.815 37.9246 21.7855 37.9062 21.7626 37.881C21.5841 37.6887 21.37 37.5329 21.1321 37.4222C21.1009 37.4083 21.0743 37.3859 21.0552 37.3576C21.0361 37.3292 21.0254 37.2961 21.0242 37.262C21.0171 37.0404 21.0132 36.7845 21.0132 36.4902C21.0097 36.0228 21.0481 35.556 21.1282 35.0954ZM21.0077 34.1326C20.7426 34.8895 20.6188 35.6886 20.6424 36.4902C20.6424 36.7888 20.6463 37.0482 20.6527 37.2728C20.6558 37.3756 20.6876 37.4756 20.7444 37.5614C20.8013 37.6471 20.8809 37.7153 20.9745 37.7582C21.169 37.8488 21.3442 37.9763 21.4902 38.1335C21.5421 38.19 21.6052 38.2351 21.6754 38.266C21.7456 38.297 21.8214 38.313 21.8981 38.3132C21.9505 38.3133 22.0026 38.3057 22.0528 38.2908C22.2692 38.2276 22.5164 38.1514 22.8027 38.0592C23.5722 37.8343 24.2938 37.4698 24.9314 36.9837C25.1493 37.4259 25.3024 37.897 25.3863 38.3828C24.5845 38.3644 23.7862 38.4939 23.0313 38.7648C22.7693 38.8495 22.5197 38.9346 22.2896 39.0173C22.1928 39.0521 22.1078 39.1133 22.044 39.194C21.9802 39.2746 21.9403 39.3715 21.9287 39.4737C21.9031 39.6864 21.8362 39.8922 21.7318 40.0793C21.6808 40.1688 21.6559 40.2708 21.6598 40.3738C21.6637 40.4767 21.6963 40.5765 21.7539 40.6619C21.8927 40.8672 22.045 41.0831 22.2059 41.3032C22.6571 41.9653 23.2263 42.5386 23.8852 42.9945C23.532 43.3377 23.132 43.6291 22.6972 43.8601C22.4678 43.0922 22.098 42.3735 21.6066 41.7404C21.4397 41.5094 21.2806 41.298 21.136 41.112C21.0729 41.031 20.9884 40.9692 20.8921 40.9335C20.7958 40.8978 20.6915 40.8897 20.5908 40.91C20.3799 40.9507 20.1632 40.9507 19.9524 40.91C19.8517 40.8896 19.7473 40.8977 19.651 40.9334C19.5547 40.9691 19.4703 41.0309 19.4072 41.112C19.2627 41.2974 19.1044 41.5094 18.9369 41.7404C18.4453 42.3736 18.0754 43.0925 17.846 43.8607C17.4112 43.6296 17.0112 43.3382 16.658 42.9951C17.3166 42.5394 17.8857 41.9662 18.3367 41.3043C18.4982 41.0836 18.6504 40.8678 18.7893 40.6627C18.8469 40.5773 18.8795 40.4775 18.8834 40.3745C18.8874 40.2716 18.8625 40.1696 18.8116 40.08C18.7071 39.8929 18.6401 39.6872 18.6145 39.4744C18.6029 39.3722 18.563 39.2753 18.4992 39.1946C18.4355 39.1139 18.3504 39.0527 18.2536 39.0179C18.0235 38.9352 17.7739 38.8501 17.5119 38.7653C16.757 38.4945 15.9587 38.365 15.1569 38.3833C15.2407 37.8976 15.3939 37.4264 15.6117 36.9842C16.2494 37.4704 16.9712 37.835 17.7409 38.0597C18.0261 38.1525 18.274 38.2281 18.4904 38.2914C18.5406 38.3063 18.5927 38.3138 18.6451 38.3138C18.7218 38.3136 18.7976 38.2975 18.8678 38.2666C18.938 38.2357 19.0011 38.1906 19.053 38.1341C19.1991 37.9768 19.3743 37.8492 19.5689 37.7586C19.6624 37.7157 19.742 37.6476 19.7988 37.5619C19.8556 37.4762 19.8874 37.3763 19.8904 37.2735C19.8967 37.0482 19.9006 36.7888 19.9006 36.4902C19.9242 35.6886 19.8004 34.8895 19.5353 34.1326C20.0236 34.0619 20.5194 34.0619 21.0077 34.1326ZM24.5365 39.2717C24.5371 40.3365 24.1371 41.3625 23.4161 42.146C23.0815 41.8205 22.7768 41.4658 22.5054 41.086C22.3467 40.8692 22.1972 40.6571 22.0604 40.4555C22.0415 40.4269 22.031 40.3936 22.0301 40.3593C22.0292 40.325 22.0379 40.2912 22.0552 40.2616C22.1831 40.0324 22.265 39.7804 22.2962 39.5198C22.2998 39.486 22.3128 39.4539 22.3337 39.4271C22.3546 39.4003 22.3826 39.3798 22.4145 39.3682C22.6408 39.2868 22.8865 39.2029 23.1452 39.1191C23.588 38.9712 24.0433 38.8635 24.5055 38.797C24.5247 38.9546 24.5351 39.113 24.5365 39.2717ZM22.0331 43.1536C21.4801 43.406 20.8794 43.5367 20.2715 43.5367C19.6636 43.5367 19.0629 43.406 18.5099 43.1536C18.7158 42.7341 18.9591 42.334 19.2368 41.9581C19.402 41.7306 19.5578 41.5223 19.7004 41.3393C19.7218 41.3129 19.7501 41.2928 19.7821 41.2814C19.8142 41.2699 19.8488 41.2675 19.8821 41.2744C20.1393 41.3239 20.4037 41.3239 20.6609 41.2744C20.6943 41.2675 20.7289 41.27 20.761 41.2815C20.7931 41.293 20.8214 41.3131 20.8428 41.3397C20.985 41.5227 21.1408 41.731 21.3064 41.9587C21.5841 42.3343 21.8273 42.7342 22.0331 43.1536ZM16.0369 38.7957C16.4991 38.8621 16.9544 38.97 17.3973 39.118C17.6558 39.2016 17.9015 39.2849 18.1277 39.3669C18.1597 39.3786 18.1877 39.399 18.2086 39.4258C18.2295 39.4527 18.2425 39.4849 18.246 39.5187C18.2772 39.7793 18.3591 40.0313 18.4871 40.2605C18.5043 40.2901 18.5129 40.324 18.512 40.3582C18.511 40.3925 18.5005 40.4258 18.4817 40.4544C18.3452 40.656 18.1958 40.8681 18.0367 41.0849C17.7657 41.465 17.4612 41.8201 17.1269 42.146C16.712 41.7008 16.3994 41.1702 16.2111 40.5915C16.0228 40.0128 15.9634 39.3999 16.0369 38.7957ZM19.5298 36.4902C19.5298 36.7845 19.5259 37.0404 19.5194 37.2622C19.5182 37.2963 19.5074 37.3293 19.4884 37.3575C19.4694 37.3858 19.4428 37.4081 19.4116 37.422C19.1738 37.5328 18.9597 37.6887 18.7812 37.881C18.7582 37.9062 18.7288 37.9246 18.6961 37.9341C18.6633 37.9437 18.6286 37.944 18.5957 37.9351C18.3819 37.8725 18.137 37.797 17.8559 37.7065C17.4107 37.5657 16.9791 37.3853 16.5662 37.1674C16.8659 36.639 17.2752 36.1808 17.7664 35.8234C18.2577 35.4661 18.8197 35.2178 19.4148 35.0954C19.4949 35.556 19.5333 36.0228 19.5298 36.4902ZM19.1632 34.2C19.2338 34.3732 19.2918 34.5513 19.3367 34.7329C18.6911 34.8662 18.0814 35.1357 17.5483 35.5235C17.0151 35.9112 16.5708 36.4082 16.245 36.9813C16.0861 36.8825 15.9346 36.7723 15.7918 36.6516C16.1546 36.0327 16.6413 35.4956 17.2215 35.0737C17.8016 34.6518 18.4627 34.3543 19.1632 34.2ZM15.105 38.7583C15.2925 38.7445 15.4808 38.7445 15.6683 38.7583C15.6477 38.9287 15.6368 39.1001 15.6357 39.2717C15.6336 40.428 16.0661 41.5428 16.8473 42.3952C16.705 42.5149 16.5542 42.6241 16.3959 42.7219C15.5473 41.7732 15.0785 40.5447 15.0794 39.2717C15.0794 39.0984 15.0883 38.9272 15.105 38.7583ZM18.1869 44.0255C18.232 43.844 18.2899 43.666 18.3602 43.4928C18.9603 43.7661 19.6121 43.9076 20.2715 43.9076C20.9309 43.9076 21.5827 43.7661 22.1828 43.4928C22.2531 43.666 22.311 43.844 22.3561 44.0255C21.6992 44.3146 20.9893 44.4639 20.2715 44.4639C19.5537 44.4639 18.8438 44.3146 18.1869 44.0255ZM24.1471 42.7219C23.9888 42.6241 23.838 42.5149 23.6957 42.3952C24.4769 41.5428 24.9094 40.428 24.9073 39.2717C24.9062 39.1 24.8953 38.9284 24.8747 38.7579C25.0622 38.7442 25.2505 38.7442 25.438 38.7579C25.4547 38.9268 25.4636 39.098 25.4636 39.2714C25.4646 40.5444 24.9958 41.7731 24.1471 42.7219Z" fill="#056C34"/>
<path d="M19.3457 39.2714C19.3457 39.4548 19.4001 39.634 19.502 39.7865C19.6038 39.939 19.7486 40.0578 19.9181 40.128C20.0875 40.1982 20.2739 40.2165 20.4538 40.1808C20.6336 40.145 20.7988 40.0567 20.9285 39.927C21.0581 39.7973 21.1464 39.6321 21.1822 39.4523C21.218 39.2724 21.1996 39.086 21.1295 38.9166C21.0593 38.7472 20.9404 38.6024 20.788 38.5005C20.6355 38.3986 20.4562 38.3442 20.2729 38.3442C20.0271 38.3445 19.7914 38.4423 19.6176 38.6161C19.4438 38.7899 19.346 39.0256 19.3457 39.2714ZM20.8292 39.2714C20.8292 39.3814 20.7965 39.489 20.7354 39.5805C20.6743 39.672 20.5874 39.7433 20.4858 39.7854C20.3841 39.8275 20.2723 39.8385 20.1643 39.817C20.0564 39.7956 19.9573 39.7426 19.8795 39.6648C19.8017 39.587 19.7487 39.4878 19.7273 39.3799C19.7058 39.272 19.7168 39.1602 19.7589 39.0585C19.801 38.9569 19.8723 38.87 19.9638 38.8089C20.0553 38.7477 20.1628 38.7151 20.2729 38.7151C20.4204 38.7151 20.5619 38.7737 20.6662 38.878C20.7706 38.9824 20.8292 39.1239 20.8292 39.2714Z" fill="#056C34"/>
<path d="M20.2719 37.9743C20.321 37.9743 20.3682 37.9547 20.403 37.92C20.4378 37.8852 20.4573 37.838 20.4573 37.7888V37.6034C20.4573 37.5542 20.4378 37.5071 20.403 37.4723C20.3682 37.4375 20.321 37.418 20.2719 37.418C20.2227 37.418 20.1755 37.4375 20.1407 37.4723C20.106 37.5071 20.0864 37.5542 20.0864 37.6034V37.7888C20.0864 37.838 20.106 37.8852 20.1407 37.92C20.1755 37.9547 20.2227 37.9743 20.2719 37.9743Z" fill="#056C34"/>
<path d="M18.9187 38.637L18.7424 38.5797C18.7189 38.5708 18.6938 38.5667 18.6688 38.5678C18.6437 38.5689 18.6191 38.575 18.5964 38.5859C18.5738 38.5967 18.5536 38.6121 18.5371 38.631C18.5206 38.6499 18.508 38.6719 18.5003 38.6958C18.4925 38.7197 18.4897 38.7449 18.492 38.7699C18.4943 38.7949 18.5016 38.8191 18.5135 38.8412C18.5255 38.8633 18.5418 38.8828 18.5614 38.8983C18.5811 38.9139 18.6037 38.9254 18.6279 38.932L18.8043 38.9893C18.8278 38.9982 18.8528 39.0022 18.8779 39.0012C18.903 39.0001 18.9276 38.9939 18.9502 38.9831C18.9728 38.9722 18.993 38.9569 19.0096 38.938C19.0261 38.9191 19.0386 38.897 19.0464 38.8732C19.0541 38.8493 19.057 38.8241 19.0547 38.7991C19.0524 38.7741 19.0451 38.7498 19.0331 38.7277C19.0212 38.7056 19.0049 38.6862 18.9852 38.6706C18.9656 38.655 18.9429 38.6436 18.9187 38.637Z" fill="#056C34"/>
<path d="M19.2504 40.3626L19.1414 40.5126C19.1124 40.5525 19.1005 40.6022 19.1083 40.6508C19.116 40.6994 19.1427 40.743 19.1825 40.7719C19.2224 40.8008 19.2721 40.8127 19.3207 40.805C19.3693 40.7973 19.4128 40.7705 19.4418 40.7307L19.5506 40.5807C19.5649 40.561 19.5752 40.5386 19.5809 40.515C19.5866 40.4913 19.5876 40.4667 19.5837 40.4426C19.5799 40.4186 19.5714 40.3955 19.5587 40.3747C19.546 40.3539 19.5293 40.3359 19.5095 40.3216C19.4898 40.3072 19.4675 40.2969 19.4438 40.2913C19.4201 40.2856 19.3955 40.2846 19.3715 40.2884C19.3474 40.2922 19.3243 40.3008 19.3035 40.3135C19.2828 40.3262 19.2647 40.3429 19.2504 40.3626Z" fill="#056C34"/>
<path d="M21.0357 40.3215C21.0159 40.3358 20.9991 40.3539 20.9864 40.3747C20.9736 40.3955 20.9651 40.4186 20.9613 40.4428C20.9574 40.4669 20.9584 40.4915 20.9642 40.5153C20.9699 40.539 20.9803 40.5614 20.9947 40.5811L21.1035 40.7311C21.1179 40.7508 21.1359 40.7675 21.1567 40.7803C21.1775 40.793 21.2006 40.8015 21.2246 40.8054C21.2487 40.8092 21.2733 40.8082 21.297 40.8026C21.3207 40.7969 21.3431 40.7866 21.3628 40.7723C21.3825 40.7579 21.3992 40.7399 21.412 40.7191C21.4247 40.6983 21.4332 40.6752 21.4371 40.6512C21.4409 40.6271 21.4399 40.6025 21.4342 40.5788C21.4286 40.5551 21.4183 40.5328 21.4039 40.513L21.2949 40.363C21.2806 40.3432 21.2626 40.3265 21.2418 40.3137C21.2211 40.3009 21.198 40.2923 21.1739 40.2885C21.1498 40.2846 21.1252 40.2855 21.1015 40.2912C21.0778 40.2969 21.0554 40.3072 21.0357 40.3215Z" fill="#056C34"/>
<path d="M21.6823 38.9986C21.7017 38.9986 21.7211 38.9955 21.7396 38.9895L21.9159 38.9322C21.9402 38.9256 21.9628 38.9142 21.9825 38.8986C22.0021 38.883 22.0184 38.8636 22.0304 38.8415C22.0423 38.8194 22.0496 38.7951 22.0519 38.7701C22.0542 38.7451 22.0514 38.7199 22.0436 38.696C22.0358 38.6722 22.0233 38.6501 22.0068 38.6312C21.9903 38.6123 21.9701 38.597 21.9474 38.5861C21.9248 38.5753 21.9002 38.5691 21.8751 38.568C21.85 38.567 21.825 38.571 21.8015 38.5799L21.6252 38.6372C21.5832 38.6508 21.5475 38.679 21.5244 38.7166C21.5013 38.7543 21.4925 38.7989 21.4993 38.8425C21.5062 38.8861 21.5284 38.9258 21.562 38.9545C21.5955 38.9831 21.6382 38.9989 21.6823 38.999V38.9986Z" fill="#056C34"/>
<path d="M94.25 33.0833C97.6557 33.0833 100.417 35.8443 100.417 39.25C100.417 42.6557 97.6557 45.4167 94.25 45.4167C90.8443 45.4167 88.0833 42.6557 88.0833 39.25C88.0833 35.8443 90.8443 33.0833 94.25 33.0833ZM94.25 30C89.1492 30 85 34.1492 85 39.25C85 44.3508 89.1492 48.5 94.25 48.5C99.3508 48.5 103.5 44.3508 103.5 39.25C103.5 34.1492 99.3508 30 94.25 30Z" fill="#056C34"/>
<path d="M94.2715 33.7087C93.1712 33.7087 92.0957 34.035 91.1809 34.6463C90.266 35.2575 89.553 36.1264 89.132 37.1429C88.7109 38.1594 88.6007 39.2779 88.8154 40.357C89.03 41.4361 89.5599 42.4274 90.3379 43.2054C91.1159 43.9834 92.1071 44.5132 93.1862 44.7278C94.2653 44.9425 95.3839 44.8323 96.4004 44.4113C97.4169 43.9902 98.2857 43.2772 98.897 42.3624C99.5082 41.4475 99.8345 40.372 99.8345 39.2717C99.8328 37.7969 99.2462 36.3829 98.2033 35.3399C97.1604 34.297 95.7464 33.7104 94.2715 33.7087ZM98.7512 36.6516C98.6084 36.7724 98.4569 36.8826 98.298 36.9813C97.9722 36.4082 97.5279 35.9112 96.9947 35.5235C96.4616 35.1357 95.8519 34.8662 95.2063 34.7329C95.2512 34.5513 95.3092 34.3732 95.3798 34.2C96.0803 34.3543 96.7414 34.6518 97.3215 35.0737C97.9017 35.4956 98.3884 36.0327 98.7512 36.6516ZM95.1282 35.0954C95.7234 35.2178 96.2855 35.4659 96.777 35.8233C97.2684 36.1806 97.6777 36.6389 97.9776 37.1674C97.5648 37.3852 97.1333 37.5656 96.6882 37.7063C96.4068 37.797 96.1618 37.8732 95.948 37.9351C95.9151 37.944 95.8804 37.9437 95.8477 37.9341C95.815 37.9246 95.7855 37.9062 95.7626 37.881C95.5841 37.6887 95.37 37.5329 95.1321 37.4222C95.1009 37.4083 95.0743 37.3859 95.0552 37.3576C95.0361 37.3292 95.0254 37.2961 95.0242 37.262C95.0171 37.0404 95.0132 36.7845 95.0132 36.4902C95.0097 36.0228 95.0481 35.556 95.1282 35.0954ZM95.0077 34.1326C94.7426 34.8895 94.6188 35.6886 94.6424 36.4902C94.6424 36.7888 94.6463 37.0482 94.6527 37.2728C94.6558 37.3756 94.6876 37.4756 94.7444 37.5614C94.8013 37.6471 94.8809 37.7153 94.9745 37.7582C95.169 37.8488 95.3442 37.9763 95.4902 38.1335C95.5421 38.19 95.6052 38.2351 95.6754 38.266C95.7456 38.297 95.8214 38.313 95.8981 38.3132C95.9505 38.3133 96.0026 38.3057 96.0528 38.2908C96.2692 38.2276 96.5164 38.1514 96.8027 38.0592C97.5722 37.8343 98.2938 37.4698 98.9314 36.9837C99.1493 37.4259 99.3024 37.897 99.3863 38.3828C98.5845 38.3644 97.7862 38.4939 97.0313 38.7648C96.7693 38.8495 96.5197 38.9346 96.2896 39.0173C96.1928 39.0521 96.1078 39.1133 96.044 39.194C95.9802 39.2746 95.9403 39.3715 95.9287 39.4737C95.9031 39.6864 95.8362 39.8922 95.7318 40.0793C95.6808 40.1688 95.6559 40.2708 95.6598 40.3738C95.6637 40.4767 95.6963 40.5765 95.7539 40.6619C95.8927 40.8672 96.045 41.0831 96.2059 41.3032C96.6571 41.9653 97.2263 42.5386 97.8852 42.9945C97.532 43.3377 97.132 43.6291 96.6972 43.8601C96.4678 43.0922 96.098 42.3735 95.6066 41.7404C95.4397 41.5094 95.2806 41.298 95.136 41.112C95.0729 41.031 94.9884 40.9692 94.8921 40.9335C94.7958 40.8978 94.6915 40.8897 94.5908 40.91C94.3799 40.9507 94.1632 40.9507 93.9524 40.91C93.8517 40.8896 93.7473 40.8977 93.651 40.9334C93.5547 40.9691 93.4703 41.0309 93.4072 41.112C93.2627 41.2974 93.1044 41.5094 92.9369 41.7404C92.4453 42.3736 92.0754 43.0925 91.846 43.8607C91.4112 43.6296 91.0112 43.3382 90.658 42.9951C91.3166 42.5394 91.8857 41.9662 92.3367 41.3043C92.4982 41.0836 92.6504 40.8678 92.7893 40.6627C92.8469 40.5773 92.8795 40.4775 92.8834 40.3745C92.8874 40.2716 92.8625 40.1696 92.8116 40.08C92.7071 39.8929 92.6401 39.6872 92.6145 39.4744C92.6029 39.3722 92.563 39.2753 92.4992 39.1946C92.4355 39.1139 92.3504 39.0527 92.2536 39.0179C92.0235 38.9352 91.7739 38.8501 91.5119 38.7653C90.757 38.4945 89.9587 38.365 89.1569 38.3833C89.2407 37.8976 89.3939 37.4264 89.6117 36.9842C90.2494 37.4704 90.9712 37.835 91.7409 38.0597C92.0261 38.1525 92.274 38.2281 92.4904 38.2914C92.5406 38.3063 92.5927 38.3138 92.6451 38.3138C92.7218 38.3136 92.7976 38.2975 92.8678 38.2666C92.938 38.2357 93.0011 38.1906 93.053 38.1341C93.1991 37.9768 93.3743 37.8492 93.5689 37.7586C93.6624 37.7157 93.742 37.6476 93.7988 37.5619C93.8556 37.4762 93.8874 37.3763 93.8904 37.2735C93.8967 37.0482 93.9006 36.7888 93.9006 36.4902C93.9242 35.6886 93.8004 34.8895 93.5353 34.1326C94.0236 34.0619 94.5194 34.0619 95.0077 34.1326ZM98.5365 39.2717C98.5371 40.3365 98.1371 41.3625 97.4161 42.146C97.0815 41.8205 96.7768 41.4658 96.5054 41.086C96.3467 40.8692 96.1972 40.6571 96.0604 40.4555C96.0415 40.4269 96.031 40.3936 96.0301 40.3593C96.0292 40.325 96.0379 40.2912 96.0552 40.2616C96.1831 40.0324 96.265 39.7804 96.2962 39.5198C96.2998 39.486 96.3128 39.4539 96.3337 39.4271C96.3546 39.4003 96.3826 39.3798 96.4145 39.3682C96.6408 39.2868 96.8865 39.2029 97.1452 39.1191C97.588 38.9712 98.0433 38.8635 98.5055 38.797C98.5247 38.9546 98.5351 39.113 98.5365 39.2717ZM96.0331 43.1536C95.4801 43.406 94.8794 43.5367 94.2715 43.5367C93.6636 43.5367 93.0629 43.406 92.5099 43.1536C92.7158 42.7341 92.9591 42.334 93.2368 41.9581C93.402 41.7306 93.5578 41.5223 93.7004 41.3393C93.7218 41.3129 93.7501 41.2928 93.7821 41.2814C93.8142 41.2699 93.8488 41.2675 93.8821 41.2744C94.1393 41.3239 94.4037 41.3239 94.6609 41.2744C94.6943 41.2675 94.7289 41.27 94.761 41.2815C94.7931 41.293 94.8214 41.3131 94.8428 41.3397C94.985 41.5227 95.1408 41.731 95.3064 41.9587C95.5841 42.3343 95.8273 42.7342 96.0331 43.1536ZM90.0369 38.7957C90.4991 38.8621 90.9544 38.97 91.3973 39.118C91.6558 39.2016 91.9015 39.2849 92.1277 39.3669C92.1597 39.3786 92.1877 39.399 92.2086 39.4258C92.2295 39.4527 92.2425 39.4849 92.246 39.5187C92.2772 39.7793 92.3591 40.0313 92.4871 40.2605C92.5043 40.2901 92.5129 40.324 92.512 40.3582C92.511 40.3925 92.5005 40.4258 92.4817 40.4544C92.3452 40.656 92.1958 40.8681 92.0367 41.0849C91.7657 41.465 91.4612 41.8201 91.1269 42.146C90.712 41.7008 90.3994 41.1702 90.2111 40.5915C90.0228 40.0128 89.9634 39.3999 90.0369 38.7957ZM93.5298 36.4902C93.5298 36.7845 93.5259 37.0404 93.5194 37.2622C93.5182 37.2963 93.5074 37.3293 93.4884 37.3575C93.4694 37.3858 93.4428 37.4081 93.4116 37.422C93.1738 37.5328 92.9597 37.6887 92.7812 37.881C92.7582 37.9062 92.7288 37.9246 92.6961 37.9341C92.6633 37.9437 92.6286 37.944 92.5957 37.9351C92.3819 37.8725 92.137 37.797 91.8559 37.7065C91.4107 37.5657 90.9791 37.3853 90.5662 37.1674C90.8659 36.639 91.2752 36.1808 91.7664 35.8234C92.2577 35.4661 92.8197 35.2178 93.4148 35.0954C93.4949 35.556 93.5333 36.0228 93.5298 36.4902ZM93.1632 34.2C93.2338 34.3732 93.2918 34.5513 93.3367 34.7329C92.6911 34.8662 92.0814 35.1357 91.5483 35.5235C91.0151 35.9112 90.5708 36.4082 90.245 36.9813C90.0861 36.8825 89.9346 36.7723 89.7918 36.6516C90.1546 36.0327 90.6413 35.4956 91.2215 35.0737C91.8016 34.6518 92.4627 34.3543 93.1632 34.2ZM89.105 38.7583C89.2925 38.7445 89.4808 38.7445 89.6683 38.7583C89.6477 38.9287 89.6368 39.1001 89.6357 39.2717C89.6336 40.428 90.0661 41.5428 90.8473 42.3952C90.705 42.5149 90.5542 42.6241 90.3959 42.7219C89.5473 41.7732 89.0785 40.5447 89.0794 39.2717C89.0794 39.0984 89.0883 38.9272 89.105 38.7583ZM92.1869 44.0255C92.232 43.844 92.2899 43.666 92.3602 43.4928C92.9603 43.7661 93.6121 43.9076 94.2715 43.9076C94.9309 43.9076 95.5827 43.7661 96.1828 43.4928C96.2531 43.666 96.311 43.844 96.3561 44.0255C95.6992 44.3146 94.9893 44.4639 94.2715 44.4639C93.5537 44.4639 92.8438 44.3146 92.1869 44.0255ZM98.1471 42.7219C97.9888 42.6241 97.838 42.5149 97.6957 42.3952C98.4769 41.5428 98.9094 40.428 98.9073 39.2717C98.9062 39.1 98.8953 38.9284 98.8747 38.7579C99.0622 38.7442 99.2505 38.7442 99.438 38.7579C99.4547 38.9268 99.4636 39.098 99.4636 39.2714C99.4646 40.5444 98.9958 41.7731 98.1471 42.7219Z" fill="#056C34"/>
<path d="M93.3457 39.2714C93.3457 39.4548 93.4001 39.634 93.502 39.7865C93.6038 39.939 93.7486 40.0578 93.9181 40.128C94.0875 40.1982 94.2739 40.2165 94.4538 40.1808C94.6336 40.145 94.7988 40.0567 94.9285 39.927C95.0581 39.7973 95.1464 39.6321 95.1822 39.4523C95.218 39.2724 95.1996 39.086 95.1295 38.9166C95.0593 38.7472 94.9404 38.6024 94.788 38.5005C94.6355 38.3986 94.4562 38.3442 94.2729 38.3442C94.0271 38.3445 93.7914 38.4423 93.6176 38.6161C93.4438 38.7899 93.346 39.0256 93.3457 39.2714ZM94.8292 39.2714C94.8292 39.3814 94.7965 39.489 94.7354 39.5805C94.6743 39.672 94.5874 39.7433 94.4858 39.7854C94.3841 39.8275 94.2723 39.8385 94.1643 39.817C94.0564 39.7956 93.9573 39.7426 93.8795 39.6648C93.8017 39.587 93.7487 39.4878 93.7273 39.3799C93.7058 39.272 93.7168 39.1602 93.7589 39.0585C93.801 38.9569 93.8723 38.87 93.9638 38.8089C94.0553 38.7477 94.1628 38.7151 94.2729 38.7151C94.4204 38.7151 94.5619 38.7737 94.6662 38.878C94.7706 38.9824 94.8292 39.1239 94.8292 39.2714Z" fill="#056C34"/>
<path d="M94.2719 37.9743C94.321 37.9743 94.3682 37.9547 94.403 37.92C94.4378 37.8852 94.4573 37.838 94.4573 37.7888V37.6034C94.4573 37.5542 94.4378 37.5071 94.403 37.4723C94.3682 37.4375 94.321 37.418 94.2719 37.418C94.2227 37.418 94.1755 37.4375 94.1407 37.4723C94.106 37.5071 94.0864 37.5542 94.0864 37.6034V37.7888C94.0864 37.838 94.106 37.8852 94.1407 37.92C94.1755 37.9547 94.2227 37.9743 94.2719 37.9743Z" fill="#056C34"/>
<path d="M92.9187 38.637L92.7424 38.5797C92.7189 38.5708 92.6938 38.5667 92.6688 38.5678C92.6437 38.5689 92.6191 38.575 92.5964 38.5859C92.5738 38.5967 92.5536 38.6121 92.5371 38.631C92.5206 38.6499 92.508 38.6719 92.5003 38.6958C92.4925 38.7197 92.4897 38.7449 92.492 38.7699C92.4943 38.7949 92.5016 38.8191 92.5135 38.8412C92.5255 38.8633 92.5418 38.8828 92.5614 38.8983C92.5811 38.9139 92.6037 38.9254 92.6279 38.932L92.8043 38.9893C92.8278 38.9982 92.8528 39.0022 92.8779 39.0012C92.903 39.0001 92.9276 38.9939 92.9502 38.9831C92.9728 38.9722 92.993 38.9569 93.0096 38.938C93.0261 38.9191 93.0386 38.897 93.0464 38.8732C93.0541 38.8493 93.057 38.8241 93.0547 38.7991C93.0524 38.7741 93.0451 38.7498 93.0331 38.7277C93.0212 38.7056 93.0049 38.6862 92.9852 38.6706C92.9656 38.655 92.9429 38.6436 92.9187 38.637Z" fill="#056C34"/>
<path d="M93.2504 40.3626L93.1414 40.5126C93.1124 40.5525 93.1005 40.6022 93.1083 40.6508C93.116 40.6994 93.1427 40.743 93.1825 40.7719C93.2224 40.8008 93.2721 40.8127 93.3207 40.805C93.3693 40.7973 93.4128 40.7705 93.4418 40.7307L93.5506 40.5807C93.5649 40.561 93.5752 40.5386 93.5809 40.515C93.5866 40.4913 93.5876 40.4667 93.5837 40.4426C93.5799 40.4186 93.5714 40.3955 93.5587 40.3747C93.546 40.3539 93.5293 40.3359 93.5095 40.3216C93.4898 40.3072 93.4675 40.2969 93.4438 40.2913C93.4201 40.2856 93.3955 40.2846 93.3715 40.2884C93.3474 40.2922 93.3243 40.3008 93.3035 40.3135C93.2828 40.3262 93.2647 40.3429 93.2504 40.3626Z" fill="#056C34"/>
<path d="M95.0357 40.3215C95.0159 40.3358 94.9991 40.3539 94.9864 40.3747C94.9736 40.3955 94.9651 40.4186 94.9613 40.4428C94.9574 40.4669 94.9584 40.4915 94.9642 40.5153C94.9699 40.539 94.9803 40.5614 94.9947 40.5811L95.1035 40.7311C95.1179 40.7508 95.1359 40.7675 95.1567 40.7803C95.1775 40.793 95.2006 40.8015 95.2246 40.8054C95.2487 40.8092 95.2733 40.8082 95.297 40.8026C95.3207 40.7969 95.3431 40.7866 95.3628 40.7723C95.3825 40.7579 95.3992 40.7399 95.412 40.7191C95.4247 40.6983 95.4332 40.6752 95.4371 40.6512C95.4409 40.6271 95.4399 40.6025 95.4342 40.5788C95.4286 40.5551 95.4183 40.5328 95.4039 40.513L95.2949 40.363C95.2806 40.3432 95.2626 40.3265 95.2418 40.3137C95.2211 40.3009 95.198 40.2923 95.1739 40.2885C95.1498 40.2846 95.1252 40.2855 95.1015 40.2912C95.0778 40.2969 95.0554 40.3072 95.0357 40.3215Z" fill="#056C34"/>
<path d="M95.6823 38.9986C95.7017 38.9986 95.7211 38.9955 95.7396 38.9895L95.9159 38.9322C95.9402 38.9256 95.9628 38.9142 95.9825 38.8986C96.0021 38.883 96.0184 38.8636 96.0304 38.8415C96.0423 38.8194 96.0496 38.7951 96.0519 38.7701C96.0542 38.7451 96.0514 38.7199 96.0436 38.696C96.0358 38.6722 96.0233 38.6501 96.0068 38.6312C95.9903 38.6123 95.9701 38.597 95.9474 38.5861C95.9248 38.5753 95.9002 38.5691 95.8751 38.568C95.85 38.567 95.825 38.571 95.8015 38.5799L95.6252 38.6372C95.5832 38.6508 95.5475 38.679 95.5244 38.7166C95.5013 38.7543 95.4925 38.7989 95.4993 38.8425C95.5062 38.8861 95.5284 38.9258 95.562 38.9545C95.5955 38.9831 95.6382 38.9989 95.6823 38.999V38.9986Z" fill="#056C34"/>
<path d="M83.5012 19.2768C82.9524 7.20436 80.7575 8.30186 80.7575 8.30186L51.6739 8.8506C51.6739 8.8506 50.0276 8.30186 44.5401 11.5943C39.0527 14.8868 33.2469 19.2768 33.2469 19.2768C33.2469 19.2768 16.0053 18.1793 7.7741 23.118C7.7741 23.118 6.12785 24.2155 4.48161 29.703L4.0481 29.917C3.62008 30.131 3.37863 30.5755 3.38412 31.0529C3.38412 32.8199 2.98902 34.8502 3.71885 36.5239C4.19078 37.5995 5.10718 38.3897 6.05103 39.0427C6.99487 39.6957 8.07591 40.3981 9.24474 40.645C9.17889 40.1621 9.14596 39.6682 9.14596 39.1689C9.14596 33.0339 14.1231 28.0567 20.2581 28.0567C26.3931 28.0567 31.3702 33.0339 31.3702 39.1689C31.3702 39.6353 31.3428 40.1017 31.2824 40.5517C31.4196 40.5517 31.5184 40.5517 31.5184 40.5517L83.0073 40.2554H83.2762C83.2378 39.8987 83.2213 39.5365 83.2213 39.1689C83.2213 33.0339 88.1985 28.0567 94.3335 28.0567C100.468 28.0567 105.446 33.0339 105.446 39.1689C105.446 39.4378 105.435 39.7066 105.418 39.97C108.08 39.1634 120.125 35.5142 120.13 35.5087C120.811 35.3002 121.425 34.8996 121.881 34.3509C122.336 33.8021 122.621 33.1436 122.704 32.4412C122.759 31.9913 122.693 31.5413 122.654 31.0968C122.61 30.5755 122.545 30.0597 122.523 29.5384C122.517 29.4231 122.534 29.253 122.435 29.1652C122.309 29.061 121.903 28.8634 121.913 28.6C121.93 28.0732 121.913 27.958 121.913 27.4312V18.7226L83.5012 19.2713C83.5012 19.2713 82.9524 33.5387 78.5625 40.1237" stroke="#056C34" stroke-miterlimit="10"/>
<path d="M72.3562 20.1218L40.913 21.6912C40.271 21.7241 39.6564 21.4169 39.2997 20.8791L38.5918 19.82C38.0705 19.0408 38.2242 17.9982 38.943 17.4L39.1954 17.1915C39.2778 17.1202 39.371 17.0598 39.4698 17.0049L43.7171 14.6124L48.6065 11.7589C49.7204 11.1114 50.977 10.7547 52.2611 10.7273L75.4347 10.2444C76.1645 10.2279 76.834 10.6504 77.1358 11.3144L78.6943 14.7496C79.0839 15.6056 78.7601 16.6153 77.948 17.0872L73.1739 19.8694C72.9214 20.0175 72.6361 20.0999 72.3453 20.1163L72.3562 20.1218Z" fill="#056C34"/>
<path opacity="0.22" d="M35.5573 38.7408L76.0768 37.6872C76.7352 37.6708 77.3005 37.2208 77.4706 36.5843L80.4832 25.0386C80.4832 25.0386 68.1035 24.5228 61.3484 29.9938C60.6624 30.5535 59.8887 30.9925 59.0711 31.3327C57.0243 32.1888 53.0513 33.4619 47.0096 33.8186C39.629 34.2521 36.3694 37.0946 35.3323 38.2579C35.1622 38.45 35.3048 38.7463 35.5628 38.7408H35.5573Z" fill="url(#paint0_linear_2747_119)"/>
<path opacity="0.22" d="M117.249 34.3672L107.372 37.1109H107.185C106.137 30.8772 100.721 26.136 94.2018 26.136C89.7295 26.136 85.773 28.3694 83.397 31.7826L85.4219 25.0385L116.7 24.4897L117.249 34.3672Z" fill="url(#paint1_linear_2747_119)"/>
<line x1="67" y1="22.5" x2="71" y2="22.5" stroke="#056C34"/>
<rect x="119.25" y="19.25" width="2.5" height="4.5" fill="#B0190C" stroke="#056C34" stroke-width="0.5"/>
</g>
<defs>
<linearGradient id="paint0_linear_2747_119" x1="57.8707" y1="25.0256" x2="57.8707" y2="38.7409" gradientUnits="userSpaceOnUse">
<stop stop-color="#046C34"/>
<stop offset="1" stop-opacity="0"/>
</linearGradient>
<linearGradient id="paint1_linear_2747_119" x1="100.323" y1="24.4897" x2="100.323" y2="37.1109" gradientUnits="userSpaceOnUse">
<stop stop-color="#046C34"/>
<stop offset="1" stop-opacity="0"/>
</linearGradient>
<clipPath id="clip0_2747_119">
<rect width="120" height="40.6896" fill="white" transform="translate(3 8)"/>
</clipPath>
</defs>
</svg>
