<svg width="125" height="55" viewBox="0 0 125 55" fill="none" xmlns="http://www.w3.org/2000/svg">
<g clip-path="url(#clip0_2747_89)">
<path d="M21.5 32.8333C24.6296 32.8333 27.1667 35.3704 27.1667 38.5C27.1667 41.6296 24.6296 44.1667 21.5 44.1667C18.3704 44.1667 15.8333 41.6296 15.8333 38.5C15.8333 35.3704 18.3704 32.8333 21.5 32.8333ZM21.5 30C16.8128 30 13 33.8128 13 38.5C13 43.1872 16.8128 47 21.5 47C26.1872 47 30 43.1872 30 38.5C30 33.8128 26.1872 30 21.5 30Z" fill="#056C34"/>
<path d="M21.5201 33.408C20.5091 33.408 19.5208 33.7078 18.6801 34.2695C17.8395 34.8312 17.1842 35.6296 16.7973 36.5636C16.4104 37.4977 16.3092 38.5256 16.5064 39.5172C16.7037 40.5088 17.1905 41.4197 17.9055 42.1346C18.6204 42.8495 19.5312 43.3364 20.5229 43.5336C21.5145 43.7309 22.5423 43.6296 23.4764 43.2427C24.4105 42.8558 25.2089 42.2006 25.7706 41.3599C26.3323 40.5193 26.6321 39.5309 26.6321 38.5199C26.6306 37.1646 26.0915 35.8652 25.1331 34.9069C24.1748 33.9486 22.8755 33.4095 21.5201 33.408ZM25.6366 36.1122C25.5054 36.2232 25.3662 36.3245 25.2202 36.4151C24.9208 35.8885 24.5125 35.4318 24.0226 35.0755C23.5327 34.7193 22.9724 34.4716 22.3791 34.3491C22.4204 34.1822 22.4737 34.0185 22.5386 33.8593C23.1823 34.0012 23.7898 34.2746 24.3229 34.6622C24.856 35.0499 25.3033 35.5435 25.6366 36.1122ZM22.3074 34.6822C22.8543 34.7946 23.3709 35.0227 23.8225 35.3511C24.274 35.6794 24.6502 36.1006 24.9257 36.5862C24.5464 36.7864 24.1499 36.9521 23.7409 37.0814C23.4823 37.1647 23.2572 37.2348 23.0607 37.2917C23.0305 37.2998 22.9986 37.2995 22.9685 37.2907C22.9385 37.282 22.9114 37.2651 22.8903 37.2419C22.7263 37.0652 22.5295 36.9221 22.311 36.8204C22.2823 36.8076 22.2578 36.787 22.2403 36.7609C22.2228 36.7349 22.2129 36.7045 22.2118 36.6731C22.2053 36.4695 22.2017 36.2344 22.2017 35.9639C22.1985 35.5344 22.2338 35.1054 22.3074 34.6822ZM22.1966 33.7975C21.953 34.493 21.8393 35.2273 21.8609 35.9639C21.8609 36.2383 21.8645 36.4767 21.8705 36.683C21.8733 36.7775 21.9025 36.8694 21.9547 36.9482C22.007 37.027 22.0802 37.0897 22.1661 37.1291C22.3449 37.2123 22.5058 37.3295 22.64 37.474C22.6877 37.5259 22.7457 37.5673 22.8102 37.5957C22.8747 37.6242 22.9444 37.6389 23.0149 37.6391C23.063 37.6391 23.1109 37.6322 23.157 37.6185C23.3558 37.5604 23.583 37.4904 23.8461 37.4057C24.5533 37.1991 25.2164 36.864 25.8023 36.4174C26.0024 36.8237 26.1432 37.2567 26.2202 37.703C25.4835 37.6861 24.7499 37.8051 24.0562 38.054C23.8154 38.1319 23.5861 38.2101 23.3746 38.2861C23.2857 38.3181 23.2075 38.3743 23.1489 38.4485C23.0903 38.5226 23.0536 38.6116 23.043 38.7055C23.0195 38.901 22.958 39.09 22.862 39.262C22.8152 39.3443 22.7923 39.438 22.7959 39.5326C22.7995 39.6272 22.8294 39.7189 22.8823 39.7974C23.0099 39.986 23.1498 40.1844 23.2977 40.3866C23.7123 40.995 24.2354 41.5219 24.8409 41.9408C24.5163 42.2561 24.1488 42.5239 23.7491 42.7362C23.5383 42.0306 23.1986 41.3702 22.747 40.7884C22.5937 40.5761 22.4475 40.3818 22.3145 40.2109C22.2565 40.1365 22.1789 40.0797 22.0904 40.0469C22.002 40.0141 21.9061 40.0067 21.8136 40.0254C21.6198 40.0627 21.4207 40.0627 21.2269 40.0254C21.1344 40.0066 21.0385 40.014 20.95 40.0468C20.8615 40.0796 20.7839 40.1364 20.7259 40.2109C20.5932 40.3813 20.4477 40.5761 20.2938 40.7884C19.842 41.3703 19.5021 42.0309 19.2913 42.7367C18.8918 42.5244 18.5242 42.2566 18.1996 41.9413C18.8049 41.5226 19.3278 40.9959 19.7422 40.3876C19.8906 40.1849 20.0305 39.9865 20.1582 39.7981C20.2111 39.7196 20.241 39.6279 20.2446 39.5333C20.2482 39.4387 20.2254 39.345 20.1786 39.2627C20.0826 39.0907 20.021 38.9017 19.9975 38.7061C19.9869 38.6122 19.9502 38.5232 19.8916 38.449C19.833 38.3749 19.7548 38.3186 19.6659 38.2866C19.4544 38.2106 19.2251 38.1324 18.9843 38.0545C18.2906 37.8057 17.557 37.6867 16.8202 37.7035C16.8973 37.2572 17.0381 36.8242 17.2382 36.4179C17.8242 36.8646 18.4874 37.1996 19.1947 37.4062C19.4568 37.4914 19.6846 37.5609 19.8835 37.619C19.9296 37.6327 19.9775 37.6397 20.0256 37.6396C20.0961 37.6394 20.1658 37.6247 20.2303 37.5963C20.2948 37.5678 20.3527 37.5264 20.4005 37.4745C20.5347 37.3299 20.6957 37.2128 20.8745 37.1295C20.9604 37.0901 21.0336 37.0275 21.0858 36.9487C21.138 36.8699 21.1672 36.7781 21.17 36.6837C21.1758 36.4767 21.1794 36.2383 21.1794 35.9639C21.201 35.2273 21.0873 34.493 20.8437 33.7975C21.2923 33.7325 21.748 33.7325 22.1966 33.7975ZM25.4393 38.5199C25.4399 39.4983 25.0724 40.4412 24.4098 41.1611C24.1023 40.862 23.8223 40.536 23.5729 40.1871C23.4271 39.9879 23.2897 39.7929 23.164 39.6077C23.1467 39.5814 23.137 39.5508 23.1362 39.5193C23.1353 39.4878 23.1433 39.4567 23.1592 39.4295C23.2768 39.2189 23.352 38.9874 23.3807 38.7479C23.384 38.7168 23.3959 38.6873 23.4151 38.6626C23.4343 38.638 23.4601 38.6192 23.4894 38.6085C23.6973 38.5337 23.9231 38.4567 24.1608 38.3797C24.5678 38.2438 24.9861 38.1447 25.4109 38.0837C25.4285 38.2284 25.438 38.3741 25.4393 38.5199ZM23.1389 42.087C22.6308 42.319 22.0787 42.4391 21.5201 42.4391C20.9616 42.4391 20.4095 42.319 19.9014 42.087C20.0906 41.7015 20.3142 41.3339 20.5693 40.9885C20.7212 40.7794 20.8643 40.588 20.9953 40.4198C21.015 40.3955 21.041 40.3771 21.0704 40.3666C21.0999 40.3561 21.1317 40.3539 21.1623 40.3602C21.3987 40.4056 21.6416 40.4056 21.878 40.3602C21.9087 40.3539 21.9405 40.3561 21.97 40.3667C21.9995 40.3773 22.0255 40.3958 22.0451 40.4202C22.1758 40.5884 22.319 40.7797 22.4711 40.989C22.7263 41.3341 22.9499 41.7016 23.1389 42.087ZM17.6289 38.0825C18.0537 38.1435 18.472 38.2426 18.879 38.3786C19.1165 38.4555 19.3423 38.532 19.5502 38.6073C19.5795 38.6181 19.6053 38.6368 19.6245 38.6615C19.6438 38.6862 19.6557 38.7158 19.6589 38.7469C19.6876 38.9863 19.7628 39.2179 19.8804 39.4285C19.8962 39.4557 19.9042 39.4868 19.9033 39.5183C19.9024 39.5498 19.8928 39.5804 19.8755 39.6067C19.7501 39.7919 19.6127 39.9869 19.4665 40.1861C19.2175 40.5354 18.9377 40.8617 18.6305 41.1611C18.2492 40.752 17.962 40.2644 17.789 39.7326C17.616 39.2008 17.5613 38.6376 17.6289 38.0825ZM20.8386 35.9639C20.8386 36.2344 20.835 36.4695 20.829 36.6733C20.8279 36.7046 20.818 36.7349 20.8005 36.7609C20.783 36.7869 20.7586 36.8074 20.73 36.8202C20.5114 36.922 20.3147 37.0652 20.1507 37.2419C20.1296 37.2651 20.1025 37.282 20.0725 37.2907C20.0424 37.2995 20.0105 37.2998 19.9803 37.2917C19.7838 37.2341 19.5587 37.1647 19.3004 37.0816C18.8913 36.9522 18.4947 36.7864 18.1153 36.5862C18.3907 36.1007 18.7668 35.6796 19.2182 35.3512C19.6697 35.0228 20.1861 34.7947 20.7329 34.6822C20.8065 35.1054 20.8418 35.5344 20.8386 35.9639ZM20.5017 33.8593C20.5666 34.0185 20.6199 34.1822 20.6612 34.3491C20.0679 34.4716 19.5076 34.7193 19.0177 35.0755C18.5278 35.4318 18.1195 35.8885 17.8201 36.4151C17.6741 36.3244 17.5349 36.2232 17.4037 36.1122C17.737 35.5435 18.1843 35.0499 18.7174 34.6622C19.2505 34.2746 19.858 34.0012 20.5017 33.8593ZM16.7725 38.0481C16.9448 38.0354 17.1179 38.0354 17.2902 38.0481C17.2713 38.2047 17.2613 38.3622 17.2602 38.5199C17.2583 39.5824 17.6557 40.6068 18.3736 41.3901C18.2428 41.5001 18.1042 41.6005 17.9588 41.6903C17.179 40.8185 16.7482 39.6896 16.749 38.5199C16.749 38.3606 16.7572 38.2033 16.7725 38.0481ZM19.6045 42.8882C19.646 42.7215 19.6992 42.5579 19.7639 42.3987C20.3153 42.6499 20.9142 42.7799 21.5201 42.7799C22.1261 42.7799 22.725 42.6499 23.2764 42.3987C23.3411 42.5579 23.3943 42.7215 23.4358 42.8882C22.8321 43.1539 22.1797 43.291 21.5201 43.291C20.8606 43.291 20.2082 43.1539 19.6045 42.8882ZM25.0815 41.6903C24.9361 41.6005 24.7975 41.5001 24.6667 41.3901C25.3846 40.6068 25.782 39.5824 25.7801 38.5199C25.779 38.3621 25.769 38.2044 25.7501 38.0477C25.9224 38.0351 26.0955 38.0351 26.2678 38.0477C26.2831 38.203 26.2913 38.3602 26.2913 38.5196C26.2922 39.6894 25.8614 40.8184 25.0815 41.6903Z" fill="#056C34"/>
<path d="M20.6689 38.5195C20.6689 38.688 20.7189 38.8527 20.8125 38.9928C20.9061 39.1329 21.0392 39.2421 21.1949 39.3066C21.3506 39.3711 21.5219 39.388 21.6872 39.3551C21.8524 39.3222 22.0042 39.2411 22.1234 39.1219C22.2425 39.0028 22.3237 38.851 22.3566 38.6857C22.3894 38.5204 22.3726 38.3491 22.3081 38.1934C22.2436 38.0377 22.1344 37.9047 21.9943 37.8111C21.8542 37.7174 21.6894 37.6675 21.5209 37.6675C21.2951 37.6678 21.0785 37.7576 20.9188 37.9173C20.7591 38.077 20.6692 38.2936 20.6689 38.5195ZM22.0321 38.5195C22.0321 38.6206 22.0021 38.7194 21.946 38.8035C21.8898 38.8875 21.81 38.9531 21.7166 38.9918C21.6232 39.0304 21.5204 39.0406 21.4212 39.0208C21.322 39.0011 21.231 38.9524 21.1595 38.8809C21.088 38.8094 21.0393 38.7184 21.0196 38.6192C20.9998 38.52 21.01 38.4173 21.0487 38.3238C21.0873 38.2304 21.1529 38.1506 21.2369 38.0944C21.321 38.0383 21.4198 38.0083 21.5209 38.0083C21.6565 38.0083 21.7865 38.0621 21.8824 38.158C21.9783 38.2539 22.0321 38.3839 22.0321 38.5195Z" fill="#056C34"/>
<path d="M21.52 37.3276C21.5652 37.3276 21.6085 37.3096 21.6405 37.2777C21.6725 37.2457 21.6904 37.2024 21.6904 37.1572V36.9868C21.6904 36.9416 21.6725 36.8983 21.6405 36.8663C21.6085 36.8344 21.5652 36.8164 21.52 36.8164C21.4748 36.8164 21.4315 36.8344 21.3995 36.8663C21.3676 36.8983 21.3496 36.9416 21.3496 36.9868V37.1572C21.3496 37.2024 21.3676 37.2457 21.3995 37.2777C21.4315 37.3096 21.4748 37.3276 21.52 37.3276Z" fill="#056C34"/>
<path d="M20.2761 37.9368L20.1141 37.8841C20.0925 37.8759 20.0695 37.8722 20.0465 37.8732C20.0234 37.8742 20.0008 37.8798 19.98 37.8898C19.9592 37.8998 19.9406 37.9139 19.9255 37.9312C19.9103 37.9486 19.8988 37.9689 19.8916 37.9908C19.8845 38.0128 19.8819 38.0359 19.884 38.0589C19.8861 38.0819 19.8928 38.1042 19.9038 38.1245C19.9148 38.1448 19.9297 38.1626 19.9478 38.177C19.9659 38.1913 19.9867 38.2018 20.009 38.2079L20.171 38.2605C20.1926 38.2687 20.2156 38.2724 20.2386 38.2714C20.2617 38.2704 20.2843 38.2648 20.3051 38.2548C20.3259 38.2448 20.3444 38.2307 20.3596 38.2134C20.3748 38.196 20.3863 38.1757 20.3935 38.1538C20.4006 38.1319 20.4032 38.1087 20.4011 38.0857C20.399 38.0628 20.3923 38.0404 20.3813 38.0202C20.3703 37.9999 20.3553 37.982 20.3373 37.9677C20.3192 37.9533 20.2984 37.9428 20.2761 37.9368Z" fill="#056C34"/>
<path d="M20.5815 39.5227L20.4813 39.6605C20.4547 39.6971 20.4437 39.7428 20.4508 39.7875C20.4579 39.8322 20.4825 39.8722 20.5191 39.8988C20.5557 39.9253 20.6014 39.9363 20.646 39.9292C20.6907 39.9221 20.7307 39.8975 20.7573 39.8609L20.8573 39.7231C20.8705 39.705 20.88 39.6844 20.8852 39.6627C20.8904 39.6409 20.8913 39.6183 20.8878 39.5962C20.8843 39.5741 20.8764 39.5529 20.8647 39.5338C20.853 39.5147 20.8377 39.4981 20.8196 39.4849C20.8015 39.4718 20.7809 39.4623 20.7592 39.4571C20.7374 39.4519 20.7148 39.451 20.6927 39.4545C20.6706 39.458 20.6494 39.4658 20.6303 39.4775C20.6112 39.4892 20.5946 39.5046 20.5815 39.5227Z" fill="#056C34"/>
<path d="M22.2218 39.4849C22.2037 39.498 22.1883 39.5146 22.1765 39.5338C22.1648 39.5529 22.157 39.5742 22.1535 39.5963C22.15 39.6185 22.1509 39.6411 22.1561 39.6629C22.1614 39.6848 22.1709 39.7053 22.1842 39.7234L22.2842 39.8613C22.2974 39.8794 22.314 39.8948 22.3331 39.9065C22.3521 39.9182 22.3734 39.926 22.3955 39.9295C22.4176 39.933 22.4402 39.9322 22.462 39.9269C22.4838 39.9217 22.5043 39.9123 22.5224 39.8991C22.5405 39.886 22.5559 39.8694 22.5676 39.8503C22.5793 39.8312 22.5872 39.81 22.5907 39.7878C22.5942 39.7657 22.5933 39.7431 22.5881 39.7213C22.5829 39.6996 22.5734 39.679 22.5603 39.6609L22.4601 39.523C22.4469 39.5049 22.4304 39.4895 22.4113 39.4777C22.3922 39.466 22.371 39.4581 22.3489 39.4545C22.3267 39.451 22.3041 39.4518 22.2823 39.4571C22.2605 39.4623 22.24 39.4717 22.2218 39.4849Z" fill="#056C34"/>
<path d="M22.8157 38.2691C22.8336 38.2691 22.8513 38.2663 22.8684 38.2608L23.0304 38.2081C23.0527 38.202 23.0735 38.1915 23.0915 38.1772C23.1096 38.1629 23.1246 38.145 23.1356 38.1247C23.1465 38.1044 23.1533 38.0821 23.1554 38.0591C23.1574 38.0362 23.1548 38.013 23.1477 37.9911C23.1406 37.9691 23.1291 37.9489 23.1139 37.9315C23.0987 37.9141 23.0802 37.9 23.0594 37.8901C23.0386 37.8801 23.0159 37.8744 22.9929 37.8734C22.9698 37.8725 22.9468 37.8762 22.9253 37.8844L22.7632 37.937C22.7247 37.9495 22.6918 37.9754 22.6706 38.01C22.6494 38.0446 22.6413 38.0856 22.6476 38.1256C22.6539 38.1657 22.6743 38.2022 22.7051 38.2285C22.7359 38.2549 22.7752 38.2694 22.8157 38.2695V38.2691Z" fill="#056C34"/>
<path d="M94.69 32.8967C97.8895 32.8967 100.483 35.4905 100.483 38.69C100.483 41.8895 97.8895 44.4833 94.69 44.4833C91.4905 44.4833 88.8967 41.8895 88.8967 38.69C88.8967 35.4905 91.4905 32.8967 94.69 32.8967ZM94.69 30C89.898 30 86 33.898 86 38.69C86 43.482 89.898 47.38 94.69 47.38C99.482 47.38 103.38 43.482 103.38 38.69C103.38 33.898 99.482 30 94.69 30Z" fill="#056C34"/>
<path d="M94.7106 33.4841C93.6769 33.4841 92.6665 33.7906 91.8071 34.3649C90.9476 34.9392 90.2778 35.7554 89.8822 36.7104C89.4866 37.6653 89.3831 38.7161 89.5848 39.7299C89.7865 40.7437 90.2842 41.6749 91.0151 42.4058C91.746 43.1367 92.6772 43.6345 93.691 43.8361C94.7048 44.0378 95.7556 43.9343 96.7106 43.5387C97.6655 43.1432 98.4818 42.4733 99.056 41.6139C99.6303 40.7544 99.9368 39.744 99.9368 38.7103C99.9352 37.3247 99.3841 35.9963 98.4043 35.0166C97.4246 34.0368 96.0962 33.4857 94.7106 33.4841ZM98.9191 36.2488C98.7849 36.3623 98.6426 36.4658 98.4933 36.5585C98.1872 36.0201 97.7698 35.5532 97.269 35.189C96.7681 34.8247 96.1953 34.5715 95.5888 34.4463C95.631 34.2757 95.6855 34.1083 95.7518 33.9456C96.4099 34.0907 97.031 34.3701 97.576 34.7664C98.121 35.1628 98.5783 35.6674 98.9191 36.2488ZM95.5154 34.7869C96.0746 34.9018 96.6027 35.1349 97.0644 35.4707C97.526 35.8064 97.9106 36.2369 98.1923 36.7334C97.8045 36.9381 97.3991 37.1075 96.981 37.2397C96.7166 37.3249 96.4865 37.3965 96.2856 37.4547C96.2547 37.463 96.2221 37.4627 96.1913 37.4537C96.1606 37.4447 96.1329 37.4275 96.1114 37.4038C95.9437 37.2231 95.7426 37.0768 95.5191 36.9728C95.4898 36.9597 95.4648 36.9387 95.4468 36.9121C95.4289 36.8855 95.4188 36.8543 95.4177 36.8223C95.4111 36.6141 95.4074 36.3737 95.4074 36.0972C95.4041 35.6581 95.4402 35.2195 95.5154 34.7869ZM95.4022 33.8824C95.1532 34.5934 95.0368 35.3442 95.059 36.0972C95.059 36.3777 95.0627 36.6214 95.0688 36.8324C95.0716 36.929 95.1015 37.0229 95.1549 37.1035C95.2083 37.1841 95.2831 37.2482 95.371 37.2885C95.5538 37.3735 95.7183 37.4933 95.8555 37.6411C95.9043 37.6941 95.9635 37.7365 96.0295 37.7655C96.0954 37.7946 96.1667 37.8097 96.2387 37.8099C96.2879 37.8099 96.3369 37.8028 96.384 37.7888C96.5873 37.7294 96.8195 37.6578 97.0885 37.5712C97.8115 37.36 98.4894 37.0175 99.0884 36.5608C99.293 36.9762 99.437 37.4189 99.5157 37.8752C98.7625 37.8579 98.0125 37.9796 97.3033 38.2341C97.0572 38.3137 96.8227 38.3936 96.6065 38.4713C96.5156 38.504 96.4357 38.5615 96.3758 38.6373C96.3159 38.7131 96.2783 38.8041 96.2675 38.9001C96.2434 39.0999 96.1806 39.2932 96.0825 39.469C96.0346 39.5531 96.0112 39.6489 96.0148 39.7456C96.0185 39.8424 96.0491 39.9361 96.1032 40.0164C96.2337 40.2092 96.3767 40.412 96.5279 40.6188C96.9517 41.2408 97.4865 41.7795 98.1055 42.2077C97.7737 42.5301 97.3979 42.8039 96.9894 43.0209C96.7739 42.2995 96.4265 41.6243 95.9649 41.0296C95.8081 40.8125 95.6586 40.6139 95.5227 40.4392C95.4634 40.3631 95.3841 40.305 95.2936 40.2715C95.2032 40.238 95.1051 40.2303 95.0106 40.2495C94.8125 40.2876 94.6089 40.2876 94.4108 40.2495C94.3162 40.2303 94.2182 40.2379 94.1277 40.2714C94.0372 40.3049 93.9579 40.363 93.8986 40.4392C93.7629 40.6134 93.6141 40.8125 93.4568 41.0296C92.9949 41.6244 92.6474 42.2998 92.432 43.0214C92.0234 42.8043 91.6477 42.5306 91.3158 42.2082C91.9346 41.7801 92.4693 41.2417 92.8929 40.6198C93.0446 40.4125 93.1877 40.2097 93.3182 40.0171C93.3722 39.9368 93.4029 39.8431 93.4065 39.7464C93.4102 39.6497 93.3869 39.5538 93.3391 39.4697C93.2409 39.2939 93.178 39.1006 93.1539 38.9007C93.143 38.8047 93.1055 38.7137 93.0456 38.6379C92.9857 38.5621 92.9058 38.5046 92.8149 38.4719C92.5987 38.3942 92.3642 38.3142 92.118 38.2346C91.4088 37.9802 90.6589 37.8585 89.9056 37.8757C89.9844 37.4194 90.1283 36.9767 90.3329 36.5613C90.932 37.018 91.6101 37.3606 92.3332 37.5717C92.6011 37.6588 92.834 37.7299 93.0373 37.7893C93.0845 37.8033 93.1334 37.8104 93.1826 37.8104C93.2547 37.8102 93.3259 37.7951 93.3919 37.7661C93.4578 37.737 93.5171 37.6946 93.5659 37.6416C93.7031 37.4938 93.8677 37.374 94.0505 37.2888C94.1383 37.2485 94.2131 37.1845 94.2665 37.104C94.3199 37.0235 94.3497 36.9296 94.3526 36.8331C94.3585 36.6214 94.3622 36.3777 94.3622 36.0972C94.3843 35.3442 94.268 34.5934 94.019 33.8824C94.4777 33.8159 94.9435 33.8159 95.4022 33.8824ZM98.7174 38.7103C98.7179 39.7106 98.3422 40.6745 97.6648 41.4106C97.3505 41.1048 97.0642 40.7715 96.8093 40.4148C96.6601 40.2111 96.5197 40.0118 96.3912 39.8225C96.3734 39.7956 96.3636 39.7643 96.3627 39.7321C96.3619 39.6999 96.37 39.6681 96.3863 39.6403C96.5065 39.425 96.5834 39.1882 96.6128 38.9434C96.6161 38.9117 96.6283 38.8815 96.6479 38.8563C96.6676 38.8311 96.6939 38.8119 96.7239 38.8009C96.9364 38.7245 97.1673 38.6457 97.4103 38.567C97.8264 38.428 98.2541 38.3268 98.6883 38.2644C98.7063 38.4124 98.716 38.5613 98.7174 38.7103ZM96.3656 42.3572C95.8461 42.5944 95.2817 42.7171 94.7106 42.7171C94.1395 42.7171 93.5751 42.5944 93.0556 42.3572C93.2491 41.9631 93.4776 41.5872 93.7385 41.2341C93.8937 41.0203 94.0401 40.8247 94.174 40.6528C94.1942 40.6279 94.2207 40.6091 94.2508 40.5983C94.2809 40.5876 94.3134 40.5853 94.3448 40.5918C94.5864 40.6382 94.8347 40.6382 95.0764 40.5918C95.1078 40.5853 95.1403 40.5876 95.1705 40.5984C95.2006 40.6092 95.2272 40.6282 95.2473 40.6531C95.3809 40.825 95.5273 41.0207 95.6828 41.2346C95.9437 41.5875 96.1722 41.9632 96.3656 42.3572ZM90.7324 38.2632C91.1666 38.3255 91.5943 38.4269 92.0104 38.5659C92.2532 38.6445 92.484 38.7227 92.6966 38.7997C92.7266 38.8107 92.7529 38.8299 92.7726 38.8551C92.7922 38.8803 92.8044 38.9106 92.8077 38.9424C92.8371 39.1872 92.914 39.4239 93.0342 39.6392C93.0504 39.6671 93.0585 39.6989 93.0576 39.731C93.0567 39.7632 93.0468 39.7945 93.0291 39.8214C92.9009 40.0108 92.7605 40.2101 92.611 40.4137C92.3565 40.7709 92.0705 41.1045 91.7564 41.4106C91.3666 40.9923 91.0729 40.4939 90.896 39.9502C90.7191 39.4065 90.6633 38.8307 90.7324 38.2632ZM94.0138 36.0972C94.0138 36.3737 94.0101 36.6141 94.004 36.8225C94.0029 36.8545 93.9928 36.8855 93.9749 36.912C93.957 36.9386 93.932 36.9596 93.9028 36.9726C93.6793 37.0767 93.4782 37.2231 93.3105 37.4038C93.2889 37.4275 93.2613 37.4447 93.2305 37.4537C93.1998 37.4627 93.1672 37.463 93.1363 37.4547C92.9354 37.3958 92.7053 37.3249 92.4412 37.2399C92.023 37.1076 91.6175 36.9381 91.2296 36.7334C91.5112 36.237 91.8956 35.8065 92.3572 35.4708C92.8187 35.1351 93.3467 34.9019 93.9058 34.7869C93.981 35.2195 94.0171 35.6581 94.0138 36.0972ZM93.6694 33.9456C93.7357 34.1083 93.7902 34.2757 93.8324 34.4463C93.2259 34.5715 92.6531 34.8247 92.1522 35.189C91.6513 35.5532 91.2339 36.0201 90.9279 36.5585C90.7786 36.4658 90.6363 36.3623 90.5021 36.2488C90.8429 35.6674 91.3002 35.1628 91.8452 34.7664C92.3902 34.3701 93.0113 34.0907 93.6694 33.9456ZM89.8568 38.228C90.033 38.215 90.2099 38.215 90.3861 38.228C90.3667 38.388 90.3565 38.5491 90.3554 38.7103C90.3535 39.7966 90.7598 40.8439 91.4937 41.6447C91.36 41.7572 91.2183 41.8598 91.0697 41.9516C90.2724 41.0603 89.832 39.9062 89.8328 38.7103C89.8328 38.5475 89.8412 38.3867 89.8568 38.228ZM92.7522 43.1763C92.7945 43.0058 92.849 42.8386 92.915 42.6758C93.4788 42.9326 94.0911 43.0655 94.7106 43.0655C95.3301 43.0655 95.9424 42.9326 96.5061 42.6758C96.5722 42.8386 96.6266 43.0058 96.669 43.1763C96.0518 43.4479 95.3849 43.5881 94.7106 43.5881C94.0363 43.5881 93.3693 43.4479 92.7522 43.1763ZM98.3515 41.9516C98.2029 41.8598 98.0612 41.7572 97.9275 41.6447C98.6614 40.8439 99.0677 39.7966 99.0658 38.7103C99.0647 38.549 99.0544 38.3878 99.0351 38.2276C99.2113 38.2147 99.3882 38.2147 99.5643 38.2276C99.58 38.3863 99.5884 38.5471 99.5884 38.71C99.5893 39.906 99.1489 41.0602 98.3515 41.9516Z" fill="#056C34"/>
<path d="M93.8403 38.7099C93.8403 38.8822 93.8914 39.0506 93.9871 39.1938C94.0828 39.3371 94.2189 39.4487 94.378 39.5146C94.5372 39.5806 94.7123 39.5978 94.8813 39.5642C95.0503 39.5306 95.2055 39.4476 95.3273 39.3258C95.4491 39.204 95.5321 39.0488 95.5657 38.8798C95.5993 38.7109 95.582 38.5357 95.5161 38.3766C95.4502 38.2174 95.3385 38.0814 95.1953 37.9857C95.052 37.89 94.8836 37.8389 94.7114 37.8389C94.4804 37.8391 94.259 37.931 94.0958 38.0943C93.9325 38.2576 93.8406 38.479 93.8403 38.7099ZM95.234 38.7099C95.234 38.8133 95.2033 38.9143 95.1459 39.0003C95.0885 39.0862 95.0069 39.1532 94.9114 39.1927C94.8159 39.2323 94.7108 39.2426 94.6094 39.2225C94.508 39.2023 94.4149 39.1525 94.3418 39.0795C94.2687 39.0064 94.219 38.9132 94.1988 38.8119C94.1786 38.7105 94.189 38.6054 94.2285 38.5099C94.2681 38.4144 94.3351 38.3328 94.421 38.2754C94.507 38.2179 94.608 38.1873 94.7114 38.1873C94.85 38.1873 94.9829 38.2423 95.0809 38.3404C95.1789 38.4384 95.234 38.5713 95.234 38.7099Z" fill="#056C34"/>
<path d="M94.7103 37.4914C94.7565 37.4914 94.8009 37.473 94.8335 37.4403C94.8662 37.4077 94.8845 37.3634 94.8845 37.3172V37.143C94.8845 37.0968 94.8662 37.0524 94.8335 37.0198C94.8009 36.9871 94.7565 36.9688 94.7103 36.9688C94.6641 36.9688 94.6198 36.9871 94.5872 37.0198C94.5545 37.0524 94.5361 37.0968 94.5361 37.143V37.3172C94.5361 37.3634 94.5545 37.4077 94.5872 37.4403C94.6198 37.473 94.6641 37.4914 94.7103 37.4914Z" fill="#056C34"/>
<path d="M93.4387 38.1142L93.2731 38.0604C93.251 38.052 93.2275 38.0482 93.2039 38.0492C93.1804 38.0502 93.1572 38.056 93.136 38.0662C93.1147 38.0764 93.0957 38.0908 93.0802 38.1086C93.0647 38.1263 93.0529 38.147 93.0456 38.1695C93.0383 38.1919 93.0357 38.2156 93.0378 38.2391C93.04 38.2626 93.0468 38.2854 93.0581 38.3061C93.0693 38.3269 93.0846 38.3451 93.1031 38.3598C93.1215 38.3744 93.1428 38.3852 93.1656 38.3914L93.3312 38.4452C93.3533 38.4536 93.3768 38.4574 93.4004 38.4564C93.4239 38.4553 93.4471 38.4496 93.4683 38.4394C93.4896 38.4292 93.5086 38.4148 93.5241 38.397C93.5396 38.3793 93.5514 38.3585 93.5587 38.3361C93.5659 38.3137 93.5686 38.29 93.5665 38.2665C93.5643 38.243 93.5574 38.2202 93.5462 38.1995C93.535 38.1787 93.5197 38.1605 93.5012 38.1458C93.4827 38.1312 93.4615 38.1204 93.4387 38.1142Z" fill="#056C34"/>
<path d="M93.7509 39.7354L93.6485 39.8764C93.6213 39.9138 93.6101 39.9605 93.6174 40.0062C93.6246 40.0518 93.6497 40.0927 93.6872 40.1199C93.7246 40.1471 93.7713 40.1583 93.8169 40.151C93.8626 40.1438 93.9035 40.1187 93.9307 40.0812L94.033 39.9403C94.0464 39.9218 94.0561 39.9008 94.0614 39.8785C94.0668 39.8563 94.0677 39.8332 94.0641 39.8106C94.0605 39.788 94.0525 39.7663 94.0406 39.7468C94.0286 39.7273 94.0129 39.7103 93.9944 39.6969C93.9759 39.6834 93.9549 39.6737 93.9326 39.6684C93.9104 39.663 93.8873 39.6621 93.8647 39.6657C93.8421 39.6693 93.8204 39.6773 93.8009 39.6893C93.7813 39.7012 93.7644 39.7169 93.7509 39.7354Z" fill="#056C34"/>
<path d="M95.428 39.6968C95.4094 39.7102 95.3937 39.7272 95.3817 39.7468C95.3697 39.7663 95.3617 39.7881 95.3581 39.8107C95.3545 39.8334 95.3554 39.8565 95.3608 39.8788C95.3662 39.9011 95.376 39.9221 95.3895 39.9407L95.4918 40.0816C95.5052 40.1001 95.5222 40.1158 95.5417 40.1278C95.5612 40.1398 95.5829 40.1478 95.6055 40.1514C95.6281 40.155 95.6512 40.1541 95.6735 40.1487C95.6958 40.1434 95.7168 40.1337 95.7353 40.1203C95.7538 40.1068 95.7695 40.0899 95.7815 40.0703C95.7935 40.0508 95.8015 40.0291 95.8051 40.0065C95.8087 39.9839 95.8078 39.9608 95.8024 39.9385C95.7971 39.9163 95.7874 39.8953 95.774 39.8767L95.6715 39.7358C95.6581 39.7172 95.6412 39.7015 95.6217 39.6895C95.6022 39.6774 95.5805 39.6694 95.5579 39.6658C95.5353 39.6621 95.5121 39.663 95.4899 39.6683C95.4676 39.6737 95.4466 39.6833 95.428 39.6968Z" fill="#056C34"/>
<path d="M96.0353 38.454C96.0536 38.454 96.0718 38.4511 96.0892 38.4454L96.2548 38.3916C96.2776 38.3854 96.2988 38.3747 96.3173 38.36C96.3358 38.3454 96.3511 38.3271 96.3623 38.3064C96.3735 38.2856 96.3804 38.2628 96.3826 38.2393C96.3847 38.2158 96.3821 38.1921 96.3748 38.1697C96.3675 38.1473 96.3557 38.1266 96.3402 38.1088C96.3247 38.0911 96.3057 38.0767 96.2844 38.0665C96.2632 38.0563 96.24 38.0505 96.2165 38.0495C96.1929 38.0485 96.1694 38.0523 96.1473 38.0606L95.9817 38.1145C95.9422 38.1273 95.9087 38.1537 95.887 38.1891C95.8653 38.2244 95.857 38.2663 95.8635 38.3073C95.8699 38.3482 95.8908 38.3855 95.9223 38.4125C95.9538 38.4394 95.9939 38.4543 96.0353 38.4543V38.454Z" fill="#056C34"/>
<path d="M11.4562 38.5574C8.56026 39.1366 3.34766 36.8199 3.34766 36.8199V32.7656L4.50601 31.6073C4.50601 26.9739 6.24355 24.6571 6.24355 24.6571C6.26092 24.6514 6.2783 24.6398 6.28988 24.634C13.3153 21.1705 39.8359 18.2862 39.8359 18.2862C51.4195 8.44015 71.6907 8.44015 71.6907 8.44015C80.361 7.93047 87.9888 9.55217 93.8095 11.533C101.206 14.0466 105.688 17.1278 105.688 17.1278H116.287C119.763 18.8654 119.554 26.6032 119.554 26.6032L122.658 29.7076V35.6615L118.604 37.3991L105.364 38.013C105.335 38.013 105.005 38.013 104.82 38.0014C104.466 32.7309 100.076 28.5666 94.7131 28.5666C88.7823 28.5666 84.0388 33.6634 84.6296 39.7158C85.591 39.7158 33.8182 39.7158 31.2467 39.7158C31.8374 33.6634 27.094 28.5666 21.1632 28.5666C15.5683 28.5666 11.0276 33.1074 11.0276 38.7022" stroke="#056C34" stroke-miterlimit="10"/>
<path d="M42.8821 20.7708L98.1879 19.514C98.7497 19.5024 99.1957 19.0449 99.1957 18.4831C99.1957 18.1298 99.0219 17.8112 98.7265 17.6201C96.7342 16.3343 94.6491 15.1933 92.5177 14.174C85.1853 10.6642 76.9726 9.65639 68.922 10.1661C65.6497 10.3688 62.3773 10.6526 59.1629 11.336C59.0412 11.3592 58.9254 11.3881 58.8038 11.4113C58.2478 11.5329 57.6917 11.6719 57.1357 11.8225C53.5622 12.8129 49.9192 14.1103 46.6063 15.7841C44.9672 16.6123 42.7316 17.7417 42.0018 19.5661C41.8686 19.8905 41.9728 20.2669 42.2161 20.516C42.3898 20.6897 42.6331 20.7882 42.8764 20.7824L42.8821 20.7708Z" fill="#056C34"/>
<path d="M61.5552 23.6301H66.5552" stroke="#056C34" stroke-width="1.3" stroke-miterlimit="10"/>
<path d="M87.0386 23.6301H92.0386" stroke="#056C34" stroke-width="1.3" stroke-miterlimit="10"/>
<path opacity="0.15" d="M32.5962 38.2679H83.1759C83.1759 38.2679 83.5639 27.8426 94.5683 27.2635C104.994 27.2635 106.152 37.1095 106.152 37.1095L118.315 36.5303C118.315 36.5303 118.894 31.1208 118.894 30.6401C118.894 30.1594 117.156 27.2635 117.156 27.2635L112.523 21.4717L97.4642 22.63C97.4642 22.63 88.1974 27.2635 77.7722 28.4218C71.4012 29.5802 41.2839 30.1594 38.388 33.6344C32.017 37.6887 32.5962 37.1095 32.5962 38.2679Z" fill="url(#paint0_linear_2747_89)"/>
<path d="M118.871 24.2144L119.408 24.5363L119.241 23.9333L117.977 19.3712C117.888 19.0469 117.726 18.7468 117.505 18.4932L117.027 17.9451C116.377 17.1998 115.163 17.8195 115.386 18.783L116.256 22.5562L116.28 22.6597L116.371 22.7144L118.871 24.2144Z" fill="#B0190C" stroke="#056C34" stroke-width="0.5"/>
</g>
<defs>
<linearGradient id="paint0_linear_2747_89" x1="75.7382" y1="21.4717" x2="75.7382" y2="38.2679" gradientUnits="userSpaceOnUse">
<stop stop-color="#532380"/>
<stop offset="1" stop-opacity="0"/>
</linearGradient>
<clipPath id="clip0_2747_89">
<rect width="120" height="39.3899" fill="white" transform="translate(3 8)"/>
</clipPath>
</defs>
</svg>
