<svg width="125" height="55" viewBox="0 0 125 55" fill="none" xmlns="http://www.w3.org/2000/svg">
<g clip-path="url(#clip0_2747_58)">
<path d="M25.715 32.5717C29.6601 32.5717 32.8583 35.7699 32.8583 39.715C32.8583 43.6601 29.6601 46.8583 25.715 46.8583C21.7699 46.8583 18.5717 43.6601 18.5717 39.715C18.5717 35.7699 21.7699 32.5717 25.715 32.5717ZM25.715 29C19.8064 29 15 33.8064 15 39.715C15 45.6236 19.8064 50.43 25.715 50.43C31.6236 50.43 36.43 45.6236 36.43 39.715C36.43 33.8064 31.6236 29 25.715 29Z" fill="#056C34"/>
<path d="M25.74 33.2961C24.4654 33.2961 23.2196 33.6741 22.1598 34.3822C21.1001 35.0902 20.2742 36.0967 19.7864 37.2742C19.2987 38.4517 19.1711 39.7473 19.4197 40.9974C19.6684 42.2474 20.2821 43.3956 21.1833 44.2968C22.0845 45.1981 23.2328 45.8118 24.4828 46.0604C25.7328 46.3091 27.0285 46.1815 28.206 45.6937C29.3835 45.206 30.3899 44.38 31.098 43.3203C31.8061 42.2606 32.184 41.0147 32.184 39.7402C32.1821 38.0317 31.5025 36.3938 30.2945 35.1857C29.0864 33.9776 27.4484 33.2981 25.74 33.2961ZM30.9291 36.705C30.7637 36.845 30.5883 36.9727 30.4042 37.087C30.0268 36.4231 29.5121 35.8474 28.8945 35.3983C28.2769 34.9492 27.5706 34.6369 26.8228 34.4825C26.8748 34.2721 26.942 34.0658 27.0238 33.8652C27.8353 34.044 28.601 34.3886 29.2731 34.8773C29.9451 35.366 30.5089 35.9882 30.9291 36.705ZM26.7323 34.9024C27.4218 35.0441 28.073 35.3316 28.6422 35.7456C29.2115 36.1595 29.6857 36.6904 30.033 37.3026C29.5548 37.5549 29.055 37.7638 28.5395 37.9268C28.2134 38.0319 27.9296 38.1202 27.682 38.1919C27.6439 38.2022 27.6037 38.2018 27.5658 38.1907C27.5279 38.1797 27.4938 38.1584 27.4672 38.1292C27.2604 37.9064 27.0124 37.726 26.7369 37.5978C26.7007 37.5816 26.6699 37.5557 26.6478 37.5229C26.6257 37.4901 26.6132 37.4517 26.6118 37.4122C26.6037 37.1555 26.5992 36.8591 26.5992 36.5182C26.595 35.9767 26.6396 35.4359 26.7323 34.9024ZM26.5927 33.7872C26.2857 34.6639 26.1422 35.5896 26.1696 36.5182C26.1696 36.864 26.1741 37.1645 26.1816 37.4246C26.1851 37.5438 26.2219 37.6596 26.2878 37.7589C26.3536 37.8583 26.4459 37.9373 26.5543 37.987C26.7796 38.0919 26.9825 38.2395 27.1516 38.4217C27.2118 38.4871 27.2848 38.5394 27.3662 38.5752C27.4475 38.611 27.5353 38.6297 27.6242 38.6299C27.6849 38.6299 27.7452 38.6212 27.8033 38.6039C28.054 38.5306 28.3404 38.4424 28.672 38.3356C29.5635 38.0752 30.3994 37.6528 31.1379 37.0898C31.3903 37.602 31.5677 38.1478 31.6648 38.7104C30.7361 38.6891 29.8113 38.8391 28.9369 39.1529C28.6333 39.2511 28.3442 39.3497 28.0776 39.4455C27.9656 39.4858 27.867 39.5567 27.7932 39.6501C27.7193 39.7435 27.673 39.8558 27.6596 39.9741C27.63 40.2206 27.5525 40.4589 27.4315 40.6757C27.3725 40.7794 27.3436 40.8975 27.3481 41.0168C27.3526 41.136 27.3904 41.2516 27.4571 41.3506C27.618 41.5884 27.7943 41.8384 27.9808 42.0934C28.5034 42.8603 29.1628 43.5245 29.926 44.0526C29.5169 44.4501 29.0535 44.7876 28.5498 45.0553C28.2841 44.1657 27.8558 43.3332 27.2865 42.5999C27.0932 42.3322 26.9089 42.0873 26.7414 41.8719C26.6682 41.7781 26.5704 41.7065 26.4589 41.6651C26.3473 41.6238 26.2264 41.6144 26.1098 41.638C25.8656 41.685 25.6146 41.685 25.3703 41.638C25.2537 41.6143 25.1328 41.6237 25.0212 41.665C24.9097 41.7064 24.8118 41.778 24.7388 41.8719C24.5714 42.0867 24.388 42.3322 24.194 42.5999C23.6245 43.3333 23.1961 44.1661 22.9303 45.0559C22.4266 44.7882 21.9633 44.4506 21.5541 44.0532C22.3171 43.5253 22.9763 42.8614 23.4987 42.0946C23.6858 41.839 23.8622 41.589 24.023 41.3514C24.0897 41.2525 24.1275 41.1369 24.132 41.0176C24.1366 40.8984 24.1078 40.7803 24.0488 40.6765C23.9278 40.4598 23.8502 40.2215 23.8205 39.975C23.8071 39.8566 23.7609 39.7443 23.687 39.6509C23.6131 39.5574 23.5146 39.4865 23.4025 39.4461C23.1359 39.3503 22.8468 39.2517 22.5433 39.1536C21.6688 38.8399 20.7441 38.6899 19.8153 38.7111C19.9124 38.1484 20.0899 37.6026 20.3422 37.0904C21.0809 37.6535 21.9169 38.0759 22.8086 38.3363C23.1389 38.4437 23.4261 38.5313 23.6768 38.6045C23.7349 38.6218 23.7953 38.6306 23.8559 38.6305C23.9448 38.6303 24.0326 38.6117 24.114 38.5759C24.1953 38.54 24.2683 38.4878 24.3285 38.4224C24.4977 38.2401 24.7006 38.0924 24.9261 37.9874C25.0343 37.9378 25.1266 37.8588 25.1924 37.7595C25.2582 37.6603 25.295 37.5446 25.2985 37.4255C25.3058 37.1645 25.3104 36.864 25.3104 36.5182C25.3377 35.5896 25.1943 34.6639 24.8872 33.7872C25.4528 33.7053 26.0272 33.7053 26.5927 33.7872ZM30.6804 39.7402C30.6811 40.9736 30.2178 42.1621 29.3826 43.0696C28.995 42.6926 28.642 42.2817 28.3277 41.8418C28.1438 41.5907 27.9707 41.345 27.8122 41.1115C27.7903 41.0783 27.7782 41.0397 27.7771 41C27.776 40.9603 27.7861 40.9211 27.8061 40.8868C27.9543 40.6213 28.0492 40.3295 28.0854 40.0276C28.0895 39.9884 28.1045 39.9512 28.1287 39.9201C28.153 39.8891 28.1854 39.8654 28.2224 39.8519C28.4845 39.7576 28.7691 39.6605 29.0687 39.5634C29.5818 39.3921 30.1092 39.2672 30.6445 39.1903C30.6668 39.3728 30.6788 39.5564 30.6804 39.7402ZM27.7806 44.2369C27.14 44.5293 26.4441 44.6806 25.74 44.6806C25.0358 44.6806 24.3399 44.5293 23.6993 44.2369C23.9379 43.7509 24.2197 43.2874 24.5414 42.852C24.7328 42.5885 24.9132 42.3472 25.0784 42.1352C25.1032 42.1046 25.1359 42.0814 25.1731 42.0681C25.2102 42.0548 25.2503 42.0521 25.2889 42.0601C25.5869 42.1173 25.893 42.1173 26.191 42.0601C26.2297 42.0521 26.2699 42.0549 26.307 42.0682C26.3442 42.0816 26.377 42.1049 26.4018 42.1357C26.5665 42.3477 26.7469 42.5889 26.9388 42.8527C27.2605 43.2878 27.5422 43.7511 27.7806 44.2369ZM20.8347 39.1888C21.3701 39.2657 21.8975 39.3907 22.4105 39.5621C22.71 39.659 22.9946 39.7554 23.2566 39.8504C23.2937 39.8639 23.3261 39.8876 23.3504 39.9187C23.3746 39.9498 23.3896 39.9871 23.3937 40.0263C23.4299 40.3282 23.5247 40.6201 23.6729 40.8855C23.6929 40.9198 23.7029 40.9591 23.7018 40.9987C23.7007 41.0384 23.6885 41.077 23.6667 41.1102C23.5086 41.3437 23.3355 41.5894 23.1512 41.8405C22.8373 42.2809 22.4846 42.6922 22.0973 43.0696C21.6167 42.5539 21.2546 41.9394 21.0365 41.269C20.8184 40.5986 20.7495 39.8886 20.8347 39.1888ZM24.8808 36.5182C24.8808 36.8591 24.8762 37.1555 24.8687 37.4124C24.8673 37.4518 24.8549 37.4901 24.8328 37.5228C24.8108 37.5556 24.78 37.5815 24.7439 37.5975C24.4684 37.7259 24.2204 37.9064 24.0136 38.1292C23.987 38.1584 23.9529 38.1797 23.915 38.1907C23.8771 38.2018 23.8369 38.2022 23.7988 38.1919C23.5511 38.1193 23.2674 38.0319 22.9417 37.9271C22.4261 37.764 21.9261 37.555 21.4478 37.3026C21.795 36.6905 22.2691 36.1597 22.8382 35.7457C23.4073 35.3318 24.0583 35.0443 24.7476 34.9024C24.8403 35.4359 24.8849 35.9767 24.8808 36.5182ZM24.4561 33.8652C24.5379 34.0658 24.6051 34.2721 24.6571 34.4825C23.9093 34.6369 23.203 34.9492 22.5854 35.3983C21.9678 35.8474 21.4531 36.4231 21.0757 37.087C20.8917 36.9726 20.7162 36.845 20.5508 36.705C20.971 35.9882 21.5348 35.366 22.2069 34.8773C22.8789 34.3886 23.6446 34.044 24.4561 33.8652ZM19.7551 39.1454C19.9724 39.1295 20.1905 39.1295 20.4077 39.1454C20.3839 39.3428 20.3713 39.5414 20.3699 39.7402C20.3676 41.0796 20.8685 42.3709 21.7734 43.3583C21.6086 43.4971 21.4339 43.6236 21.2506 43.7368C20.2675 42.6378 19.7245 41.2147 19.7255 39.7402C19.7255 39.5394 19.7358 39.3411 19.7551 39.1454ZM23.3252 45.2469C23.3774 45.0367 23.4445 44.8304 23.526 44.6297C24.2211 44.9464 24.9761 45.1103 25.74 45.1103C26.5038 45.1103 27.2588 44.9464 27.9539 44.6297C28.0354 44.8304 28.1025 45.0367 28.1548 45.2469C27.3937 45.5817 26.5714 45.7546 25.74 45.7546C24.9085 45.7546 24.0862 45.5817 23.3252 45.2469ZM30.2293 43.7368C30.046 43.6236 29.8713 43.4971 29.7065 43.3583C30.6114 42.3709 31.1123 41.0796 31.11 39.7402C31.1087 39.5412 31.096 39.3425 31.0722 39.145C31.2894 39.1291 31.5075 39.1291 31.7248 39.145C31.7441 39.3407 31.7544 39.5389 31.7544 39.7398C31.7555 41.2144 31.2125 42.6377 30.2293 43.7368Z" fill="#056C34"/>
<path d="M24.667 39.7395C24.667 39.952 24.73 40.1596 24.848 40.3362C24.966 40.5128 25.1337 40.6505 25.33 40.7318C25.5262 40.8131 25.7422 40.8344 25.9505 40.7929C26.1589 40.7515 26.3502 40.6492 26.5004 40.499C26.6506 40.3488 26.7529 40.1574 26.7944 39.9491C26.8358 39.7407 26.8145 39.5248 26.7333 39.3285C26.652 39.1323 26.5143 38.9645 26.3377 38.8465C26.1611 38.7285 25.9534 38.6655 25.741 38.6655C25.4563 38.6659 25.1833 38.7791 24.9819 38.9805C24.7806 39.1818 24.6673 39.4548 24.667 39.7395ZM26.3854 39.7395C26.3854 39.867 26.3476 39.9916 26.2768 40.0975C26.206 40.2035 26.1054 40.2861 25.9876 40.3349C25.8699 40.3837 25.7403 40.3964 25.6153 40.3716C25.4903 40.3467 25.3755 40.2853 25.2853 40.1952C25.1952 40.1051 25.1338 39.9903 25.109 39.8653C25.0841 39.7403 25.0969 39.6107 25.1456 39.4929C25.1944 39.3752 25.277 39.2745 25.383 39.2037C25.489 39.1329 25.6136 39.0951 25.741 39.0951C25.9119 39.0951 26.0758 39.163 26.1967 39.2839C26.3175 39.4047 26.3854 39.5686 26.3854 39.7395Z" fill="#056C34"/>
<path d="M25.7397 38.2369C25.7967 38.2369 25.8513 38.2143 25.8916 38.174C25.9319 38.1337 25.9545 38.0791 25.9545 38.0221V37.8073C25.9545 37.7504 25.9319 37.6957 25.8916 37.6554C25.8513 37.6152 25.7967 37.5925 25.7397 37.5925C25.6827 37.5925 25.6281 37.6152 25.5878 37.6554C25.5475 37.6957 25.5249 37.7504 25.5249 37.8073V38.0221C25.5249 38.0791 25.5475 38.1337 25.5878 38.174C25.6281 38.2143 25.6827 38.2369 25.7397 38.2369Z" fill="#056C34"/>
<path d="M24.1724 39.0049L23.9682 38.9385C23.941 38.9282 23.912 38.9235 23.8829 38.9248C23.8539 38.926 23.8254 38.9331 23.7991 38.9457C23.7729 38.9583 23.7495 38.976 23.7304 38.9979C23.7112 39.0198 23.6967 39.0454 23.6877 39.073C23.6788 39.1007 23.6755 39.1299 23.6781 39.1588C23.6808 39.1878 23.6893 39.2159 23.7031 39.2415C23.7169 39.2671 23.7358 39.2896 23.7586 39.3077C23.7814 39.3257 23.8076 39.339 23.8356 39.3466L24.0399 39.413C24.0671 39.4233 24.0961 39.428 24.1252 39.4267C24.1542 39.4255 24.1827 39.4184 24.2089 39.4058C24.2352 39.3932 24.2586 39.3755 24.2777 39.3536C24.2969 39.3317 24.3114 39.3061 24.3203 39.2785C24.3293 39.2508 24.3326 39.2216 24.33 39.1927C24.3273 39.1637 24.3188 39.1356 24.305 39.11C24.2912 39.0844 24.2723 39.0619 24.2495 39.0438C24.2267 39.0258 24.2005 39.0125 24.1724 39.0049Z" fill="#056C34"/>
<path d="M24.557 41.0039L24.4307 41.1777C24.3972 41.2238 24.3834 41.2814 24.3923 41.3377C24.4013 41.394 24.4322 41.4445 24.4783 41.478C24.5245 41.5115 24.5821 41.5253 24.6384 41.5163C24.6947 41.5074 24.7451 41.4764 24.7786 41.4303L24.9047 41.2565C24.9213 41.2337 24.9332 41.2078 24.9398 41.1803C24.9464 41.1529 24.9475 41.1244 24.9431 41.0966C24.9387 41.0687 24.9288 41.0419 24.9141 41.0179C24.8993 40.9938 24.88 40.9729 24.8571 40.9563C24.8343 40.9397 24.8084 40.9278 24.781 40.9212C24.7535 40.9146 24.7251 40.9135 24.6972 40.9179C24.6693 40.9224 24.6426 40.9322 24.6185 40.947C24.5945 40.9617 24.5735 40.9811 24.557 41.0039Z" fill="#056C34"/>
<path d="M26.625 40.9562C26.6021 40.9728 26.5826 40.9938 26.5679 41.0179C26.5531 41.042 26.5432 41.0688 26.5388 41.0967C26.5343 41.1247 26.5355 41.1532 26.5421 41.1807C26.5488 41.2082 26.5608 41.2341 26.5775 41.2569L26.7036 41.4307C26.7202 41.4536 26.7411 41.4729 26.7652 41.4877C26.7892 41.5025 26.816 41.5123 26.8439 41.5168C26.8717 41.5212 26.9002 41.5201 26.9277 41.5135C26.9551 41.5069 26.981 41.495 27.0039 41.4784C27.0267 41.4618 27.0461 41.4409 27.0609 41.4168C27.0756 41.3928 27.0855 41.366 27.0899 41.3381C27.0943 41.3103 27.0932 41.2818 27.0867 41.2543C27.0801 41.2269 27.0682 41.201 27.0516 41.1781L26.9253 41.0043C26.9087 40.9814 26.8878 40.962 26.8638 40.9472C26.8397 40.9324 26.813 40.9225 26.7851 40.918C26.7572 40.9135 26.7287 40.9146 26.7012 40.9212C26.6738 40.9277 26.6478 40.9396 26.625 40.9562Z" fill="#056C34"/>
<path d="M27.3737 39.4238C27.3963 39.4237 27.4187 39.4202 27.4401 39.4132L27.6444 39.3469C27.6724 39.3392 27.6987 39.326 27.7214 39.3079C27.7442 39.2898 27.7631 39.2673 27.7769 39.2417C27.7908 39.2162 27.7992 39.188 27.8019 39.1591C27.8045 39.1301 27.8012 39.1009 27.7923 39.0733C27.7833 39.0456 27.7688 39.0201 27.7496 38.9982C27.7305 38.9763 27.7071 38.9585 27.6809 38.9459C27.6547 38.9334 27.6261 38.9262 27.5971 38.925C27.568 38.9238 27.539 38.9284 27.5118 38.9387L27.3076 39.0051C27.259 39.0209 27.2176 39.0536 27.1909 39.0971C27.1641 39.1407 27.1538 39.1924 27.1618 39.2429C27.1698 39.2934 27.1955 39.3394 27.2343 39.3726C27.2732 39.4058 27.3226 39.4241 27.3737 39.4242V39.4238Z" fill="#056C34"/>
<path d="M5.16082 29.3747C5.16082 29.7773 5.16834 30.4566 5.22028 30.8981L3.59717 31.833V41.0783C3.59717 41.0783 4.24641 41.5717 5.22028 41.8964L12.4204 41.8574H12.8424C12.8424 41.8574 12.9788 41.8574 13.18 41.8574C13.0697 41.1887 13.0112 40.494 13.0112 39.7928C13.0112 32.8913 18.6077 27.2948 25.5092 27.2948C32.4107 27.2948 38.0072 32.8913 38.0072 39.7928C38.0072 40.4485 37.9552 41.0913 37.8578 41.7146C37.9682 41.7146 38.0656 41.7146 38.0656 41.7146L88.6808 41.4224C88.6808 41.4224 88.9859 41.4224 89.0768 41.4224C88.1094 33.7938 94.0305 27.2948 101.471 27.2948C108.372 27.2948 113.969 32.8913 113.969 39.7928C113.969 40.2992 113.936 40.7926 113.878 41.2796C113.93 41.2796 113.969 41.2796 113.969 41.2796L118.838 41.2536L122.409 37.0335V28.8206L121.111 27.2948V19.5039L109.69 6.36965C108.697 5.22698 107.256 4.58422 105.749 4.6037L58.7895 5.22048L34.1182 18.8546L13.9916 22.1009C13.9916 22.1009 5.2073 22.1009 5.15536 29.6386L5.16082 29.3747Z" stroke="#056C34" stroke-miterlimit="10"/>
<path d="M101.715 32.5717C105.66 32.5717 108.858 35.7699 108.858 39.715C108.858 43.6601 105.66 46.8583 101.715 46.8583C97.7699 46.8583 94.5717 43.6601 94.5717 39.715C94.5717 35.7699 97.7699 32.5717 101.715 32.5717ZM101.715 29C95.8064 29 91 33.8064 91 39.715C91 45.6236 95.8064 50.43 101.715 50.43C107.624 50.43 112.43 45.6236 112.43 39.715C112.43 33.8064 107.624 29 101.715 29Z" fill="#056C34"/>
<path d="M101.74 33.2961C100.465 33.2961 99.2196 33.6741 98.1598 34.3822C97.1001 35.0902 96.2742 36.0967 95.7864 37.2742C95.2987 38.4517 95.1711 39.7473 95.4197 40.9974C95.6684 42.2474 96.2821 43.3956 97.1833 44.2968C98.0845 45.1981 99.2328 45.8118 100.483 46.0604C101.733 46.3091 103.028 46.1815 104.206 45.6937C105.383 45.206 106.39 44.38 107.098 43.3203C107.806 42.2606 108.184 41.0147 108.184 39.7402C108.182 38.0317 107.503 36.3938 106.294 35.1857C105.086 33.9776 103.448 33.2981 101.74 33.2961ZM106.929 36.705C106.764 36.845 106.588 36.9727 106.404 37.087C106.027 36.4231 105.512 35.8474 104.895 35.3983C104.277 34.9492 103.571 34.6369 102.823 34.4825C102.875 34.2721 102.942 34.0658 103.024 33.8652C103.835 34.044 104.601 34.3886 105.273 34.8773C105.945 35.366 106.509 35.9882 106.929 36.705ZM102.732 34.9024C103.422 35.0441 104.073 35.3316 104.642 35.7456C105.211 36.1595 105.686 36.6904 106.033 37.3026C105.555 37.5549 105.055 37.7638 104.539 37.9268C104.213 38.0319 103.93 38.1202 103.682 38.1919C103.644 38.2022 103.604 38.2018 103.566 38.1907C103.528 38.1797 103.494 38.1584 103.467 38.1292C103.26 37.9064 103.012 37.726 102.737 37.5978C102.701 37.5816 102.67 37.5557 102.648 37.5229C102.626 37.4901 102.613 37.4517 102.612 37.4122C102.604 37.1555 102.599 36.8591 102.599 36.5182C102.595 35.9767 102.64 35.4359 102.732 34.9024ZM102.593 33.7872C102.286 34.6639 102.142 35.5896 102.17 36.5182C102.17 36.864 102.174 37.1645 102.182 37.4246C102.185 37.5438 102.222 37.6596 102.288 37.7589C102.354 37.8583 102.446 37.9373 102.554 37.987C102.78 38.0919 102.983 38.2395 103.152 38.4217C103.212 38.4871 103.285 38.5394 103.366 38.5752C103.447 38.611 103.535 38.6297 103.624 38.6299C103.685 38.6299 103.745 38.6212 103.803 38.6039C104.054 38.5306 104.34 38.4424 104.672 38.3356C105.563 38.0752 106.399 37.6528 107.138 37.0898C107.39 37.602 107.568 38.1478 107.665 38.7104C106.736 38.6891 105.811 38.8391 104.937 39.1529C104.633 39.2511 104.344 39.3497 104.078 39.4455C103.966 39.4858 103.867 39.5567 103.793 39.6501C103.719 39.7435 103.673 39.8558 103.66 39.9741C103.63 40.2206 103.552 40.4589 103.432 40.6757C103.372 40.7794 103.344 40.8975 103.348 41.0168C103.353 41.136 103.39 41.2516 103.457 41.3506C103.618 41.5884 103.794 41.8384 103.981 42.0934C104.503 42.8603 105.163 43.5245 105.926 44.0526C105.517 44.4501 105.054 44.7876 104.55 45.0553C104.284 44.1657 103.856 43.3332 103.287 42.5999C103.093 42.3322 102.909 42.0873 102.741 41.8719C102.668 41.7781 102.57 41.7065 102.459 41.6651C102.347 41.6238 102.226 41.6144 102.11 41.638C101.866 41.685 101.615 41.685 101.37 41.638C101.254 41.6143 101.133 41.6237 101.021 41.665C100.91 41.7064 100.812 41.778 100.739 41.8719C100.571 42.0867 100.388 42.3322 100.194 42.5999C99.6245 43.3333 99.1961 44.1661 98.9303 45.0559C98.4266 44.7882 97.9633 44.4506 97.5541 44.0532C98.3171 43.5253 98.9763 42.8614 99.4987 42.0946C99.6858 41.839 99.8622 41.589 100.023 41.3514C100.09 41.2525 100.127 41.1369 100.132 41.0176C100.137 40.8984 100.108 40.7803 100.049 40.6765C99.9278 40.4598 99.8502 40.2215 99.8205 39.975C99.8071 39.8566 99.7609 39.7443 99.687 39.6509C99.6131 39.5574 99.5146 39.4865 99.4025 39.4461C99.1359 39.3503 98.8468 39.2517 98.5433 39.1536C97.6688 38.8399 96.7441 38.6899 95.8153 38.7111C95.9124 38.1484 96.0899 37.6026 96.3422 37.0904C97.0809 37.6535 97.9169 38.0759 98.8086 38.3363C99.1389 38.4437 99.4261 38.5313 99.6768 38.6045C99.7349 38.6218 99.7953 38.6306 99.8559 38.6305C99.9448 38.6303 100.033 38.6117 100.114 38.5759C100.195 38.54 100.268 38.4878 100.328 38.4224C100.498 38.2401 100.701 38.0924 100.926 37.9874C101.034 37.9378 101.127 37.8588 101.192 37.7595C101.258 37.6603 101.295 37.5446 101.299 37.4255C101.306 37.1645 101.31 36.864 101.31 36.5182C101.338 35.5896 101.194 34.6639 100.887 33.7872C101.453 33.7053 102.027 33.7053 102.593 33.7872ZM106.68 39.7402C106.681 40.9736 106.218 42.1621 105.383 43.0696C104.995 42.6926 104.642 42.2817 104.328 41.8418C104.144 41.5907 103.971 41.345 103.812 41.1115C103.79 41.0783 103.778 41.0397 103.777 41C103.776 40.9603 103.786 40.9211 103.806 40.8868C103.954 40.6213 104.049 40.3295 104.085 40.0276C104.089 39.9884 104.105 39.9512 104.129 39.9201C104.153 39.8891 104.185 39.8654 104.222 39.8519C104.484 39.7576 104.769 39.6605 105.069 39.5634C105.582 39.3921 106.109 39.2672 106.645 39.1903C106.667 39.3728 106.679 39.5564 106.68 39.7402ZM103.781 44.2369C103.14 44.5293 102.444 44.6806 101.74 44.6806C101.036 44.6806 100.34 44.5293 99.6993 44.2369C99.9379 43.7509 100.22 43.2874 100.541 42.852C100.733 42.5885 100.913 42.3472 101.078 42.1352C101.103 42.1046 101.136 42.0814 101.173 42.0681C101.21 42.0548 101.25 42.0521 101.289 42.0601C101.587 42.1173 101.893 42.1173 102.191 42.0601C102.23 42.0521 102.27 42.0549 102.307 42.0682C102.344 42.0816 102.377 42.1049 102.402 42.1357C102.567 42.3477 102.747 42.5889 102.939 42.8527C103.26 43.2878 103.542 43.7511 103.781 44.2369ZM96.8347 39.1888C97.3701 39.2657 97.8975 39.3907 98.4105 39.5621C98.71 39.659 98.9946 39.7554 99.2566 39.8504C99.2937 39.8639 99.3261 39.8876 99.3504 39.9187C99.3746 39.9498 99.3896 39.9871 99.3937 40.0263C99.4299 40.3282 99.5247 40.6201 99.6729 40.8855C99.6929 40.9198 99.7029 40.9591 99.7018 40.9987C99.7007 41.0384 99.6885 41.077 99.6667 41.1102C99.5086 41.3437 99.3355 41.5894 99.1512 41.8405C98.8373 42.2809 98.4846 42.6922 98.0973 43.0696C97.6167 42.5539 97.2546 41.9394 97.0365 41.269C96.8184 40.5986 96.7495 39.8886 96.8347 39.1888ZM100.881 36.5182C100.881 36.8591 100.876 37.1555 100.869 37.4124C100.867 37.4518 100.855 37.4901 100.833 37.5228C100.811 37.5556 100.78 37.5815 100.744 37.5975C100.468 37.7259 100.22 37.9064 100.014 38.1292C99.987 38.1584 99.9529 38.1797 99.915 38.1907C99.8771 38.2018 99.8369 38.2022 99.7988 38.1919C99.5511 38.1193 99.2674 38.0319 98.9417 37.9271C98.4261 37.764 97.9261 37.555 97.4478 37.3026C97.795 36.6905 98.2691 36.1597 98.8382 35.7457C99.4073 35.3318 100.058 35.0443 100.748 34.9024C100.84 35.4359 100.885 35.9767 100.881 36.5182ZM100.456 33.8652C100.538 34.0658 100.605 34.2721 100.657 34.4825C99.9093 34.6369 99.203 34.9492 98.5854 35.3983C97.9678 35.8474 97.4531 36.4231 97.0757 37.087C96.8917 36.9726 96.7162 36.845 96.5508 36.705C96.971 35.9882 97.5348 35.366 98.2069 34.8773C98.8789 34.3886 99.6446 34.044 100.456 33.8652ZM95.7551 39.1454C95.9724 39.1295 96.1905 39.1295 96.4077 39.1454C96.3839 39.3428 96.3713 39.5414 96.3699 39.7402C96.3676 41.0796 96.8685 42.3709 97.7734 43.3583C97.6086 43.4971 97.4339 43.6236 97.2506 43.7368C96.2675 42.6378 95.7245 41.2147 95.7255 39.7402C95.7255 39.5394 95.7358 39.3411 95.7551 39.1454ZM99.3252 45.2469C99.3774 45.0367 99.4445 44.8304 99.526 44.6297C100.221 44.9464 100.976 45.1103 101.74 45.1103C102.504 45.1103 103.259 44.9464 103.954 44.6297C104.035 44.8304 104.103 45.0367 104.155 45.2469C103.394 45.5817 102.571 45.7546 101.74 45.7546C100.909 45.7546 100.086 45.5817 99.3252 45.2469ZM106.229 43.7368C106.046 43.6236 105.871 43.4971 105.706 43.3583C106.611 42.3709 107.112 41.0796 107.11 39.7402C107.109 39.5412 107.096 39.3425 107.072 39.145C107.289 39.1291 107.508 39.1291 107.725 39.145C107.744 39.3407 107.754 39.5389 107.754 39.7398C107.756 41.2144 107.212 42.6377 106.229 43.7368Z" fill="#056C34"/>
<path d="M100.667 39.7395C100.667 39.952 100.73 40.1596 100.848 40.3362C100.966 40.5128 101.134 40.6505 101.33 40.7318C101.526 40.8131 101.742 40.8344 101.951 40.7929C102.159 40.7515 102.35 40.6492 102.5 40.499C102.651 40.3488 102.753 40.1574 102.794 39.9491C102.836 39.7407 102.815 39.5248 102.733 39.3285C102.652 39.1323 102.514 38.9645 102.338 38.8465C102.161 38.7285 101.953 38.6655 101.741 38.6655C101.456 38.6659 101.183 38.7791 100.982 38.9805C100.781 39.1818 100.667 39.4548 100.667 39.7395ZM102.385 39.7395C102.385 39.867 102.348 39.9916 102.277 40.0975C102.206 40.2035 102.105 40.2861 101.988 40.3349C101.87 40.3837 101.74 40.3964 101.615 40.3716C101.49 40.3467 101.375 40.2853 101.285 40.1952C101.195 40.1051 101.134 39.9903 101.109 39.8653C101.084 39.7403 101.097 39.6107 101.146 39.4929C101.194 39.3752 101.277 39.2745 101.383 39.2037C101.489 39.1329 101.614 39.0951 101.741 39.0951C101.912 39.0951 102.076 39.163 102.197 39.2839C102.318 39.4047 102.385 39.5686 102.385 39.7395Z" fill="#056C34"/>
<path d="M101.74 38.2369C101.797 38.2369 101.851 38.2143 101.892 38.174C101.932 38.1337 101.955 38.0791 101.955 38.0221V37.8073C101.955 37.7504 101.932 37.6957 101.892 37.6554C101.851 37.6152 101.797 37.5925 101.74 37.5925C101.683 37.5925 101.628 37.6152 101.588 37.6554C101.548 37.6957 101.525 37.7504 101.525 37.8073V38.0221C101.525 38.0791 101.548 38.1337 101.588 38.174C101.628 38.2143 101.683 38.2369 101.74 38.2369Z" fill="#056C34"/>
<path d="M100.172 39.0049L99.9682 38.9385C99.941 38.9282 99.912 38.9235 99.8829 38.9248C99.8539 38.926 99.8254 38.9331 99.7991 38.9457C99.7729 38.9583 99.7495 38.976 99.7304 38.9979C99.7112 39.0198 99.6967 39.0454 99.6877 39.073C99.6788 39.1007 99.6755 39.1299 99.6781 39.1588C99.6808 39.1878 99.6893 39.2159 99.7031 39.2415C99.7169 39.2671 99.7358 39.2896 99.7586 39.3077C99.7814 39.3257 99.8076 39.339 99.8356 39.3466L100.04 39.413C100.067 39.4233 100.096 39.428 100.125 39.4267C100.154 39.4255 100.183 39.4184 100.209 39.4058C100.235 39.3932 100.259 39.3755 100.278 39.3536C100.297 39.3317 100.311 39.3061 100.32 39.2785C100.329 39.2508 100.333 39.2216 100.33 39.1927C100.327 39.1637 100.319 39.1356 100.305 39.11C100.291 39.0844 100.272 39.0619 100.25 39.0438C100.227 39.0258 100.201 39.0125 100.172 39.0049Z" fill="#056C34"/>
<path d="M100.557 41.0039L100.431 41.1777C100.397 41.2238 100.383 41.2814 100.392 41.3377C100.401 41.394 100.432 41.4445 100.478 41.478C100.524 41.5115 100.582 41.5253 100.638 41.5163C100.695 41.5074 100.745 41.4764 100.779 41.4303L100.905 41.2565C100.921 41.2337 100.933 41.2078 100.94 41.1803C100.946 41.1529 100.948 41.1244 100.943 41.0966C100.939 41.0687 100.929 41.0419 100.914 41.0179C100.899 40.9938 100.88 40.9729 100.857 40.9563C100.834 40.9397 100.808 40.9278 100.781 40.9212C100.754 40.9146 100.725 40.9135 100.697 40.9179C100.669 40.9224 100.643 40.9322 100.619 40.947C100.594 40.9617 100.574 40.9811 100.557 41.0039Z" fill="#056C34"/>
<path d="M102.625 40.9562C102.602 40.9728 102.583 40.9938 102.568 41.0179C102.553 41.042 102.543 41.0688 102.539 41.0967C102.534 41.1247 102.536 41.1532 102.542 41.1807C102.549 41.2082 102.561 41.2341 102.578 41.2569L102.704 41.4307C102.72 41.4536 102.741 41.4729 102.765 41.4877C102.789 41.5025 102.816 41.5123 102.844 41.5168C102.872 41.5212 102.9 41.5201 102.928 41.5135C102.955 41.5069 102.981 41.495 103.004 41.4784C103.027 41.4618 103.046 41.4409 103.061 41.4168C103.076 41.3928 103.085 41.366 103.09 41.3381C103.094 41.3103 103.093 41.2818 103.087 41.2543C103.08 41.2269 103.068 41.201 103.052 41.1781L102.925 41.0043C102.909 40.9814 102.888 40.962 102.864 40.9472C102.84 40.9324 102.813 40.9225 102.785 40.918C102.757 40.9135 102.729 40.9146 102.701 40.9212C102.674 40.9277 102.648 40.9396 102.625 40.9562Z" fill="#056C34"/>
<path d="M103.374 39.4238C103.396 39.4237 103.419 39.4202 103.44 39.4132L103.644 39.3469C103.672 39.3392 103.699 39.326 103.721 39.3079C103.744 39.2898 103.763 39.2673 103.777 39.2417C103.791 39.2162 103.799 39.188 103.802 39.1591C103.805 39.1301 103.801 39.1009 103.792 39.0733C103.783 39.0456 103.769 39.0201 103.75 38.9982C103.73 38.9763 103.707 38.9585 103.681 38.9459C103.655 38.9334 103.626 38.9262 103.597 38.925C103.568 38.9238 103.539 38.9284 103.512 38.9387L103.308 39.0051C103.259 39.0209 103.218 39.0536 103.191 39.0971C103.164 39.1407 103.154 39.1924 103.162 39.2429C103.17 39.2934 103.195 39.3394 103.234 39.3726C103.273 39.4058 103.323 39.4241 103.374 39.4242V39.4238Z" fill="#056C34"/>
<path d="M60.2246 7.48633L98.3873 6.88902C99.2118 6.87604 99.9974 7.22663 100.53 7.8499L107.464 15.8486C107.73 16.1538 107.522 16.6342 107.12 16.6537L46.0581 19.1987C45.8958 19.2052 45.7464 19.1338 45.6491 19.0039L44.1688 17.0302C44 16.803 44.0584 16.4784 44.2986 16.329L56.3746 8.64847C57.5302 7.91483 58.8677 7.5123 60.2376 7.49282L60.2246 7.48633Z" fill="#056C34"/>
<path opacity="0.14" d="M40.2798 38.9749C40.2798 38.9749 48.7135 27.3015 69.4699 24.698C69.4893 24.698 69.5023 24.698 69.5218 24.698L98.6404 22.7567C98.6859 22.7567 98.7313 22.7438 98.7768 22.7373L113.872 18.9652C114.131 18.9002 114.411 18.9781 114.599 19.1664L117.358 21.9257C117.475 22.0426 117.553 22.1984 117.572 22.3672L118.812 31.6709C118.825 31.7878 118.871 31.8981 118.936 31.9955L120.819 34.8132C121.117 35.2612 120.871 35.865 120.351 35.9819L116.527 36.8324C116.047 36.9363 115.599 37.8517 115.599 37.3648V36.7155C115.599 36.7155 113.002 25.3537 100.666 25.6784C100.666 25.6784 90.5703 26.003 86.5515 37.8257C86.4476 38.1309 86.1684 38.3451 85.8438 38.3516L40.2863 39.4553" fill="url(#paint0_linear_2747_58)"/>
<path d="M119.174 17.8208L118.75 17.4083V18V23V23.25H119H121H121.25V23V19.9444V19.8388L121.174 19.7652L119.174 17.8208Z" fill="#B0190C" stroke="#056C34" stroke-width="0.5"/>
<line x1="68" y1="20.5" x2="72" y2="20.5" stroke="#056C34"/>
<line x1="88" y1="20.5" x2="92" y2="20.5" stroke="#056C34"/>
</g>
<defs>
<linearGradient id="paint0_linear_2747_58" x1="80.6137" y1="18.9426" x2="80.6137" y2="39.4553" gradientUnits="userSpaceOnUse">
<stop stop-color="#046C34"/>
<stop offset="1" stop-opacity="0"/>
</linearGradient>
<clipPath id="clip0_2747_58">
<rect width="120" height="46.4989" fill="white" transform="translate(3 4)"/>
</clipPath>
</defs>
</svg>
