<svg width="125" height="55" viewBox="0 0 125 55" fill="none" xmlns="http://www.w3.org/2000/svg">
<g clip-path="url(#clip0_2747_334)">
<g clip-path="url(#clip1_2747_334)">
<path d="M29.105 38.3683C32.8255 38.3683 35.8417 41.3845 35.8417 45.105C35.8417 48.8255 32.8255 51.8417 29.105 51.8417C25.3845 51.8417 22.3683 48.8255 22.3683 45.105C22.3683 41.3845 25.3845 38.3683 29.105 38.3683ZM29.105 35C23.5328 35 19 39.5328 19 45.105C19 50.6772 23.5328 55.21 29.105 55.21C34.6772 55.21 39.21 50.6772 39.21 45.105C39.21 39.5328 34.6772 35 29.105 35Z" fill="#056C34"/>
<path d="M29.1294 39.0515C27.9275 39.0515 26.7525 39.4079 25.7531 40.0757C24.7537 40.7435 23.9748 41.6926 23.5148 42.8031C23.0549 43.9135 22.9345 45.1355 23.169 46.3143C23.4035 47.4932 23.9823 48.576 24.8322 49.4259C25.6821 50.2759 26.765 50.8546 27.9438 51.0891C29.1227 51.3236 30.3446 51.2033 31.4551 50.7433C32.5656 50.2833 33.5147 49.5044 34.1825 48.505C34.8502 47.5056 35.2066 46.3307 35.2066 45.1287C35.2048 43.5175 34.564 41.9728 33.4247 40.8335C32.2854 39.6942 30.7407 39.0533 29.1294 39.0515ZM34.0232 42.2664C33.8672 42.3984 33.7017 42.5187 33.5281 42.6265C33.1722 42.0005 32.6868 41.4575 32.1044 41.034C31.522 40.6104 30.8559 40.316 30.1506 40.1703C30.1997 39.9719 30.2631 39.7774 30.3402 39.5881C31.1055 39.7568 31.8276 40.0817 32.4614 40.5426C33.0952 41.0035 33.6269 41.5903 34.0232 42.2664ZM30.0653 40.5664C30.7155 40.7 31.3296 40.9711 31.8665 41.3615C32.4033 41.7519 32.8505 42.2526 33.1781 42.8299C32.7271 43.0678 32.2557 43.2649 31.7696 43.4186C31.4621 43.5176 31.1945 43.6009 30.9609 43.6686C30.925 43.6783 30.8871 43.6779 30.8513 43.6675C30.8156 43.657 30.7834 43.6369 30.7583 43.6094C30.5634 43.3994 30.3294 43.2292 30.0696 43.1082C30.0355 43.093 30.0064 43.0686 29.9856 43.0376C29.9647 43.0067 29.953 42.9705 29.9517 42.9332C29.944 42.6911 29.9397 42.4116 29.9397 42.0901C29.9358 41.5795 29.9779 41.0695 30.0653 40.5664ZM29.9337 39.5146C29.6441 40.3414 29.5088 41.2144 29.5346 42.0901C29.5346 42.4163 29.5388 42.6997 29.5459 42.945C29.5493 43.0573 29.584 43.1665 29.6461 43.2602C29.7082 43.3539 29.7952 43.4284 29.8974 43.4753C30.1099 43.5742 30.3013 43.7135 30.4608 43.8853C30.5175 43.947 30.5864 43.9963 30.6631 44.0301C30.7398 44.0638 30.8226 44.0814 30.9064 44.0816C30.9636 44.0816 31.0205 44.0734 31.0754 44.0571C31.3118 43.988 31.5818 43.9048 31.8946 43.8041C32.7353 43.5585 33.5236 43.1602 34.2201 42.6292C34.4581 43.1122 34.6254 43.6269 34.717 44.1576C33.8411 44.1375 32.969 44.279 32.1443 44.5749C31.8581 44.6675 31.5854 44.7604 31.3341 44.8508C31.2284 44.8888 31.1354 44.9557 31.0658 45.0438C30.9961 45.1319 30.9525 45.2377 30.9398 45.3493C30.9119 45.5817 30.8388 45.8065 30.7247 46.0109C30.669 46.1087 30.6418 46.2201 30.6461 46.3326C30.6503 46.4451 30.6859 46.5541 30.7488 46.6474C30.9005 46.8717 31.0669 47.1074 31.2427 47.3479C31.7355 48.0712 32.3574 48.6976 33.0772 49.1956C32.6914 49.5704 32.2544 49.8888 31.7793 50.1412C31.5287 49.3023 31.1248 48.5172 30.588 47.8256C30.4057 47.5732 30.2319 47.3422 30.0738 47.1391C30.0049 47.0506 29.9126 46.983 29.8074 46.9441C29.7022 46.9051 29.5882 46.8962 29.4783 46.9184C29.2479 46.9628 29.0112 46.9628 28.7808 46.9184C28.6709 46.8962 28.5568 46.905 28.4516 46.944C28.3464 46.9829 28.2542 47.0505 28.1853 47.1391C28.0274 47.3416 27.8545 47.5732 27.6715 47.8256C27.1344 48.5173 26.7304 49.3027 26.4798 50.1418C26.0047 49.8893 25.5678 49.571 25.1819 49.1962C25.9015 48.6984 26.5232 48.0722 27.0158 47.3491C27.1922 47.1081 27.3586 46.8723 27.5103 46.6482C27.5732 46.5549 27.6088 46.4459 27.6131 46.3334C27.6174 46.221 27.5902 46.1096 27.5346 46.0117C27.4204 45.8073 27.3473 45.5826 27.3193 45.3501C27.3066 45.2385 27.263 45.1326 27.1934 45.0445C27.1237 44.9563 27.0308 44.8894 26.925 44.8514C26.6737 44.761 26.401 44.6681 26.1148 44.5755C25.2901 44.2797 24.418 44.1382 23.5421 44.1582C23.6337 43.6275 23.801 43.1128 24.039 42.6298C24.7356 43.1609 25.5241 43.5591 26.3649 43.8047C26.6765 43.906 26.9473 43.9886 27.1837 44.0577C27.2386 44.074 27.2955 44.0823 27.3527 44.0822C27.4365 44.082 27.5193 44.0644 27.596 44.0307C27.6727 43.9969 27.7416 43.9476 27.7983 43.8859C27.9579 43.714 28.1493 43.5747 28.3619 43.4757C28.464 43.4289 28.551 43.3545 28.6131 43.2608C28.6751 43.1672 28.7098 43.0581 28.7132 42.9458C28.72 42.6997 28.7243 42.4163 28.7243 42.0901C28.7501 41.2144 28.6148 40.3414 28.3252 39.5146C28.8586 39.4374 29.4003 39.4374 29.9337 39.5146ZM33.7886 45.1287C33.7893 46.2919 33.3524 47.4128 32.5647 48.2686C32.1992 47.9131 31.8663 47.5255 31.5698 47.1107C31.3964 46.8739 31.2332 46.6421 31.0837 46.4219C31.0631 46.3907 31.0516 46.3542 31.0506 46.3168C31.0496 46.2794 31.0591 46.2424 31.078 46.21C31.2177 45.9597 31.3072 45.6844 31.3413 45.3998C31.3452 45.3628 31.3594 45.3277 31.3822 45.2984C31.4051 45.2691 31.4357 45.2468 31.4706 45.2341C31.7177 45.1451 31.9861 45.0536 32.2687 44.962C32.7526 44.8004 33.2499 44.6827 33.7548 44.6101C33.7758 44.7822 33.7871 44.9554 33.7886 45.1287ZM31.0539 49.3694C30.4498 49.6452 29.7935 49.7879 29.1294 49.7879C28.4654 49.7879 27.8091 49.6452 27.205 49.3694C27.43 48.9111 27.6957 48.474 27.9991 48.0634C28.1796 47.8148 28.3497 47.5873 28.5055 47.3874C28.5289 47.3585 28.5598 47.3366 28.5948 47.3241C28.6299 47.3116 28.6676 47.309 28.704 47.3165C28.9851 47.3705 29.2738 47.3705 29.5549 47.3165C29.5913 47.309 29.6292 47.3116 29.6642 47.3242C29.6993 47.3368 29.7302 47.3588 29.7536 47.3878C29.909 47.5878 30.0791 47.8152 30.26 48.064C30.5634 48.4743 30.8291 48.9112 31.0539 49.3694ZM24.5035 44.6087C25.0084 44.6812 25.5058 44.7991 25.9896 44.9608C26.2719 45.0521 26.5404 45.1431 26.7875 45.2326C26.8224 45.2454 26.853 45.2677 26.8759 45.2971C26.8987 45.3264 26.9129 45.3616 26.9167 45.3985C26.9509 45.6832 27.0403 45.9585 27.1801 46.2088C27.1989 46.2412 27.2083 46.2782 27.2073 46.3156C27.2062 46.353 27.1948 46.3894 27.1742 46.4207C27.0251 46.6409 26.8618 46.8727 26.688 47.1095C26.392 47.5247 26.0594 47.9127 25.6942 48.2686C25.2409 47.7823 24.8994 47.2027 24.6938 46.5704C24.4881 45.9382 24.4231 45.2687 24.5035 44.6087ZM28.3192 42.0901C28.3192 42.4116 28.3149 42.6911 28.3078 42.9334C28.3065 42.9706 28.2948 43.0067 28.274 43.0376C28.2532 43.0685 28.2241 43.0929 28.1901 43.108C27.9303 43.2291 27.6964 43.3993 27.5014 43.6094C27.4763 43.6369 27.4441 43.657 27.4084 43.6675C27.3727 43.6779 27.3347 43.6783 27.2988 43.6686C27.0652 43.6001 26.7976 43.5176 26.4905 43.4188C26.0042 43.265 25.5327 43.0679 25.0816 42.8299C25.4091 42.2526 25.8561 41.752 26.3929 41.3617C26.9296 40.9713 27.5435 40.7001 28.1936 40.5664C28.281 41.0695 28.3231 41.5795 28.3192 42.0901ZM27.9187 39.5881C27.9958 39.7774 28.0592 39.9719 28.1083 40.1703C27.403 40.316 26.7369 40.6104 26.1545 41.034C25.5721 41.4575 25.0867 42.0005 24.7308 42.6265C24.5572 42.5187 24.3917 42.3983 24.2357 42.2664C24.632 41.5903 25.1637 41.0035 25.7975 40.5426C26.4313 40.0817 27.1534 39.7568 27.9187 39.5881ZM23.4854 44.5678C23.6902 44.5528 23.8959 44.5528 24.1008 44.5678C24.0783 44.7539 24.0664 44.9412 24.0651 45.1287C24.0629 46.3918 24.5353 47.6097 25.3887 48.5409C25.2333 48.6717 25.0685 48.791 24.8957 48.8978C23.9686 47.8613 23.4565 46.5193 23.4574 45.1287C23.4574 44.9393 23.4671 44.7523 23.4854 44.5678ZM26.8521 50.3219C26.9014 50.1236 26.9647 49.9292 27.0415 49.7399C27.6971 50.0385 28.4091 50.1931 29.1294 50.1931C29.8498 50.1931 30.5618 50.0385 31.2174 49.7399C31.2942 49.9292 31.3575 50.1236 31.4068 50.3219C30.6891 50.6377 29.9135 50.8008 29.1294 50.8008C28.3453 50.8008 27.5698 50.6377 26.8521 50.3219ZM33.3632 48.8978C33.1904 48.791 33.0256 48.6717 32.8702 48.5409C33.7236 47.6097 34.196 46.3918 34.1938 45.1287C34.1925 44.9411 34.1806 44.7537 34.1581 44.5674C34.363 44.5524 34.5687 44.5524 34.7735 44.5674C34.7918 44.7519 34.8015 44.9389 34.8015 45.1283C34.8025 46.519 34.2904 47.8612 33.3632 48.8978Z" fill="#056C34"/>
<path d="M28.1167 45.1281C28.1167 45.3284 28.1761 45.5243 28.2874 45.6908C28.3987 45.8574 28.5569 45.9872 28.742 46.0639C28.927 46.1405 29.1307 46.1606 29.3272 46.1215C29.5236 46.0824 29.7041 45.986 29.8458 45.8443C29.9874 45.7027 30.0839 45.5222 30.123 45.3257C30.1621 45.1292 30.142 44.9256 30.0653 44.7405C29.9887 44.5554 29.8588 44.3972 29.6923 44.2859C29.5257 44.1746 29.3299 44.1152 29.1296 44.1152C28.861 44.1156 28.6036 44.2224 28.4137 44.4123C28.2238 44.6021 28.117 44.8596 28.1167 45.1281ZM29.7373 45.1281C29.7373 45.2483 29.7016 45.3658 29.6349 45.4657C29.5681 45.5657 29.4732 45.6436 29.3621 45.6896C29.2511 45.7356 29.1289 45.7476 29.011 45.7241C28.8931 45.7007 28.7848 45.6428 28.6998 45.5578C28.6149 45.4728 28.557 45.3645 28.5335 45.2467C28.5101 45.1288 28.5221 45.0066 28.5681 44.8955C28.6141 44.7845 28.692 44.6896 28.7919 44.6228C28.8919 44.556 29.0094 44.5204 29.1296 44.5204C29.2907 44.5204 29.4453 44.5844 29.5593 44.6984C29.6733 44.8123 29.7373 44.9669 29.7373 45.1281Z" fill="#056C34"/>
<path d="M29.1288 43.711C29.1826 43.711 29.2341 43.6896 29.2721 43.6517C29.3101 43.6137 29.3314 43.5621 29.3314 43.5084V43.3058C29.3314 43.2521 29.3101 43.2006 29.2721 43.1626C29.2341 43.1246 29.1826 43.1033 29.1288 43.1033C29.0751 43.1033 29.0236 43.1246 28.9856 43.1626C28.9476 43.2006 28.9263 43.2521 28.9263 43.3058V43.5084C28.9263 43.5621 28.9476 43.6137 28.9856 43.6517C29.0236 43.6896 29.0751 43.711 29.1288 43.711Z" fill="#056C34"/>
<path d="M27.6501 44.4354L27.4575 44.3728C27.4318 44.363 27.4045 44.3586 27.3771 44.3598C27.3497 44.361 27.3228 44.3677 27.2981 44.3795C27.2733 44.3914 27.2513 44.4082 27.2332 44.4288C27.2152 44.4494 27.2015 44.4735 27.193 44.4996C27.1845 44.5257 27.1815 44.5532 27.1839 44.5806C27.1864 44.6079 27.1944 44.6344 27.2075 44.6585C27.2205 44.6826 27.2383 44.7039 27.2598 44.7209C27.2813 44.738 27.306 44.7505 27.3325 44.7577L27.5251 44.8203C27.5508 44.83 27.5781 44.8344 27.6055 44.8332C27.6329 44.832 27.6598 44.8253 27.6845 44.8135C27.7093 44.8016 27.7313 44.7849 27.7494 44.7642C27.7674 44.7436 27.7811 44.7195 27.7896 44.6934C27.7981 44.6673 27.8011 44.6398 27.7987 44.6125C27.7962 44.5851 27.7882 44.5586 27.7751 44.5345C27.7621 44.5104 27.7443 44.4891 27.7228 44.4721C27.7013 44.4551 27.6766 44.4426 27.6501 44.4354Z" fill="#056C34"/>
<path d="M28.0133 46.3206L27.8941 46.4845C27.8626 46.528 27.8495 46.5823 27.858 46.6354C27.8664 46.6885 27.8956 46.7361 27.9391 46.7677C27.9826 46.7993 28.0369 46.8123 28.09 46.8039C28.1431 46.7954 28.1907 46.7663 28.2223 46.7227L28.3412 46.5589C28.3569 46.5373 28.3681 46.5129 28.3743 46.487C28.3805 46.4612 28.3816 46.4343 28.3774 46.408C28.3733 46.3817 28.364 46.3565 28.35 46.3338C28.3361 46.3111 28.3179 46.2914 28.2964 46.2758C28.2748 46.2601 28.2504 46.2489 28.2245 46.2427C28.1987 46.2364 28.1718 46.2354 28.1455 46.2396C28.1192 46.2437 28.094 46.253 28.0713 46.2669C28.0486 46.2808 28.0289 46.2991 28.0133 46.3206Z" fill="#056C34"/>
<path d="M29.9632 46.2757C29.9416 46.2913 29.9233 46.3111 29.9093 46.3338C29.8954 46.3565 29.886 46.3818 29.8819 46.4082C29.8777 46.4345 29.8788 46.4614 29.8851 46.4874C29.8913 46.5133 29.9027 46.5377 29.9184 46.5593L30.0373 46.7232C30.053 46.7447 30.0727 46.763 30.0954 46.7769C30.1181 46.7908 30.1433 46.8001 30.1696 46.8043C30.1959 46.8085 30.2228 46.8074 30.2487 46.8012C30.2745 46.795 30.299 46.7838 30.3205 46.7681C30.3421 46.7525 30.3603 46.7328 30.3742 46.7101C30.3882 46.6874 30.3975 46.6621 30.4017 46.6358C30.4058 46.6095 30.4048 46.5827 30.3986 46.5568C30.3924 46.5309 30.3811 46.5065 30.3655 46.4849L30.2464 46.321C30.2308 46.2994 30.2111 46.2811 30.1884 46.2672C30.1657 46.2532 30.1405 46.2438 30.1142 46.2396C30.0879 46.2354 30.061 46.2364 30.0351 46.2426C30.0092 46.2488 29.9847 46.26 29.9632 46.2757Z" fill="#056C34"/>
<path d="M30.6696 44.8304C30.6909 44.8304 30.712 44.827 30.7322 44.8205L30.9249 44.7579C30.9513 44.7507 30.976 44.7382 30.9975 44.7212C31.019 44.7041 31.0368 44.6829 31.0499 44.6588C31.0629 44.6346 31.0709 44.6081 31.0734 44.5808C31.0759 44.5535 31.0728 44.526 31.0643 44.4999C31.0559 44.4738 31.0422 44.4497 31.0241 44.4291C31.0061 44.4084 30.984 44.3917 30.9593 44.3798C30.9345 44.3679 30.9077 44.3612 30.8803 44.36C30.8529 44.3589 30.8255 44.3633 30.7999 44.373L30.6072 44.4356C30.5614 44.4505 30.5224 44.4813 30.4972 44.5224C30.472 44.5635 30.4622 44.6122 30.4698 44.6598C30.4773 44.7075 30.5015 44.7508 30.5382 44.7822C30.5748 44.8135 30.6214 44.8308 30.6696 44.8308V44.8304Z" fill="#056C34"/>
<path d="M83 38.3333C86.6818 38.3333 89.6667 41.3182 89.6667 45C89.6667 48.6818 86.6818 51.6667 83 51.6667C79.3182 51.6667 76.3333 48.6818 76.3333 45C76.3333 41.3182 79.3182 38.3333 83 38.3333ZM83 35C77.4857 35 73 39.4857 73 45C73 50.5143 77.4857 55 83 55C88.5143 55 93 50.5143 93 45C93 39.4857 88.5143 35 83 35Z" fill="#056C34"/>
<path d="M83.0243 39.0095C81.8348 39.0095 80.6721 39.3622 79.6831 40.0231C78.6941 40.6839 77.9232 41.6232 77.468 42.7221C77.0129 43.821 76.8938 45.0302 77.1258 46.1969C77.3579 47.3635 77.9307 48.4351 78.7717 49.2761C79.6128 50.1172 80.6844 50.69 81.851 50.9221C83.0176 51.1541 84.2269 51.035 85.3258 50.5798C86.4247 50.1246 87.364 49.3538 88.0248 48.3648C88.6856 47.3758 89.0384 46.213 89.0384 45.0236C89.0366 43.4291 88.4024 41.9005 87.2749 40.773C86.1474 39.6455 84.6188 39.0113 83.0243 39.0095ZM87.8672 42.191C87.7128 42.3216 87.5491 42.4407 87.3773 42.5474C87.0251 41.9278 86.5447 41.3905 85.9684 40.9714C85.392 40.5522 84.7328 40.2609 84.0349 40.1167C84.0834 39.9204 84.1462 39.7278 84.2225 39.5406C84.9798 39.7075 85.6945 40.0291 86.3217 40.4851C86.9488 40.9412 87.475 41.522 87.8672 42.191ZM83.9505 40.5086C84.5939 40.6409 85.2016 40.9092 85.7329 41.2955C86.2642 41.6819 86.7067 42.1773 87.0309 42.7487C86.5846 42.9841 86.1181 43.1791 85.637 43.3312C85.3327 43.4292 85.0679 43.5116 84.8367 43.5786C84.8012 43.5882 84.7636 43.5878 84.7283 43.5775C84.6929 43.5672 84.6611 43.5473 84.6363 43.5201C84.4433 43.3122 84.2118 43.1437 83.9547 43.0241C83.921 43.009 83.8922 42.9848 83.8715 42.9542C83.8509 42.9236 83.8393 42.8878 83.838 42.8509C83.8304 42.6113 83.8262 42.3347 83.8262 42.0165C83.8223 41.5112 83.8639 41.0065 83.9505 40.5086ZM83.8202 39.4678C83.5336 40.286 83.3997 41.1499 83.4252 42.0165C83.4252 42.3393 83.4295 42.6198 83.4365 42.8625C83.4398 42.9737 83.4741 43.0818 83.5356 43.1745C83.597 43.2672 83.6832 43.341 83.7843 43.3874C83.9946 43.4853 84.184 43.6231 84.3418 43.7931C84.3979 43.8541 84.4661 43.9029 84.542 43.9363C84.6179 43.9698 84.6999 43.9871 84.7828 43.9874C84.8394 43.9874 84.8957 43.9792 84.95 43.9631C85.184 43.8947 85.4512 43.8123 85.7607 43.7127C86.5927 43.4696 87.3728 43.0755 88.0621 42.55C88.2976 43.028 88.4632 43.5374 88.5538 44.0625C87.687 44.0427 86.824 44.1826 86.0079 44.4755C85.7246 44.5671 85.4548 44.6591 85.206 44.7485C85.1014 44.7862 85.0095 44.8523 84.9405 44.9395C84.8716 45.0267 84.8284 45.1314 84.8159 45.2419C84.7882 45.4719 84.7159 45.6943 84.603 45.8966C84.5479 45.9934 84.5209 46.1037 84.5252 46.2149C84.5294 46.3262 84.5646 46.4341 84.6269 46.5265C84.777 46.7484 84.9416 46.9817 85.1156 47.2197C85.6033 47.9355 86.2187 48.5553 86.931 49.0482C86.5492 49.4192 86.1168 49.7342 85.6466 49.984C85.3987 49.1538 84.9989 48.3768 84.4677 47.6924C84.2873 47.4426 84.1153 47.2141 83.9589 47.013C83.8907 46.9254 83.7994 46.8586 83.6952 46.8201C83.5911 46.7815 83.4783 46.7727 83.3695 46.7947C83.1415 46.8386 82.9073 46.8386 82.6793 46.7947C82.5705 46.7726 82.4577 46.7814 82.3535 46.82C82.2494 46.8585 82.1581 46.9254 82.0899 47.013C81.9338 47.2135 81.7626 47.4426 81.5815 47.6924C81.05 48.3769 80.6502 49.1541 80.4022 49.9846C79.9321 49.7347 79.4997 49.4197 79.1178 49.0488C79.8299 48.5561 80.4451 47.9365 80.9326 47.2209C81.1072 46.9823 81.2718 46.749 81.422 46.5273C81.4842 46.4349 81.5194 46.3271 81.5237 46.2158C81.5279 46.1045 81.501 45.9942 81.446 45.8974C81.333 45.6951 81.2607 45.4727 81.2329 45.2427C81.2204 45.1322 81.1773 45.0274 81.1083 44.9402C81.0394 44.853 80.9474 44.7868 80.8428 44.7491C80.594 44.6597 80.3242 44.5677 80.0409 44.4761C79.2248 44.1833 78.3618 44.0433 77.495 44.0631C77.5856 43.538 77.7513 43.0286 77.9867 42.5506C78.6761 43.0762 79.4564 43.4703 80.2885 43.7133C80.5968 43.8135 80.8649 43.8953 81.0988 43.9637C81.1531 43.9798 81.2094 43.988 81.266 43.988C81.3489 43.9877 81.4309 43.9704 81.5068 43.9369C81.5827 43.9035 81.6509 43.8547 81.707 43.7937C81.8649 43.6236 82.0543 43.4857 82.2647 43.3878C82.3658 43.3414 82.4519 43.2677 82.5133 43.1751C82.5747 43.0824 82.609 42.9744 82.6123 42.8633C82.6192 42.6198 82.6234 42.3393 82.6234 42.0165C82.6489 41.1499 82.515 40.286 82.2284 39.4678C82.7563 39.3914 83.2923 39.3914 83.8202 39.4678ZM87.6351 45.0236C87.6358 46.1747 87.2034 47.2839 86.4239 48.1308C86.0622 47.779 85.7327 47.3955 85.4394 46.985C85.2678 46.7506 85.1062 46.5213 84.9582 46.3034C84.9378 46.2724 84.9265 46.2364 84.9255 46.1993C84.9245 46.1623 84.9339 46.1257 84.9526 46.0937C85.0909 45.8459 85.1794 45.5735 85.2132 45.2918C85.2171 45.2552 85.2311 45.2205 85.2537 45.1915C85.2763 45.1625 85.3066 45.1404 85.3411 45.1278C85.5857 45.0398 85.8513 44.9492 86.131 44.8586C86.6098 44.6987 87.102 44.5822 87.6016 44.5104C87.6224 44.6807 87.6336 44.852 87.6351 45.0236ZM84.9288 49.2202C84.331 49.4931 83.6815 49.6343 83.0243 49.6343C82.3671 49.6343 81.7177 49.4931 81.1199 49.2202C81.3425 48.7667 81.6055 48.3341 81.9057 47.9278C82.0843 47.6818 82.2527 47.4567 82.4069 47.2588C82.43 47.2302 82.4606 47.2085 82.4952 47.1961C82.5299 47.1838 82.5673 47.1812 82.6033 47.1886C82.8814 47.2421 83.1672 47.2421 83.4453 47.1886C83.4814 47.1812 83.5188 47.1838 83.5535 47.1963C83.5882 47.2087 83.6188 47.2305 83.642 47.2592C83.7957 47.4571 83.9641 47.6822 84.1431 47.9284C84.4434 48.3344 84.7063 48.7668 84.9288 49.2202ZM78.4464 44.509C78.9461 44.5807 79.4383 44.6974 79.917 44.8574C80.1965 44.9478 80.4621 45.0378 80.7067 45.1264C80.7412 45.1391 80.7716 45.1612 80.7942 45.1902C80.8168 45.2192 80.8308 45.254 80.8346 45.2906C80.8684 45.5723 80.9569 45.8447 81.0952 46.0925C81.1138 46.1245 81.1231 46.1611 81.1221 46.1981C81.1211 46.2352 81.1098 46.2712 81.0894 46.3022C80.9418 46.5201 80.7803 46.7494 80.6083 46.9838C80.3153 47.3947 79.9862 47.7786 79.6248 48.1308C79.1762 47.6495 78.8383 47.076 78.6347 46.4503C78.4312 45.8247 78.3669 45.1621 78.4464 44.509ZM82.2224 42.0165C82.2224 42.3347 82.2182 42.6113 82.2112 42.8511C82.2099 42.8879 82.1983 42.9236 82.1777 42.9542C82.1571 42.9847 82.1284 43.0089 82.0947 43.0239C81.8376 43.1437 81.6061 43.3122 81.4131 43.5201C81.3883 43.5473 81.3565 43.5672 81.3211 43.5775C81.2858 43.5878 81.2482 43.5882 81.2127 43.5786C80.9815 43.5108 80.7167 43.4292 80.4128 43.3314C79.9316 43.1792 79.465 42.9842 79.0185 42.7487C79.3426 42.1774 79.785 41.682 80.3161 41.2957C80.8473 40.9093 81.4548 40.641 82.0981 40.5086C82.1847 41.0065 82.2263 41.5112 82.2224 42.0165ZM81.8261 39.5406C81.9025 39.7278 81.9652 39.9204 82.0137 40.1167C81.3158 40.2609 80.6566 40.5522 80.0803 40.9714C79.5039 41.3905 79.0236 41.9278 78.6713 42.5474C78.4996 42.4407 78.3358 42.3215 78.1814 42.191C78.5736 41.522 79.0998 40.9412 79.727 40.4851C80.3541 40.0291 81.0688 39.7075 81.8261 39.5406ZM77.4389 44.4685C77.6416 44.4536 77.8451 44.4536 78.0479 44.4685C78.0256 44.6527 78.0139 44.838 78.0126 45.0236C78.0104 46.2736 78.4779 47.4787 79.3225 48.4003C79.1686 48.5297 79.0056 48.6478 78.8345 48.7535C77.9171 47.7278 77.4103 46.3997 77.4112 45.0236C77.4112 44.8361 77.4208 44.6511 77.4389 44.4685ZM80.7706 50.1628C80.8194 49.9666 80.8821 49.7741 80.9581 49.5868C81.6068 49.8824 82.3114 50.0353 83.0243 50.0353C83.7372 50.0353 84.4418 49.8824 85.0905 49.5868C85.1666 49.7741 85.2292 49.9666 85.278 50.1628C84.5677 50.4753 83.8003 50.6367 83.0243 50.6367C82.2484 50.6367 81.4809 50.4753 80.7706 50.1628ZM87.2141 48.7535C87.0431 48.6478 86.88 48.5297 86.7262 48.4003C87.5707 47.4787 88.0382 46.2736 88.036 45.0236C88.0348 44.8379 88.023 44.6524 88.0007 44.4681C88.2035 44.4532 88.407 44.4532 88.6098 44.4681C88.6278 44.6507 88.6374 44.8357 88.6374 45.0232C88.6384 46.3994 88.1316 47.7277 87.2141 48.7535Z" fill="#056C34"/>
<path d="M82.022 45.0228C82.022 45.2211 82.0808 45.4149 82.1909 45.5797C82.301 45.7446 82.4576 45.873 82.6407 45.9489C82.8239 46.0248 83.0254 46.0446 83.2199 46.0059C83.4143 45.9673 83.5929 45.8718 83.7331 45.7316C83.8733 45.5914 83.9687 45.4128 84.0074 45.2184C84.0461 45.024 84.0262 44.8224 83.9504 44.6393C83.8745 44.4561 83.746 44.2996 83.5812 44.1894C83.4164 44.0793 83.2226 44.0205 83.0243 44.0205C82.7586 44.0208 82.5038 44.1265 82.3159 44.3144C82.128 44.5023 82.0223 44.7571 82.022 45.0228ZM83.6257 45.0228C83.6257 45.1418 83.5904 45.2581 83.5244 45.357C83.4583 45.4559 83.3644 45.533 83.2545 45.5785C83.1446 45.624 83.0236 45.6359 82.907 45.6127C82.7903 45.5895 82.6832 45.5322 82.5991 45.4481C82.5149 45.364 82.4577 45.2568 82.4345 45.1402C82.4113 45.0235 82.4232 44.9026 82.4687 44.7927C82.5142 44.6828 82.5913 44.5889 82.6902 44.5228C82.7891 44.4567 82.9054 44.4214 83.0243 44.4214C83.1838 44.4214 83.3368 44.4848 83.4496 44.5976C83.5624 44.7104 83.6257 44.8633 83.6257 45.0228Z" fill="#056C34"/>
<path d="M83.0237 43.6204C83.0769 43.6204 83.1279 43.5993 83.1655 43.5617C83.2031 43.5241 83.2242 43.4731 83.2242 43.42V43.2195C83.2242 43.1663 83.2031 43.1154 83.1655 43.0778C83.1279 43.0402 83.0769 43.019 83.0237 43.019C82.9705 43.019 82.9196 43.0402 82.882 43.0778C82.8444 43.1154 82.8232 43.1663 82.8232 43.2195V43.42C82.8232 43.4731 82.8444 43.5241 82.882 43.5617C82.9196 43.5993 82.9705 43.6204 83.0237 43.6204Z" fill="#056C34"/>
<path d="M81.5603 44.3374L81.3697 44.2755C81.3443 44.2658 81.3172 44.2615 81.2901 44.2626C81.263 44.2638 81.2364 44.2704 81.2119 44.2822C81.1874 44.2939 81.1656 44.3105 81.1477 44.3309C81.1299 44.3513 81.1163 44.3752 81.1079 44.401C81.0996 44.4268 81.0965 44.4541 81.099 44.4811C81.1014 44.5081 81.1094 44.5344 81.1223 44.5582C81.1352 44.5821 81.1528 44.6031 81.174 44.62C81.1953 44.6369 81.2198 44.6492 81.246 44.6564L81.4366 44.7183C81.462 44.7279 81.4891 44.7323 81.5162 44.7311C81.5433 44.73 81.5699 44.7233 81.5944 44.7116C81.6188 44.6998 81.6407 44.6833 81.6585 44.6628C81.6764 44.6424 81.6899 44.6186 81.6983 44.5928C81.7067 44.5669 81.7098 44.5397 81.7073 44.5127C81.7048 44.4856 81.6969 44.4594 81.684 44.4355C81.6711 44.4116 81.6535 44.3906 81.6322 44.3738C81.611 44.3569 81.5865 44.3445 81.5603 44.3374Z" fill="#056C34"/>
<path d="M81.9198 46.2031L81.8019 46.3652C81.7707 46.4083 81.7578 46.462 81.7662 46.5146C81.7745 46.5671 81.8034 46.6142 81.8465 46.6455C81.8895 46.6768 81.9432 46.6896 81.9958 46.6813C82.0484 46.6729 82.0954 46.6441 82.1267 46.601L82.2444 46.4388C82.2599 46.4175 82.271 46.3933 82.2771 46.3677C82.2833 46.3421 82.2843 46.3156 82.2802 46.2895C82.2761 46.2635 82.2669 46.2386 82.2531 46.2161C82.2393 46.1937 82.2213 46.1741 82.2 46.1587C82.1787 46.1432 82.1545 46.132 82.1289 46.1259C82.1033 46.1198 82.0767 46.1187 82.0507 46.1228C82.0247 46.127 81.9997 46.1362 81.9773 46.1499C81.9548 46.1637 81.9353 46.1817 81.9198 46.2031Z" fill="#056C34"/>
<path d="M83.849 46.1586C83.8276 46.1741 83.8095 46.1936 83.7957 46.2161C83.7819 46.2386 83.7727 46.2636 83.7686 46.2897C83.7644 46.3158 83.7655 46.3424 83.7717 46.3681C83.7779 46.3937 83.7891 46.4179 83.8047 46.4392L83.9224 46.6014C83.9379 46.6227 83.9574 46.6408 83.9799 46.6546C84.0023 46.6683 84.0273 46.6776 84.0533 46.6817C84.0793 46.6858 84.1059 46.6848 84.1315 46.6787C84.1572 46.6725 84.1813 46.6614 84.2027 46.6459C84.224 46.6304 84.242 46.6109 84.2558 46.5884C84.2696 46.566 84.2788 46.541 84.2829 46.515C84.2871 46.489 84.286 46.4624 84.2799 46.4368C84.2738 46.4111 84.2626 46.387 84.2472 46.3657L84.1293 46.2035C84.1138 46.1821 84.0943 46.164 84.0719 46.1502C84.0495 46.1363 84.0245 46.1271 83.9985 46.1229C83.9724 46.1187 83.9458 46.1197 83.9202 46.1258C83.8945 46.132 83.8704 46.1431 83.849 46.1586Z" fill="#056C34"/>
<path d="M84.5484 44.7284C84.5694 44.7283 84.5903 44.725 84.6103 44.7185L84.801 44.6566C84.8272 44.6495 84.8516 44.6371 84.8729 44.6202C84.8942 44.6034 84.9118 44.5824 84.9247 44.5585C84.9376 44.5346 84.9455 44.5084 84.948 44.4813C84.9504 44.4543 84.9474 44.4271 84.939 44.4012C84.9306 44.3754 84.9171 44.3516 84.8992 44.3312C84.8813 44.3107 84.8595 44.2942 84.835 44.2824C84.8106 44.2707 84.784 44.264 84.7568 44.2629C84.7297 44.2617 84.7027 44.2661 84.6773 44.2757L84.4866 44.3377C84.4413 44.3524 84.4026 44.3829 84.3777 44.4235C84.3528 44.4642 84.3432 44.5124 84.3506 44.5596C84.358 44.6067 84.382 44.6496 84.4183 44.6806C84.4545 44.7116 84.5007 44.7287 84.5484 44.7288V44.7284Z" fill="#056C34"/>
<path d="M109 38.3333C112.682 38.3333 115.667 41.3182 115.667 45C115.667 48.6818 112.682 51.6667 109 51.6667C105.318 51.6667 102.333 48.6818 102.333 45C102.333 41.3182 105.318 38.3333 109 38.3333ZM109 35C103.486 35 99 39.4857 99 45C99 50.5143 103.486 55 109 55C114.514 55 119 50.5143 119 45C119 39.4857 114.514 35 109 35Z" fill="#056C34"/>
<path d="M109.024 39.0095C107.835 39.0095 106.672 39.3622 105.683 40.0231C104.694 40.6839 103.923 41.6232 103.468 42.7221C103.013 43.821 102.894 45.0302 103.126 46.1969C103.358 47.3635 103.931 48.4351 104.772 49.2761C105.613 50.1172 106.684 50.69 107.851 50.9221C109.018 51.1541 110.227 51.035 111.326 50.5798C112.425 50.1246 113.364 49.3538 114.025 48.3648C114.686 47.3758 115.038 46.213 115.038 45.0236C115.037 43.4291 114.402 41.9005 113.275 40.773C112.147 39.6455 110.619 39.0113 109.024 39.0095ZM113.867 42.191C113.713 42.3216 113.549 42.4407 113.377 42.5474C113.025 41.9278 112.545 41.3905 111.968 40.9714C111.392 40.5522 110.733 40.2609 110.035 40.1167C110.083 39.9204 110.146 39.7278 110.223 39.5406C110.98 39.7075 111.694 40.0291 112.322 40.4851C112.949 40.9412 113.475 41.522 113.867 42.191ZM109.95 40.5086C110.594 40.6409 111.202 40.9092 111.733 41.2955C112.264 41.6819 112.707 42.1773 113.031 42.7487C112.585 42.9841 112.118 43.1791 111.637 43.3312C111.333 43.4292 111.068 43.5116 110.837 43.5786C110.801 43.5882 110.764 43.5878 110.728 43.5775C110.693 43.5672 110.661 43.5473 110.636 43.5201C110.443 43.3122 110.212 43.1437 109.955 43.0241C109.921 43.009 109.892 42.9848 109.872 42.9542C109.851 42.9236 109.839 42.8878 109.838 42.8509C109.83 42.6113 109.826 42.3347 109.826 42.0165C109.822 41.5112 109.864 41.0065 109.95 40.5086ZM109.82 39.4678C109.534 40.286 109.4 41.1499 109.425 42.0165C109.425 42.3393 109.429 42.6198 109.436 42.8625C109.44 42.9737 109.474 43.0818 109.536 43.1745C109.597 43.2672 109.683 43.341 109.784 43.3874C109.995 43.4853 110.184 43.6231 110.342 43.7931C110.398 43.8541 110.466 43.9029 110.542 43.9363C110.618 43.9698 110.7 43.9871 110.783 43.9874C110.839 43.9874 110.896 43.9792 110.95 43.9631C111.184 43.8947 111.451 43.8123 111.761 43.7127C112.593 43.4696 113.373 43.0755 114.062 42.55C114.298 43.028 114.463 43.5374 114.554 44.0625C113.687 44.0427 112.824 44.1826 112.008 44.4755C111.725 44.5671 111.455 44.6591 111.206 44.7485C111.101 44.7862 111.009 44.8523 110.941 44.9395C110.872 45.0267 110.828 45.1314 110.816 45.2419C110.788 45.4719 110.716 45.6943 110.603 45.8966C110.548 45.9934 110.521 46.1037 110.525 46.2149C110.529 46.3262 110.565 46.4341 110.627 46.5265C110.777 46.7484 110.942 46.9817 111.116 47.2197C111.603 47.9355 112.219 48.5553 112.931 49.0482C112.549 49.4192 112.117 49.7342 111.647 49.984C111.399 49.1538 110.999 48.3768 110.468 47.6924C110.287 47.4426 110.115 47.2141 109.959 47.013C109.891 46.9254 109.799 46.8586 109.695 46.8201C109.591 46.7815 109.478 46.7727 109.37 46.7947C109.142 46.8386 108.907 46.8386 108.679 46.7947C108.57 46.7726 108.458 46.7814 108.354 46.82C108.249 46.8585 108.158 46.9254 108.09 47.013C107.934 47.2135 107.763 47.4426 107.582 47.6924C107.05 48.3769 106.65 49.1541 106.402 49.9846C105.932 49.7347 105.5 49.4197 105.118 49.0488C105.83 48.5561 106.445 47.9365 106.933 47.2209C107.107 46.9823 107.272 46.749 107.422 46.5273C107.484 46.4349 107.519 46.3271 107.524 46.2158C107.528 46.1045 107.501 45.9942 107.446 45.8974C107.333 45.6951 107.261 45.4727 107.233 45.2427C107.22 45.1322 107.177 45.0274 107.108 44.9402C107.039 44.853 106.947 44.7868 106.843 44.7491C106.594 44.6597 106.324 44.5677 106.041 44.4761C105.225 44.1833 104.362 44.0433 103.495 44.0631C103.586 43.538 103.751 43.0286 103.987 42.5506C104.676 43.0762 105.456 43.4703 106.289 43.7133C106.597 43.8135 106.865 43.8953 107.099 43.9637C107.153 43.9798 107.209 43.988 107.266 43.988C107.349 43.9877 107.431 43.9704 107.507 43.9369C107.583 43.9035 107.651 43.8547 107.707 43.7937C107.865 43.6236 108.054 43.4857 108.265 43.3878C108.366 43.3414 108.452 43.2677 108.513 43.1751C108.575 43.0824 108.609 42.9744 108.612 42.8633C108.619 42.6198 108.623 42.3393 108.623 42.0165C108.649 41.1499 108.515 40.286 108.228 39.4678C108.756 39.3914 109.292 39.3914 109.82 39.4678ZM113.635 45.0236C113.636 46.1747 113.203 47.2839 112.424 48.1308C112.062 47.779 111.733 47.3955 111.439 46.985C111.268 46.7506 111.106 46.5213 110.958 46.3034C110.938 46.2724 110.927 46.2364 110.926 46.1993C110.925 46.1623 110.934 46.1257 110.953 46.0937C111.091 45.8459 111.179 45.5735 111.213 45.2918C111.217 45.2552 111.231 45.2205 111.254 45.1915C111.276 45.1625 111.307 45.1404 111.341 45.1278C111.586 45.0398 111.851 44.9492 112.131 44.8586C112.61 44.6987 113.102 44.5822 113.602 44.5104C113.622 44.6807 113.634 44.852 113.635 45.0236ZM110.929 49.2202C110.331 49.4931 109.681 49.6343 109.024 49.6343C108.367 49.6343 107.718 49.4931 107.12 49.2202C107.342 48.7667 107.605 48.3341 107.906 47.9278C108.084 47.6818 108.253 47.4567 108.407 47.2588C108.43 47.2302 108.461 47.2085 108.495 47.1961C108.53 47.1838 108.567 47.1812 108.603 47.1886C108.881 47.2421 109.167 47.2421 109.445 47.1886C109.481 47.1812 109.519 47.1838 109.554 47.1963C109.588 47.2087 109.619 47.2305 109.642 47.2592C109.796 47.4571 109.964 47.6822 110.143 47.9284C110.443 48.3344 110.706 48.7668 110.929 49.2202ZM104.446 44.509C104.946 44.5807 105.438 44.6974 105.917 44.8574C106.197 44.9478 106.462 45.0378 106.707 45.1264C106.741 45.1391 106.772 45.1612 106.794 45.1902C106.817 45.2192 106.831 45.254 106.835 45.2906C106.868 45.5723 106.957 45.8447 107.095 46.0925C107.114 46.1245 107.123 46.1611 107.122 46.1981C107.121 46.2352 107.11 46.2712 107.089 46.3022C106.942 46.5201 106.78 46.7494 106.608 46.9838C106.315 47.3947 105.986 47.7786 105.625 48.1308C105.176 47.6495 104.838 47.076 104.635 46.4503C104.431 45.8247 104.367 45.1621 104.446 44.509ZM108.222 42.0165C108.222 42.3347 108.218 42.6113 108.211 42.8511C108.21 42.8879 108.198 42.9236 108.178 42.9542C108.157 42.9847 108.128 43.0089 108.095 43.0239C107.838 43.1437 107.606 43.3122 107.413 43.5201C107.388 43.5473 107.356 43.5672 107.321 43.5775C107.286 43.5878 107.248 43.5882 107.213 43.5786C106.982 43.5108 106.717 43.4292 106.413 43.3314C105.932 43.1792 105.465 42.9842 105.019 42.7487C105.343 42.1774 105.785 41.682 106.316 41.2957C106.847 40.9093 107.455 40.641 108.098 40.5086C108.185 41.0065 108.226 41.5112 108.222 42.0165ZM107.826 39.5406C107.902 39.7278 107.965 39.9204 108.014 40.1167C107.316 40.2609 106.657 40.5522 106.08 40.9714C105.504 41.3905 105.024 41.9278 104.671 42.5474C104.5 42.4407 104.336 42.3215 104.181 42.191C104.574 41.522 105.1 40.9412 105.727 40.4851C106.354 40.0291 107.069 39.7075 107.826 39.5406ZM103.439 44.4685C103.642 44.4536 103.845 44.4536 104.048 44.4685C104.026 44.6527 104.014 44.838 104.013 45.0236C104.01 46.2736 104.478 47.4787 105.322 48.4003C105.169 48.5297 105.006 48.6478 104.835 48.7535C103.917 47.7278 103.41 46.3997 103.411 45.0236C103.411 44.8361 103.421 44.6511 103.439 44.4685ZM106.771 50.1628C106.819 49.9666 106.882 49.7741 106.958 49.5868C107.607 49.8824 108.311 50.0353 109.024 50.0353C109.737 50.0353 110.442 49.8824 111.091 49.5868C111.167 49.7741 111.229 49.9666 111.278 50.1628C110.568 50.4753 109.8 50.6367 109.024 50.6367C108.248 50.6367 107.481 50.4753 106.771 50.1628ZM113.214 48.7535C113.043 48.6478 112.88 48.5297 112.726 48.4003C113.571 47.4787 114.038 46.2736 114.036 45.0236C114.035 44.8379 114.023 44.6524 114.001 44.4681C114.203 44.4532 114.407 44.4532 114.61 44.4681C114.628 44.6507 114.637 44.8357 114.637 45.0232C114.638 46.3994 114.132 47.7277 113.214 48.7535Z" fill="#056C34"/>
<path d="M108.022 45.0228C108.022 45.2211 108.081 45.4149 108.191 45.5797C108.301 45.7446 108.458 45.873 108.641 45.9489C108.824 46.0248 109.025 46.0446 109.22 46.0059C109.414 45.9673 109.593 45.8718 109.733 45.7316C109.873 45.5914 109.969 45.4128 110.007 45.2184C110.046 45.024 110.026 44.8224 109.95 44.6393C109.874 44.4561 109.746 44.2996 109.581 44.1894C109.416 44.0793 109.223 44.0205 109.024 44.0205C108.759 44.0208 108.504 44.1265 108.316 44.3144C108.128 44.5023 108.022 44.7571 108.022 45.0228ZM109.626 45.0228C109.626 45.1418 109.59 45.2581 109.524 45.357C109.458 45.4559 109.364 45.533 109.254 45.5785C109.145 45.624 109.024 45.6359 108.907 45.6127C108.79 45.5895 108.683 45.5322 108.599 45.4481C108.515 45.364 108.458 45.2568 108.434 45.1402C108.411 45.0235 108.423 44.9026 108.469 44.7927C108.514 44.6828 108.591 44.5889 108.69 44.5228C108.789 44.4567 108.905 44.4214 109.024 44.4214C109.184 44.4214 109.337 44.4848 109.45 44.5976C109.562 44.7104 109.626 44.8633 109.626 45.0228Z" fill="#056C34"/>
<path d="M109.024 43.6204C109.077 43.6204 109.128 43.5993 109.165 43.5617C109.203 43.5241 109.224 43.4731 109.224 43.42V43.2195C109.224 43.1663 109.203 43.1154 109.165 43.0778C109.128 43.0402 109.077 43.019 109.024 43.019C108.971 43.019 108.92 43.0402 108.882 43.0778C108.844 43.1154 108.823 43.1663 108.823 43.2195V43.42C108.823 43.4731 108.844 43.5241 108.882 43.5617C108.92 43.5993 108.971 43.6204 109.024 43.6204Z" fill="#056C34"/>
<path d="M107.56 44.3374L107.37 44.2755C107.344 44.2658 107.317 44.2615 107.29 44.2626C107.263 44.2638 107.236 44.2704 107.212 44.2822C107.187 44.2939 107.166 44.3105 107.148 44.3309C107.13 44.3513 107.116 44.3752 107.108 44.401C107.1 44.4268 107.097 44.4541 107.099 44.4811C107.101 44.5081 107.109 44.5344 107.122 44.5582C107.135 44.5821 107.153 44.6031 107.174 44.62C107.195 44.6369 107.22 44.6492 107.246 44.6564L107.437 44.7183C107.462 44.7279 107.489 44.7323 107.516 44.7311C107.543 44.73 107.57 44.7233 107.594 44.7116C107.619 44.6998 107.641 44.6833 107.659 44.6628C107.676 44.6424 107.69 44.6186 107.698 44.5928C107.707 44.5669 107.71 44.5397 107.707 44.5127C107.705 44.4856 107.697 44.4594 107.684 44.4355C107.671 44.4116 107.653 44.3906 107.632 44.3738C107.611 44.3569 107.586 44.3445 107.56 44.3374Z" fill="#056C34"/>
<path d="M107.92 46.2031L107.802 46.3652C107.771 46.4083 107.758 46.462 107.766 46.5146C107.775 46.5671 107.803 46.6142 107.846 46.6455C107.89 46.6768 107.943 46.6896 107.996 46.6813C108.048 46.6729 108.095 46.6441 108.127 46.601L108.244 46.4388C108.26 46.4175 108.271 46.3933 108.277 46.3677C108.283 46.3421 108.284 46.3156 108.28 46.2895C108.276 46.2635 108.267 46.2386 108.253 46.2161C108.239 46.1937 108.221 46.1741 108.2 46.1587C108.179 46.1432 108.155 46.132 108.129 46.1259C108.103 46.1198 108.077 46.1187 108.051 46.1228C108.025 46.127 108 46.1362 107.977 46.1499C107.955 46.1637 107.935 46.1817 107.92 46.2031Z" fill="#056C34"/>
<path d="M109.849 46.1586C109.828 46.1741 109.81 46.1936 109.796 46.2161C109.782 46.2386 109.773 46.2636 109.769 46.2897C109.764 46.3158 109.766 46.3424 109.772 46.3681C109.778 46.3937 109.789 46.4179 109.805 46.4392L109.922 46.6014C109.938 46.6227 109.957 46.6408 109.98 46.6546C110.002 46.6683 110.027 46.6776 110.053 46.6817C110.079 46.6858 110.106 46.6848 110.132 46.6787C110.157 46.6725 110.181 46.6614 110.203 46.6459C110.224 46.6304 110.242 46.6109 110.256 46.5884C110.27 46.566 110.279 46.541 110.283 46.515C110.287 46.489 110.286 46.4624 110.28 46.4368C110.274 46.4111 110.263 46.387 110.247 46.3657L110.129 46.2035C110.114 46.1821 110.094 46.164 110.072 46.1502C110.049 46.1363 110.024 46.1271 109.998 46.1229C109.972 46.1187 109.946 46.1197 109.92 46.1258C109.895 46.132 109.87 46.1431 109.849 46.1586Z" fill="#056C34"/>
<path d="M110.548 44.7284C110.569 44.7283 110.59 44.725 110.61 44.7185L110.801 44.6566C110.827 44.6495 110.852 44.6371 110.873 44.6202C110.894 44.6034 110.912 44.5824 110.925 44.5585C110.938 44.5346 110.946 44.5084 110.948 44.4813C110.95 44.4543 110.947 44.4271 110.939 44.4012C110.931 44.3754 110.917 44.3516 110.899 44.3312C110.881 44.3107 110.859 44.2942 110.835 44.2824C110.811 44.2707 110.784 44.264 110.757 44.2629C110.73 44.2617 110.703 44.2661 110.677 44.2757L110.487 44.3377C110.441 44.3524 110.403 44.3829 110.378 44.4235C110.353 44.4642 110.343 44.5124 110.351 44.5596C110.358 44.6067 110.382 44.6496 110.418 44.6806C110.455 44.7116 110.501 44.7287 110.548 44.7288V44.7284Z" fill="#056C34"/>
<path d="M99.1913 41.1196H93.3491" stroke="#056C34" stroke-miterlimit="10"/>
<path d="M116.13 36.2546H122.789V41.1196H119.172" stroke="#056C34" stroke-miterlimit="10"/>
<path d="M89.8506 36.2546H102.381" stroke="#056C34" stroke-miterlimit="10"/>
<path d="M76.9606 36.2547H41.8904C40.6213 31.1782 34.2757 29.9091 34.2757 29.9091L34.8425 3.29974C34.8806 1.55681 33.438 0.143847 31.6993 0.215764L18.5004 0.744566C15.6449 0.858787 13.1532 2.71594 12.231 5.42341L7.94131 17.9835C7.88632 18.1485 7.74248 18.2754 7.57327 18.2923C4.90387 18.5673 5.30153 22.9331 5.30153 22.9331L6.54527 37.8326C6.55797 38.0103 6.41836 38.1626 6.24068 38.1626H3.5163C3.33862 38.1626 3.19478 38.3191 3.21594 38.4968L3.58398 42.1603C3.59667 42.2957 3.7109 42.3972 3.84204 42.3972H16.711C17.7559 36.6227 22.807 32.2442 28.8819 32.2442C34.9568 32.2442 40.0121 36.6227 41.057 42.3972C41.6323 42.3972 44.9871 42.3972 44.9871 42.3972V44.5125H71.2918V41.1281H73.4958" stroke="#056C34" stroke-miterlimit="10"/>
<path d="M27.7139 17.0063H11.4268L14.8111 7.48789L27.7139 7.27637V17.0063Z" fill="#056C34"/>
<path d="M86.7285 31.6013H104.496" stroke="#056C34" stroke-miterlimit="10"/>
<path d="M95.8237 31.6013V34.5626" stroke="#056C34" stroke-miterlimit="10"/>
<path opacity="0.22" d="M48 38H69L67.5 43H46L48 38Z" fill="url(#paint0_linear_2747_334)"/>
<line x1="24" y1="19.5" x2="28" y2="19.5" stroke="#056C34"/>
</g>
</g>
<defs>
<linearGradient id="paint0_linear_2747_334" x1="57.5" y1="38" x2="57.5" y2="43" gradientUnits="userSpaceOnUse">
<stop stop-color="#046C34"/>
<stop offset="1" stop-opacity="0"/>
</linearGradient>
<clipPath id="clip0_2747_334">
<rect width="125" height="55" fill="white"/>
</clipPath>
<clipPath id="clip1_2747_334">
<rect width="120" height="55.2154" fill="white" transform="translate(3)"/>
</clipPath>
</defs>
</svg>
