<svg width="125" height="55" viewBox="0 0 125 55" fill="none" xmlns="http://www.w3.org/2000/svg">
<path d="M22 37.6667C24.9455 37.6667 27.3333 40.0545 27.3333 43C27.3333 45.9455 24.9455 48.3333 22 48.3333C19.0545 48.3333 16.6667 45.9455 16.6667 43C16.6667 40.0545 19.0545 37.6667 22 37.6667ZM22 35C17.5885 35 14 38.5885 14 43C14 47.4115 17.5885 51 22 51C26.4115 51 30 47.4115 30 43C30 38.5885 26.4115 35 22 35Z" fill="#056C34"/>
<path d="M22.0193 38.2073C21.0677 38.2073 20.1375 38.4894 19.3463 39.0181C18.5551 39.5468 17.9384 40.2982 17.5742 41.1773C17.2101 42.0565 17.1148 43.0239 17.3005 43.9571C17.4861 44.8904 17.9443 45.7477 18.6172 46.4206C19.2901 47.0934 20.1473 47.5517 21.0806 47.7373C22.0139 47.923 22.9813 47.8277 23.8604 47.4635C24.7396 47.0994 25.491 46.4827 26.0197 45.6915C26.5483 44.9003 26.8305 43.9701 26.8305 43.0185C26.8291 41.7429 26.3217 40.52 25.4197 39.618C24.5177 38.7161 23.2948 38.2087 22.0193 38.2073ZM25.8936 40.7524C25.7701 40.8569 25.6391 40.9522 25.5016 41.0376C25.2199 40.5419 24.8356 40.1121 24.3745 39.7768C23.9134 39.4414 23.3861 39.2083 22.8277 39.093C22.8666 38.936 22.9167 38.7819 22.9778 38.6321C23.5837 38.7656 24.1554 39.0229 24.6571 39.3878C25.1589 39.7526 25.5798 40.2172 25.8936 40.7524ZM22.7602 39.4066C23.2749 39.5124 23.7611 39.727 24.1861 40.0361C24.6112 40.3451 24.9652 40.7415 25.2245 41.1986C24.8675 41.3869 24.4943 41.5429 24.1094 41.6646C23.866 41.7431 23.6541 41.809 23.4692 41.8625C23.4407 41.8702 23.4107 41.8699 23.3824 41.8617C23.3541 41.8534 23.3287 41.8375 23.3088 41.8157C23.1545 41.6494 22.9693 41.5147 22.7636 41.4189C22.7366 41.4069 22.7135 41.3875 22.697 41.363C22.6805 41.3385 22.6712 41.3099 22.6702 41.2804C22.6641 41.0887 22.6608 40.8674 22.6608 40.6129C22.6577 40.2086 22.6909 39.8049 22.7602 39.4066ZM22.6559 38.5739C22.4267 39.2285 22.3196 39.9196 22.34 40.6129C22.34 40.8711 22.3434 41.0955 22.349 41.2897C22.3516 41.3786 22.3791 41.4651 22.4283 41.5393C22.4774 41.6135 22.5463 41.6724 22.6272 41.7095C22.7955 41.7879 22.947 41.8981 23.0732 42.0341C23.1182 42.083 23.1727 42.122 23.2334 42.1487C23.2941 42.1755 23.3597 42.1894 23.4261 42.1895C23.4713 42.1896 23.5164 42.183 23.5598 42.1701C23.747 42.1154 23.9607 42.0495 24.2084 41.9698C24.8739 41.7754 25.498 41.4601 26.0495 41.0397C26.2379 41.4221 26.3703 41.8296 26.4429 42.2497C25.7494 42.2338 25.059 42.3458 24.4061 42.5801C24.1795 42.6533 23.9636 42.727 23.7646 42.7985C23.6809 42.8286 23.6074 42.8815 23.5522 42.9513C23.4971 43.021 23.4625 43.1048 23.4525 43.1932C23.4304 43.3772 23.3725 43.5551 23.2822 43.7169C23.2381 43.7944 23.2166 43.8826 23.2199 43.9716C23.2233 44.0606 23.2515 44.147 23.3013 44.2208C23.4214 44.3984 23.5531 44.5851 23.6923 44.7754C24.0825 45.3481 24.5748 45.8439 25.1446 46.2382C24.8392 46.535 24.4932 46.787 24.1171 46.9868C23.9187 46.3227 23.5989 45.7011 23.1739 45.1536C23.0296 44.9538 22.892 44.7709 22.7669 44.6101C22.7123 44.54 22.6393 44.4866 22.556 44.4557C22.4727 44.4249 22.3825 44.4178 22.2954 44.4354C22.113 44.4706 21.9256 44.4706 21.7432 44.4354C21.6562 44.4178 21.5659 44.4248 21.4826 44.4556C21.3993 44.4865 21.3263 44.54 21.2717 44.6101C21.1468 44.7704 21.0099 44.9538 20.865 45.1536C20.4398 45.7012 20.1199 46.323 19.9216 46.9873C19.5455 46.7875 19.1995 46.5354 18.894 46.2387C19.4637 45.8446 19.9559 45.3489 20.3459 44.7764C20.4856 44.5855 20.6173 44.3989 20.7374 44.2215C20.7872 44.1476 20.8154 44.0613 20.8188 43.9723C20.8222 43.8833 20.8006 43.795 20.7566 43.7176C20.6662 43.5558 20.6083 43.3778 20.5861 43.1938C20.5762 43.1054 20.5416 43.0216 20.4865 42.9518C20.4313 42.882 20.3577 42.8291 20.2741 42.799C20.075 42.7274 19.8592 42.6538 19.6326 42.5805C18.9797 42.3463 18.2892 42.2343 17.5958 42.2502C17.6683 41.8301 17.8008 41.4226 17.9892 41.0401C18.5407 41.4606 19.1649 41.7759 19.8306 41.9703C20.0773 42.0505 20.2917 42.1159 20.4789 42.1706C20.5223 42.1835 20.5673 42.19 20.6126 42.19C20.679 42.1898 20.7445 42.1759 20.8053 42.1492C20.866 42.1225 20.9205 42.0834 20.9654 42.0346C21.0918 41.8985 21.2433 41.7883 21.4116 41.7099C21.4924 41.6728 21.5613 41.6139 21.6104 41.5397C21.6596 41.4656 21.687 41.3792 21.6897 41.2903C21.6951 41.0955 21.6985 40.8711 21.6985 40.6129C21.7189 39.9196 21.6118 39.2285 21.3826 38.5739C21.8048 38.5127 22.2337 38.5127 22.6559 38.5739ZM25.7079 43.0185C25.7084 43.9394 25.3625 44.8268 24.7389 45.5043C24.4495 45.2228 24.186 44.9161 23.9513 44.5876C23.814 44.4001 23.6847 44.2167 23.5664 44.0423C23.5501 44.0176 23.541 43.9888 23.5402 43.9591C23.5394 43.9295 23.5469 43.9002 23.5619 43.8746C23.6725 43.6764 23.7433 43.4585 23.7704 43.2331C23.7735 43.2038 23.7847 43.176 23.8028 43.1529C23.8208 43.1297 23.8451 43.112 23.8727 43.1019C24.0684 43.0315 24.2809 42.959 24.5046 42.8865C24.8876 42.7586 25.2814 42.6654 25.6811 42.608C25.6977 42.7442 25.7067 42.8813 25.7079 43.0185ZM23.5428 46.3758C23.0646 46.5941 22.545 46.7071 22.0193 46.7071C21.4935 46.7071 20.9739 46.5941 20.4957 46.3758C20.6738 46.013 20.8842 45.6669 21.1244 45.3419C21.2673 45.1451 21.402 44.965 21.5253 44.8067C21.5438 44.7838 21.5683 44.7665 21.596 44.7566C21.6237 44.7467 21.6536 44.7446 21.6825 44.7506C21.905 44.7933 22.1335 44.7933 22.356 44.7506C22.3849 44.7446 22.4149 44.7467 22.4426 44.7567C22.4704 44.7666 22.4949 44.7841 22.5134 44.807C22.6364 44.9653 22.7711 45.1454 22.9143 45.3423C23.1545 45.6672 23.3649 46.0131 23.5428 46.3758ZM18.3569 42.6068C18.7567 42.6643 19.1504 42.7575 19.5334 42.8856C19.757 42.9579 19.9695 43.0299 20.1652 43.1008C20.1928 43.1109 20.2171 43.1286 20.2351 43.1518C20.2532 43.175 20.2644 43.2029 20.2675 43.2321C20.2945 43.4575 20.3653 43.6754 20.476 43.8736C20.4909 43.8993 20.4983 43.9285 20.4975 43.9582C20.4967 43.9878 20.4876 44.0166 20.4713 44.0414C20.3533 44.2157 20.224 44.3992 20.0864 44.5867C19.8521 44.9154 19.5888 45.2225 19.2996 45.5043C18.9407 45.1193 18.6704 44.6604 18.5076 44.1599C18.3447 43.6594 18.2933 43.1293 18.3569 42.6068ZM21.3778 40.6129C21.3778 40.8674 21.3744 41.0887 21.3688 41.2805C21.3677 41.31 21.3584 41.3386 21.342 41.363C21.3255 41.3874 21.3025 41.4068 21.2756 41.4188C21.0699 41.5146 20.8847 41.6494 20.7303 41.8157C20.7105 41.8375 20.685 41.8534 20.6567 41.8617C20.6284 41.8699 20.5984 41.8702 20.5699 41.8625C20.385 41.8083 20.1732 41.7431 19.93 41.6648C19.5451 41.543 19.1718 41.387 18.8146 41.1986C19.0739 40.7416 19.4278 40.3453 19.8527 40.0362C20.2776 39.7271 20.7637 39.5125 21.2783 39.4066C21.3476 39.8049 21.3808 40.2086 21.3778 40.6129ZM21.0607 38.6321C21.1218 38.7819 21.1719 38.936 21.2108 39.093C20.6524 39.2083 20.1251 39.4414 19.664 39.7768C19.2029 40.1121 18.8186 40.5419 18.5369 41.0376C18.3995 40.9522 18.2685 40.8569 18.1449 40.7524C18.4587 40.2172 18.8796 39.7526 19.3814 39.3878C19.8831 39.0229 20.4548 38.7656 21.0607 38.6321ZM17.5509 42.5744C17.7131 42.5625 17.8759 42.5625 18.0381 42.5744C18.0203 42.7218 18.0109 42.8701 18.0099 43.0185C18.0081 44.0185 18.3821 44.9826 19.0578 45.7199C18.9347 45.8235 18.8043 45.9179 18.6674 46.0024C17.9335 45.1819 17.528 44.1194 17.5288 43.0185C17.5288 42.8686 17.5365 42.7205 17.5509 42.5744ZM20.2163 47.1299C20.2553 46.9729 20.3054 46.819 20.3663 46.6691C20.8853 46.9055 21.4489 47.0279 22.0193 47.0279C22.5896 47.0279 23.1532 46.9055 23.6722 46.6691C23.7331 46.819 23.7832 46.9729 23.8222 47.1299C23.254 47.3799 22.64 47.509 22.0193 47.509C21.3985 47.509 20.7845 47.3799 20.2163 47.1299ZM25.3711 46.0024C25.2343 45.9179 25.1038 45.8235 24.9807 45.7199C25.6564 44.9826 26.0304 44.0185 26.0286 43.0185C26.0276 42.87 26.0182 42.7216 26.0004 42.5741C26.1626 42.5622 26.3254 42.5622 26.4876 42.5741C26.502 42.7202 26.5097 42.8682 26.5097 43.0182C26.5106 44.1192 26.1051 45.1818 25.3711 46.0024Z" fill="#056C34"/>
<path d="M21.2178 43.0184C21.2178 43.177 21.2648 43.3321 21.3529 43.4639C21.441 43.5958 21.5663 43.6986 21.7128 43.7593C21.8593 43.82 22.0205 43.8358 22.1761 43.8049C22.3316 43.774 22.4745 43.6976 22.5867 43.5854C22.6988 43.4733 22.7752 43.3304 22.8061 43.1749C22.8371 43.0193 22.8212 42.8581 22.7605 42.7116C22.6998 42.565 22.597 42.4398 22.4651 42.3517C22.3333 42.2636 22.1782 42.2166 22.0196 42.2166C21.8071 42.2168 21.6032 42.3014 21.4529 42.4517C21.3026 42.602 21.218 42.8058 21.2178 43.0184ZM22.5008 43.0184C22.5008 43.1136 22.4726 43.2066 22.4197 43.2857C22.3668 43.3648 22.2917 43.4265 22.2038 43.4629C22.1159 43.4993 22.0191 43.5089 21.9258 43.4903C21.8325 43.4717 21.7467 43.4259 21.6794 43.3586C21.6122 43.2913 21.5663 43.2056 21.5478 43.1123C21.5292 43.019 21.5387 42.9222 21.5751 42.8343C21.6116 42.7464 21.6732 42.6713 21.7523 42.6184C21.8315 42.5655 21.9245 42.5373 22.0196 42.5373C22.1472 42.5373 22.2696 42.588 22.3599 42.6782C22.4501 42.7684 22.5008 42.8908 22.5008 43.0184Z" fill="#056C34"/>
<path d="M22.0188 41.8967C22.0613 41.8967 22.1021 41.8798 22.1322 41.8497C22.1623 41.8196 22.1791 41.7788 22.1791 41.7363V41.5759C22.1791 41.5334 22.1623 41.4926 22.1322 41.4625C22.1021 41.4324 22.0613 41.4155 22.0188 41.4155C21.9762 41.4155 21.9354 41.4324 21.9054 41.4625C21.8753 41.4926 21.8584 41.5334 21.8584 41.5759V41.7363C21.8584 41.7788 21.8753 41.8196 21.9054 41.8497C21.9354 41.8798 21.9762 41.8967 22.0188 41.8967Z" fill="#056C34"/>
<path d="M20.8478 42.4701L20.6952 42.4206C20.6749 42.4129 20.6533 42.4094 20.6316 42.4103C20.6099 42.4112 20.5886 42.4165 20.569 42.4259C20.5495 42.4353 20.532 42.4486 20.5177 42.4649C20.5034 42.4813 20.4926 42.5003 20.4859 42.521C20.4792 42.5416 20.4767 42.5634 20.4787 42.5851C20.4807 42.6067 20.487 42.6277 20.4973 42.6468C20.5076 42.6659 20.5217 42.6827 20.5387 42.6962C20.5558 42.7097 20.5753 42.7196 20.5963 42.7253L20.7488 42.7748C20.7691 42.7825 20.7908 42.786 20.8125 42.7851C20.8341 42.7842 20.8554 42.7789 20.875 42.7695C20.8946 42.7601 20.912 42.7468 20.9263 42.7305C20.9406 42.7141 20.9515 42.6951 20.9582 42.6744C20.9649 42.6537 20.9673 42.632 20.9654 42.6103C20.9634 42.5887 20.957 42.5677 20.9467 42.5486C20.9364 42.5295 20.9223 42.5127 20.9053 42.4992C20.8883 42.4857 20.8687 42.4758 20.8478 42.4701Z" fill="#056C34"/>
<path d="M21.1352 43.9624L21.0409 44.0921C21.0159 44.1266 21.0056 44.1696 21.0122 44.2116C21.0189 44.2537 21.042 44.2913 21.0765 44.3163C21.1109 44.3414 21.1539 44.3517 21.196 44.345C21.238 44.3383 21.2757 44.3152 21.3007 44.2807L21.3948 44.151C21.4072 44.1339 21.4161 44.1146 21.421 44.0941C21.4259 44.0736 21.4268 44.0524 21.4235 44.0316C21.4202 44.0108 21.4128 43.9908 21.4018 43.9728C21.3908 43.9549 21.3763 43.9393 21.3593 43.9269C21.3422 43.9145 21.3229 43.9056 21.3024 43.9007C21.2819 43.8958 21.2607 43.8949 21.2399 43.8982C21.2191 43.9015 21.1991 43.9089 21.1811 43.9199C21.1632 43.9309 21.1476 43.9453 21.1352 43.9624Z" fill="#056C34"/>
<path d="M22.6796 43.9268C22.6625 43.9392 22.648 43.9548 22.637 43.9728C22.6259 43.9908 22.6185 44.0108 22.6152 44.0317C22.6119 44.0526 22.6128 44.0739 22.6178 44.0944C22.6227 44.1149 22.6317 44.1343 22.6442 44.1513L22.7383 44.2811C22.7507 44.2981 22.7663 44.3126 22.7843 44.3236C22.8023 44.3346 22.8222 44.342 22.843 44.3453C22.8639 44.3486 22.8851 44.3478 22.9056 44.3429C22.9261 44.338 22.9455 44.3291 22.9625 44.3167C22.9796 44.3043 22.994 44.2887 23.005 44.2707C23.0161 44.2527 23.0234 44.2328 23.0267 44.212C23.0301 44.1911 23.0292 44.1699 23.0243 44.1494C23.0194 44.1289 23.0105 44.1095 22.9981 44.0925L22.9038 43.9627C22.8915 43.9456 22.8759 43.9311 22.8579 43.9201C22.84 43.909 22.82 43.9016 22.7992 43.8983C22.7783 43.8949 22.7571 43.8957 22.7365 43.9006C22.716 43.9055 22.6967 43.9144 22.6796 43.9268Z" fill="#056C34"/>
<path d="M23.2388 42.7827C23.2556 42.7827 23.2723 42.78 23.2884 42.7748L23.4409 42.7253C23.4618 42.7196 23.4814 42.7097 23.4984 42.6962C23.5154 42.6827 23.5295 42.6659 23.5398 42.6468C23.5502 42.6277 23.5565 42.6067 23.5585 42.5851C23.5604 42.5634 23.558 42.5416 23.5513 42.521C23.5446 42.5003 23.5338 42.4813 23.5195 42.4649C23.5052 42.4486 23.4877 42.4353 23.4681 42.4259C23.4485 42.4165 23.4273 42.4112 23.4056 42.4103C23.3839 42.4094 23.3622 42.4129 23.3419 42.4206L23.1894 42.4701C23.1531 42.4819 23.1222 42.5063 23.1023 42.5388C23.0823 42.5714 23.0746 42.6099 23.0806 42.6476C23.0865 42.6853 23.1057 42.7197 23.1347 42.7445C23.1637 42.7693 23.2006 42.783 23.2388 42.783V42.7827Z" fill="#056C34"/>
<path d="M100 37.6667C102.945 37.6667 105.333 40.0545 105.333 43C105.333 45.9455 102.945 48.3333 100 48.3333C97.0545 48.3333 94.6667 45.9455 94.6667 43C94.6667 40.0545 97.0545 37.6667 100 37.6667ZM100 35C95.5885 35 92 38.5885 92 43C92 47.4115 95.5885 51 100 51C104.411 51 108 47.4115 108 43C108 38.5885 104.411 35 100 35Z" fill="#056C34"/>
<path d="M100.019 38.2073C99.0677 38.2073 98.1375 38.4894 97.3463 39.0181C96.5551 39.5468 95.9384 40.2982 95.5742 41.1773C95.2101 42.0565 95.1148 43.0239 95.3005 43.9571C95.4861 44.8904 95.9443 45.7477 96.6172 46.4206C97.2901 47.0934 98.1473 47.5517 99.0806 47.7373C100.014 47.923 100.981 47.8277 101.86 47.4635C102.74 47.0994 103.491 46.4827 104.02 45.6915C104.548 44.9003 104.83 43.9701 104.83 43.0185C104.829 41.7429 104.322 40.52 103.42 39.618C102.518 38.7161 101.295 38.2087 100.019 38.2073ZM103.894 40.7524C103.77 40.8569 103.639 40.9522 103.502 41.0376C103.22 40.5419 102.836 40.1121 102.374 39.7768C101.913 39.4414 101.386 39.2083 100.828 39.093C100.867 38.936 100.917 38.7819 100.978 38.6321C101.584 38.7656 102.155 39.0229 102.657 39.3878C103.159 39.7526 103.58 40.2172 103.894 40.7524ZM100.76 39.4066C101.275 39.5124 101.761 39.727 102.186 40.0361C102.611 40.3451 102.965 40.7415 103.225 41.1986C102.867 41.3869 102.494 41.5429 102.109 41.6646C101.866 41.7431 101.654 41.809 101.469 41.8625C101.441 41.8702 101.411 41.8699 101.382 41.8617C101.354 41.8534 101.329 41.8375 101.309 41.8157C101.154 41.6494 100.969 41.5147 100.764 41.4189C100.737 41.4069 100.714 41.3875 100.697 41.363C100.681 41.3385 100.671 41.3099 100.67 41.2804C100.664 41.0887 100.661 40.8674 100.661 40.6129C100.658 40.2086 100.691 39.8049 100.76 39.4066ZM100.656 38.5739C100.427 39.2285 100.32 39.9196 100.34 40.6129C100.34 40.8711 100.343 41.0955 100.349 41.2897C100.352 41.3786 100.379 41.4651 100.428 41.5393C100.477 41.6135 100.546 41.6724 100.627 41.7095C100.795 41.7879 100.947 41.8981 101.073 42.0341C101.118 42.083 101.173 42.122 101.233 42.1487C101.294 42.1755 101.36 42.1894 101.426 42.1895C101.471 42.1896 101.516 42.183 101.56 42.1701C101.747 42.1154 101.961 42.0495 102.208 41.9698C102.874 41.7754 103.498 41.4601 104.049 41.0397C104.238 41.4221 104.37 41.8296 104.443 42.2497C103.749 42.2338 103.059 42.3458 102.406 42.5801C102.179 42.6533 101.964 42.727 101.765 42.7985C101.681 42.8286 101.607 42.8815 101.552 42.9513C101.497 43.021 101.463 43.1048 101.453 43.1932C101.43 43.3772 101.373 43.5551 101.282 43.7169C101.238 43.7944 101.217 43.8826 101.22 43.9716C101.223 44.0606 101.251 44.147 101.301 44.2208C101.421 44.3984 101.553 44.5851 101.692 44.7754C102.082 45.3481 102.575 45.8439 103.145 46.2382C102.839 46.535 102.493 46.787 102.117 46.9868C101.919 46.3227 101.599 45.7011 101.174 45.1536C101.03 44.9538 100.892 44.7709 100.767 44.6101C100.712 44.54 100.639 44.4866 100.556 44.4557C100.473 44.4249 100.382 44.4178 100.295 44.4354C100.113 44.4706 99.9256 44.4706 99.7432 44.4354C99.6562 44.4178 99.5659 44.4248 99.4826 44.4556C99.3993 44.4865 99.3263 44.54 99.2717 44.6101C99.1468 44.7704 99.0099 44.9538 98.865 45.1536C98.4398 45.7012 98.1199 46.323 97.9216 46.9873C97.5455 46.7875 97.1995 46.5354 96.894 46.2387C97.4637 45.8446 97.9559 45.3489 98.3459 44.7764C98.4856 44.5855 98.6173 44.3989 98.7374 44.2215C98.7872 44.1476 98.8154 44.0613 98.8188 43.9723C98.8222 43.8833 98.8006 43.795 98.7566 43.7176C98.6662 43.5558 98.6083 43.3778 98.5861 43.1938C98.5762 43.1054 98.5416 43.0216 98.4865 42.9518C98.4313 42.882 98.3577 42.8291 98.2741 42.799C98.075 42.7274 97.8592 42.6538 97.6326 42.5805C96.9797 42.3463 96.2892 42.2343 95.5958 42.2502C95.6683 41.8301 95.8008 41.4226 95.9892 41.0401C96.5407 41.4606 97.1649 41.7759 97.8306 41.9703C98.0773 42.0505 98.2917 42.1159 98.4789 42.1706C98.5223 42.1835 98.5673 42.19 98.6126 42.19C98.679 42.1898 98.7445 42.1759 98.8053 42.1492C98.866 42.1225 98.9205 42.0834 98.9654 42.0346C99.0918 41.8985 99.2433 41.7883 99.4116 41.7099C99.4924 41.6728 99.5613 41.6139 99.6104 41.5397C99.6596 41.4656 99.687 41.3792 99.6897 41.2903C99.6951 41.0955 99.6985 40.8711 99.6985 40.6129C99.7189 39.9196 99.6118 39.2285 99.3826 38.5739C99.8048 38.5127 100.234 38.5127 100.656 38.5739ZM103.708 43.0185C103.708 43.9394 103.363 44.8268 102.739 45.5043C102.45 45.2228 102.186 44.9161 101.951 44.5876C101.814 44.4001 101.685 44.2167 101.566 44.0423C101.55 44.0176 101.541 43.9888 101.54 43.9591C101.539 43.9295 101.547 43.9002 101.562 43.8746C101.673 43.6764 101.743 43.4585 101.77 43.2331C101.773 43.2038 101.785 43.176 101.803 43.1529C101.821 43.1297 101.845 43.112 101.873 43.1019C102.068 43.0315 102.281 42.959 102.505 42.8865C102.888 42.7586 103.281 42.6654 103.681 42.608C103.698 42.7442 103.707 42.8813 103.708 43.0185ZM101.543 46.3758C101.065 46.5941 100.545 46.7071 100.019 46.7071C99.4935 46.7071 98.9739 46.5941 98.4957 46.3758C98.6738 46.013 98.8842 45.6669 99.1244 45.3419C99.2673 45.1451 99.402 44.965 99.5253 44.8067C99.5438 44.7838 99.5683 44.7665 99.596 44.7566C99.6237 44.7467 99.6536 44.7446 99.6825 44.7506C99.905 44.7933 100.134 44.7933 100.356 44.7506C100.385 44.7446 100.415 44.7467 100.443 44.7567C100.47 44.7666 100.495 44.7841 100.513 44.807C100.636 44.9653 100.771 45.1454 100.914 45.3423C101.154 45.6672 101.365 46.0131 101.543 46.3758ZM96.3569 42.6068C96.7567 42.6643 97.1504 42.7575 97.5334 42.8856C97.757 42.9579 97.9695 43.0299 98.1652 43.1008C98.1928 43.1109 98.2171 43.1286 98.2351 43.1518C98.2532 43.175 98.2644 43.2029 98.2675 43.2321C98.2945 43.4575 98.3653 43.6754 98.476 43.8736C98.4909 43.8993 98.4983 43.9285 98.4975 43.9582C98.4967 43.9878 98.4876 44.0166 98.4713 44.0414C98.3533 44.2157 98.224 44.3992 98.0864 44.5867C97.8521 44.9154 97.5888 45.2225 97.2996 45.5043C96.9407 45.1193 96.6704 44.6604 96.5076 44.1599C96.3447 43.6594 96.2933 43.1293 96.3569 42.6068ZM99.3778 40.6129C99.3778 40.8674 99.3744 41.0887 99.3688 41.2805C99.3677 41.31 99.3584 41.3386 99.342 41.363C99.3255 41.3874 99.3025 41.4068 99.2756 41.4188C99.0699 41.5146 98.8847 41.6494 98.7303 41.8157C98.7105 41.8375 98.685 41.8534 98.6567 41.8617C98.6284 41.8699 98.5984 41.8702 98.5699 41.8625C98.385 41.8083 98.1732 41.7431 97.93 41.6648C97.5451 41.543 97.1718 41.387 96.8146 41.1986C97.0739 40.7416 97.4278 40.3453 97.8527 40.0362C98.2776 39.7271 98.7637 39.5125 99.2783 39.4066C99.3476 39.8049 99.3808 40.2086 99.3778 40.6129ZM99.0607 38.6321C99.1218 38.7819 99.1719 38.936 99.2108 39.093C98.6524 39.2083 98.1251 39.4414 97.664 39.7768C97.2029 40.1121 96.8186 40.5419 96.5369 41.0376C96.3995 40.9522 96.2685 40.8569 96.1449 40.7524C96.4587 40.2172 96.8796 39.7526 97.3814 39.3878C97.8831 39.0229 98.4548 38.7656 99.0607 38.6321ZM95.5509 42.5744C95.7131 42.5625 95.8759 42.5625 96.0381 42.5744C96.0203 42.7218 96.0109 42.8701 96.0099 43.0185C96.0081 44.0185 96.3821 44.9826 97.0578 45.7199C96.9347 45.8235 96.8043 45.9179 96.6674 46.0024C95.9335 45.1819 95.528 44.1194 95.5288 43.0185C95.5288 42.8686 95.5365 42.7205 95.5509 42.5744ZM98.2163 47.1299C98.2553 46.9729 98.3054 46.819 98.3663 46.6691C98.8853 46.9055 99.4489 47.0279 100.019 47.0279C100.59 47.0279 101.153 46.9055 101.672 46.6691C101.733 46.819 101.783 46.9729 101.822 47.1299C101.254 47.3799 100.64 47.509 100.019 47.509C99.3985 47.509 98.7845 47.3799 98.2163 47.1299ZM103.371 46.0024C103.234 45.9179 103.104 45.8235 102.981 45.7199C103.656 44.9826 104.03 44.0185 104.029 43.0185C104.028 42.87 104.018 42.7216 104 42.5741C104.163 42.5622 104.325 42.5622 104.488 42.5741C104.502 42.7202 104.51 42.8682 104.51 43.0182C104.511 44.1192 104.105 45.1818 103.371 46.0024Z" fill="#056C34"/>
<path d="M99.2178 43.0184C99.2178 43.177 99.2648 43.3321 99.3529 43.4639C99.441 43.5958 99.5663 43.6986 99.7128 43.7593C99.8593 43.82 100.021 43.8358 100.176 43.8049C100.332 43.774 100.475 43.6976 100.587 43.5854C100.699 43.4733 100.775 43.3304 100.806 43.1749C100.837 43.0193 100.821 42.8581 100.76 42.7116C100.7 42.565 100.597 42.4398 100.465 42.3517C100.333 42.2636 100.178 42.2166 100.02 42.2166C99.8071 42.2168 99.6032 42.3014 99.4529 42.4517C99.3026 42.602 99.218 42.8058 99.2178 43.0184ZM100.501 43.0184C100.501 43.1136 100.473 43.2066 100.42 43.2857C100.367 43.3648 100.292 43.4265 100.204 43.4629C100.116 43.4993 100.019 43.5089 99.9258 43.4903C99.8325 43.4717 99.7467 43.4259 99.6794 43.3586C99.6122 43.2913 99.5663 43.2056 99.5478 43.1123C99.5292 43.019 99.5387 42.9222 99.5751 42.8343C99.6116 42.7464 99.6732 42.6713 99.7523 42.6184C99.8315 42.5655 99.9245 42.5373 100.02 42.5373C100.147 42.5373 100.27 42.588 100.36 42.6782C100.45 42.7684 100.501 42.8908 100.501 43.0184Z" fill="#056C34"/>
<path d="M100.019 41.8967C100.061 41.8967 100.102 41.8798 100.132 41.8497C100.162 41.8196 100.179 41.7788 100.179 41.7363V41.5759C100.179 41.5334 100.162 41.4926 100.132 41.4625C100.102 41.4324 100.061 41.4155 100.019 41.4155C99.9762 41.4155 99.9354 41.4324 99.9054 41.4625C99.8753 41.4926 99.8584 41.5334 99.8584 41.5759V41.7363C99.8584 41.7788 99.8753 41.8196 99.9054 41.8497C99.9354 41.8798 99.9762 41.8967 100.019 41.8967Z" fill="#056C34"/>
<path d="M98.8478 42.4701L98.6952 42.4206C98.6749 42.4129 98.6533 42.4094 98.6316 42.4103C98.6099 42.4112 98.5886 42.4165 98.569 42.4259C98.5495 42.4353 98.532 42.4486 98.5177 42.4649C98.5034 42.4813 98.4926 42.5003 98.4859 42.521C98.4792 42.5416 98.4767 42.5634 98.4787 42.5851C98.4807 42.6067 98.487 42.6277 98.4973 42.6468C98.5076 42.6659 98.5217 42.6827 98.5387 42.6962C98.5558 42.7097 98.5753 42.7196 98.5963 42.7253L98.7488 42.7748C98.7691 42.7825 98.7908 42.786 98.8125 42.7851C98.8341 42.7842 98.8554 42.7789 98.875 42.7695C98.8946 42.7601 98.912 42.7468 98.9263 42.7305C98.9406 42.7141 98.9515 42.6951 98.9582 42.6744C98.9649 42.6537 98.9673 42.632 98.9654 42.6103C98.9634 42.5887 98.957 42.5677 98.9467 42.5486C98.9364 42.5295 98.9223 42.5127 98.9053 42.4992C98.8883 42.4857 98.8687 42.4758 98.8478 42.4701Z" fill="#056C34"/>
<path d="M99.1352 43.9624L99.0409 44.0921C99.0159 44.1266 99.0056 44.1696 99.0122 44.2116C99.0189 44.2537 99.042 44.2913 99.0765 44.3163C99.1109 44.3414 99.1539 44.3517 99.196 44.345C99.238 44.3383 99.2757 44.3152 99.3007 44.2807L99.3948 44.151C99.4072 44.1339 99.4161 44.1146 99.421 44.0941C99.4259 44.0736 99.4268 44.0524 99.4235 44.0316C99.4202 44.0108 99.4128 43.9908 99.4018 43.9728C99.3908 43.9549 99.3763 43.9393 99.3593 43.9269C99.3422 43.9145 99.3229 43.9056 99.3024 43.9007C99.2819 43.8958 99.2607 43.8949 99.2399 43.8982C99.2191 43.9015 99.1991 43.9089 99.1811 43.9199C99.1632 43.9309 99.1476 43.9453 99.1352 43.9624Z" fill="#056C34"/>
<path d="M100.68 43.9268C100.663 43.9392 100.648 43.9548 100.637 43.9728C100.626 43.9908 100.619 44.0108 100.615 44.0317C100.612 44.0526 100.613 44.0739 100.618 44.0944C100.623 44.1149 100.632 44.1343 100.644 44.1513L100.738 44.2811C100.751 44.2981 100.766 44.3126 100.784 44.3236C100.802 44.3346 100.822 44.342 100.843 44.3453C100.864 44.3486 100.885 44.3478 100.906 44.3429C100.926 44.338 100.945 44.3291 100.963 44.3167C100.98 44.3043 100.994 44.2887 101.005 44.2707C101.016 44.2527 101.023 44.2328 101.027 44.212C101.03 44.1911 101.029 44.1699 101.024 44.1494C101.019 44.1289 101.01 44.1095 100.998 44.0925L100.904 43.9627C100.891 43.9456 100.876 43.9311 100.858 43.9201C100.84 43.909 100.82 43.9016 100.799 43.8983C100.778 43.8949 100.757 43.8957 100.737 43.9006C100.716 43.9055 100.697 43.9144 100.68 43.9268Z" fill="#056C34"/>
<path d="M101.239 42.7827C101.256 42.7827 101.272 42.78 101.288 42.7748L101.441 42.7253C101.462 42.7196 101.481 42.7097 101.498 42.6962C101.515 42.6827 101.53 42.6659 101.54 42.6468C101.55 42.6277 101.557 42.6067 101.558 42.5851C101.56 42.5634 101.558 42.5416 101.551 42.521C101.545 42.5003 101.534 42.4813 101.519 42.4649C101.505 42.4486 101.488 42.4353 101.468 42.4259C101.449 42.4165 101.427 42.4112 101.406 42.4103C101.384 42.4094 101.362 42.4129 101.342 42.4206L101.189 42.4701C101.153 42.4819 101.122 42.5063 101.102 42.5388C101.082 42.5714 101.075 42.6099 101.081 42.6476C101.087 42.6853 101.106 42.7197 101.135 42.7445C101.164 42.7693 101.201 42.783 101.239 42.783V42.7827Z" fill="#056C34"/>
<path d="M10.7778 25.1552C6.45679 28.0259 4.04034 33.2807 3.26972 35.1836C3.09358 35.6269 3 36.0919 3 36.573V41.298C3.52843 45.4499 12.1649 45.1201 12.864 45.0823C12.6218 44.266 12.4952 43.401 12.4952 42.5144C12.4952 37.292 16.8107 33.0536 22.1279 33.0536C27.4452 33.0536 31.7607 37.292 31.7607 42.5144C31.7607 43.3415 31.6506 44.1416 31.447 44.9093C31.5405 44.9093 31.6121 44.9093 31.6121 44.9093L71.8056 44.5417C71.8056 44.5417 80.365 44.4119 90.0583 44.2227C89.9537 43.6713 89.8987 43.0982 89.8987 42.5144C89.8987 37.292 94.2142 33.0536 99.5315 33.0536C104.849 33.0536 109.164 37.292 109.164 42.5144C109.164 42.9361 109.137 43.3469 109.082 43.7578C112.032 43.6605 114.421 43.5632 115.836 43.4605C123.542 42.9198 122.991 40.9574 122.991 40.9574V34.8106L122.441 33.7294C120.79 18.0516 117.487 13.7266 117.487 13.7266C115.836 9.94232 111.553 7.23925 111.553 7.23925C111.548 7.23925 111.537 7.23925 111.531 7.23925C109.852 7.22303 108.173 7.20681 106.495 7.196C102.641 7.16356 98.7829 7.13653 94.9297 7.1095C89.9757 7.07706 85.0272 7.05003 80.0732 7.02841C75.1192 7.00678 70.1322 6.99597 65.1617 7.00138C60.4719 7.00678 55.7766 7.00138 51.0868 7.13113C44.3769 7.32034 38.9991 11.056 33.5552 14.4619C30.0874 16.6297 26.6746 18.9003 23.3609 21.2952L11.8016 24.5389C11.4438 24.7281 11.1025 24.939 10.7668 25.1606L10.7778 25.1552Z" stroke="#056C34" stroke-miterlimit="10"/>
<path d="M31.0672 21.9277C30.7755 21.5817 30.836 21.0627 31.1993 20.7924L34.9258 18.0461C34.9258 18.0461 43.7329 11.5587 46.4852 11.0181C48.6209 10.5964 53.085 10.1801 54.973 10.0125C55.4409 9.96929 55.8427 10.3315 55.8427 10.7964V22.7062C55.8427 23.1279 55.5069 23.4739 55.0831 23.4901L33.6763 24.5172C33.4231 24.5281 33.1809 24.4253 33.0213 24.2361L31.0672 21.9277Z" fill="#056C34"/>
<path d="M108.36 21.2151L59.9042 22.7135C59.1571 22.7391 58.5286 22.2311 58.4989 21.5846L58.0009 10.8293C57.9772 10.3418 58.4397 9.93646 59.0029 9.94672L106.551 10.9371C106.942 10.9473 107.31 11.1115 107.547 11.3835L111.644 16.1146C112.148 16.6944 112.113 17.5052 111.561 18.0491L108.36 21.2151Z" fill="#056C34"/>
<path opacity="0.22" d="M122.27 39.5247C122.21 39.5626 122.138 39.5842 122.055 39.595C121.098 39.6923 110.502 40.7844 110.491 40.7141C109.957 36.8703 107.155 33.4861 103.494 32.0697C99.6248 30.5722 95.0617 31.3831 91.9186 34.0375C89.4747 36.1026 88.049 39.2112 88.049 42.3738C88.049 42.5252 88.0545 42.6711 88.06 42.8171C87.383 42.882 87.0087 42.9144 87.0087 42.9144C81.0914 43.0063 75.1741 43.0928 69.2568 43.1847C59.6406 43.3307 50.0518 43.428 40.4355 43.2171V42.9144C40.4355 42.3576 41.4649 41.844 41.8337 41.5466C42.5768 40.952 43.2593 40.3357 44.0685 39.8275C45.7088 38.7895 47.5308 38.0435 49.4078 37.5245C54.3068 36.1729 59.8662 35.9405 64.9358 35.9729C69.8898 36.0053 74.7833 35.3133 79.6988 34.8214C81.9721 34.5943 84.2729 34.3997 86.3701 33.459C88.8086 32.3616 91.2691 31.302 93.7296 30.2478C94.869 29.7612 96.0139 29.2801 97.1919 28.88C98.3698 28.48 99.4762 28.2475 100.709 28.0853C103.577 27.7015 106.472 27.5771 109.335 27.3068C110.386 27.2041 111.498 27.1447 112.571 27.0365C113.122 26.9825 113.672 26.9122 114.217 26.8203C114.883 26.7068 115.511 26.4527 116.067 26.9825C116.358 27.2582 116.474 27.588 116.634 27.934C116.837 28.3664 117.101 28.7827 117.344 29.1936C117.817 30.0207 118.307 30.8425 118.802 31.6534C119.413 32.6535 120.057 33.632 120.696 34.616C121.021 35.1187 121.351 35.6161 121.67 36.1243C121.94 36.5514 122.265 36.946 122.347 37.4542C122.424 37.9245 122.782 39.2112 122.27 39.5356V39.5247Z" fill="url(#paint0_linear_2747_181)"/>
<line x1="61" y1="28.5" x2="65" y2="28.5" stroke="#056C34"/>
<line x1="61" y1="28.5" x2="65" y2="28.5" stroke="#056C34"/>
<path d="M119.227 27.8342L118.283 21.6983L120.298 21.2953L121.667 29.0542L119.227 27.8342Z" fill="#B0190C" stroke="#056C34" stroke-width="0.5"/>
<defs>
<linearGradient id="paint0_linear_2747_181" x1="81.4881" y1="26.6589" x2="81.4881" y2="43.339" gradientUnits="userSpaceOnUse">
<stop stop-color="#046C34"/>
<stop offset="1" stop-opacity="0"/>
</linearGradient>
</defs>
</svg>
