<svg width="125" height="55" viewBox="0 0 125 55" fill="none" xmlns="http://www.w3.org/2000/svg">
<g clip-path="url(#clip0_2747_149)">
<line x1="85" y1="23.5" x2="89" y2="23.5" stroke="#056C34"/>
<path d="M24.5 34.1667C27.9978 34.1667 30.8333 37.0022 30.8333 40.5C30.8333 43.9978 27.9978 46.8333 24.5 46.8333C21.0022 46.8333 18.1667 43.9978 18.1667 40.5C18.1667 37.0022 21.0022 34.1667 24.5 34.1667ZM24.5 31C19.2614 31 15 35.2614 15 40.5C15 45.7386 19.2614 50 24.5 50C29.7386 50 34 45.7386 34 40.5C34 35.2614 29.7386 31 24.5 31Z" fill="#056C34"/>
<path d="M24.5229 34.8088C23.3929 34.8088 22.2883 35.1439 21.3488 35.7717C20.4092 36.3995 19.6769 37.2918 19.2445 38.3358C18.812 39.3798 18.6989 40.5285 18.9194 41.6368C19.1398 42.7451 19.6839 43.7631 20.483 44.5621C21.282 45.3612 22.3 45.9053 23.4083 46.1258C24.5166 46.3462 25.6653 46.2331 26.7093 45.8006C27.7533 45.3682 28.6456 44.6359 29.2734 43.6964C29.9012 42.7568 30.2363 41.6522 30.2363 40.5222C30.2346 39.0074 29.6321 37.5552 28.561 36.4841C27.4899 35.413 26.0377 34.8106 24.5229 34.8088ZM29.1237 37.8312C28.977 37.9553 28.8215 38.0685 28.6582 38.1698C28.3236 37.5812 27.8673 37.0708 27.3198 36.6726C26.7722 36.2744 26.146 35.9976 25.483 35.8607C25.5291 35.6742 25.5887 35.4912 25.6612 35.3133C26.3807 35.4719 27.0596 35.7774 27.6554 36.2107C28.2512 36.6439 28.7511 37.1957 29.1237 37.8312ZM25.4028 36.233C26.014 36.3586 26.5914 36.6135 27.0961 36.9805C27.6008 37.3476 28.0212 37.8182 28.3292 38.361C27.9052 38.5847 27.462 38.7699 27.005 38.9145C26.7159 39.0076 26.4643 39.0859 26.2447 39.1495C26.2109 39.1586 26.1753 39.1582 26.1417 39.1484C26.1081 39.1386 26.0779 39.1197 26.0543 39.0938C25.871 38.8964 25.6511 38.7364 25.4068 38.6227C25.3748 38.6084 25.3474 38.5854 25.3278 38.5563C25.3082 38.5272 25.2972 38.4932 25.2959 38.4581C25.2887 38.2306 25.2847 37.9677 25.2847 37.6655C25.281 37.1854 25.3206 36.706 25.4028 36.233ZM25.279 35.2442C25.0067 36.0215 24.8796 36.8422 24.9038 37.6655C24.9038 37.9721 24.9078 38.2386 24.9145 38.4692C24.9176 38.5748 24.9502 38.6775 25.0086 38.7656C25.067 38.8537 25.1488 38.9237 25.2449 38.9678C25.4447 39.0608 25.6246 39.1917 25.7745 39.3532C25.8279 39.4112 25.8926 39.4576 25.9647 39.4893C26.0368 39.5211 26.1147 39.5376 26.1935 39.5378C26.2473 39.5378 26.3008 39.53 26.3523 39.5147C26.5746 39.4498 26.8284 39.3715 27.1225 39.2769C27.9129 39.0459 28.654 38.6715 29.3088 38.1723C29.5325 38.6264 29.6898 39.1103 29.776 39.6092C28.9525 39.5903 28.1326 39.7233 27.3573 40.0015C27.0882 40.0885 26.8319 40.176 26.5955 40.2609C26.4962 40.2967 26.4088 40.3595 26.3433 40.4423C26.2778 40.5252 26.2368 40.6247 26.2249 40.7296C26.1986 40.9481 26.1299 41.1594 26.0227 41.3516C25.9703 41.4435 25.9447 41.5483 25.9487 41.654C25.9527 41.7597 25.9862 41.8622 26.0453 41.95C26.188 42.1608 26.3443 42.3825 26.5096 42.6085C26.973 43.2885 27.5576 43.8774 28.2343 44.3456C27.8716 44.698 27.4608 44.9973 27.0141 45.2346C26.7786 44.4459 26.3988 43.7078 25.8941 43.0576C25.7227 42.8203 25.5593 42.6032 25.4108 42.4122C25.346 42.329 25.2592 42.2655 25.1603 42.2288C25.0614 42.1922 24.9542 42.1839 24.8509 42.2048C24.6343 42.2465 24.4117 42.2465 24.1952 42.2048C24.0918 42.1838 23.9846 42.1921 23.8857 42.2288C23.7868 42.2654 23.7 42.3289 23.6353 42.4122C23.4869 42.6026 23.3243 42.8203 23.1523 43.0576C22.6474 43.7079 22.2675 44.4462 22.0319 45.2351C21.5853 44.9978 21.1745 44.6985 20.8117 44.3461C21.4882 43.8781 22.0727 43.2895 22.5358 42.6097C22.7017 42.383 22.8581 42.1613 23.0007 41.9507C23.0598 41.863 23.0933 41.7605 23.0973 41.6548C23.1014 41.5491 23.0758 41.4443 23.0235 41.3523C22.9162 41.1602 22.8475 40.9489 22.8211 40.7303C22.8093 40.6254 22.7683 40.5258 22.7028 40.443C22.6373 40.3601 22.5499 40.2972 22.4505 40.2615C22.2142 40.1765 21.9578 40.0891 21.6887 40.0021C20.9134 39.724 20.0935 39.591 19.2701 39.6098C19.3562 39.1109 19.5135 38.627 19.7372 38.1729C20.3922 38.6721 21.1334 39.0466 21.9239 39.2774C22.2168 39.3727 22.4714 39.4504 22.6937 39.5153C22.7453 39.5306 22.7988 39.5384 22.8525 39.5383C22.9313 39.5381 23.0092 39.5216 23.0813 39.4899C23.1534 39.4581 23.2182 39.4118 23.2715 39.3538C23.4215 39.1922 23.6015 39.0613 23.8013 38.9682C23.8973 38.9241 23.9791 38.8542 24.0375 38.7661C24.0958 38.6781 24.1284 38.5755 24.1316 38.47C24.138 38.2386 24.142 37.9721 24.142 37.6655C24.1663 36.8422 24.0391 36.0215 23.7669 35.2442C24.2683 35.1716 24.7776 35.1716 25.279 35.2442ZM28.9032 40.5222C28.9038 41.6157 28.493 42.6695 27.7525 43.4741C27.4089 43.1398 27.0959 42.7755 26.8172 42.3855C26.6542 42.1629 26.5007 41.945 26.3601 41.738C26.3408 41.7086 26.33 41.6743 26.3291 41.6391C26.3281 41.6039 26.337 41.5692 26.3548 41.5388C26.4862 41.3034 26.5703 41.0446 26.6024 40.777C26.606 40.7423 26.6194 40.7093 26.6408 40.6817C26.6623 40.6542 26.6911 40.6332 26.7239 40.6212C26.9562 40.5376 27.2086 40.4515 27.4742 40.3655C27.9291 40.2136 28.3967 40.1029 28.8714 40.0346C28.8911 40.1964 28.9017 40.3592 28.9032 40.5222ZM26.3321 44.509C25.7642 44.7682 25.1472 44.9024 24.5229 44.9024C23.8986 44.9024 23.2816 44.7682 22.7137 44.509C22.9252 44.0781 23.175 43.6672 23.4602 43.2812C23.6299 43.0475 23.7899 42.8336 23.9364 42.6456C23.9583 42.6185 23.9874 42.5979 24.0203 42.5861C24.0532 42.5744 24.0888 42.5719 24.123 42.579C24.3872 42.6298 24.6587 42.6298 24.9229 42.579C24.9572 42.5719 24.9927 42.5744 25.0257 42.5862C25.0587 42.5981 25.0877 42.6188 25.1097 42.646C25.2558 42.834 25.4157 43.0479 25.5858 43.2817C25.871 43.6675 26.1208 44.0782 26.3321 44.509ZM20.1739 40.0333C20.6486 40.1015 21.1162 40.2123 21.571 40.3643C21.8365 40.4502 22.0888 40.5357 22.3212 40.6199C22.354 40.6319 22.3828 40.6529 22.4043 40.6805C22.4258 40.708 22.4391 40.7411 22.4427 40.7759C22.4748 41.0435 22.5589 41.3023 22.6903 41.5376C22.708 41.5681 22.7168 41.6028 22.7158 41.638C22.7149 41.6732 22.7041 41.7074 22.6847 41.7368C22.5446 41.9439 22.3911 42.1617 22.2277 42.3844C21.9494 42.7748 21.6367 43.1395 21.2934 43.4741C20.8672 43.0169 20.5462 42.472 20.3528 41.8776C20.1594 41.2832 20.0984 40.6538 20.1739 40.0333ZM23.7611 37.6655C23.7611 37.9677 23.7571 38.2306 23.7505 38.4583C23.7492 38.4933 23.7382 38.5272 23.7187 38.5563C23.6991 38.5853 23.6718 38.6082 23.6398 38.6225C23.3955 38.7363 23.1756 38.8963 22.9923 39.0938C22.9687 39.1197 22.9385 39.1386 22.9049 39.1484C22.8713 39.1582 22.8357 39.1586 22.8019 39.1495C22.5823 39.0851 22.3307 39.0076 22.042 38.9146C21.5848 38.77 21.1415 38.5848 20.7175 38.361C21.0253 37.8183 21.4456 37.3477 21.9502 36.9807C22.4547 36.6137 23.0319 36.3587 23.6431 36.233C23.7253 36.706 23.7648 37.1854 23.7611 37.6655ZM23.3846 35.3133C23.4572 35.4912 23.5167 35.6742 23.5629 35.8607C22.8998 35.9976 22.2736 36.2744 21.7261 36.6726C21.1785 37.0708 20.7222 37.5812 20.3876 38.1698C20.2244 38.0684 20.0689 37.9552 19.9222 37.8312C20.2947 37.1957 20.7946 36.6439 21.3904 36.2107C21.9863 35.7774 22.6652 35.4719 23.3846 35.3133ZM19.2167 39.9948C19.4093 39.9807 19.6027 39.9807 19.7953 39.9948C19.7742 40.1699 19.763 40.3459 19.7618 40.5222C19.7597 41.7097 20.2039 42.8546 21.0062 43.73C20.86 43.8531 20.7051 43.9652 20.5426 44.0656C19.671 43.0912 19.1896 41.8295 19.1905 40.5222C19.1905 40.3441 19.1996 40.1683 19.2167 39.9948ZM22.3819 45.4044C22.4283 45.2181 22.4878 45.0352 22.56 44.8573C23.1763 45.138 23.8457 45.2833 24.5229 45.2833C25.2002 45.2833 25.8695 45.138 26.4858 44.8573C26.5581 45.0352 26.6176 45.2181 26.6639 45.4044C25.9892 45.7013 25.2601 45.8546 24.5229 45.8546C23.7858 45.8546 23.0567 45.7013 22.3819 45.4044ZM28.5032 44.0656C28.3407 43.9652 28.1858 43.8531 28.0397 43.73C28.842 42.8546 29.2861 41.7097 29.284 40.5222C29.2829 40.3458 29.2717 40.1696 29.2505 39.9945C29.4431 39.9803 29.6365 39.9803 29.8291 39.9945C29.8462 40.168 29.8554 40.3437 29.8554 40.5218C29.8564 41.8293 29.3749 43.0911 28.5032 44.0656Z" fill="#056C34"/>
<path d="M23.5713 40.5218C23.5713 40.7101 23.6271 40.8942 23.7318 41.0508C23.8364 41.2074 23.9851 41.3295 24.1591 41.4015C24.3331 41.4736 24.5246 41.4925 24.7093 41.4557C24.894 41.419 25.0637 41.3283 25.1968 41.1951C25.33 41.062 25.4207 40.8923 25.4574 40.7076C25.4942 40.5229 25.4753 40.3314 25.4033 40.1574C25.3312 39.9834 25.2091 39.8347 25.0525 39.7301C24.8959 39.6254 24.7118 39.5696 24.5235 39.5696C24.2711 39.5699 24.029 39.6703 23.8505 39.8488C23.672 40.0273 23.5716 40.2694 23.5713 40.5218ZM25.0948 40.5218C25.0948 40.6348 25.0613 40.7453 24.9986 40.8392C24.9358 40.9332 24.8466 41.0064 24.7422 41.0496C24.6378 41.0929 24.5229 41.1042 24.4121 41.0822C24.3012 41.0601 24.1994 41.0057 24.1195 40.9258C24.0396 40.8459 23.9852 40.7441 23.9632 40.6333C23.9411 40.5224 23.9524 40.4076 23.9957 40.3032C24.0389 40.1988 24.1121 40.1095 24.2061 40.0468C24.3001 39.984 24.4105 39.9505 24.5235 39.9505C24.675 39.9505 24.8204 40.0107 24.9275 40.1178C25.0347 40.225 25.0948 40.3703 25.0948 40.5218Z" fill="#056C34"/>
<path d="M24.522 39.1897C24.5725 39.1897 24.6209 39.1697 24.6567 39.134C24.6924 39.0982 24.7124 39.0498 24.7124 38.9993V38.8089C24.7124 38.7583 24.6924 38.7099 24.6567 38.6742C24.6209 38.6385 24.5725 38.6184 24.522 38.6184C24.4715 38.6184 24.423 38.6385 24.3873 38.6742C24.3516 38.7099 24.3315 38.7583 24.3315 38.8089V38.9993C24.3315 39.0498 24.3516 39.0982 24.3873 39.134C24.423 39.1697 24.4715 39.1897 24.522 39.1897Z" fill="#056C34"/>
<path d="M23.1319 39.8705L22.9508 39.8117C22.9267 39.8025 22.901 39.7984 22.8752 39.7995C22.8495 39.8006 22.8242 39.8069 22.8009 39.8181C22.7777 39.8292 22.757 39.845 22.74 39.8644C22.723 39.8838 22.7101 39.9064 22.7022 39.9309C22.6942 39.9555 22.6913 39.9813 22.6937 40.007C22.696 40.0327 22.7035 40.0576 22.7158 40.0803C22.728 40.103 22.7448 40.123 22.765 40.139C22.7852 40.155 22.8084 40.1668 22.8333 40.1735L23.0144 40.2324C23.0385 40.2415 23.0642 40.2457 23.09 40.2446C23.1158 40.2435 23.141 40.2371 23.1643 40.226C23.1875 40.2148 23.2083 40.1991 23.2252 40.1797C23.2422 40.1603 23.2551 40.1376 23.263 40.1131C23.271 40.0886 23.2739 40.0627 23.2716 40.037C23.2692 40.0113 23.2617 39.9864 23.2494 39.9637C23.2372 39.941 23.2204 39.9211 23.2002 39.9051C23.18 39.889 23.1568 39.8773 23.1319 39.8705Z" fill="#056C34"/>
<path d="M23.4735 41.6428L23.3616 41.7968C23.3319 41.8378 23.3196 41.8888 23.3276 41.9387C23.3355 41.9886 23.3629 42.0334 23.4038 42.0631C23.4447 42.0928 23.4958 42.105 23.5457 42.0971C23.5956 42.0892 23.6404 42.0617 23.6701 42.0208L23.7819 41.8667C23.7966 41.8465 23.8071 41.8235 23.813 41.7992C23.8188 41.7749 23.8198 41.7496 23.8159 41.7249C23.812 41.7002 23.8032 41.6765 23.7902 41.6552C23.7771 41.6338 23.7599 41.6153 23.7397 41.6006C23.7194 41.5859 23.6965 41.5753 23.6722 41.5695C23.6478 41.5636 23.6226 41.5626 23.5979 41.5666C23.5732 41.5705 23.5495 41.5792 23.5281 41.5923C23.5068 41.6054 23.4882 41.6225 23.4735 41.6428Z" fill="#056C34"/>
<path d="M25.3068 41.6005C25.2865 41.6152 25.2693 41.6338 25.2562 41.6552C25.243 41.6765 25.2343 41.7003 25.2304 41.7251C25.2264 41.7498 25.2275 41.7752 25.2334 41.7995C25.2393 41.8239 25.2499 41.8469 25.2647 41.8671L25.3765 42.0212C25.3912 42.0415 25.4098 42.0586 25.4311 42.0717C25.4524 42.0848 25.4761 42.0936 25.5009 42.0975C25.5256 42.1014 25.5508 42.1004 25.5752 42.0946C25.5995 42.0888 25.6225 42.0782 25.6427 42.0635C25.663 42.0488 25.6802 42.0302 25.6932 42.0089C25.7063 41.9875 25.7151 41.9638 25.719 41.9391C25.7229 41.9144 25.722 41.8891 25.7161 41.8648C25.7103 41.8405 25.6997 41.8175 25.685 41.7972L25.573 41.6432C25.5584 41.6229 25.5398 41.6056 25.5185 41.5925C25.4972 41.5794 25.4735 41.5706 25.4488 41.5666C25.424 41.5626 25.3988 41.5636 25.3744 41.5694C25.35 41.5752 25.3271 41.5858 25.3068 41.6005Z" fill="#056C34"/>
<path d="M25.971 40.2419C25.991 40.2419 26.0108 40.2388 26.0298 40.2326L26.2109 40.1738C26.2358 40.167 26.2591 40.1552 26.2793 40.1392C26.2995 40.1232 26.3162 40.1032 26.3285 40.0806C26.3407 40.0579 26.3483 40.0329 26.3506 40.0073C26.3529 39.9816 26.35 39.9557 26.3421 39.9312C26.3341 39.9067 26.3212 39.884 26.3043 39.8646C26.2873 39.8452 26.2665 39.8294 26.2433 39.8183C26.2201 39.8071 26.1948 39.8008 26.169 39.7997C26.1433 39.7986 26.1175 39.8028 26.0934 39.8119L25.9123 39.8708C25.8692 39.8848 25.8325 39.9137 25.8088 39.9523C25.7852 39.991 25.776 40.0368 25.7831 40.0816C25.7902 40.1263 25.813 40.1671 25.8474 40.1966C25.8818 40.2261 25.9257 40.2423 25.971 40.2423V40.2419Z" fill="#056C34"/>
<path d="M100.5 34.1667C103.998 34.1667 106.833 37.0022 106.833 40.5C106.833 43.9978 103.998 46.8333 100.5 46.8333C97.0022 46.8333 94.1667 43.9978 94.1667 40.5C94.1667 37.0022 97.0022 34.1667 100.5 34.1667ZM100.5 31C95.2614 31 91 35.2614 91 40.5C91 45.7386 95.2614 50 100.5 50C105.739 50 110 45.7386 110 40.5C110 35.2614 105.739 31 100.5 31Z" fill="#056C34"/>
<path d="M100.523 34.8088C99.3929 34.8088 98.2883 35.1439 97.3488 35.7717C96.4092 36.3995 95.6769 37.2918 95.2445 38.3358C94.812 39.3798 94.6989 40.5285 94.9194 41.6368C95.1398 42.7451 95.6839 43.7631 96.483 44.5621C97.282 45.3612 98.3 45.9053 99.4083 46.1258C100.517 46.3462 101.665 46.2331 102.709 45.8006C103.753 45.3682 104.646 44.6359 105.273 43.6964C105.901 42.7568 106.236 41.6522 106.236 40.5222C106.235 39.0074 105.632 37.5552 104.561 36.4841C103.49 35.413 102.038 34.8106 100.523 34.8088ZM105.124 37.8312C104.977 37.9553 104.821 38.0685 104.658 38.1698C104.324 37.5812 103.867 37.0708 103.32 36.6726C102.772 36.2744 102.146 35.9976 101.483 35.8607C101.529 35.6742 101.589 35.4912 101.661 35.3133C102.381 35.4719 103.06 35.7774 103.655 36.2107C104.251 36.6439 104.751 37.1957 105.124 37.8312ZM101.403 36.233C102.014 36.3586 102.591 36.6135 103.096 36.9805C103.601 37.3476 104.021 37.8182 104.329 38.361C103.905 38.5847 103.462 38.7699 103.005 38.9145C102.716 39.0076 102.464 39.0859 102.245 39.1495C102.211 39.1586 102.175 39.1582 102.142 39.1484C102.108 39.1386 102.078 39.1197 102.054 39.0938C101.871 38.8964 101.651 38.7364 101.407 38.6227C101.375 38.6084 101.347 38.5854 101.328 38.5563C101.308 38.5272 101.297 38.4932 101.296 38.4581C101.289 38.2306 101.285 37.9677 101.285 37.6655C101.281 37.1854 101.321 36.706 101.403 36.233ZM101.279 35.2442C101.007 36.0215 100.88 36.8422 100.904 37.6655C100.904 37.9721 100.908 38.2386 100.914 38.4692C100.918 38.5748 100.95 38.6775 101.009 38.7656C101.067 38.8537 101.149 38.9237 101.245 38.9678C101.445 39.0608 101.625 39.1917 101.775 39.3532C101.828 39.4112 101.893 39.4576 101.965 39.4893C102.037 39.5211 102.115 39.5376 102.194 39.5378C102.247 39.5378 102.301 39.53 102.352 39.5147C102.575 39.4498 102.828 39.3715 103.122 39.2769C103.913 39.0459 104.654 38.6715 105.309 38.1723C105.533 38.6264 105.69 39.1103 105.776 39.6092C104.952 39.5903 104.133 39.7233 103.357 40.0015C103.088 40.0885 102.832 40.176 102.596 40.2609C102.496 40.2967 102.409 40.3595 102.343 40.4423C102.278 40.5252 102.237 40.6247 102.225 40.7296C102.199 40.9481 102.13 41.1594 102.023 41.3516C101.97 41.4435 101.945 41.5483 101.949 41.654C101.953 41.7597 101.986 41.8622 102.045 41.95C102.188 42.1608 102.344 42.3825 102.51 42.6085C102.973 43.2885 103.558 43.8774 104.234 44.3456C103.872 44.698 103.461 44.9973 103.014 45.2346C102.779 44.4459 102.399 43.7078 101.894 43.0576C101.723 42.8203 101.559 42.6032 101.411 42.4122C101.346 42.329 101.259 42.2655 101.16 42.2288C101.061 42.1922 100.954 42.1839 100.851 42.2048C100.634 42.2465 100.412 42.2465 100.195 42.2048C100.092 42.1838 99.9846 42.1921 99.8857 42.2288C99.7868 42.2654 99.7 42.3289 99.6353 42.4122C99.4869 42.6026 99.3243 42.8203 99.1523 43.0576C98.6474 43.7079 98.2675 44.4462 98.0319 45.2351C97.5853 44.9978 97.1745 44.6985 96.8117 44.3461C97.4882 43.8781 98.0727 43.2895 98.5358 42.6097C98.7017 42.383 98.8581 42.1613 99.0007 41.9507C99.0598 41.863 99.0933 41.7605 99.0973 41.6548C99.1014 41.5491 99.0758 41.4443 99.0235 41.3523C98.9162 41.1602 98.8475 40.9489 98.8211 40.7303C98.8093 40.6254 98.7683 40.5258 98.7028 40.443C98.6373 40.3601 98.5499 40.2972 98.4505 40.2615C98.2142 40.1765 97.9578 40.0891 97.6887 40.0021C96.9134 39.724 96.0935 39.591 95.2701 39.6098C95.3562 39.1109 95.5135 38.627 95.7372 38.1729C96.3922 38.6721 97.1334 39.0466 97.9239 39.2774C98.2168 39.3727 98.4714 39.4504 98.6937 39.5153C98.7453 39.5306 98.7988 39.5384 98.8525 39.5383C98.9313 39.5381 99.0092 39.5216 99.0813 39.4899C99.1534 39.4581 99.2182 39.4118 99.2715 39.3538C99.4215 39.1922 99.6015 39.0613 99.8013 38.9682C99.8973 38.9241 99.9791 38.8542 100.037 38.7661C100.096 38.6781 100.128 38.5755 100.132 38.47C100.138 38.2386 100.142 37.9721 100.142 37.6655C100.166 36.8422 100.039 36.0215 99.7669 35.2442C100.268 35.1716 100.778 35.1716 101.279 35.2442ZM104.903 40.5222C104.904 41.6157 104.493 42.6695 103.752 43.4741C103.409 43.1398 103.096 42.7755 102.817 42.3855C102.654 42.1629 102.501 41.945 102.36 41.738C102.341 41.7086 102.33 41.6743 102.329 41.6391C102.328 41.6039 102.337 41.5692 102.355 41.5388C102.486 41.3034 102.57 41.0446 102.602 40.777C102.606 40.7423 102.619 40.7093 102.641 40.6817C102.662 40.6542 102.691 40.6332 102.724 40.6212C102.956 40.5376 103.209 40.4515 103.474 40.3655C103.929 40.2136 104.397 40.1029 104.871 40.0346C104.891 40.1964 104.902 40.3592 104.903 40.5222ZM102.332 44.509C101.764 44.7682 101.147 44.9024 100.523 44.9024C99.8986 44.9024 99.2816 44.7682 98.7137 44.509C98.9252 44.0781 99.175 43.6672 99.4602 43.2812C99.6299 43.0475 99.7899 42.8336 99.9364 42.6456C99.9583 42.6185 99.9874 42.5979 100.02 42.5861C100.053 42.5744 100.089 42.5719 100.123 42.579C100.387 42.6298 100.659 42.6298 100.923 42.579C100.957 42.5719 100.993 42.5744 101.026 42.5862C101.059 42.5981 101.088 42.6188 101.11 42.646C101.256 42.834 101.416 43.0479 101.586 43.2817C101.871 43.6675 102.121 44.0782 102.332 44.509ZM96.1739 40.0333C96.6486 40.1015 97.1162 40.2123 97.571 40.3643C97.8365 40.4502 98.0888 40.5357 98.3212 40.6199C98.354 40.6319 98.3828 40.6529 98.4043 40.6805C98.4258 40.708 98.4391 40.7411 98.4427 40.7759C98.4748 41.0435 98.5589 41.3023 98.6903 41.5376C98.708 41.5681 98.7168 41.6028 98.7158 41.638C98.7149 41.6732 98.7041 41.7074 98.6847 41.7368C98.5446 41.9439 98.3911 42.1617 98.2277 42.3844C97.9494 42.7748 97.6367 43.1395 97.2934 43.4741C96.8672 43.0169 96.5462 42.472 96.3528 41.8776C96.1594 41.2832 96.0984 40.6538 96.1739 40.0333ZM99.7611 37.6655C99.7611 37.9677 99.7571 38.2306 99.7505 38.4583C99.7492 38.4933 99.7382 38.5272 99.7187 38.5563C99.6991 38.5853 99.6718 38.6082 99.6398 38.6225C99.3955 38.7363 99.1756 38.8963 98.9923 39.0938C98.9687 39.1197 98.9385 39.1386 98.9049 39.1484C98.8713 39.1582 98.8357 39.1586 98.8019 39.1495C98.5823 39.0851 98.3307 39.0076 98.042 38.9146C97.5848 38.77 97.1415 38.5848 96.7175 38.361C97.0253 37.8183 97.4456 37.3477 97.9502 36.9807C98.4547 36.6137 99.0319 36.3587 99.6431 36.233C99.7253 36.706 99.7648 37.1854 99.7611 37.6655ZM99.3846 35.3133C99.4572 35.4912 99.5167 35.6742 99.5629 35.8607C98.8998 35.9976 98.2736 36.2744 97.7261 36.6726C97.1785 37.0708 96.7222 37.5812 96.3876 38.1698C96.2244 38.0684 96.0689 37.9552 95.9222 37.8312C96.2947 37.1957 96.7946 36.6439 97.3904 36.2107C97.9863 35.7774 98.6652 35.4719 99.3846 35.3133ZM95.2167 39.9948C95.4093 39.9807 95.6027 39.9807 95.7953 39.9948C95.7742 40.1699 95.763 40.3459 95.7618 40.5222C95.7597 41.7097 96.2039 42.8546 97.0062 43.73C96.86 43.8531 96.7051 43.9652 96.5426 44.0656C95.671 43.0912 95.1896 41.8295 95.1905 40.5222C95.1905 40.3441 95.1996 40.1683 95.2167 39.9948ZM98.3819 45.4044C98.4283 45.2181 98.4878 45.0352 98.56 44.8573C99.1763 45.138 99.8457 45.2833 100.523 45.2833C101.2 45.2833 101.87 45.138 102.486 44.8573C102.558 45.0352 102.618 45.2181 102.664 45.4044C101.989 45.7013 101.26 45.8546 100.523 45.8546C99.7858 45.8546 99.0567 45.7013 98.3819 45.4044ZM104.503 44.0656C104.341 43.9652 104.186 43.8531 104.04 43.73C104.842 42.8546 105.286 41.7097 105.284 40.5222C105.283 40.3458 105.272 40.1696 105.251 39.9945C105.443 39.9803 105.637 39.9803 105.829 39.9945C105.846 40.168 105.855 40.3437 105.855 40.5218C105.856 41.8293 105.375 43.0911 104.503 44.0656Z" fill="#056C34"/>
<path d="M99.5713 40.5218C99.5713 40.7101 99.6271 40.8942 99.7318 41.0508C99.8364 41.2074 99.9851 41.3295 100.159 41.4015C100.333 41.4736 100.525 41.4925 100.709 41.4557C100.894 41.419 101.064 41.3283 101.197 41.1951C101.33 41.062 101.421 40.8923 101.457 40.7076C101.494 40.5229 101.475 40.3314 101.403 40.1574C101.331 39.9834 101.209 39.8347 101.053 39.7301C100.896 39.6254 100.712 39.5696 100.524 39.5696C100.271 39.5699 100.029 39.6703 99.8505 39.8488C99.672 40.0273 99.5716 40.2694 99.5713 40.5218ZM101.095 40.5218C101.095 40.6348 101.061 40.7453 100.999 40.8392C100.936 40.9332 100.847 41.0064 100.742 41.0496C100.638 41.0929 100.523 41.1042 100.412 41.0822C100.301 41.0601 100.199 41.0057 100.12 40.9258C100.04 40.8459 99.9852 40.7441 99.9632 40.6333C99.9411 40.5224 99.9524 40.4076 99.9957 40.3032C100.039 40.1988 100.112 40.1095 100.206 40.0468C100.3 39.984 100.411 39.9505 100.524 39.9505C100.675 39.9505 100.82 40.0107 100.928 40.1178C101.035 40.225 101.095 40.3703 101.095 40.5218Z" fill="#056C34"/>
<path d="M100.522 39.1897C100.572 39.1897 100.621 39.1697 100.657 39.134C100.692 39.0982 100.712 39.0498 100.712 38.9993V38.8089C100.712 38.7583 100.692 38.7099 100.657 38.6742C100.621 38.6385 100.572 38.6184 100.522 38.6184C100.471 38.6184 100.423 38.6385 100.387 38.6742C100.352 38.7099 100.332 38.7583 100.332 38.8089V38.9993C100.332 39.0498 100.352 39.0982 100.387 39.134C100.423 39.1697 100.471 39.1897 100.522 39.1897Z" fill="#056C34"/>
<path d="M99.1319 39.8705L98.9508 39.8117C98.9267 39.8025 98.901 39.7984 98.8752 39.7995C98.8495 39.8006 98.8242 39.8069 98.8009 39.8181C98.7777 39.8292 98.757 39.845 98.74 39.8644C98.723 39.8838 98.7101 39.9064 98.7022 39.9309C98.6942 39.9555 98.6913 39.9813 98.6937 40.007C98.696 40.0327 98.7035 40.0576 98.7158 40.0803C98.728 40.103 98.7448 40.123 98.765 40.139C98.7852 40.155 98.8084 40.1668 98.8333 40.1735L99.0144 40.2324C99.0385 40.2415 99.0642 40.2457 99.09 40.2446C99.1158 40.2435 99.141 40.2371 99.1643 40.226C99.1875 40.2148 99.2083 40.1991 99.2252 40.1797C99.2422 40.1603 99.2551 40.1376 99.263 40.1131C99.271 40.0886 99.2739 40.0627 99.2716 40.037C99.2692 40.0113 99.2617 39.9864 99.2494 39.9637C99.2372 39.941 99.2204 39.9211 99.2002 39.9051C99.18 39.889 99.1568 39.8773 99.1319 39.8705Z" fill="#056C34"/>
<path d="M99.4735 41.6428L99.3616 41.7968C99.3319 41.8378 99.3196 41.8888 99.3276 41.9387C99.3355 41.9886 99.3629 42.0334 99.4038 42.0631C99.4447 42.0928 99.4958 42.105 99.5457 42.0971C99.5956 42.0892 99.6404 42.0617 99.6701 42.0208L99.7819 41.8667C99.7966 41.8465 99.8071 41.8235 99.813 41.7992C99.8188 41.7749 99.8198 41.7496 99.8159 41.7249C99.812 41.7002 99.8032 41.6765 99.7902 41.6552C99.7771 41.6338 99.7599 41.6153 99.7397 41.6006C99.7194 41.5859 99.6965 41.5753 99.6722 41.5695C99.6478 41.5636 99.6226 41.5626 99.5979 41.5666C99.5732 41.5705 99.5495 41.5792 99.5281 41.5923C99.5068 41.6054 99.4882 41.6225 99.4735 41.6428Z" fill="#056C34"/>
<path d="M101.307 41.6005C101.286 41.6152 101.269 41.6338 101.256 41.6552C101.243 41.6765 101.234 41.7003 101.23 41.7251C101.226 41.7498 101.227 41.7752 101.233 41.7995C101.239 41.8239 101.25 41.8469 101.265 41.8671L101.376 42.0212C101.391 42.0415 101.41 42.0586 101.431 42.0717C101.452 42.0848 101.476 42.0936 101.501 42.0975C101.526 42.1014 101.551 42.1004 101.575 42.0946C101.6 42.0888 101.622 42.0782 101.643 42.0635C101.663 42.0488 101.68 42.0302 101.693 42.0089C101.706 41.9875 101.715 41.9638 101.719 41.9391C101.723 41.9144 101.722 41.8891 101.716 41.8648C101.71 41.8405 101.7 41.8175 101.685 41.7972L101.573 41.6432C101.558 41.6229 101.54 41.6056 101.519 41.5925C101.497 41.5794 101.473 41.5706 101.449 41.5666C101.424 41.5626 101.399 41.5636 101.374 41.5694C101.35 41.5752 101.327 41.5858 101.307 41.6005Z" fill="#056C34"/>
<path d="M101.971 40.2419C101.991 40.2419 102.011 40.2388 102.03 40.2326L102.211 40.1738C102.236 40.167 102.259 40.1552 102.279 40.1392C102.299 40.1232 102.316 40.1032 102.328 40.0806C102.341 40.0579 102.348 40.0329 102.351 40.0073C102.353 39.9816 102.35 39.9557 102.342 39.9312C102.334 39.9067 102.321 39.884 102.304 39.8646C102.287 39.8452 102.267 39.8294 102.243 39.8183C102.22 39.8071 102.195 39.8008 102.169 39.7997C102.143 39.7986 102.118 39.8028 102.093 39.8119L101.912 39.8708C101.869 39.8848 101.833 39.9137 101.809 39.9523C101.785 39.991 101.776 40.0368 101.783 40.0816C101.79 40.1263 101.813 40.1671 101.847 40.1966C101.882 40.2261 101.926 40.2423 101.971 40.2423V40.2419Z" fill="#056C34"/>
<path d="M94.7163 5.70224C105.654 6.31087 113.929 7.37598 113.929 7.37598L114.514 7.9612L115.1 9.71687L121.537 22.0066L122.708 31.9553V39.5632C121.537 41.3189 112.173 41.9041 112.173 41.9041C112.173 41.9041 112.127 41.9041 112.056 41.91C112.133 41.3833 112.173 40.8449 112.173 40.2948C112.173 34.0739 107.129 29.0292 100.908 29.0292C94.687 29.0292 89.6424 34.0739 89.6424 40.2948C89.6424 41.2545 89.7594 42.185 89.9935 43.0687C84.8436 43.0278 56.5129 42.8171 35.8428 42.6591C36.0126 41.8983 36.0945 41.1082 36.0945 40.2948C36.0945 34.0739 31.0499 29.0292 24.8289 29.0292C18.608 29.0292 13.5634 34.0739 13.5634 40.2948C13.5634 41.0497 13.6395 41.7871 13.7799 42.5011L13.5634 42.4894L4.49244 41.9041L3.32199 40.7337C3.32199 40.1017 3.29273 39.4638 3.31029 38.8317C3.32785 38.2348 3.26932 37.6379 3.31029 37.0351C3.33955 36.5259 3.32199 35.9934 3.71995 35.6188C3.88381 35.4667 4.03011 35.2911 4.18812 35.1273C4.33443 34.9692 4.47488 34.8171 4.51 34.6006C4.54511 34.384 4.49829 34.1499 4.49829 33.9217C4.49829 33.5354 4.49829 33.1492 4.49829 32.7688C4.49829 31.5457 4.49829 30.3167 4.48074 29.0936C4.47488 28.6605 4.43392 28.2392 4.60363 27.8295C4.80261 27.3555 5.36442 27.1156 5.79164 26.8932C6.42368 26.5654 7.08498 26.2904 7.75213 26.027C9.56633 25.3189 11.4332 24.722 13.2942 24.1602C19.9423 22.1412 27.9072 20.2567 27.9072 20.2567L30.8333 19.0863L56.5773 7.37598C67.5853 4.92975 82.7485 5.03509 94.7163 5.70224Z" stroke="#056C34" stroke-linecap="round" stroke-linejoin="round"/>
<path opacity="0.22" d="M118.383 38.188C118.225 38.2289 118.061 38.2523 117.903 38.2699C117.124 38.3635 116.346 38.4513 115.568 38.545C115.275 38.5801 114.965 38.6093 114.702 38.4747C114.304 38.264 114.187 37.7666 114.087 37.3277C112.846 31.8266 107.726 27.4374 102.102 27.0512C96.4778 26.6649 90.807 30.305 88.8172 35.5837C88.1676 37.316 87.8867 39.1594 87.6058 40.9912C87.5766 41.196 87.5414 41.4125 87.6058 41.6115C72.1091 41.6115 56.6124 41.6115 41.1157 41.6115C40.589 41.6115 40.0447 41.6115 39.5707 41.3833C39.0733 41.1492 38.7163 40.6927 38.4295 40.2245C37.7624 39.1419 37.3644 37.8954 37.2825 36.6254C37.2532 36.2275 37.1596 35.613 37.5926 35.3965C37.8033 35.2911 38.055 35.2911 38.2891 35.2736C38.6402 35.2501 38.9913 35.2209 39.3483 35.1916C40.7587 35.0804 42.1632 34.94 43.5678 34.7761C44.9723 34.6123 46.371 34.425 47.7697 34.2084C49.1684 33.9919 50.5612 33.7578 51.9482 33.4886C53.3351 33.2194 54.7221 32.9385 56.1033 32.6225C56.39 32.5581 56.6826 32.4879 56.9694 32.4235C68.9489 29.6027 80.5129 24.9151 92.7148 23.2706C100.955 22.1587 109.312 22.463 117.616 22.7907C117.944 22.8024 118.295 22.8259 118.547 23.0307C118.886 23.3057 118.921 23.8032 118.933 24.2421C119.015 28.3972 119.091 32.5581 119.173 36.7132C119.179 37.1463 119.173 37.632 118.857 37.9363C118.728 38.0651 118.564 38.1353 118.383 38.1821V38.188Z" fill="url(#paint0_linear_2747_149)"/>
<path d="M55.1141 10.0095C55.6993 9.74027 57.2326 9.18431 58.6254 8.7688V20.7483L35.8954 22.8083C35.591 22.8259 35.2926 22.6737 35.1346 22.4045C34.6547 21.5735 34.6313 20.9824 34.6079 19.8471C34.602 19.7534 34.6547 19.6657 34.7425 19.6247L55.1141 10.0095Z" fill="#056C34"/>
<path d="M93.7391 7.6687V17.6175L60.3813 20.6431V8.44705C60.8729 8.33 61.2884 8.25392 61.5518 8.25392L93.7391 7.6687Z" fill="#056C34"/>
<path d="M111.296 17.6175H95.4946V7.6687L106.011 8.18955C107.773 8.27733 109.282 9.6292 109.768 11.5487L111.302 17.6233L111.296 17.6175Z" fill="#056C34"/>
<line x1="55" y1="23.5" x2="59" y2="23.5" stroke="#056C34"/>
<path d="M120.234 26.25L119.801 19.7513L121.76 22.1023L122.221 26.25H120.234Z" fill="#B0190C" stroke="#056C34" stroke-width="0.5"/>
</g>
<defs>
<linearGradient id="paint0_linear_2747_149" x1="78.2136" y1="22.4888" x2="78.2136" y2="41.6115" gradientUnits="userSpaceOnUse">
<stop stop-color="#046C34"/>
<stop offset="1" stop-opacity="0"/>
</linearGradient>
<clipPath id="clip0_2747_149">
<rect width="120" height="44.951" fill="white" transform="translate(3 5)"/>
</clipPath>
</defs>
</svg>
