<svg width="20" height="20" viewBox="0 0 20 20" fill="none" xmlns="http://www.w3.org/2000/svg">
<path d="M5.49997 1.00036L2.79999 1.00036C2.3226 1.00036 1.86477 1.19 1.5272 1.52756C1.18964 1.86513 0.999999 2.32296 0.999999 2.80035L0.999999 9.10031C0.999999 9.57769 1.18964 10.0355 1.5272 10.3731C1.86477 10.7107 2.3226 10.9003 2.79999 10.9003L5.49997 10.9003M11.7999 12.7003L11.7999 16.3003C11.7999 17.0163 11.5155 17.7031 11.0091 18.2094C10.5028 18.7158 9.81603 19.0002 9.09995 19.0002L5.49997 10.9003L5.49997 1.00036L15.6519 1.00036C16.086 0.99545 16.5072 1.14759 16.838 1.42875C17.1688 1.70991 17.3868 2.10114 17.4519 2.53035L18.6939 10.6303C18.733 10.8883 18.7156 11.1517 18.6429 11.4023C18.5701 11.6529 18.4438 11.8846 18.2726 12.0815C18.1013 12.2784 17.8894 12.4357 17.6513 12.5426C17.4133 12.6494 17.1548 12.7032 16.8939 12.7003L11.7999 12.7003Z" stroke="#191919" stroke-opacity="0.5" stroke-width="1.4" stroke-linecap="round" stroke-linejoin="round"/>
</svg>
